<svg width="146" height="144" viewBox="0 0 146 144" fill="none" xmlns="http://www.w3.org/2000/svg">
<path d="M71.0303 112.34C71.0303 127.22 66.3403 139.83 45.7803 139.83V142.31H100.07V139.83C79.5103 139.83 74.8203 127.22 74.8203 112.34" stroke="#F9959D" stroke-width="3" stroke-miterlimit="10"/>
<path d="M110.899 30.2598H34.9395V65.3799H110.899V30.2598Z" stroke="#F9959D" stroke-width="3" stroke-miterlimit="10"/>
<path d="M130.59 65.3799H15.25V112.34H130.59V65.3799Z" stroke="#F9959D" stroke-width="3" stroke-miterlimit="10"/>
<path d="M31.7299 65.4297C31.7684 66.5353 31.5839 67.6372 31.1874 68.6699C30.7909 69.7027 30.1905 70.6457 29.422 71.4414C28.6535 72.2372 27.7328 72.8695 26.7145 73.3018C25.6962 73.734 24.6012 73.957 23.495 73.957C22.3887 73.957 21.2938 73.734 20.2755 73.3018C19.2572 72.8695 18.3362 72.2372 17.5677 71.4414C16.7992 70.6457 16.1989 69.7027 15.8024 68.6699C15.4059 67.6372 15.2214 66.5353 15.2599 65.4297" stroke="#F9959D" stroke-width="3" stroke-miterlimit="10"/>
<path d="M48.2104 65.4297C48.2104 67.6151 47.3424 69.7115 45.7971 71.2568C44.2518 72.8021 42.1558 73.6699 39.9705 73.6699C37.7851 73.6699 35.6893 72.8021 34.144 71.2568C32.5987 69.7115 31.7305 67.6151 31.7305 65.4297" stroke="#F9959D" stroke-width="3" stroke-miterlimit="10"/>
<path d="M64.6899 65.4297C64.6899 67.6151 63.8219 69.7115 62.2766 71.2568C60.7313 72.8021 58.6353 73.6699 56.45 73.6699C54.2646 73.6699 52.1688 72.8021 50.6235 71.2568C49.0782 69.7115 48.21 67.6151 48.21 65.4297" stroke="#F9959D" stroke-width="3" stroke-miterlimit="10"/>
<path d="M81.1694 65.4297C81.1694 67.6151 80.3014 69.7115 78.7561 71.2568C77.2108 72.8021 75.1148 73.6699 72.9294 73.6699C70.7441 73.6699 68.6483 72.8021 67.103 71.2568C65.5577 69.7115 64.6895 67.6151 64.6895 65.4297" stroke="#F9959D" stroke-width="3" stroke-miterlimit="10"/>
<path d="M97.6403 65.4297C97.6788 66.5353 97.4943 67.6372 97.0978 68.6699C96.7013 69.7027 96.1009 70.6457 95.3324 71.4414C94.5639 72.2372 93.6429 72.8695 92.6246 73.3018C91.6063 73.734 90.5114 73.957 89.4051 73.957C88.2989 73.957 87.204 73.734 86.1857 73.3018C85.1673 72.8695 84.2464 72.2372 83.4779 71.4414C82.7094 70.6457 82.109 69.7027 81.7125 68.6699C81.316 67.6372 81.1315 66.5353 81.17 65.4297" stroke="#F9959D" stroke-width="3" stroke-miterlimit="10"/>
<path d="M114.121 65.4297C114.121 67.6151 113.252 69.7115 111.707 71.2568C110.162 72.8021 108.066 73.6699 105.881 73.6699C103.695 73.6699 101.599 72.8021 100.054 71.2568C98.5087 69.7115 97.6406 67.6151 97.6406 65.4297" stroke="#F9959D" stroke-width="3" stroke-miterlimit="10"/>
<path d="M130.6 65.4297C130.6 67.6151 129.732 69.7115 128.187 71.2568C126.641 72.8021 124.545 73.6699 122.36 73.6699C120.175 73.6699 118.079 72.8021 116.533 71.2568C114.988 69.7115 114.12 67.6151 114.12 65.4297" stroke="#F9959D" stroke-width="3" stroke-miterlimit="10"/>
<path d="M48.2095 30.2598C48.2101 31.7995 47.7794 33.3088 46.9661 34.6162C46.1527 35.9236 44.9892 36.9764 43.6077 37.6562C42.2261 38.3361 40.6818 38.6161 39.1497 38.4629C37.6176 38.3097 36.159 37.7299 34.9395 36.79" stroke="#F9959D" stroke-width="3" stroke-miterlimit="10"/>
<path d="M64.6899 30.2598C64.6899 32.4451 63.8219 34.5416 62.2766 36.0869C60.7313 37.6322 58.6353 38.5 56.45 38.5C54.2646 38.5 52.1688 37.6322 50.6235 36.0869C49.0782 34.5416 48.21 32.4451 48.21 30.2598" stroke="#F9959D" stroke-width="3" stroke-miterlimit="10"/>
<path d="M81.1694 30.2598C81.1694 32.4451 80.3014 34.5416 78.7561 36.0869C77.2108 37.6322 75.1148 38.5 72.9294 38.5C70.7441 38.5 68.6483 37.6322 67.103 36.0869C65.5577 34.5416 64.6895 32.4451 64.6895 30.2598" stroke="#F9959D" stroke-width="3" stroke-miterlimit="10"/>
<path d="M97.6403 30.2598C97.6788 31.3653 97.4943 32.4672 97.0978 33.5C96.7013 34.5328 96.1009 35.4757 95.3324 36.2715C94.5639 37.0672 93.6429 37.6996 92.6246 38.1318C91.6063 38.5641 90.5114 38.7871 89.4051 38.7871C88.2989 38.7871 87.204 38.5641 86.1857 38.1318C85.1673 37.6996 84.2464 37.0672 83.4779 36.2715C82.7094 35.4757 82.109 34.5328 81.7125 33.5C81.316 32.4672 81.1315 31.3653 81.17 30.2598" stroke="#F9959D" stroke-width="3" stroke-miterlimit="10"/>
<path d="M110.911 36.79C109.691 37.7299 108.233 38.3097 106.7 38.4629C105.168 38.6161 103.624 38.3361 102.242 37.6562C100.861 36.9764 99.6974 35.9236 98.884 34.6162C98.0707 33.3088 97.64 31.7995 97.6406 30.2598" stroke="#F9959D" stroke-width="3" stroke-miterlimit="10"/>
<path d="M15.25 88.6904H130.6" stroke="#F9959D" stroke-width="3" stroke-miterlimit="10"/>
<path d="M15.25 94.2002H130.6" stroke="#F9959D" stroke-width="3" stroke-miterlimit="10"/>
<path d="M0.280273 112.34H145.57" stroke="#F9959D" stroke-width="3" stroke-miterlimit="10"/>
<path d="M88.7896 9.66016C84.5866 11.7583 79.7228 12.1021 75.2661 10.6172C70.8094 9.13225 67.1241 5.93998 65.0195 1.74023C62.9198 1.74288 60.9068 2.57779 59.4221 4.0625C57.9374 5.54721 57.1023 7.56045 57.0996 9.66016C57.0996 19.5502 72.9495 26.0996 72.9495 26.0996C72.9495 26.0996 88.7896 19.5502 88.7896 9.66016Z" stroke="#F9959D" stroke-width="3" stroke-miterlimit="10"/>
</svg>
