<svg width="127" height="136" viewBox="0 0 127 136" fill="none" xmlns="http://www.w3.org/2000/svg">
<path d="M123.83 62.2197H4.01025C3.09898 62.2197 2.36035 62.9588 2.36035 63.8701V132.23C2.36035 133.142 3.09898 133.88 4.01025 133.88H123.83C124.742 133.88 125.48 133.142 125.48 132.23V63.8701C125.48 62.9588 124.742 62.2197 123.83 62.2197Z" stroke="#F9959D" stroke-width="3" stroke-miterlimit="10"/>
<path d="M32.7798 72.25H12.5198C12.0559 72.25 11.6797 72.6259 11.6797 73.0898V86.2402C11.6797 86.7042 12.0559 87.0801 12.5198 87.0801H32.7798C33.2437 87.0801 33.6199 86.7042 33.6199 86.2402V73.0898C33.6199 72.6259 33.2437 72.25 32.7798 72.25Z" stroke="#F9959D" stroke-width="3" stroke-miterlimit="10"/>
<path d="M63.9202 122.84C76.446 122.84 86.6003 112.686 86.6003 100.16C86.6003 87.6343 76.446 77.4805 63.9202 77.4805C51.3943 77.4805 41.2402 87.6343 41.2402 100.16C41.2402 112.686 51.3943 122.84 63.9202 122.84Z" stroke="#F9959D" stroke-width="3" stroke-miterlimit="10"/>
<path d="M63.9298 116.45C60.7075 116.452 57.5572 115.499 54.877 113.71C52.1968 111.921 50.1071 109.377 48.8726 106.401C47.6381 103.424 47.3143 100.149 47.9417 96.9884C48.5691 93.8278 50.1197 90.9239 52.3975 88.6447C54.6753 86.3655 57.5779 84.8131 60.7381 84.1837C63.8983 83.5544 67.1743 83.8769 70.1514 85.1095C73.1286 86.3422 75.6733 88.4295 77.4637 91.1085C79.2541 93.7876 80.2098 96.938 80.2098 100.16C80.2071 104.478 78.4915 108.618 75.4393 111.672C72.3871 114.726 68.2476 116.445 63.9298 116.45Z" stroke="#F9959D" stroke-width="3" stroke-miterlimit="10"/>
<path d="M90.6206 62.2197H37.2305L41.4504 51.46H86.4004L90.6206 62.2197Z" stroke="#F9959D" stroke-width="3" stroke-miterlimit="10"/>
<path d="M112.901 62.2197H102.141V56.8398C102.141 55.413 102.707 54.0451 103.716 53.0361C104.725 52.0272 106.094 51.46 107.521 51.46C108.947 51.46 110.316 52.0272 111.325 53.0361C112.334 54.0451 112.901 55.413 112.901 56.8398V62.2197Z" stroke="#F9959D" stroke-width="3" stroke-miterlimit="10"/>
<path d="M88.2207 19.79H39.6304C38.9511 19.79 38.4004 20.3402 38.4004 21.0195V43.3496C38.4004 44.0289 38.9511 44.5801 39.6304 44.5801H88.2207C88.9 44.5801 89.4507 44.0289 89.4507 43.3496V21.0195C89.4507 20.3402 88.9 19.79 88.2207 19.79Z" stroke="#F9959D" stroke-width="3" stroke-miterlimit="10"/>
<path d="M38.4004 33.3398H46.1504L52.1504 28.8096L58.2407 33.4004L64.1406 28.9502L69.9507 33.3398L76.0405 28.75L81.7007 33.0195H89.4507" stroke="#F9959D" stroke-width="3" stroke-miterlimit="10"/>
<path d="M17.9805 29.6299L28.7305 30.0898" stroke="#F9959D" stroke-width="3" stroke-miterlimit="10"/>
<path d="M19.54 11.7803L30.3501 18.2803" stroke="#F9959D" stroke-width="3" stroke-miterlimit="10"/>
<path d="M33.2197 0.799805L38.6697 10.0703" stroke="#F9959D" stroke-width="3" stroke-miterlimit="10"/>
</svg>
