<svg width="150" height="157" viewBox="0 0 150 157" fill="none" xmlns="http://www.w3.org/2000/svg">
<path d="M41.8698 28.3896L31.1696 64.7197C26.5696 80.3597 31.3298 90.38 40.0898 92.96C48.8498 95.54 58.2698 89.6998 62.8798 74.0498L73.5697 37.7197L41.8698 28.3896Z" stroke="#F9959D" stroke-width="3" stroke-miterlimit="10"/>
<path d="M38.3899 92.46C38.3899 92.46 33.7898 107.72 29.7898 121C25.7898 134.28 21.3597 145.26 2.95972 139.85L2.2998 142.07L44.8799 154.6L45.5298 152.38C27.1298 146.96 29.2597 135.38 33.1897 122C37.1197 108.62 41.7498 93.4199 41.7498 93.4199" stroke="#F9959D" stroke-width="3" stroke-miterlimit="10"/>
<path d="M32.8896 58.8799H67.3396" stroke="#F9959D" stroke-width="3" stroke-miterlimit="10"/>
<path d="M52.79 2.12988C50.0504 2.12988 47.4228 3.21802 45.4856 5.15527C43.5483 7.09252 42.46 9.72027 42.46 12.46C42.46 15.1996 43.5483 17.8274 45.4856 19.7646C47.4228 21.7019 50.0504 22.79 52.79 22.79C55.5297 22.79 58.1572 21.7019 60.0945 19.7646C62.0317 17.8274 63.1201 15.1996 63.1201 12.46C63.1201 9.72027 62.0317 7.09252 60.0945 5.15527C58.1572 3.21802 55.5297 2.12988 52.79 2.12988Z" stroke="#F9959D" stroke-width="3" stroke-miterlimit="10"/>
<path d="M13.21 48.9805C18.9151 48.9805 23.54 44.3555 23.54 38.6504C23.54 32.9453 18.9151 28.3203 13.21 28.3203C7.50486 28.3203 2.87988 32.9453 2.87988 38.6504C2.87988 44.3555 7.50486 48.9805 13.21 48.9805Z" stroke="#F9959D" stroke-width="3" stroke-miterlimit="10"/>
<path d="M30.9598 22.8096C30.9617 23.1229 30.8706 23.4301 30.6978 23.6914C30.5249 23.9528 30.2782 24.1566 29.989 24.2774C29.6999 24.3982 29.3814 24.4308 29.074 24.3701C28.7666 24.3095 28.4843 24.1591 28.2627 23.9375C28.0412 23.716 27.8903 23.4334 27.8296 23.126C27.769 22.8186 27.8013 22.5001 27.9222 22.211C28.043 21.9219 28.247 21.6748 28.5083 21.502C28.7697 21.3291 29.0766 21.2383 29.3899 21.2403C29.8063 21.2403 30.2056 21.4058 30.5 21.7002C30.7945 21.9947 30.9598 22.3932 30.9598 22.8096Z" stroke="#F9959D" stroke-width="3" stroke-miterlimit="10"/>
<path d="M17.7301 10.8896C17.6985 11.2857 17.5191 11.6553 17.2272 11.9248C16.9353 12.1943 16.5524 12.3447 16.1551 12.3447C15.7578 12.3447 15.3753 12.1943 15.0834 11.9248C14.7915 11.6553 14.6118 11.2857 14.5802 10.8896C14.5629 10.6723 14.5907 10.4541 14.662 10.248C14.7333 10.042 14.8463 9.8526 14.9943 9.69238C15.1422 9.53217 15.3218 9.40483 15.5216 9.31738C15.7214 9.22994 15.9371 9.18457 16.1551 9.18457C16.3732 9.18457 16.5889 9.22994 16.7887 9.31738C16.9885 9.40483 17.1681 9.53217 17.316 9.69238C17.464 9.8526 17.577 10.042 17.6483 10.248C17.7196 10.4541 17.7474 10.6723 17.7301 10.8896Z" stroke="#F9959D" stroke-width="3" stroke-miterlimit="10"/>
<path d="M7.64048 62.5401C7.64245 62.8534 7.55112 63.1605 7.37827 63.4219C7.20542 63.6833 6.95889 63.887 6.66977 64.0078C6.38066 64.1287 6.06191 64.1603 5.75449 64.0996C5.44707 64.039 5.16478 63.8886 4.94321 63.667C4.72164 63.4455 4.571 63.1629 4.51035 62.8555C4.44971 62.5481 4.48181 62.2296 4.60264 61.9405C4.72346 61.6513 4.92746 61.4053 5.18882 61.2325C5.45017 61.0596 5.75707 60.9678 6.07041 60.9698C6.4868 60.9698 6.88608 61.1353 7.18052 61.4297C7.47495 61.7242 7.64048 62.1237 7.64048 62.5401Z" stroke="#F9959D" stroke-width="3" stroke-miterlimit="10"/>
<path d="M88.3006 48.1905C88.3026 48.5038 88.2113 48.81 88.0384 49.0713C87.8656 49.3327 87.619 49.5374 87.3299 49.6582C87.0408 49.7791 86.7223 49.8107 86.4149 49.75C86.1075 49.6894 85.8249 49.539 85.6034 49.3174C85.3818 49.0958 85.2312 48.8133 85.1705 48.5059C85.1099 48.1985 85.142 47.88 85.2628 47.5909C85.3836 47.3017 85.5876 47.0547 85.849 46.8819C86.1103 46.709 86.4172 46.6182 86.7306 46.6201C86.9367 46.6201 87.1409 46.6604 87.3314 46.7393C87.5219 46.8182 87.6949 46.9343 87.8407 47.0801C87.9865 47.2259 88.1021 47.3984 88.181 47.5889C88.2599 47.7794 88.3006 47.9843 88.3006 48.1905Z" stroke="#F9959D" stroke-width="3" stroke-miterlimit="10"/>
<path d="M95.4999 61C95.4999 61.3125 95.4071 61.6181 95.2335 61.878C95.0599 62.1378 94.8132 62.3404 94.5245 62.46C94.2358 62.5796 93.9182 62.6108 93.6117 62.5498C93.3052 62.4889 93.0236 62.3382 92.8026 62.1172C92.5816 61.8963 92.4312 61.6151 92.3702 61.3086C92.3093 61.0021 92.3405 60.6842 92.4601 60.3955C92.5797 60.1068 92.7823 59.8602 93.0421 59.6866C93.3019 59.5129 93.6073 59.42 93.9198 59.42C94.1276 59.4186 94.3339 59.4582 94.5262 59.5371C94.7185 59.6161 94.8932 59.7329 95.0401 59.8799C95.1871 60.0269 95.3035 60.2013 95.3824 60.3936C95.4614 60.5859 95.5012 60.7922 95.4999 61Z" stroke="#F9959D" stroke-width="3" stroke-miterlimit="10"/>
<path d="M41.2899 82.6905C41.2899 83.003 41.1972 83.3076 41.0235 83.5674C40.8499 83.8272 40.6033 84.0299 40.3146 84.1494C40.0258 84.269 39.7082 84.3003 39.4017 84.2393C39.0952 84.1783 38.8136 84.0286 38.5926 83.8076C38.3717 83.5867 38.2212 83.3046 38.1603 82.9981C38.0993 82.6916 38.1305 82.3737 38.2501 82.085C38.3697 81.7963 38.5723 81.5496 38.8321 81.376C39.092 81.2024 39.3973 81.1104 39.7098 81.1104C39.9177 81.1091 40.1237 81.1486 40.316 81.2276C40.5083 81.3065 40.6832 81.4224 40.8302 81.5694C40.9772 81.7164 41.0933 81.8917 41.1722 82.084C41.2512 82.2763 41.2912 82.4826 41.2899 82.6905Z" stroke="#F9959D" stroke-width="3" stroke-miterlimit="10"/>
<path d="M51.62 84.2598C51.6373 84.4771 51.6095 84.6963 51.5382 84.9023C51.4669 85.1084 51.3536 85.2968 51.2057 85.457C51.0577 85.6172 50.8784 85.7456 50.6786 85.833C50.4788 85.9205 50.2629 85.9658 50.0448 85.9658C49.8267 85.9658 49.611 85.9205 49.4113 85.833C49.2115 85.7456 49.0321 85.6172 48.8842 85.457C48.7362 85.2968 48.6229 85.1084 48.5516 84.9023C48.4803 84.6963 48.4525 84.4771 48.4698 84.2598C48.5014 83.8637 48.6811 83.4941 48.973 83.2246C49.2649 82.9551 49.6475 82.8057 50.0448 82.8057C50.4421 82.8057 50.8249 82.9551 51.1168 83.2246C51.4087 83.4941 51.5884 83.8637 51.62 84.2598Z" stroke="#F9959D" stroke-width="3" stroke-miterlimit="10"/>
<path d="M97.0702 53.5C97.0721 53.8134 96.9808 54.1205 96.808 54.3819C96.6351 54.6432 96.3886 54.847 96.0995 54.9678C95.8104 55.0886 95.4918 55.1212 95.1844 55.0606C94.877 54.9999 94.5945 54.8486 94.3729 54.627C94.1513 54.4054 94.0007 54.1229 93.94 53.8155C93.8794 53.508 93.9115 53.1895 94.0323 52.9004C94.1531 52.6113 94.3571 52.3653 94.6185 52.1924C94.8799 52.0196 95.1868 51.9277 95.5001 51.9297C95.9165 51.9297 96.3158 52.0952 96.6102 52.3897C96.9046 52.6841 97.0702 53.0836 97.0702 53.5Z" stroke="#F9959D" stroke-width="3" stroke-miterlimit="10"/>
<path d="M50.0399 73.5401C50.0419 73.8534 49.9505 74.1605 49.7777 74.4219C49.6048 74.6833 49.3583 74.887 49.0692 75.0078C48.7801 75.1287 48.4616 75.1603 48.1541 75.0996C47.8467 75.039 47.5642 74.8886 47.3426 74.667C47.1211 74.4455 46.9704 74.1629 46.9098 73.8555C46.8491 73.5481 46.8812 73.2296 47.0021 72.9405C47.1229 72.6513 47.3269 72.4053 47.5882 72.2325C47.8496 72.0596 48.1565 71.9678 48.4698 71.9698C48.8862 71.9698 49.2855 72.1353 49.5799 72.4297C49.8744 72.7242 50.0399 73.1237 50.0399 73.5401Z" stroke="#F9959D" stroke-width="3" stroke-miterlimit="10"/>
<path d="M66.8594 18.4199L80.9893 53.5596C87.0793 68.6896 96.9893 73.5604 105.489 70.1904C113.989 66.8204 117.739 56.3504 111.659 41.1904L97.5293 6.05957L66.8594 18.4199Z" stroke="#F9959D" stroke-width="3" stroke-miterlimit="10"/>
<path d="M103.85 70.8496C103.85 70.8496 109.67 85.6998 114.85 98.5898C120.03 111.48 123.269 122.85 105.469 130.01L106.33 132.16L147.51 115.6L146.65 113.45C128.85 120.61 123.31 110.15 118.13 97.2695C112.95 84.3895 107.13 69.5303 107.13 69.5303" stroke="#F9959D" stroke-width="3" stroke-miterlimit="10"/>
<path d="M76.1895 41.6104H111.66" stroke="#F9959D" stroke-width="3" stroke-miterlimit="10"/>
</svg>
