<svg width="78" height="141" viewBox="0 0 78 141" fill="none" xmlns="http://www.w3.org/2000/svg">
<path d="M72.1694 88.8896H65.4695C65.4695 88.8896 61.6895 114.35 61.6895 118.72C61.6895 129.72 63.8096 138.63 68.8196 138.63C73.8296 138.63 75.9595 129.72 75.9595 118.72C75.9595 114.35 72.1694 88.8896 72.1694 88.8896Z" stroke="#F9959D" stroke-width="3" stroke-miterlimit="10"/>
<path d="M70.6499 69.2691H65.5999C64.6299 69.2691 63.6692 69.0781 62.7732 68.7066C61.8772 68.3351 61.0634 67.7904 60.3779 67.1041C59.6925 66.4177 59.1491 65.6031 58.7788 64.7066C58.4085 63.8101 58.2184 62.8494 58.2197 61.8794V29.8794C58.2187 20.0696 61.2506 10.4999 66.8999 2.48003C67.1507 2.12016 67.5099 1.84914 67.9251 1.70757C68.3402 1.566 68.7896 1.56126 69.208 1.69292C69.6264 1.82459 69.9919 2.08618 70.2512 2.44C70.5105 2.79381 70.6504 3.22106 70.6499 3.65972V69.2691Z" stroke="#F9959D" stroke-width="3" stroke-miterlimit="10"/>
<path d="M66.9902 69.2695V88.8896" stroke="#F9959D" stroke-width="3" stroke-miterlimit="10"/>
<path d="M70.6504 69.2695V88.8896" stroke="#F9959D" stroke-width="3" stroke-miterlimit="10"/>
<path d="M63.5703 101.67H74.0605" stroke="#F9959D" stroke-width="3" stroke-miterlimit="10"/>
<path d="M1.90039 11.2598V35.6396C1.90039 46.1496 6.66028 51.4697 12.5403 51.4697C18.4203 51.4697 23.1802 46.1496 23.1802 35.6396V11.2598" stroke="#F9959D" stroke-width="3" stroke-miterlimit="10"/>
<path d="M15.8904 88.8896H9.19019C9.19019 88.8896 5.40039 114.35 5.40039 118.72C5.40039 129.72 7.53028 138.63 12.5403 138.63C17.5503 138.63 19.6802 129.72 19.6802 118.72C19.6802 114.35 15.8904 88.8896 15.8904 88.8896Z" stroke="#F9959D" stroke-width="3" stroke-miterlimit="10"/>
<path d="M10.71 51.5596V88.8896" stroke="#F9959D" stroke-width="3" stroke-miterlimit="10"/>
<path d="M14.3604 51.5596V88.8896" stroke="#F9959D" stroke-width="3" stroke-miterlimit="10"/>
<path d="M8.16992 101.67H18.6599" stroke="#F9959D" stroke-width="3" stroke-miterlimit="10"/>
<path d="M8.99023 11.2598V32.96" stroke="#F9959D" stroke-width="3" stroke-miterlimit="10"/>
<path d="M16.0801 11.2598V32.96" stroke="#F9959D" stroke-width="3" stroke-miterlimit="10"/>
<path d="M1.88965 31.8496H23.1797" stroke="#F9959D" stroke-width="3" stroke-miterlimit="10"/>
</svg>
