<svg width="168" height="130" viewBox="0 0 168 130" fill="none" xmlns="http://www.w3.org/2000/svg">
<path d="M151.387 86.198C160.094 62.3548 147.823 35.968 123.98 27.2615C100.137 18.5551 73.7502 30.8259 65.0437 54.6691C56.3373 78.5122 68.6079 104.899 92.451 113.605C116.294 122.312 142.681 110.041 151.387 86.198Z" stroke="#F9959D" stroke-width="3" stroke-miterlimit="10"/>
<path d="M140.44 55.6108C143.221 61.9903 144.048 69.0511 142.817 75.9008C141.585 82.7505 138.351 89.0809 133.521 94.0922C128.692 99.1035 122.485 102.571 115.686 104.055C108.887 105.539 101.8 104.974 95.3218 102.43C88.8437 99.8867 83.2653 95.4797 79.2918 89.766C75.3183 84.0523 73.128 77.2888 72.9983 70.3305C72.8686 63.3722 74.8052 56.5311 78.563 50.6733C82.3208 44.8154 87.7311 40.2034 94.1099 37.4203C102.666 33.6902 112.353 33.5112 121.041 36.9223C129.729 40.3334 136.707 47.0558 140.44 55.6108Z" stroke="#F9959D" stroke-width="3" stroke-miterlimit="10"/>
<path d="M84.3203 109C78.9568 116.106 71.6463 121.503 63.2759 124.536C54.9055 127.569 45.8348 128.108 37.1641 126.088C28.4934 124.067 20.5954 119.573 14.4282 113.152C8.26107 106.731 4.08983 98.6579 2.42042 89.9127C0.751017 81.1676 1.65526 72.1267 5.02345 63.8854C8.39163 55.6441 14.0789 48.5566 21.3955 43.484C28.7121 38.4115 37.3436 35.5718 46.2427 35.3083C55.1418 35.0447 63.9263 37.369 71.5303 41.9997" stroke="#F9959D" stroke-width="3" stroke-miterlimit="10"/>
<path d="M80.0098 48.5801C86.5301 55.0443 90.9669 63.3114 92.749 72.3184C94.5312 81.3253 93.5771 90.6599 90.0098 99.1201" stroke="#F9959D" stroke-width="3" stroke-miterlimit="10"/>
<path d="M75.7901 102.34C71.6988 107.798 66.1096 111.949 59.7024 114.288C53.2953 116.628 46.3463 117.054 39.701 115.517C33.0556 113.979 27.0003 110.543 22.2718 105.627C17.5432 100.711 14.3453 94.5273 13.0669 87.8273C11.7885 81.1273 12.485 74.2003 15.0713 67.8888C17.6576 61.5773 22.0225 56.1538 27.6348 52.2775C33.2471 48.4011 39.865 46.239 46.6834 46.0548C53.5018 45.8707 60.2267 47.6726 66.0401 51.2404" stroke="#F9959D" stroke-width="3" stroke-miterlimit="10"/>
<path d="M74.7305 58.7402C78.4853 63.2595 81.0514 68.645 82.1953 74.4082C83.3392 80.1714 83.0247 86.1295 81.2805 91.7402" stroke="#F9959D" stroke-width="3" stroke-miterlimit="10"/>
<path d="M77.5903 7.07031L74.1504 17.8096L84.5903 29.8203" stroke="#F9959D" stroke-width="3" stroke-miterlimit="10"/>
<path d="M83.7407 13.6299L102.25 5.55957L89.2407 1.99023L80.3506 5.86035L71.4604 9.74023L65.2305 21.7002L83.7407 13.6299Z" stroke="#F9959D" stroke-width="3" stroke-miterlimit="10"/>
<path d="M98.9507 24.25L102.25 5.55957L83.7407 13.6299L65.2305 21.7002L81.1704 32.0098" stroke="#F9959D" stroke-width="3" stroke-miterlimit="10"/>
<path d="M83.1201 4.66016L93.3301 9.4502L95.02 25.2695" stroke="#F9959D" stroke-width="3" stroke-miterlimit="10"/>
</svg>
