<svg width="147" height="145" viewBox="0 0 147 145" fill="none" xmlns="http://www.w3.org/2000/svg">
<path d="M71.5195 113.06C71.5195 127.94 66.8295 140.55 46.2695 140.55V143.03H100.56V140.55C79.9995 140.55 75.3095 127.94 75.3095 113.06" stroke="#AD8955" stroke-width="2.82" stroke-miterlimit="10"/>
<path d="M111.39 30.9805H35.4297V66.0996H111.39V30.9805Z" stroke="#AD8955" stroke-width="2.82" stroke-miterlimit="10"/>
<path d="M131.08 66.0996H15.7402V113.06H131.08V66.0996Z" stroke="#AD8955" stroke-width="2.82" stroke-miterlimit="10"/>
<path d="M32.2201 66.1504C32.2586 67.256 32.0742 68.3579 31.6777 69.3906C31.2812 70.4234 30.6808 71.3654 29.9123 72.1611C29.1438 72.9569 28.2229 73.5902 27.2046 74.0225C26.1863 74.4547 25.0914 74.6768 23.9851 74.6768C22.8789 74.6768 21.7839 74.4547 20.7656 74.0225C19.7473 73.5902 18.8264 72.9569 18.0579 72.1611C17.2895 71.3654 16.6891 70.4234 16.2926 69.3906C15.8961 68.3579 15.7116 67.256 15.7501 66.1504" stroke="#AD8955" stroke-width="2.82" stroke-miterlimit="10"/>
<path d="M48.6997 66.1504C48.6997 68.3358 47.8316 70.4313 46.2863 71.9766C44.741 73.5219 42.6451 74.3896 40.4597 74.3896C38.2744 74.3896 36.1785 73.5219 34.6332 71.9766C33.0879 70.4313 32.2197 68.3358 32.2197 66.1504" stroke="#AD8955" stroke-width="2.82" stroke-miterlimit="10"/>
<path d="M65.1802 66.1504C65.1802 68.3358 64.3121 70.4313 62.7668 71.9766C61.2215 73.5219 59.1256 74.3896 56.9402 74.3896C54.7548 74.3896 52.6589 73.5219 51.1136 71.9766C49.5683 70.4313 48.7002 68.3358 48.7002 66.1504" stroke="#AD8955" stroke-width="2.82" stroke-miterlimit="10"/>
<path d="M81.6597 66.1504C81.6597 68.3358 80.7915 70.4313 79.2462 71.9766C77.7009 73.5219 75.6051 74.3896 73.4197 74.3896C71.2343 74.3896 69.1384 73.5219 67.5931 71.9766C66.0478 70.4313 65.1797 68.3358 65.1797 66.1504" stroke="#AD8955" stroke-width="2.82" stroke-miterlimit="10"/>
<path d="M98.1303 66.1504C98.1688 67.256 97.9843 68.3579 97.5878 69.3906C97.1913 70.4234 96.5909 71.3654 95.8224 72.1611C95.0539 72.9569 94.1331 73.5902 93.1148 74.0225C92.0965 74.4547 91.0015 74.6768 89.8953 74.6768C88.789 74.6768 87.6941 74.4547 86.6758 74.0225C85.6575 73.5902 84.7366 72.9569 83.9681 72.1611C83.1996 71.3654 82.5992 70.4234 82.2027 69.3906C81.8062 68.3579 81.6217 67.256 81.6603 66.1504" stroke="#AD8955" stroke-width="2.82" stroke-miterlimit="10"/>
<path d="M114.61 66.1504C114.61 68.3358 113.742 70.4313 112.196 71.9766C110.651 73.5219 108.555 74.3896 106.37 74.3896C104.184 74.3896 102.089 73.5219 100.543 71.9766C98.998 70.4313 98.1299 68.3358 98.1299 66.1504" stroke="#AD8955" stroke-width="2.82" stroke-miterlimit="10"/>
<path d="M131.09 66.1504C131.09 68.3358 130.222 70.4313 128.677 71.9766C127.132 73.5219 125.036 74.3896 122.85 74.3896C120.665 74.3896 118.569 73.5219 117.024 71.9766C115.478 70.4313 114.61 68.3358 114.61 66.1504" stroke="#AD8955" stroke-width="2.82" stroke-miterlimit="10"/>
<path d="M48.6997 31C48.7003 32.5397 48.2695 34.0491 47.4561 35.3564C46.6428 36.6638 45.4794 37.7167 44.0978 38.3965C42.7163 39.0763 41.172 39.3553 39.6399 39.2021C38.1078 39.049 36.6493 38.4702 35.4297 37.5303" stroke="#AD8955" stroke-width="2.82" stroke-miterlimit="10"/>
<path d="M65.1802 31C65.1802 33.1854 64.3121 35.2809 62.7668 36.8262C61.2215 38.3715 59.1256 39.2402 56.9402 39.2402C54.7548 39.2402 52.6589 38.3715 51.1136 36.8262C49.5683 35.2809 48.7002 33.1854 48.7002 31" stroke="#AD8955" stroke-width="2.82" stroke-miterlimit="10"/>
<path d="M81.6597 31C81.6597 33.1854 80.7915 35.2809 79.2462 36.8262C77.7009 38.3715 75.6051 39.2402 73.4197 39.2402C71.2343 39.2402 69.1384 38.3715 67.5931 36.8262C66.0478 35.2809 65.1797 33.1854 65.1797 31" stroke="#AD8955" stroke-width="2.82" stroke-miterlimit="10"/>
<path d="M98.1303 31C98.1688 32.1056 97.9843 33.2075 97.5878 34.2402C97.1913 35.273 96.5909 36.215 95.8224 37.0107C95.0539 37.8065 94.1331 38.4398 93.1148 38.8721C92.0965 39.3043 91.0015 39.5273 89.8953 39.5273C88.789 39.5273 87.6941 39.3043 86.6758 38.8721C85.6575 38.4398 84.7366 37.8065 83.9681 37.0107C83.1996 36.215 82.5992 35.273 82.2027 34.2402C81.8062 33.2075 81.6217 32.1056 81.6603 31" stroke="#AD8955" stroke-width="2.82" stroke-miterlimit="10"/>
<path d="M111.4 37.5098C110.18 38.4497 108.722 39.0294 107.19 39.1826C105.658 39.3358 104.113 39.0568 102.732 38.377C101.35 37.6971 100.187 36.6433 99.3734 35.3359C98.56 34.0286 98.1293 32.5202 98.1299 30.9805" stroke="#AD8955" stroke-width="2.82" stroke-miterlimit="10"/>
<path d="M15.7402 89.4199H131.09" stroke="#AD8955" stroke-width="2.82" stroke-miterlimit="10"/>
<path d="M15.7402 94.9297H131.09" stroke="#AD8955" stroke-width="2.82" stroke-miterlimit="10"/>
<path d="M0.769531 113.06H146.06" stroke="#AD8955" stroke-width="2.82" stroke-miterlimit="10"/>
<path d="M89.2704 10.3896C89.3083 9.32524 89.1313 8.26405 88.75 7.26953C88.3688 6.27502 87.7911 5.36794 87.0515 4.60156C86.3118 3.83518 85.4254 3.22588 84.445 2.80957C83.4647 2.39326 82.4105 2.17871 81.3454 2.17871C80.2803 2.17871 79.2262 2.39326 78.2458 2.80957C77.2655 3.22588 76.379 3.83518 75.6394 4.60156C74.8998 5.36794 74.3221 6.27502 73.9409 7.26953C73.5596 8.26405 73.3826 9.32524 73.4204 10.3896C73.4583 9.32524 73.2813 8.26405 72.9 7.26953C72.5188 6.27502 71.9411 5.36794 71.2015 4.60156C70.4618 3.83518 69.5754 3.22588 68.595 2.80957C67.6147 2.39326 66.5605 2.17871 65.4954 2.17871C64.4303 2.17871 63.3762 2.39326 62.3958 2.80957C61.4155 3.22588 60.529 3.83518 59.7894 4.60156C59.0498 5.36794 58.4721 6.27502 58.0908 7.26953C57.7096 8.26405 57.5326 9.32524 57.5704 10.3896C57.5704 20.2696 73.4204 26.8203 73.4204 26.8203C73.4204 26.8203 89.2704 20.2696 89.2704 10.3896Z" stroke="#AD8955" stroke-width="2.82" stroke-miterlimit="10"/>
</svg>
