<svg width="127" height="136" viewBox="0 0 127 136" fill="none" xmlns="http://www.w3.org/2000/svg">
<path d="M123.32 62.9404H3.49963C2.58836 62.9404 1.84961 63.6786 1.84961 64.5898V132.95C1.84961 133.861 2.58836 134.6 3.49963 134.6H123.32C124.231 134.6 124.97 133.861 124.97 132.95V64.5898C124.97 63.6786 124.231 62.9404 123.32 62.9404Z" stroke="#AD8955" stroke-width="2.82" stroke-linecap="round" stroke-linejoin="round"/>
<path d="M32.27 72.9697H12.0099C11.546 72.9697 11.1699 73.3457 11.1699 73.8096V86.96C11.1699 87.4239 11.546 87.7998 12.0099 87.7998H32.27C32.7339 87.7998 33.1099 87.4239 33.1099 86.96V73.8096C33.1099 73.3457 32.7339 72.9697 32.27 72.9697Z" stroke="#AD8955" stroke-width="2.82" stroke-linecap="round" stroke-linejoin="round"/>
<path d="M63.4202 123.57C75.946 123.57 86.1002 113.415 86.1002 100.89C86.1002 88.3638 75.946 78.21 63.4202 78.21C50.8944 78.21 40.7402 88.3638 40.7402 100.89C40.7402 113.415 50.8944 123.57 63.4202 123.57Z" stroke="#AD8955" stroke-width="2.82" stroke-linecap="round" stroke-linejoin="round"/>
<path d="M63.4201 117.17C60.1974 117.172 57.0465 116.218 54.3661 114.429C51.6857 112.639 49.5962 110.095 48.3621 107.118C47.1279 104.141 46.8044 100.865 47.4326 97.7041C48.0609 94.5432 49.6126 91.6401 51.8914 89.3613C54.1701 87.0825 57.0737 85.5305 60.2346 84.9023C63.3954 84.2741 66.6716 84.5978 69.6486 85.832C72.6257 87.0662 75.1697 89.1555 76.9589 91.8359C78.7481 94.5163 79.7021 97.6669 79.7001 100.89C79.6948 105.206 77.9779 109.344 74.926 112.395C71.874 115.447 67.7362 117.165 63.4201 117.17Z" stroke="#AD8955" stroke-width="2.82" stroke-linecap="round" stroke-linejoin="round"/>
<path d="M90.1097 62.9404H36.7197L40.9398 52.1797H85.8898L90.1097 62.9404Z" stroke="#AD8955" stroke-width="2.82" stroke-linecap="round" stroke-linejoin="round"/>
<path d="M112.39 62.9404H101.63V57.5596C101.63 56.8535 101.769 56.1551 102.04 55.5029C102.31 54.8508 102.707 54.2586 103.206 53.7598C103.706 53.261 104.299 52.865 104.952 52.5957C105.604 52.3264 106.304 52.1891 107.01 52.1904C107.716 52.1891 108.415 52.3264 109.068 52.5957C109.721 52.865 110.314 53.261 110.814 53.7598C111.313 54.2586 111.71 54.8508 111.98 55.5029C112.251 56.1551 112.39 56.8535 112.39 57.5596V62.9404Z" stroke="#AD8955" stroke-width="2.82" stroke-linecap="round" stroke-linejoin="round"/>
<path d="M87.7097 20.5098H39.1196C38.4403 20.5098 37.8896 21.0609 37.8896 21.7402V44.0703C37.8896 44.7496 38.4403 45.2998 39.1196 45.2998H87.7097C88.389 45.2998 88.9396 44.7496 88.9396 44.0703V21.7402C88.9396 21.0609 88.389 20.5098 87.7097 20.5098Z" stroke="#AD8955" stroke-width="2.82" stroke-linecap="round" stroke-linejoin="round"/>
<path d="M37.8896 34.0596H45.6396L51.6396 29.5303L57.7296 34.1299L63.6296 29.6699L69.4396 34.0703L75.5297 29.4697L81.1896 33.7402H88.9396" stroke="#AD8955" stroke-width="2.82" stroke-linecap="round" stroke-linejoin="round"/>
<path d="M17.4697 30.3496L28.2197 30.8203" stroke="#AD8955" stroke-width="2.82" stroke-linecap="round" stroke-linejoin="round"/>
<path d="M19.0303 12.5098L29.8403 19.0098" stroke="#AD8955" stroke-width="2.82" stroke-linecap="round" stroke-linejoin="round"/>
<path d="M32.71 1.51953L38.1599 10.7998" stroke="#AD8955" stroke-width="2.82" stroke-linecap="round" stroke-linejoin="round"/>
</svg>
