<svg width="149" height="157" viewBox="0 0 149 157" fill="none" xmlns="http://www.w3.org/2000/svg">
<path d="M41.3599 28.1104L30.6599 64.4404C26.0599 80.0904 30.8199 90.0997 39.5799 92.6797C48.3399 95.2597 57.7598 89.4195 62.3698 73.7695L73.0598 37.4502L41.3599 28.1104Z" stroke="#AD8955" stroke-width="2.82" stroke-miterlimit="10"/>
<path d="M37.8801 92.1797C37.8801 92.1797 33.2401 107.44 29.3101 120.77C25.3801 134.1 20.8801 145.03 2.48009 139.61L1.83008 141.83L44.4001 154.36L45.0501 152.14C26.6501 146.72 28.7901 135.14 32.7101 121.77C36.6301 108.4 41.2701 93.1797 41.2701 93.1797" stroke="#AD8955" stroke-width="2.82" stroke-miterlimit="10"/>
<path d="M32.3799 58.5996H66.8299" stroke="#AD8955" stroke-width="2.82" stroke-miterlimit="10"/>
<path d="M52.2303 1.86047C49.5476 1.94397 47.0027 3.06804 45.1345 4.99524C43.2664 6.92244 42.2217 9.50065 42.2217 12.1847C42.2217 14.8687 43.2664 17.4479 45.1345 19.3751C47.0027 21.3023 49.5476 22.4264 52.2303 22.5099C53.6133 22.5529 54.9907 22.318 56.281 21.8185C57.5713 21.319 58.7481 20.5657 59.7416 19.6027C60.735 18.6396 61.5249 17.4862 62.0643 16.212C62.6037 14.9379 62.8817 13.5683 62.8817 12.1847C62.8817 10.8011 62.6037 9.43245 62.0643 8.15833C61.5249 6.8842 60.735 5.73072 59.7416 4.7677C58.7481 3.80468 57.5713 3.05139 56.281 2.55188C54.9907 2.05237 53.6133 1.81743 52.2303 1.86047Z" stroke="#AD8955" stroke-width="2.82" stroke-linecap="round" stroke-linejoin="round"/>
<path d="M12.7001 48.71C18.4052 48.71 23.0302 44.085 23.0302 38.3799C23.0302 32.6748 18.4052 28.0498 12.7001 28.0498C6.99503 28.0498 2.37012 32.6748 2.37012 38.3799C2.37012 44.085 6.99503 48.71 12.7001 48.71Z" stroke="#AD8955" stroke-width="2.82" stroke-linecap="round" stroke-linejoin="round"/>
<path d="M30.45 22.5303C30.452 22.8436 30.3607 23.1498 30.1879 23.4112C30.015 23.6725 29.7684 23.8773 29.4793 23.9981C29.1902 24.1189 28.8717 24.1505 28.5642 24.0899C28.2568 24.0292 27.9744 23.8788 27.7528 23.6573C27.5312 23.4357 27.3806 23.1532 27.3199 22.8457C27.2593 22.5383 27.2914 22.2198 27.4122 21.9307C27.5331 21.6416 27.7371 21.3946 27.9985 21.2217C28.2598 21.0489 28.5667 20.958 28.88 20.96C29.2964 20.96 29.6957 21.1255 29.9902 21.42C30.2846 21.7144 30.45 22.1139 30.45 22.5303Z" fill="#AD8955"/>
<path d="M17.2204 10.6104C17.1888 11.0064 17.0092 11.376 16.7173 11.6455C16.4255 11.915 16.0427 12.0645 15.6454 12.0645C15.2481 12.0645 14.8654 11.915 14.5735 11.6455C14.2816 11.376 14.102 11.0064 14.0704 10.6104C14.0531 10.393 14.0809 10.1739 14.1522 9.96777C14.2235 9.76168 14.3367 9.57232 14.4846 9.41211C14.6326 9.2519 14.8121 9.12455 15.0119 9.03711C15.2116 8.94967 15.4274 8.9043 15.6454 8.9043C15.8635 8.9043 16.0792 8.94967 16.279 9.03711C16.4788 9.12455 16.6583 9.2519 16.8062 9.41211C16.9542 9.57232 17.0673 9.76168 17.1386 9.96777C17.2099 10.1739 17.2378 10.393 17.2204 10.6104Z" fill="#AD8955"/>
<path d="M7.1297 62.2598C7.13167 62.5731 7.04045 62.8803 6.8676 63.1416C6.69475 63.403 6.44809 63.6067 6.15898 63.7276C5.86987 63.8484 5.55136 63.881 5.24394 63.8203C4.93652 63.7597 4.65408 63.6083 4.43251 63.3868C4.21094 63.1652 4.06025 62.8836 3.9996 62.5762C3.93896 62.2688 3.97109 61.9503 4.09192 61.6612C4.21274 61.3721 4.4168 61.125 4.67816 60.9522C4.93952 60.7793 5.24637 60.6885 5.55971 60.6905C5.9761 60.6905 6.37543 60.855 6.66986 61.1494C6.96429 61.4439 7.1297 61.8434 7.1297 62.2598Z" fill="#AD8955"/>
<path d="M87.7898 47.9199C87.7582 48.316 87.5786 48.6855 87.2867 48.9551C86.9948 49.2246 86.612 49.374 86.2147 49.374C85.8174 49.374 85.4347 49.2246 85.1428 48.9551C84.851 48.6855 84.6713 48.316 84.6398 47.9199C84.6224 47.7025 84.6503 47.4844 84.7216 47.2783C84.7928 47.0722 84.906 46.8829 85.054 46.7227C85.2019 46.5624 85.3814 46.4341 85.5812 46.3467C85.781 46.2592 85.9967 46.2148 86.2147 46.2148C86.4328 46.2148 86.6486 46.2592 86.8483 46.3467C87.0481 46.4341 87.2276 46.5624 87.3755 46.7227C87.5235 46.8829 87.6367 47.0722 87.7079 47.2783C87.7792 47.4844 87.8071 47.7025 87.7898 47.9199Z" fill="#AD8955"/>
<path d="M94.9901 60.6905C94.9901 61.003 94.8974 61.3076 94.7238 61.5674C94.5502 61.8272 94.3034 62.0299 94.0147 62.1494C93.726 62.269 93.4083 62.3003 93.1018 62.2393C92.7953 62.1783 92.5138 62.0286 92.2928 61.8076C92.0719 61.5867 91.9214 61.3046 91.8604 60.9981C91.7995 60.6916 91.8308 60.3737 91.9503 60.085C92.0699 59.7963 92.2724 59.5496 92.5323 59.376C92.7921 59.2024 93.0976 59.1104 93.4101 59.1104C93.6179 59.1091 93.824 59.1486 94.0163 59.2276C94.2086 59.3065 94.3833 59.4224 94.5303 59.5694C94.6773 59.7164 94.7936 59.8917 94.8725 60.084C94.9514 60.2763 94.9914 60.4826 94.9901 60.6905Z" fill="#AD8955"/>
<path d="M40.7899 82.4102C40.7899 82.7227 40.6972 83.0283 40.5236 83.2881C40.35 83.5479 40.1032 83.7506 39.8145 83.8701C39.5258 83.9897 39.2081 84.021 38.9016 83.96C38.5951 83.899 38.3136 83.7483 38.0926 83.5274C37.8717 83.3064 37.7212 83.0243 37.6602 82.7178C37.5993 82.4113 37.6306 82.0944 37.7501 81.8057C37.8697 81.517 38.0723 81.2703 38.3321 81.0967C38.5919 80.9231 38.8974 80.8301 39.2099 80.8301C39.4178 80.8288 39.6238 80.8684 39.8161 80.9473C40.0084 81.0262 40.1831 81.1431 40.3301 81.2901C40.4771 81.4371 40.5934 81.6114 40.6723 81.8037C40.7513 81.996 40.7912 82.2023 40.7899 82.4102Z" fill="#AD8955"/>
<path d="M51.1101 84C51.1274 84.2174 51.0995 84.4365 51.0283 84.6426C50.957 84.8487 50.8438 85.0371 50.6959 85.1973C50.5479 85.3575 50.3684 85.4858 50.1686 85.5732C49.9689 85.6607 49.7531 85.7061 49.5351 85.7061C49.317 85.7061 49.1013 85.6607 48.9015 85.5732C48.7017 85.4858 48.5222 85.3575 48.3743 85.1973C48.2263 85.0371 48.1132 84.8487 48.0419 84.6426C47.9706 84.4365 47.9427 84.2174 47.9601 84C47.9917 83.604 48.1713 83.2344 48.4632 82.9648C48.755 82.6953 49.1378 82.5459 49.5351 82.5459C49.9324 82.5459 50.3151 82.6953 50.607 82.9648C50.8988 83.2344 51.0785 83.604 51.1101 84Z" fill="#AD8955"/>
<path d="M96.5603 53.2305C96.5287 53.6265 96.3491 53.9961 96.0572 54.2656C95.7653 54.5352 95.3826 54.6846 94.9853 54.6846C94.588 54.6846 94.2053 54.5352 93.9134 54.2656C93.6215 53.9961 93.4419 53.6265 93.4103 53.2305C93.3929 53.0131 93.4208 52.794 93.4921 52.5879C93.5634 52.3818 93.6765 52.1924 93.8245 52.0322C93.9724 51.872 94.1519 51.7447 94.3517 51.6572C94.5515 51.5698 94.7672 51.5244 94.9853 51.5244C95.2034 51.5244 95.4191 51.5698 95.6188 51.6572C95.8186 51.7447 95.9981 51.872 96.1461 52.0322C96.294 52.1924 96.4072 52.3818 96.4785 52.5879C96.5498 52.794 96.5776 53.0131 96.5603 53.2305Z" fill="#AD8955"/>
<path d="M49.53 73.2695C49.4984 73.6656 49.3188 74.0361 49.0269 74.3057C48.735 74.5752 48.3523 74.7246 47.955 74.7246C47.5577 74.7246 47.175 74.5752 46.8831 74.3057C46.5912 74.0361 46.4116 73.6656 46.38 73.2695C46.3627 73.0521 46.3905 72.834 46.4618 72.6279C46.5331 72.4218 46.6463 72.2325 46.7942 72.0723C46.9422 71.9121 47.1217 71.7847 47.3214 71.6973C47.5212 71.6098 47.7369 71.5645 47.955 71.5645C48.1731 71.5645 48.3888 71.6098 48.5886 71.6973C48.7883 71.7847 48.9678 71.9121 49.1158 72.0723C49.2637 72.2325 49.3769 72.4218 49.4482 72.6279C49.5195 72.834 49.5473 73.0521 49.53 73.2695Z" fill="#AD8955"/>
<path d="M66.3496 18.1504L80.4796 53.2803C86.5696 68.4103 96.4796 73.2802 104.99 69.9102C113.5 66.5402 117.23 56.0802 111.15 40.9102L97.0196 5.76953L66.3496 18.1504Z" stroke="#AD8955" stroke-width="2.82" stroke-miterlimit="10"/>
<path d="M103.34 70.5703C103.34 70.5703 109.16 85.4296 114.34 98.3096C119.52 111.19 122.76 122.57 104.96 129.73L105.83 131.88L147 115.32L146.14 113.17C128.34 120.33 122.8 109.88 117.62 96.9902C112.44 84.1002 106.62 69.25 106.62 69.25" stroke="#AD8955" stroke-width="2.82" stroke-miterlimit="10"/>
<path d="M75.6797 41.3301H111.15" stroke="#AD8955" stroke-width="2.82" stroke-miterlimit="10"/>
</svg>
