<svg width="78" height="141" viewBox="0 0 78 141" fill="none" xmlns="http://www.w3.org/2000/svg">
<path d="M72.6597 89.6201H65.9597C65.9597 89.6201 62.1797 115.07 62.1797 119.45C62.1797 130.45 64.2997 139.35 69.3097 139.35C74.3197 139.35 76.4497 130.44 76.4497 119.45C76.4497 115.07 72.6597 89.6201 72.6597 89.6201Z" stroke="#AD8955" stroke-width="2.82" stroke-miterlimit="10"/>
<path d="M71.14 70.0004H66.0899C65.1199 70.0004 64.1595 69.8094 63.2634 69.4379C62.3674 69.0664 61.5534 68.5218 60.868 67.8354C60.1825 67.149 59.6391 66.3345 59.2688 65.4379C58.8985 64.5414 58.7087 63.5808 58.71 62.6108V30.6108C58.7075 20.7976 61.7393 11.2236 67.39 3.20064C67.6413 2.84005 68.0013 2.56953 68.4175 2.42818C68.8337 2.28683 69.2841 2.28156 69.7031 2.41451C70.122 2.54745 70.4875 2.81101 70.746 3.16646C71.0045 3.52191 71.1425 3.95058 71.14 4.39009V70.0004Z" stroke="#AD8955" stroke-width="2.82" stroke-miterlimit="10"/>
<path d="M67.4805 69.9902V89.6201" stroke="#AD8955" stroke-width="2.82" stroke-miterlimit="10"/>
<path d="M71.1396 69.9902V89.6201" stroke="#AD8955" stroke-width="2.82" stroke-miterlimit="10"/>
<path d="M64.0596 102.4H74.5596" stroke="#AD8955" stroke-width="2.82" stroke-miterlimit="10"/>
<path d="M2.38965 12V36.3896C2.38965 46.8896 7.14963 52.21 13.0296 52.21C18.9096 52.21 23.6696 46.8896 23.6696 36.3896V12" stroke="#AD8955" stroke-width="2.82" stroke-miterlimit="10"/>
<path d="M16.3796 89.6201H9.67966C9.67966 89.6201 5.88965 115.07 5.88965 119.45C5.88965 130.45 8.01963 139.35 13.0296 139.35C18.0396 139.35 20.1696 130.44 20.1696 119.45C20.1696 115.07 16.3796 89.6201 16.3796 89.6201Z" stroke="#AD8955" stroke-width="2.82" stroke-miterlimit="10"/>
<path d="M11.2002 52.29V89.6201" stroke="#AD8955" stroke-width="2.82" stroke-miterlimit="10"/>
<path d="M14.8496 52.29V89.6201" stroke="#AD8955" stroke-width="2.82" stroke-miterlimit="10"/>
<path d="M8.66016 102.4H19.1502" stroke="#AD8955" stroke-width="2.82" stroke-miterlimit="10"/>
<path d="M9.48047 11.9805V33.6797" stroke="#AD8955" stroke-width="2.82" stroke-miterlimit="10"/>
<path d="M16.5703 11.9805V33.6797" stroke="#AD8955" stroke-width="2.82" stroke-miterlimit="10"/>
<path d="M2.37988 32.5703H23.6699" stroke="#AD8955" stroke-width="2.82" stroke-miterlimit="10"/>
</svg>
