<svg width="106" height="97" viewBox="0 0 106 97" fill="none" xmlns="http://www.w3.org/2000/svg">
<path d="M13.0604 54.61C12.4376 55.1957 12.0689 56.0019 12.0334 56.8561C11.9979 57.7103 12.2983 58.5444 12.8704 59.1798C13.2157 59.5538 13.6455 59.8398 14.1239 60.0138C14.6023 60.1878 15.1154 60.2446 15.6204 60.1798C15.6194 60.1965 15.6194 60.2132 15.6204 60.2299V60.6998C15.6204 61.3798 15.6204 62.0498 15.6204 62.6998C15.6204 63.6398 15.6203 64.5799 15.6703 65.5199C15.6703 66.1099 15.7303 66.6999 15.7703 67.2899C15.8103 67.8799 15.8404 68.2899 15.8704 68.7999C15.9004 69.3099 16.0203 70.0198 16.0403 70.6398C16.0403 70.8498 16.0403 71.0499 16.0403 71.2599C15.9569 71.842 15.8434 72.4195 15.7003 72.9899C15.7003 72.9899 15.7003 72.9898 15.7003 72.9298C15.5303 73.5798 15.3504 74.23 15.1804 74.87L14.9103 75.87L14.8004 76.2499C14.8004 76.3699 14.7503 76.48 14.7203 76.6C14.6903 76.72 14.7203 76.7199 14.7203 76.7799C14.6303 77.4399 14.5103 78.0999 14.4003 78.7799C14.3103 79.2599 14.2003 79.7798 14.0803 80.2098C13.9603 80.6398 13.6603 80.8699 13.4603 81.2098C13.1103 81.7598 12.7603 82.3 12.3903 82.83L11.9703 83.4098C11.8583 83.5596 11.7381 83.7033 11.6104 83.84C11.3404 84.12 11.0603 84.3798 10.7803 84.6398L10.0203 85.36C9.69032 85.68 9.35032 85.9899 9.02032 86.2999C8.28032 86.9899 7.53033 87.6599 6.78033 88.2999L6.22034 88.7199H6.13037C6.003 88.7897 5.9042 88.902 5.8512 89.0372C5.7982 89.1725 5.79433 89.3221 5.84033 89.4598V89.5199L0.110352 93.6698L0.580322 94.2098L1.43036 95.1598L2.28033 96.1598C3.59033 95.1598 4.88037 94.16 6.13037 93.1C6.58037 92.71 7.04036 92.3399 7.49036 91.9699L8.09033 91.4699C8.52226 91.093 8.93294 90.6924 9.32037 90.2699C9.38544 90.1982 9.45559 90.1315 9.53033 90.07C9.81033 89.98 10.0703 89.8599 10.3303 89.7499L10.9904 89.4799C11.4404 89.2999 11.8803 89.1098 12.3403 88.9398C13.2303 88.5898 14.1203 88.2398 15.0303 87.9398L20.4803 86.08L21.9203 85.5599L22.8604 85.4498C23.4804 85.3998 24.1103 85.3798 24.7303 85.3798H26.7903C27.4503 85.3798 28.1103 85.3299 28.7903 85.2799C29.4703 85.2299 30.2504 85.1299 30.9904 85.0499L31.3204 85.1398L32.0303 85.36C32.4003 85.47 32.7803 85.5998 33.1503 85.6998C33.5203 85.7998 33.9803 85.9499 34.4103 86.0499L35.7103 86.37L36.5403 86.62L37.0004 86.7699L37.5803 86.9899L38.3704 87.2799C38.7204 87.4099 39.0704 87.5298 39.4304 87.6398C40.0204 87.8298 40.6203 88.0098 41.2103 88.2098L42.1003 88.5099C42.4303 88.6199 42.7503 88.74 43.1003 88.84C43.1177 88.8474 43.1364 88.8512 43.1553 88.8512C43.1742 88.8512 43.1929 88.8474 43.2103 88.84C43.3537 88.9703 43.5318 89.0561 43.723 89.087C43.9143 89.118 44.1104 89.0927 44.2875 89.0143C44.4647 88.9359 44.6153 88.8077 44.721 88.6454C44.8267 88.483 44.8829 88.2937 44.8829 88.1C44.8829 87.9063 44.8267 87.7167 44.721 87.5543C44.6153 87.392 44.4647 87.2638 44.2875 87.1854C44.1104 87.1071 43.9143 87.0817 43.723 87.1127C43.5318 87.1437 43.3537 87.2297 43.2103 87.36C43.0987 87.4672 43.0135 87.5988 42.9615 87.7445C42.9094 87.8903 42.8919 88.0462 42.9103 88.1998H42.8004L42.2703 87.9899C41.6503 87.7299 41.0203 87.4598 40.3903 87.2098C39.7603 86.9598 39.1003 86.7199 38.4503 86.4899L37.9003 86.2999L37.3104 86.1L36.8503 85.9799L36.4003 85.87L35.8704 85.7499L35.2803 85.6398L34.3604 85.4699L32.7103 85.09L32.2404 84.9799L33.0103 84.8998C33.8103 84.8098 34.6103 84.7699 35.4103 84.7499H37.4103C37.8303 84.7499 38.2503 84.7499 38.6603 84.7499C39.0703 84.7499 39.2903 84.7499 39.6003 84.7499C40.2803 84.6999 40.9703 84.66 41.6603 84.57C42.3503 84.48 43.0803 84.3999 43.7903 84.2999L44.8804 84.1398H45.0504H44.9603L45.6703 84.0399H45.7903L46.4803 83.9498H46.6104H46.7603H46.9603H46.7903L47.1703 83.87H47.4304C48.0804 83.87 48.7204 83.8698 49.3704 83.9498C50.0561 83.9998 50.7446 83.9998 51.4304 83.9498C52.1873 83.9128 52.9259 83.7044 53.5903 83.34L53.8303 83.1898L54.6703 83.0299L55.7404 82.84C56.4618 82.7271 57.1763 82.5733 57.8804 82.3798C58.0476 82.3269 58.2112 82.2635 58.3704 82.1898C58.62 82.0898 58.8402 81.9281 59.0103 81.7199C59.1947 81.7471 59.3829 81.7274 59.5577 81.6627C59.7324 81.5981 59.8881 81.4906 60.0103 81.35C60.204 81.1155 60.2979 80.8144 60.2717 80.5114C60.2455 80.2084 60.1014 79.9276 59.8704 79.7299C59.6516 79.5496 59.4173 79.389 59.1703 79.2499C58.9366 79.0936 58.6694 78.9943 58.3903 78.9598H58.1003C57.8984 78.9789 57.707 79.059 57.5516 79.1893C57.3963 79.3197 57.2842 79.4943 57.2303 79.6898C56.7195 79.643 56.2047 79.6666 55.7003 79.7599C55.0364 79.9261 54.3926 80.1641 53.7803 80.4699C53.2703 80.6999 52.7803 80.9698 52.2603 81.1998L51.8604 81.34L51.3704 81.4398C50.6868 81.5233 49.999 81.5668 49.3104 81.57H49.4703C48.7152 81.5731 47.9608 81.6164 47.2103 81.6998C46.4803 81.7898 45.7603 81.8698 45.0303 81.9398C44.3003 82.0098 43.4303 82.1099 42.6403 82.2399C41.8503 82.3699 41.1204 82.5298 40.3804 82.6898C39.6404 82.8498 38.6804 83.0799 37.8104 83.2199C37.3704 83.2799 36.9303 83.31 36.4803 83.35H35.7903C35.0603 83.35 34.3303 83.4199 33.6003 83.4899C32.8703 83.5599 32.2603 83.6599 31.6003 83.7499L30.1304 83.9398C29.7104 83.9398 29.2904 83.9899 28.8704 84.0399C28.4504 84.0899 28.1704 84.1298 27.8704 84.1698H27.4703C26.9403 84.1698 26.4103 84.1699 25.8903 84.2199C27.5837 83.6065 29.2503 82.9599 30.8903 82.2799C31.7603 81.9299 32.6303 81.5799 33.5203 81.2799C34.4103 80.9799 35.2704 80.6998 36.1304 80.3798C36.9904 80.0598 37.7103 79.7298 38.4803 79.3798L40.6804 78.7999C41.5104 78.5699 42.3203 78.2999 43.1503 78.0599C43.8003 77.8699 44.4603 77.6999 45.1503 77.4799C45.8403 77.2599 46.1503 77.1499 46.5903 76.9799H47.2504H47.9703H49.6304C50.3104 76.9799 50.9804 76.9799 51.6304 76.9799C52.2804 76.9799 52.9504 76.9799 53.6304 76.9799C53.9704 76.9799 54.3104 76.9798 54.6304 76.9198C54.9504 76.8598 55.3104 76.8599 55.6304 76.7999L56.7504 76.61C57.097 76.5367 57.4304 76.4567 57.7504 76.37C58.3285 76.2401 58.894 76.0593 59.4404 75.83V75.8798C59.8091 76.2793 60.2879 76.5607 60.8164 76.6881C61.3449 76.8156 61.8993 76.7836 62.4096 76.5961C62.9199 76.4086 63.3632 76.074 63.6834 75.6347C64.0036 75.1953 64.1865 74.671 64.2088 74.1278C64.2311 73.5846 64.092 73.047 63.8089 72.5829C63.5258 72.1188 63.1116 71.7489 62.6184 71.5201C62.1252 71.2914 61.5753 71.2139 61.0381 71.2975C60.501 71.3811 60.0006 71.622 59.6003 71.9899C59.1877 72.3714 58.9029 72.8711 58.7848 73.4205C58.6667 73.97 58.721 74.5425 58.9404 75.0599L58.4404 75.1898C57.4167 75.4569 56.3782 75.664 55.3303 75.8099C54.9203 75.8599 54.5204 75.8998 54.1104 75.9298C53.7004 75.9598 53.2804 75.9299 52.8704 75.9799H52.3403C51.7003 75.9799 51.0503 75.9799 50.4103 75.9799C49.7703 75.9799 49.3203 76.05 48.7803 76.09C49.4103 75.84 50.0303 75.5599 50.6403 75.2699L52.2303 74.4899C52.7003 74.2599 53.1603 73.9999 53.6403 73.7699C53.8981 73.6773 54.1121 73.4919 54.2404 73.2499C54.2404 73.2499 54.2404 73.2498 54.2404 73.1698C54.4556 73.1038 54.6537 72.9913 54.8204 72.84C55.1214 72.5628 55.3 72.1773 55.3168 71.7684C55.3337 71.3596 55.1875 70.9608 54.9103 70.6598C54.6332 70.3588 54.2478 70.1803 53.839 70.1635C53.4302 70.1466 53.0314 70.2928 52.7303 70.57C52.4615 70.8228 52.2924 71.1638 52.2538 71.5309C52.2153 71.898 52.3098 72.2667 52.5203 72.57C52.4203 72.67 52.3003 72.75 52.2003 72.85L51.3104 73.2699C50.5804 73.6099 49.8704 73.9699 49.1304 74.2699H49.0604C47.8604 74.7699 46.6504 75.2698 45.4304 75.7098C44.9204 75.8998 44.4304 76.0899 43.8804 76.2599H43.2203C43.1757 76.2572 43.1309 76.2633 43.0886 76.278C43.0463 76.2926 43.0074 76.3154 42.9739 76.3451C42.9405 76.3748 42.9132 76.411 42.8937 76.4513C42.8742 76.4916 42.8629 76.5353 42.8604 76.58C42.8604 76.58 42.8604 76.5798 42.8604 76.6398L41.7203 77.0399C41.1303 77.2699 40.5304 77.4898 39.9304 77.6998C39.3304 77.9098 38.7903 78.0799 38.2303 78.2899L37.9404 78.3898L36.0303 78.7899C34.1703 79.2199 32.3604 79.7898 30.5504 80.4198L29.7203 80.6698C30.8603 80.0398 32.0004 79.4099 33.1104 78.7399C33.7904 78.3399 34.4504 77.9099 35.1104 77.4799L35.4103 77.3099L35.7003 77.1298C35.786 77.0894 35.8666 77.0392 35.9404 76.9799H36.0203H35.9603L37.4003 76.07C37.8703 75.76 38.3404 75.4598 38.8104 75.1398C39.8104 74.4698 40.8103 73.7799 41.7203 73.0299H41.6603L41.7404 72.9699L42.4603 72.36L43.6403 71.57C44.2337 71.15 44.8037 70.7099 45.3503 70.2499C45.5803 70.0599 45.8003 69.8698 46.0103 69.6698C46.3803 69.5698 46.7504 69.4399 47.1204 69.3099C47.5322 69.1615 47.9304 68.9774 48.3104 68.7599C48.9669 68.4499 49.5421 67.991 49.9904 67.4198C50.1303 67.231 50.2307 67.016 50.2857 66.7875C50.3407 66.559 50.3491 66.3218 50.3104 66.09C50.2616 65.8229 50.1436 65.5734 49.9681 65.3663C49.7926 65.1593 49.5658 65.0017 49.3104 64.9098C48.3104 64.5298 47.2003 65.19 46.4203 65.82C45.6404 66.45 45.1003 66.98 44.4203 67.57C43.2703 68.57 42.1103 69.6198 40.9803 70.6698C39.8503 71.7198 38.6903 72.8798 37.4703 73.9098C36.2503 74.9398 34.7103 76.08 33.2803 77.1C32.5503 77.63 31.8004 78.1 31.0504 78.61C30.3004 79.12 29.5803 79.6099 28.8403 80.0399L28.6603 80.1498H28.7203L26.5803 81.3898L26.4103 81.4699L26.0604 81.62C26.0087 81.6357 25.9585 81.6555 25.9103 81.6798C25.85 81.7105 25.801 81.7597 25.7703 81.82C24.1803 82.28 22.6003 82.7499 21.0403 83.2899C20.1903 83.5799 19.3404 83.8898 18.5004 84.1998C17.6604 84.5098 17.0003 84.7499 16.2703 85.0599L16.1204 85.1298L18.9003 82.9498C20.0603 82.0698 21.2003 81.1799 22.3403 80.2799C23.9603 79.0099 25.5203 77.65 27.1003 76.34C28.6803 75.03 30.1903 73.7499 31.7603 72.4799L33.4003 71.2399C33.9103 70.8599 34.4004 70.48 34.9404 70.08C35.4804 69.68 36.0604 69.1698 36.6204 68.7098C37.1804 68.2498 37.5104 67.9399 37.9304 67.5499C38.9304 66.6299 39.9304 65.6899 40.9304 64.7699L43.1804 62.6998C43.6504 62.5798 44.1203 62.46 44.6003 62.36C45.2703 62.22 45.9403 62.0898 46.6003 61.9198L47.4103 61.7098H47.7803C48.1951 61.7149 48.6092 61.7451 49.0203 61.7999C49.7777 61.9104 50.5287 62.0606 51.2703 62.2499C51.5703 62.3299 51.8603 62.4099 52.1603 62.5099L53.1104 62.84L54.0303 63.1398L55.0303 63.4799L55.7703 63.7899L56.7703 64.2098C57.3603 64.4498 57.9503 64.66 58.5403 64.87L58.9203 65.0299C58.8779 65.0173 58.8322 65.0216 58.793 65.0421C58.7538 65.0627 58.7241 65.0977 58.7103 65.1398C58.7042 65.1601 58.7022 65.1816 58.7045 65.2028C58.7067 65.2239 58.7132 65.2445 58.7234 65.2631C58.7336 65.2817 58.7475 65.298 58.7642 65.3112C58.7808 65.3244 58.7999 65.3342 58.8204 65.34H58.9304C58.8891 65.6464 58.9133 65.9581 59.0012 66.2545C59.0891 66.551 59.2388 66.8255 59.4404 67.0599C59.8236 67.4763 60.3565 67.7233 60.9219 67.7467C61.4874 67.7702 62.0389 67.5682 62.4553 67.1849C62.8717 66.8017 63.1188 66.2687 63.1423 65.7033C63.1657 65.1378 62.9636 64.5862 62.5803 64.1698C62.3448 63.9094 62.0484 63.7116 61.7175 63.5941C61.3867 63.4766 61.0318 63.4432 60.6848 63.4967C60.3378 63.5502 60.0096 63.6893 59.7296 63.901C59.4495 64.1127 59.2264 64.3906 59.0803 64.7098L58.5303 64.4098L58.0303 64.1398C57.7203 63.9898 57.4204 63.8298 57.1204 63.6698L56.0704 63.1L55.7003 62.9098C55.5503 62.8398 55.4103 62.7598 55.2603 62.6998L54.7504 62.4799L54.1804 62.2699L53.1804 61.9198L52.3004 61.6L51.3004 61.2899C50.8904 61.1899 50.4804 61.1299 50.0604 61.0599L51.0604 60.8099L52.0004 60.59L52.8804 60.3898L55.1703 59.9198C56.3303 59.6998 57.5004 59.4999 58.6703 59.3099H58.7303C58.7805 59.3389 58.8374 59.3541 58.8953 59.3541C58.9533 59.3541 59.0102 59.3389 59.0604 59.3099L59.4703 59.09L60.1104 58.9899H60.0604L61.0604 58.87H61.3704H61.5004L62.2203 59.07L62.6304 59.2098L63.0403 59.35C63.2414 59.4264 63.4383 59.5132 63.6304 59.61L64.2703 59.9198L65.5604 60.6L66.8303 61.2899L68.0604 61.9398L68.7504 62.33L69.5903 62.82C70.0903 63.11 70.5904 63.3798 71.1304 63.6598C71.0432 64.1432 71.1315 64.6421 71.3796 65.066C71.6276 65.49 72.0191 65.8112 72.4832 65.9721C72.9474 66.1329 73.4537 66.1226 73.9109 65.943C74.3681 65.7634 74.7461 65.4263 74.9766 64.9926C75.2072 64.5588 75.2752 64.057 75.1683 63.5775C75.0614 63.0981 74.7867 62.6726 74.3937 62.3778C74.0008 62.0831 73.5155 61.9383 73.0253 61.9699C72.5351 62.0014 72.0722 62.2072 71.7203 62.5499C71.4904 62.7674 71.3127 63.0341 71.2003 63.33L70.0704 62.7098L69.1403 62.1798L68.7603 61.9498L68.2404 61.6598L66.3804 60.6598L65.4503 60.1598C65.1603 59.9998 64.8704 59.8398 64.5704 59.6898C64.2704 59.5398 63.9703 59.3799 63.6503 59.2399L63.2003 59.0399L62.7003 58.87L62.2903 58.7499C62.9703 58.6799 63.6503 58.64 64.2903 58.6C64.9303 58.56 65.6303 58.5198 66.2903 58.4598C66.9503 58.3998 67.7003 58.3098 68.4103 58.2098C69.7503 58.0098 71.0703 57.65 72.4103 57.33C73.0803 57.16 73.7603 57.02 74.4103 56.84C75.0925 56.6742 75.7611 56.4567 76.4103 56.1898L76.6804 56.0499C76.7579 56.2457 76.8659 56.4279 77.0004 56.59C77.2496 56.8634 77.5744 57.0566 77.9335 57.1454C78.2927 57.2342 78.6701 57.2143 79.018 57.0885C79.3659 56.9627 79.6687 56.7365 79.8881 56.4386C80.1074 56.1407 80.2334 55.7845 80.2502 55.4149C80.267 55.0453 80.1738 54.679 79.9824 54.3624C79.791 54.0458 79.51 53.7932 79.1749 53.6364C78.8399 53.4795 78.4658 53.4255 78.1 53.4813C77.7343 53.5371 77.3934 53.7002 77.1204 53.9498C76.903 54.152 76.7391 54.405 76.6431 54.6859C76.5472 54.9668 76.5222 55.267 76.5704 55.5599C76.3704 55.6099 76.1703 55.6698 75.9703 55.7098C75.2903 55.8598 74.6103 55.9898 73.9703 56.1798L72.0403 56.6998C71.3703 56.8898 70.7003 57.0799 70.0403 57.2399C69.6903 57.3299 69.3303 57.4099 68.9803 57.4799L67.9003 57.6498C67.2103 57.7398 66.5104 57.82 65.8104 57.85L63.7103 57.9598L61.5803 58.08H61.1804L62.6804 57.2499C63.3104 56.9099 63.9304 56.5398 64.5504 56.1798L66.2903 55.1798C67.2903 54.5898 68.3704 54.0098 69.3804 53.3798L69.8804 53.0499C70.1344 53.2473 70.4455 53.3571 70.7672 53.3629C71.0888 53.3688 71.4038 53.2704 71.6649 53.0824C71.926 52.8945 72.1192 52.6271 72.2157 52.3202C72.3122 52.0133 72.3068 51.6833 72.2003 51.3798C72.1304 51.1886 72.0252 51.0124 71.8903 50.86C71.6164 50.5679 71.2388 50.3949 70.8387 50.3781C70.4386 50.3612 70.0479 50.5019 69.7504 50.7699C69.5125 50.9973 69.3554 51.2963 69.303 51.6212C69.2507 51.9462 69.3059 52.2793 69.4603 52.57C68.9303 52.8 68.4004 53.0399 67.8804 53.2899C67.3665 53.5443 66.8658 53.8245 66.3804 54.1298L66.1104 54.2799H66.0303L65.8704 54.3798L65.7903 54.4298L64.1904 55.4298L63.1904 56.0399H63.2404L62.0704 56.7599L61.3903 57.1698C60.9403 57.4298 60.4903 57.7099 60.0303 57.9699L59.5103 58.2599C58.0703 58.4399 56.6503 58.6698 55.2303 58.9098C54.5703 59.0198 53.9203 59.1399 53.2303 59.2799C52.5403 59.4199 51.7303 59.5999 50.9803 59.7699C49.6203 60.0799 48.2703 60.4499 46.9203 60.7699L44.3004 61.4398C44.6204 61.1198 44.9504 60.8098 45.3004 60.4398C45.8004 59.9198 46.3004 59.37 46.7504 58.82L46.9603 58.59C48.247 57.5633 49.527 56.5198 50.8004 55.4598C51.1904 55.1398 51.5703 54.7898 51.9603 54.4598C51.9858 54.4631 52.0118 54.4597 52.0356 54.4501C52.0595 54.4404 52.0804 54.425 52.0965 54.4049C52.1126 54.3848 52.1232 54.361 52.1274 54.3356C52.1316 54.3102 52.1291 54.2841 52.1204 54.2599L52.5903 53.85L53.5903 53.6298C54.3003 53.4698 55.0003 53.2699 55.7003 53.0599C57.0303 52.6599 58.3303 52.1999 59.6403 51.7599L61.6403 51.0599L63.4503 50.4098C64.7203 49.9398 66.0004 49.4798 67.2404 48.9298L67.5303 48.8099H67.6304L69.6304 47.9298C70.2204 47.6498 70.8004 47.3399 71.3704 47.0199L72.8403 46.2098H73.4703H74.1204H74.6804L75.8903 46.2599C76.3303 46.2599 76.7803 46.2599 77.2203 46.2599C77.4503 46.2599 77.6903 46.2599 77.9203 46.2599H78.2603C78.3801 46.2697 78.5006 46.2697 78.6204 46.2599C78.7704 46.2599 78.9603 46.1799 79.0103 46.0099C79.0225 45.9704 79.0234 45.9283 79.0128 45.8883C79.0021 45.8483 78.9804 45.812 78.9501 45.7838C78.9198 45.7556 78.8822 45.7367 78.8416 45.7289C78.8009 45.7211 78.7589 45.7249 78.7203 45.7399C78.6959 45.7477 78.6735 45.7607 78.6545 45.778C78.6356 45.7952 78.6205 45.8164 78.6104 45.84H78.5403H78.2303H77.5504H76.9003H76.7103L75.9904 45.7599L74.7203 45.6H74.2703L74.9603 45.2399C75.5703 44.8999 76.1803 44.5699 76.7803 44.2399C77.5203 43.7899 78.2304 43.2399 78.9404 42.7899C79.0597 42.9974 79.2005 43.1919 79.3604 43.37C79.8355 43.8959 80.4563 44.2685 81.1439 44.4403C81.8315 44.6121 82.5547 44.5754 83.2214 44.3348C83.888 44.0943 84.4679 43.6606 84.8873 43.0892C85.3067 42.5179 85.5466 41.8347 85.5763 41.1266C85.606 40.4185 85.4243 39.7174 85.0543 39.1129C84.6843 38.5084 84.1428 38.0277 83.4987 37.7321C82.8545 37.4364 82.137 37.3392 81.4374 37.4528C80.7378 37.5663 80.0879 37.8858 79.5704 38.37C79.4404 38.5 79.3303 38.6299 79.2203 38.7599C79.2765 37.8875 78.9854 37.0285 78.4103 36.37C78.1322 36.0355 77.789 35.7609 77.4016 35.5631C77.0141 35.3653 76.5905 35.2484 76.1565 35.2194C75.7225 35.1903 75.287 35.2498 74.8766 35.3942C74.4663 35.5386 74.0896 35.7648 73.7693 36.0592C73.4491 36.3537 73.1921 36.71 73.0139 37.1068C72.8356 37.5036 72.7399 37.9326 72.7325 38.3676C72.7251 38.8025 72.8062 39.2344 72.9709 39.6371C73.1355 40.0397 73.3803 40.4047 73.6904 40.7098C73.7838 40.8166 73.8876 40.9138 74.0004 40.9999C73.7004 41.3099 73.4004 41.6198 73.1104 41.9398L71.7603 43.4198L70.4404 44.82L69.7903 45.4999L69.3303 45.9598C69.1437 46.1631 68.9468 46.3568 68.7404 46.5399C68.5704 46.6799 68.3803 46.7998 68.2103 46.9298C68.0403 47.0598 67.9303 47.1299 67.7903 47.2299C67.6503 47.3299 67.3003 47.5799 67.0403 47.7499L65.6304 48.2299C64.9704 48.4399 64.3104 48.63 63.6304 48.83L62.6304 49.1498C62.9004 48.9498 63.1604 48.7599 63.4203 48.5399L64.2404 47.86L64.9803 47.2098C65.5003 46.7598 65.9803 46.29 66.5103 45.83C66.5577 45.8226 66.6006 45.7975 66.6304 45.7599C66.6574 45.7221 66.6807 45.6819 66.7003 45.6398C66.721 45.5944 66.7263 45.5435 66.7155 45.4948C66.7046 45.4461 66.6783 45.4024 66.6403 45.37C66.6017 45.34 66.5543 45.3236 66.5054 45.3236C66.4565 45.3236 66.409 45.34 66.3704 45.37C65.2704 46.25 64.1304 47.0798 63.0004 47.9198C62.4704 48.3198 61.9403 48.7 61.4003 49.08L60.0303 50.08L59.7303 50.1998L57.8403 51.0099C57.1603 51.3199 56.4903 51.6399 55.8403 52.0099C55.1903 52.3799 54.6503 52.6198 54.0403 52.9198C54.4803 52.5498 54.9204 52.1599 55.3704 51.7999L55.2404 51.8898C56.3104 51.0398 57.3903 50.1899 58.4103 49.2899C59.4303 48.3899 60.4103 47.5 61.3403 46.59L64.3403 43.7299C65.3403 42.7299 66.3403 41.7299 67.3403 40.7299C68.8103 39.1699 70.2104 37.5598 71.6304 35.9598L71.8104 35.8998L72.4103 35.6598C72.7803 35.4998 73.1603 35.3699 73.5303 35.2199C74.3603 34.8899 75.1903 34.5399 76.0103 34.2199C76.6203 33.9599 77.2204 33.6698 77.8204 33.3998L79.5604 32.6L81.1503 31.8798L82.1003 31.4598L83.0203 31.0299H83.1403C83.1576 31.105 83.1811 31.1786 83.2103 31.2499L83.3004 31.37L83.3704 31.4298C83.4304 31.4854 83.4977 31.5326 83.5704 31.57C83.6435 31.6059 83.7207 31.6326 83.8004 31.6498C83.8868 31.6594 83.974 31.6594 84.0604 31.6498C84.2287 31.6318 84.3917 31.5809 84.5403 31.4999C84.8477 31.3143 85.0944 31.0432 85.2504 30.7199C85.3381 30.5704 85.3948 30.4049 85.4171 30.233C85.4395 30.0612 85.427 29.8867 85.3804 29.7199C85.3424 29.5932 85.277 29.4766 85.1889 29.3781C85.1008 29.2795 84.992 29.2015 84.8704 29.1498C84.7206 29.0929 84.5587 29.0759 84.4003 29.1C84.2299 29.1146 84.067 29.1769 83.9304 29.2799C83.8641 29.3219 83.8036 29.3722 83.7504 29.4298C83.6826 29.5 83.6223 29.5771 83.5704 29.6598C83.536 29.7071 83.5059 29.7574 83.4803 29.8099C83.3569 29.9083 83.2548 30.0306 83.1804 30.1698C83.1256 30.3103 83.0952 30.4593 83.0903 30.61H82.9803L82.6603 30.7199L81.9904 30.9498L80.9904 31.3099L79.9904 31.6598C78.6804 32.1398 77.4004 32.6599 76.1104 33.2299C75.2704 33.5799 74.4203 33.9099 73.5903 34.2799L72.8804 34.59L75.5803 31.59C76.4303 30.65 77.2304 29.6498 77.9904 28.6398C78.0541 28.633 78.1153 28.6115 78.1691 28.5768C78.223 28.5421 78.2679 28.4951 78.3004 28.4398L78.4904 28.2098L79.1403 27.6298C79.339 27.4784 79.546 27.3382 79.7603 27.2098C80.1403 26.9798 80.5203 26.7499 80.9103 26.5399L82.3004 25.7899C83.1304 25.3399 83.9703 24.9199 84.8303 24.5399L86.1104 24.0199C87.3103 24.3699 88.5103 24.74 89.7203 25.08L90.7203 25.35C90.9803 25.42 91.2304 25.4799 91.4904 25.5299C91.6395 26.2181 91.9593 26.8575 92.4203 27.3898C92.96 27.9626 93.6566 28.3636 94.423 28.5424C95.1895 28.7212 95.9916 28.67 96.729 28.3951C97.4664 28.1202 98.1064 27.6338 98.5687 26.997C99.0311 26.3601 99.2953 25.6009 99.3283 24.8146C99.3613 24.0283 99.1616 23.2499 98.7542 22.5765C98.3468 21.9032 97.7499 21.3649 97.0381 21.0292C96.3263 20.6935 95.5313 20.5751 94.7526 20.6891C93.9739 20.8031 93.2461 21.1442 92.6603 21.6698C92.2684 22.0303 91.9525 22.4656 91.731 22.9498C91.5094 23.4341 91.3868 23.9576 91.3704 24.4899L89.5403 23.84C88.9803 23.64 88.4304 23.4599 87.8704 23.2799L88.6804 22.9398C89.3304 22.6498 89.9603 22.3399 90.6003 22.0399C91.2403 21.7399 91.8304 21.4498 92.4304 21.1398L93.9503 20.35C94.4403 20.08 94.9504 19.8299 95.4404 19.5599C96.4363 19.0049 97.3627 18.3335 98.2003 17.5599C98.4706 17.4573 98.7261 17.3193 98.9603 17.1498C99.2472 16.9436 99.5211 16.7199 99.7803 16.4799C100.416 15.8892 100.816 15.0883 100.907 14.2255C100.997 13.3626 100.772 12.4961 100.273 11.7863C99.7746 11.0764 99.0355 10.5712 98.193 10.3641C97.3504 10.1571 96.4614 10.262 95.6904 10.6598C95.5304 10.7598 95.3504 10.8498 95.1804 10.9398C94.3343 11.3987 93.6996 12.1683 93.4103 13.0863C93.1211 14.0043 93.2001 14.999 93.6304 15.86C93.767 16.1109 93.9314 16.3457 94.1204 16.5599C94.2338 16.6867 94.3575 16.8036 94.4904 16.9098C94.0704 17.3198 93.6703 17.7498 93.2703 18.1798L92.5903 18.8798C92.4803 18.9898 92.3704 19.0998 92.2504 19.1998L91.8303 19.57L91.3804 19.9098L90.8604 20.2799L90.4203 20.57C90.1903 20.72 89.9603 20.8799 89.7203 21.0199L89.5504 21.12H89.4503L88.3903 21.5499C87.7403 21.7999 87.0803 22.0399 86.3903 22.2699L85.6304 22.58L85.4603 22.5199L85.1403 22.4398C84.9798 22.3919 84.8071 22.4079 84.658 22.4843C84.509 22.5606 84.3952 22.6917 84.3403 22.85C84.3256 22.936 84.3256 23.024 84.3403 23.11C83.739 23.3773 83.1545 23.6811 82.5903 24.0199L82.6703 23.9699L82.4603 24.1H82.4103L82.2504 24.1898C81.6004 24.5898 80.9703 25.0098 80.3503 25.4498C81.1703 24.4498 82.0503 23.5698 82.9203 22.6598C83.7904 21.7498 84.6404 20.8198 85.4904 19.8898C86.3404 18.9598 87.0903 18.0798 87.9203 17.1998L88.4703 16.6298L89.9103 15.35C90.3503 14.94 90.7504 14.5 91.1804 14.08C91.6104 13.66 92.1303 13.2099 92.6403 12.7999L93.2303 12.33L93.4603 12.1398C94.4603 11.2998 95.4603 10.4399 96.4603 9.54993C96.7003 9.34993 96.9304 9.1298 97.1703 8.9098C97.4103 8.6898 97.6203 8.46987 97.8303 8.22987C98.5866 8.60992 99.4393 8.75484 100.279 8.64613C101.118 8.53741 101.906 8.18018 102.54 7.62C103.143 7.06802 103.568 6.34955 103.762 5.55579C103.956 4.76204 103.911 3.92856 103.631 3.16077C103.351 2.39299 102.85 1.72539 102.191 1.24256C101.532 0.75973 100.744 0.483381 99.9275 0.448372C99.1111 0.413363 98.3027 0.621405 97.6045 1.04603C96.9063 1.47065 96.3498 2.09285 96.0054 2.83387C95.6609 3.57489 95.5441 4.4014 95.6696 5.20887C95.795 6.01634 96.1572 6.76847 96.7103 7.37C96.887 7.5737 97.0848 7.75787 97.3004 7.91981L97.1904 8.04993C96.4796 8.75577 95.7318 9.42338 94.9503 10.0499C94.5503 10.3899 94.1404 10.7399 93.7303 11.0499L92.4703 12.0499C91.977 12.4433 91.507 12.8532 91.0604 13.2799C90.8504 13.4799 90.6503 13.6998 90.4503 13.9098C90.2503 14.1198 90.0403 14.36 89.8303 14.58L89.2803 15.09C89.2216 15.0491 89.1518 15.0272 89.0803 15.0272C89.0088 15.0272 88.9391 15.0491 88.8804 15.09C88.8135 15.135 88.7529 15.1887 88.7003 15.2499L87.5303 16.3898C87.0003 16.9198 86.4803 17.4499 85.9703 17.9899L85.7803 18.1998L85.3704 18.61L86.0303 17.5499L86.2103 17.2299L86.6003 16.5299C86.6503 16.4299 86.7103 16.3299 86.7703 16.2299C86.8303 16.1299 86.9304 15.9099 87.0004 15.7499C87.0704 15.5899 87.2204 15.33 87.3204 15.11L87.4404 14.87L87.9203 13.7699C87.9803 13.6499 88.0204 13.5098 88.0704 13.3798C88.1204 13.2498 88.2303 12.9298 88.2903 12.6998C88.3503 12.4698 88.3803 12.3398 88.4203 12.1498C88.4604 11.9598 88.4203 11.95 88.4203 11.85V11.62C88.4447 11.508 88.4447 11.3919 88.4203 11.2799C88.3991 11.2148 88.3569 11.1586 88.3004 11.12C88.2654 11.0998 88.2257 11.089 88.1854 11.089C88.145 11.089 88.1053 11.0998 88.0704 11.12C88.0449 11.1298 88.0216 11.1446 88.0021 11.1637C87.9826 11.1828 87.9672 11.2058 87.9569 11.2311C87.9466 11.2564 87.9416 11.2836 87.9422 11.3109C87.9428 11.3382 87.9489 11.3649 87.9603 11.3898C87.9743 11.4182 87.9956 11.4425 88.0219 11.4601C88.0482 11.4776 88.0788 11.4879 88.1104 11.4899C88.1104 11.4899 88.1104 11.4899 88.1104 11.5599C88.1104 11.7299 88.0503 11.8899 88.0103 12.0499C87.9388 12.3246 87.852 12.595 87.7504 12.86C87.5004 13.47 87.2003 14.0598 86.9103 14.6598L86.5803 15.3099L86.2603 15.9298L85.8903 16.6L85.5504 17.2098L84.9803 18.2098L84.4904 18.9799C84.3204 19.2499 84.1303 19.5199 83.9503 19.7799C83.7703 20.0399 83.6003 20.2699 83.4203 20.5199L83.2404 20.7499L83.0704 20.9198L80.1503 23.7699C79.2403 24.6599 78.3703 25.5799 77.5303 26.5299C76.6903 27.4799 75.7603 28.5299 74.8403 29.5299C74.1403 30.2599 73.4203 30.9698 72.7003 31.6798L73.3804 30.4398V30.3798C73.3858 30.3467 73.3858 30.313 73.3804 30.2799L73.6304 29.83L73.7203 29.6498L73.9003 29.33V29.2299C73.9199 29.1878 73.9433 29.1477 73.9703 29.11L74.0303 28.9899C74.1103 28.8399 74.2003 28.6999 74.2803 28.5399C74.3603 28.3799 74.4603 28.25 74.5303 28.1C74.6903 27.78 74.8504 27.45 75.0004 27.1C75.1504 26.75 75.1604 26.7399 75.2404 26.5599L75.4203 26.09C75.5603 25.76 75.6804 25.43 75.8004 25.09C75.8604 24.91 75.9304 24.7299 75.9904 24.5599C76.0504 24.3899 76.0904 24.23 76.1304 24.07L76.2803 23.58C76.3303 23.4 76.3703 23.2199 76.4203 23.0399C76.5004 22.6999 76.5703 22.3599 76.6403 22.0399C76.8133 21.8755 76.9738 21.6983 77.1204 21.5099L77.6904 20.83L78.9503 19.3099L80.1204 17.87C80.5204 17.37 80.9103 16.87 81.2903 16.36C81.4103 16.2 81.5303 16.03 81.6403 15.86C82.0468 15.9454 82.4692 15.9133 82.8582 15.7677C83.2472 15.6221 83.5868 15.369 83.8374 15.0377C84.088 14.7065 84.2391 14.3108 84.2733 13.8969C84.3074 13.4829 84.2232 13.0677 84.0303 12.6998L84.2603 12.4398C84.4103 12.2698 84.5703 12.1098 84.7303 11.9498C84.6102 12.0139 84.4934 12.084 84.3804 12.1598L84.2703 12.2299C84.1503 12.3099 84.0403 12.3999 83.9103 12.4799C83.853 12.3665 83.7895 12.2563 83.7203 12.1498C83.3068 11.7335 82.7481 11.4937 82.1615 11.4804C81.5749 11.4671 81.0059 11.6814 80.5739 12.0785C80.1418 12.4756 79.8804 13.0246 79.8443 13.6102C79.8082 14.1959 80.0004 14.7728 80.3804 15.2199C80.4861 15.3175 80.6037 15.4015 80.7303 15.4699C80.4703 15.8099 80.2103 16.1399 79.9703 16.4699C79.5803 17.0399 79.1904 17.6198 78.8104 18.1998C78.4304 18.7798 78.1803 19.1998 77.8903 19.6798C77.6003 20.1598 77.3303 20.5999 77.0303 21.0499L76.8503 21.2799C76.8621 21.199 76.8788 21.1188 76.9003 21.0399C77.0203 20.4199 77.1503 19.7898 77.2803 19.1698C77.4103 18.5498 77.5303 18.0799 77.6703 17.5299C77.6703 17.5299 77.6703 17.53 77.6703 17.59C77.8103 17.08 77.9403 16.59 78.0803 16.07C78.2203 15.55 78.3904 14.9498 78.5004 14.3898C78.613 13.8547 78.6964 13.314 78.7504 12.7699C78.8139 12.269 78.8472 11.7648 78.8503 11.2599C78.9984 11.01 79.0663 10.7207 79.0449 10.431C79.0234 10.1414 78.9136 9.86512 78.7303 9.63978C78.4784 9.3666 78.1282 9.20483 77.7569 9.18983C77.3856 9.17482 77.0235 9.30799 76.7504 9.55994C76.4772 9.8119 76.3153 10.162 76.3003 10.5333C76.2853 10.9047 76.4184 11.2668 76.6703 11.5399C76.8731 11.7561 77.1396 11.9017 77.4311 11.9557C77.7225 12.0097 78.0236 11.9692 78.2903 11.84C78.0103 12.84 77.7303 13.84 77.4803 14.84C77.3103 15.51 77.1204 16.18 76.9404 16.84C76.8404 17.2 76.7503 17.5698 76.6603 17.9298C76.5703 18.2898 76.4903 18.6298 76.4103 18.9298C76.2503 19.6398 76.1203 20.3499 75.9703 21.0599C75.8203 21.7699 75.6903 22.3999 75.5303 23.0599C75.5303 23.1299 75.5303 23.2099 75.5303 23.2799C75.4603 23.5499 75.3804 23.81 75.3104 24.08C75.2404 24.35 75.1804 24.4998 75.1104 24.7098C74.9503 25.1898 74.7803 25.6698 74.6003 26.1498C74.5403 26.2998 74.4703 26.44 74.4103 26.59C74.4203 26.4702 74.4203 26.3497 74.4103 26.2299C74.3824 26.0563 74.3389 25.8856 74.2803 25.7199C74.5848 25.2428 74.6991 24.669 74.6009 24.1117C74.5026 23.5544 74.1989 23.0543 73.7498 22.7101C73.3006 22.3659 72.7386 22.2029 72.175 22.2531C71.6113 22.3032 71.087 22.5628 70.7056 22.9808C70.3242 23.3989 70.1136 23.945 70.1152 24.5109C70.1169 25.0767 70.3308 25.6212 70.7147 26.037C71.0985 26.4528 71.6244 26.7094 72.1883 26.7562C72.7522 26.803 73.3132 26.6367 73.7603 26.2899L73.8903 26.5199C73.8903 26.5999 73.8903 26.6699 73.9703 26.7399V26.82C73.9753 26.8598 73.9753 26.9 73.9703 26.9398C73.9388 26.9204 73.9024 26.91 73.8654 26.91C73.8283 26.91 73.7919 26.9204 73.7603 26.9398C73.735 26.9528 73.713 26.9712 73.6958 26.9938C73.6786 27.0164 73.6666 27.0426 73.6609 27.0704C73.6551 27.0983 73.6556 27.1271 73.6625 27.1547C73.6693 27.1823 73.6822 27.2079 73.7003 27.2299C73.7543 27.2636 73.8167 27.2814 73.8804 27.2814C73.944 27.2814 74.0064 27.2636 74.0604 27.2299C73.9904 27.3999 73.9203 27.5899 73.8303 27.7599L72.8303 29.6498C72.2403 30.7798 71.6303 31.8999 71.0303 33.0199C70.4603 33.5799 69.8804 34.1499 69.3204 34.7199L66.6703 37.3898C66.7603 37.1998 66.8504 37.01 66.9304 36.82C67.0104 36.63 67.0403 36.52 67.0903 36.36C67.1403 36.2 67.2703 35.86 67.3503 35.61C67.4303 35.36 67.5404 35.0799 67.6304 34.8099C67.7204 34.5399 67.8803 34.0598 68.0103 33.6898C68.1403 33.3198 68.3403 32.8 68.4803 32.34C68.4803 32.17 68.5903 31.9899 68.6403 31.8099L68.7003 31.5199C68.7003 31.5199 68.7003 31.4398 68.7003 31.4098V31.2799C68.695 31.2351 68.6798 31.192 68.6555 31.1539C68.6313 31.1158 68.5987 31.0837 68.5604 31.0599C68.5178 31.0354 68.4695 31.0223 68.4203 31.0223C68.3712 31.0223 68.3229 31.0354 68.2803 31.0599C68.2362 31.084 68.1986 31.1182 68.1707 31.16C68.1428 31.2019 68.1256 31.25 68.1204 31.2999C68.1054 31.3522 68.1054 31.4076 68.1204 31.4598C68.1051 31.5508 68.0851 31.641 68.0604 31.7299C67.8904 32.3699 67.6403 32.99 67.4103 33.61L66.9803 34.8099C66.7703 35.3799 66.5503 35.9399 66.3403 36.5099C66.0903 37.0999 65.8203 37.6699 65.5203 38.2299C65.4003 38.4399 65.2504 38.63 65.1304 38.84C64.5504 39.4 63.9803 39.9699 63.3903 40.5199C62.3903 41.4399 61.3903 42.3299 60.3903 43.2499C59.3903 44.1699 58.4803 45.0599 57.5403 45.9699C56.6003 46.8799 55.5403 47.8499 54.4703 48.7699L52.9703 50.09C52.4903 50.52 52.0304 50.9798 51.5704 51.4398C51.3504 51.6598 51.1404 51.89 50.9304 52.11L51.0303 52.0099C50.8103 52.2299 50.6003 52.4598 50.3903 52.6798L49.8704 53.2299L49.9603 53.1398L48.3403 54.7599C47.7703 55.2799 47.2103 55.81 46.6603 56.34C45.7803 57.18 44.9103 58.03 44.0103 58.86L44.3104 58.2999L45.7703 55.62L45.8903 55.4098V55.4699C45.9803 55.2899 46.0804 55.1198 46.1804 54.9398L46.2404 54.83V54.7299V54.6498C46.6004 53.9831 46.9703 53.3432 47.3503 52.7299C47.7765 52.0473 48.1605 51.3394 48.5004 50.61C49.1704 49.16 49.6304 47.6098 50.1904 46.1298L50.2603 46.0499L51.1503 45.0499L51.4803 44.7098L51.4203 44.7599L51.9404 44.2199L51.8903 44.2799C52.4703 43.6699 53.0804 43.0699 53.6904 42.4899C54.3004 41.9099 54.9403 41.25 55.5403 40.61C56.1403 39.97 57.0204 39.0399 57.7404 38.2399C58.1696 38.6471 58.7386 38.8742 59.3303 38.8742C59.922 38.8742 60.4911 38.6471 60.9203 38.2399C61.2313 37.9311 61.5157 37.5966 61.7703 37.2399C62.0708 36.8666 62.2436 36.4069 62.2634 35.9281C62.2832 35.4493 62.149 34.9768 61.8804 34.58C61.5749 34.1471 61.1236 33.8388 60.6092 33.712C60.0948 33.5853 59.5519 33.6484 59.0803 33.8898C58.7097 34.0996 58.3554 34.3372 58.0203 34.6C57.5299 34.9529 57.1907 35.4778 57.0704 36.07C57.0209 36.4044 57.0447 36.7456 57.1403 37.07C55.9414 37.9407 54.8266 38.9215 53.8104 39.9999C53.1604 40.6899 52.5504 41.4098 51.9404 42.1298C52.0704 41.8898 52.1904 41.6498 52.3104 41.3998C53.0304 39.9598 53.6804 38.4899 54.3804 37.0399C54.7104 36.3399 55.0704 35.6499 55.4304 34.9699L55.4904 34.86C55.4904 34.86 55.4904 34.7699 55.5704 34.7199L55.6304 34.61V34.5199C55.9104 34.0199 56.2003 33.5199 56.4803 33.0099C56.7603 32.4999 57.0904 32.0098 57.4304 31.4598C57.8745 30.8761 58.3519 30.3186 58.8604 29.7899C59.3804 29.2499 59.8604 28.68 60.3204 28.11C60.7804 27.54 61.2503 26.8498 61.7103 26.2098C62.1703 25.5698 62.7104 24.8898 63.1204 24.2098C63.1961 24.1036 63.2662 23.9934 63.3303 23.8798C63.5793 23.9814 63.8557 23.9944 64.113 23.9161C64.3703 23.8379 64.5928 23.6734 64.743 23.4503C64.8933 23.2273 64.9621 22.9594 64.9379 22.6915C64.9138 22.4237 64.7981 22.1724 64.6104 21.9799C64.5107 21.8588 64.3839 21.7629 64.2404 21.6998C64.0308 21.6151 63.8016 21.5909 63.5789 21.6298C63.3562 21.6687 63.1488 21.7691 62.9803 21.9198C62.8353 22.0552 62.7278 22.2259 62.6682 22.4152C62.6086 22.6044 62.599 22.8058 62.6403 22.9999C62.5203 23.1399 62.3903 23.2898 62.2803 23.4398L61.6603 24.2199C60.9003 25.2199 60.1303 26.22 59.2803 27.08C58.7903 27.59 58.2803 28.08 57.7903 28.57C57.5203 28.83 57.2703 29.09 57.0103 29.35C57.0103 29.26 57.0904 29.17 57.1204 29.08C57.3404 28.51 57.5303 27.93 57.7303 27.36C57.9303 26.79 58.1204 26.2999 58.3204 25.7699C58.5304 25.2399 58.7404 24.7098 58.9304 24.1698C59.0704 23.8098 59.1803 23.4399 59.2903 23.0599C59.7018 23.0071 60.0881 22.8331 60.4003 22.5599C60.831 22.1549 61.0859 21.5972 61.1102 21.0065C61.1345 20.4157 60.9263 19.8388 60.5303 19.3998C60.3526 19.2066 60.1385 19.0503 59.9003 18.9398C59.9003 18.8698 59.9003 18.7999 59.9003 18.7299C59.9003 18.7299 59.9003 18.8398 59.9003 18.8998C59.4321 18.6816 58.9029 18.6321 58.4022 18.7594C57.9016 18.8867 57.4603 19.1831 57.1532 19.5985C56.8461 20.0139 56.692 20.5227 56.717 21.0387C56.742 21.5547 56.9445 22.0461 57.2903 22.4298C57.5623 22.7157 57.9086 22.9201 58.2903 23.0199V23.1C57.9703 23.72 57.6603 24.3499 57.4003 24.9999C56.8703 26.3199 56.4904 27.6799 56.0704 28.9999C56.0104 29.1899 55.9404 29.38 55.8704 29.58C55.8004 29.78 55.6803 30.09 55.5903 30.35C55.4203 30.82 55.2304 31.2899 55.0604 31.7699L54.8004 32.1598L54.6204 32.4398C54.6223 32.4631 54.6223 32.4866 54.6204 32.5099C54.2604 33.0899 53.9004 33.6599 53.5604 34.2499C52.7504 35.6899 52.0903 37.1998 51.4103 38.6998C51.3103 38.9198 51.2003 39.13 51.0903 39.35C51.0903 39.21 51.0903 39.0798 51.0903 38.9398C51.0903 38.7998 51.0903 38.5698 51.0903 38.3898C51.0903 38.2098 51.0903 38.1599 51.0903 38.0499V37.8898V37.2799V36.7799C51.0903 36.7799 51.0903 36.6898 51.0903 36.6398C51.0903 36.5898 51.0903 36.3899 51.0403 36.2599C50.9903 36.1299 51.0403 35.9499 51.0403 35.7899V35.58L50.8604 34.37L50.6804 33.1798C50.6804 32.9098 50.6103 32.6498 50.5803 32.3898C50.5859 32.2999 50.5859 32.2099 50.5803 32.12V31.86C50.6892 31.8445 50.7906 31.7955 50.8704 31.7199C50.936 31.6621 50.9896 31.5921 51.0282 31.5136C51.0667 31.435 51.0895 31.3496 51.095 31.2623C51.1006 31.175 51.0889 31.0875 51.0607 31.0048C51.0324 30.922 50.9881 30.8456 50.9304 30.7799C50.8726 30.7143 50.8024 30.6605 50.7239 30.622C50.6454 30.5834 50.5601 30.5609 50.4728 30.5553C50.3855 30.5497 50.2979 30.5612 50.2151 30.5895C50.1324 30.6177 50.056 30.6621 49.9904 30.7199C49.8729 30.8442 49.8075 31.0088 49.8075 31.1798C49.8075 31.3509 49.8729 31.5154 49.9904 31.6398C50.0716 31.7246 50.1759 31.7839 50.2903 31.8099C50.4503 33.0099 50.5904 34.2198 50.7404 35.4198C50.7404 35.6798 50.7404 35.9398 50.8204 36.2098C50.9004 36.4798 50.8204 36.5298 50.8704 36.6998C50.8755 36.7964 50.8755 36.8933 50.8704 36.9899C50.8704 37.1899 50.8704 37.39 50.8704 37.6C50.8704 37.81 50.8704 37.7898 50.8704 37.8898C50.8704 38.2198 50.8704 38.5398 50.8704 38.8898C50.8704 39.1798 50.8704 39.4799 50.8704 39.7699C50.8704 39.8899 50.8704 40 50.8704 40.11C50.3904 41.11 49.8704 42.0499 49.5004 43.0499L49.0604 44.12V44.1698V44.2299C48.8204 44.8399 48.6003 45.45 48.4103 46.08C48.4103 46.26 48.3203 46.44 48.2703 46.62C48.2703 46.62 48.2703 46.6698 48.2703 46.6898C48.1503 47.1198 48.0404 47.5499 47.9304 47.9799C47.8304 48.3499 47.7304 48.73 47.6204 49.1C47.5104 49.47 47.3903 49.7998 47.2703 50.1498C47.1903 50.3698 47.1003 50.59 47.0103 50.82C46.7703 51.35 46.5004 51.8698 46.2504 52.3998V52.9999C46.2504 52.7199 46.2504 52.4498 46.2504 52.1698C46.2504 51.7998 46.2504 51.4299 46.2504 51.0599C46.2504 50.6899 46.2504 50.4099 46.2504 50.0599C46.2504 49.7099 46.2504 49.6899 46.2504 49.5099C46.2504 49.3299 46.2504 49.2099 46.2504 49.0499C46.2504 48.8899 46.2504 48.74 46.2504 48.59L46.1904 48.0099C46.1904 47.8199 46.1903 47.6398 46.1403 47.4598L46.0803 46.9298C46.0803 46.6198 46.0103 46.2999 45.9803 45.9899C45.9803 45.9399 45.9803 45.88 45.9803 45.82C45.9803 45.76 45.9803 45.7599 45.9803 45.7299C45.9803 45.4299 46.0604 45.12 46.1104 44.82C46.7019 44.7581 47.2551 44.4983 47.6805 44.0826C48.1059 43.667 48.3785 43.1198 48.4542 42.5299C48.5298 41.94 48.404 41.3419 48.0972 40.8324C47.7904 40.3229 47.3206 39.9319 46.7638 39.7228C46.207 39.5137 45.5959 39.4987 45.0296 39.6803C44.4633 39.8619 43.9748 40.2294 43.6434 40.7233C43.312 41.2171 43.1571 41.8083 43.2037 42.4013C43.2504 42.9942 43.4958 43.5539 43.9003 43.9899C44.3222 44.4572 44.9036 44.7498 45.5303 44.8099C45.4703 45.1599 45.4104 45.5 45.3604 45.86C45.3385 46.193 45.3385 46.527 45.3604 46.86C45.3604 47.19 45.3604 47.53 45.3604 47.86C45.4204 48.56 45.4903 49.2598 45.5403 49.9598L45.6603 52.11C45.6603 52.33 45.6603 52.5399 45.6603 52.7499C45.6372 52.7376 45.6115 52.7313 45.5853 52.7313C45.5592 52.7313 45.5334 52.7376 45.5103 52.7499C45.491 52.7594 45.4738 52.7726 45.4597 52.7889C45.4456 52.8053 45.435 52.8243 45.4285 52.8449C45.4219 52.8654 45.4196 52.8871 45.4216 52.9086C45.4237 52.93 45.4301 52.9509 45.4404 52.9699C45.4404 53.0799 45.5503 53.1799 45.6003 53.2899C45.6349 53.3733 45.6822 53.4509 45.7404 53.5199C45.762 53.5407 45.7891 53.5551 45.8185 53.5612C45.848 53.5673 45.8785 53.5648 45.9067 53.5543C45.9348 53.5439 45.9595 53.5259 45.9778 53.5021C45.9962 53.4783 46.0074 53.4497 46.0103 53.4198C46.0103 53.5398 46.0103 53.6599 46.0103 53.7899C45.9683 53.7746 45.9224 53.7746 45.8804 53.7899C45.8649 53.8048 45.8527 53.8227 45.8443 53.8424C45.8359 53.8622 45.8316 53.8835 45.8316 53.9049C45.8316 53.9264 45.8359 53.9477 45.8443 53.9674C45.8527 53.9872 45.8649 54.005 45.8804 54.0199C45.6604 54.4799 45.4503 54.9398 45.2203 55.3998C44.3803 57.0598 43.5303 58.7298 42.6403 60.3998C42.5003 60.6398 42.3603 60.88 42.2103 61.12C42.0603 61.36 41.8604 61.42 41.6804 61.57L40.6804 62.4198C40.3199 62.6545 39.9848 62.926 39.6804 63.2299C39.3804 63.4699 39.0803 63.7098 38.7903 63.9598C38.2003 64.4798 37.6004 64.9599 37.0004 65.4899L35.4003 66.7299L33.7903 67.8998L32.6904 68.6898C32.1704 69.0598 31.6903 69.44 31.1503 69.84C30.6103 70.24 29.9204 70.84 29.3204 71.35C29.0304 71.59 28.7704 71.84 28.4904 72.09L24.8903 74.9498C21.0003 78.0198 17.1303 81.0998 13.2303 84.1398L13.1503 84.1998L11.9304 85.1398C12.1404 84.9598 12.3504 84.78 12.5504 84.59C12.7504 84.4 12.9404 84.1498 13.1304 83.9298C13.6404 83.3398 14.1303 82.75 14.5903 82.12C15.5403 80.82 16.4604 79.4998 17.3704 78.1698C18.0304 77.1698 18.6503 76.1698 19.2703 75.1698C19.309 75.1537 19.3459 75.1338 19.3804 75.11C19.5004 74.96 19.6103 74.7998 19.7303 74.6398C19.8503 74.4798 19.8704 74.3999 19.9404 74.2799L20.0504 74.1798C20.5804 73.7198 21.1104 73.2599 21.6304 72.7899C22.6304 71.8599 23.6304 70.8699 24.6304 69.9999L25.0203 69.6898C25.8803 69.0098 26.7603 68.3498 27.6603 67.6898C28.1003 67.3798 28.5504 67.0599 29.0004 66.7599C29.2304 66.6099 29.4604 66.4499 29.6904 66.3099L30.4803 65.82L30.5704 65.7699C30.9333 66.0824 31.3964 66.2543 31.8754 66.2543C32.3543 66.2543 32.8174 66.0824 33.1804 65.7699C33.4184 65.6085 33.6188 65.3974 33.7679 65.1515C33.9171 64.9055 34.0114 64.6303 34.0445 64.3446C34.0776 64.0589 34.0486 63.7695 33.9597 63.496C33.8707 63.2225 33.7238 62.9712 33.5289 62.7597C33.3341 62.5481 33.0959 62.3811 32.8306 62.2699C32.5653 62.1588 32.2792 62.1063 31.9917 62.1159C31.7042 62.1254 31.4222 62.1967 31.1648 62.3251C30.9074 62.4535 30.6808 62.636 30.5004 62.86C30.1376 63.2057 29.9177 63.6749 29.8844 64.1749C29.8511 64.6749 30.0067 65.1692 30.3204 65.5599L29.3204 66.1798C28.6904 66.5498 28.0604 66.9199 27.4404 67.3099C26.8204 67.6999 26.3004 68.0298 25.7504 68.4098C25.4304 68.6298 25.1104 68.85 24.8004 69.08C24.4904 69.31 24.3004 69.4398 24.0604 69.6298L23.6304 69.9699L23.2103 70.32L22.4904 70.9699L21.0103 72.3898C21.4603 71.6598 21.9203 70.9298 22.3503 70.1798C22.7803 69.4298 23.1003 68.8598 23.4603 68.1798C23.7303 67.9098 24.0003 67.63 24.2703 67.37L25.6904 65.9298L27.6904 63.9298L28.0604 63.5499C29.1404 62.4499 30.1803 61.3098 31.2203 60.1798C32.1203 59.1798 32.9904 58.1798 33.8604 57.1798L35.6304 55.1798L36.0004 54.7499C36.1991 54.9058 36.4384 55.0014 36.6899 55.0253C36.9413 55.0492 37.1944 55.0005 37.419 54.8849C37.6436 54.7693 37.8303 54.5917 37.957 54.3732C38.0836 54.1546 38.145 53.9043 38.1336 53.652C38.1222 53.3996 38.0387 53.1556 37.8929 52.9493C37.7472 52.7431 37.5452 52.5829 37.3112 52.4879C37.0771 52.393 36.8207 52.3673 36.5724 52.4137C36.3241 52.4601 36.0943 52.5768 35.9103 52.7499C35.6706 52.9795 35.5253 53.2905 35.5031 53.6217C35.4809 53.9529 35.5834 54.2804 35.7903 54.5399L35.3403 54.9498L33.6304 56.5099C32.6304 57.3999 31.7103 58.2898 30.7603 59.1898C30.8703 58.9498 30.9803 58.7299 31.0803 58.4999C31.1803 58.2699 31.1803 58.2998 31.2203 58.1998L31.4904 57.5499C31.6304 57.2299 31.7703 56.9099 31.9003 56.5499C31.9603 56.4299 32.0104 56.3098 32.0604 56.1798C32.1104 56.0498 32.2603 55.77 32.3503 55.57C32.3876 55.4804 32.4311 55.3935 32.4803 55.3099C32.5502 55.1386 32.6303 54.9716 32.7203 54.8099C32.8013 54.7063 32.85 54.581 32.8604 54.4498C32.8601 54.4165 32.8507 54.3841 32.833 54.3558C32.8154 54.3276 32.7902 54.3047 32.7603 54.2899C32.7304 54.2664 32.6934 54.2535 32.6553 54.2535C32.6173 54.2535 32.5803 54.2664 32.5504 54.2899C32.5312 54.3415 32.5312 54.3982 32.5504 54.4498C32.4004 54.6798 32.2703 54.9298 32.1403 55.1698C32.0103 55.4098 32.0303 55.3799 31.9803 55.4899L31.7703 55.8898C31.7703 55.9598 31.7104 56.03 31.6703 56.1L31.4503 56.59C31.3603 56.78 31.2803 56.9598 31.2003 57.1498L30.9703 57.6698C30.9412 57.745 30.9078 57.8184 30.8704 57.8898L30.5004 58.6998L30.3503 58.9999C30.3176 59.0719 30.2809 59.142 30.2404 59.2098L29.8204 59.9899L29.7603 60.1C28.1703 61.61 26.6204 63.1598 25.0604 64.7098C25.2404 64.2198 25.4203 63.7099 25.5903 63.2299C25.8903 62.3499 26.2203 61.48 26.5903 60.6V60.6898C26.8803 59.9798 27.1803 59.2699 27.4803 58.5599C27.7803 57.8499 28.0904 57.1498 28.3804 56.4398C28.4519 56.3783 28.5187 56.3114 28.5803 56.2399L29.0803 55.7098L29.3204 55.4598L30.7703 53.7899C30.9703 53.5499 31.1703 53.31 31.3903 53.08L32.2504 52.1398L33.5803 50.7699C33.6028 50.7467 33.6196 50.7186 33.6294 50.6879C33.6392 50.6571 33.6418 50.6243 33.637 50.5924C33.6321 50.5605 33.62 50.5303 33.6015 50.5038C33.583 50.4773 33.5586 50.4554 33.5303 50.4398C33.4942 50.4309 33.4565 50.4309 33.4203 50.4398H33.2803C33.2407 50.4429 33.2022 50.4546 33.1677 50.4743C33.1331 50.4939 33.1032 50.5209 33.0803 50.5534C33.0574 50.5858 33.0419 50.6231 33.035 50.6622C33.0281 50.7014 33.0299 50.7415 33.0403 50.7799L32.8104 51.0099L32.3804 51.4198L31.8403 51.9298L31.0103 52.7599C30.8403 52.9299 30.6803 53.1099 30.5103 53.2899L29.8704 53.9899C29.7918 54.0685 29.7183 54.152 29.6503 54.2399L29.2003 54.7399C29.1203 54.8199 29.0503 54.9099 28.9703 54.9999C29.1003 54.6899 29.2203 54.3799 29.3403 54.0599C29.6203 53.3499 29.8704 52.6198 30.1304 51.8998C30.3904 51.1798 30.6003 50.6099 30.8403 49.9699C31.0003 49.5899 31.1603 49.2 31.3403 48.83C31.5203 48.46 31.7304 48.0598 31.9404 47.6798C32.1504 47.2998 32.5604 46.6798 32.8804 46.1898C33.3967 46.3002 33.9355 46.2212 34.3984 45.9672C34.8613 45.7131 35.2175 45.3011 35.4017 44.8063C35.586 44.3115 35.5861 43.7668 35.4022 43.2719C35.2182 42.7769 34.8623 42.3648 34.3996 42.1105C33.9368 41.8562 33.3981 41.7768 32.8817 41.8868C32.3652 41.9969 31.9056 42.2888 31.5867 42.7096C31.2678 43.1304 31.1108 43.6519 31.1445 44.1788C31.1783 44.7058 31.4004 45.2032 31.7703 45.58H31.8204L31.5203 46.0299C31.3203 46.3599 31.1003 46.6899 30.9103 47.0299C30.7203 47.3699 30.5004 47.73 30.3204 48.09C30.1404 48.45 29.9503 48.8399 29.7703 49.2199C29.4903 49.8499 29.2404 50.4998 28.9904 51.1398C28.9904 51.0198 28.9904 50.8999 28.9904 50.7799C28.9904 50.6599 28.9904 50.2799 28.9904 50.0299V49.5199V47.9498C28.9904 47.5698 28.9904 47.2 28.9904 46.83C28.9904 46.69 28.9904 46.5498 28.9904 46.4198C28.9904 46.2898 28.9904 45.9298 28.9904 45.6898C28.9904 45.4498 28.9903 45.1598 28.9203 44.8998C28.8503 44.6398 28.8003 44.2999 28.5203 44.3099C28.4801 44.3133 28.4416 44.3272 28.4084 44.3502C28.3753 44.3732 28.3488 44.4043 28.3315 44.4408C28.3143 44.4773 28.307 44.5178 28.3103 44.558C28.3136 44.5982 28.3274 44.6366 28.3503 44.6698C28.381 44.7105 28.4226 44.7418 28.4703 44.7599V44.9098C28.4703 45.2998 28.5303 45.68 28.5403 46.07C28.5403 46.59 28.5403 47.0698 28.5403 47.6298C28.5403 47.9798 28.5404 48.3198 28.4904 48.6298C28.4404 48.9398 28.4904 49.3398 28.4304 49.6898C28.4304 50.1898 28.3403 50.6898 28.2803 51.1998C28.2001 51.873 28.0799 52.5409 27.9203 53.1998C27.8603 53.4298 27.7903 53.6698 27.7203 53.8998L27.4803 54.5599C27.2103 55.2399 26.9403 55.9199 26.6603 56.5599C26.4703 56.9699 26.3004 57.3799 26.1204 57.7999L25.8204 58.08C25.7916 58.1113 25.7756 58.1524 25.7756 58.195C25.7756 58.2375 25.7916 58.2786 25.8204 58.3099C25.8204 58.3099 25.8203 58.3099 25.8903 58.3099C25.6403 58.8499 25.4003 59.3898 25.1603 59.9298C24.8303 60.6798 24.5404 61.4398 24.2504 62.2098C23.9604 62.9798 23.7203 63.5799 23.4503 64.2699C23.3103 64.5899 23.1803 64.9199 23.0403 65.2699C22.9003 65.6199 22.7304 65.9299 22.5704 66.2699C22.3104 66.8199 22.0003 67.3498 21.7103 67.8898C21.7703 67.5998 21.8403 67.2999 21.9103 67.0099C22.0003 66.6899 22.0803 66.3699 22.1703 66.0599L22.4603 64.9298C22.4603 64.8098 22.5103 64.6799 22.5303 64.5599C22.5733 64.3819 22.6067 64.2016 22.6304 64.0199C22.6304 63.6699 22.7303 63.3299 22.7703 63.0199C22.8603 62.2699 22.9304 61.5199 22.9904 60.7699L23.1403 58.7699L23.3804 55.6698C23.3804 55.1498 23.4603 54.67 23.4803 54.1C23.6822 54.1143 23.8848 54.087 24.0757 54.0199C24.2667 53.9528 24.4418 53.8473 24.5903 53.7098C24.8098 53.507 24.9642 53.2437 25.0339 52.953C25.1035 52.6624 25.0854 52.3576 24.9818 52.0773C24.8781 51.7969 24.6935 51.5537 24.4515 51.3783C24.2094 51.2029 23.9209 51.1031 23.6222 51.0919C23.3235 51.0807 23.0282 51.1583 22.7737 51.3151C22.5192 51.4718 22.3169 51.7005 22.1925 51.9723C22.0681 52.2441 22.0272 52.5466 22.0748 52.8417C22.1225 53.1367 22.2567 53.411 22.4603 53.6298C22.6308 53.8077 22.8444 53.9388 23.0803 54.0099C23.0803 54.3766 23.0504 54.7467 22.9904 55.12C22.9904 55.47 22.9104 55.8298 22.8704 56.1798L22.6603 58.1798C22.5103 59.5798 22.3803 60.9898 22.2103 62.3898C22.2103 62.6598 22.1404 62.9398 22.1104 63.2098L21.9904 63.9799C21.9904 64.0999 21.9903 64.22 21.9203 64.34C21.8503 64.46 21.8603 64.6199 21.8403 64.7599L21.7504 65.12C21.7504 65.25 21.6803 65.3799 21.6503 65.5099L21.2603 66.86C21.1303 67.29 21.0203 67.7198 20.9203 68.1498C20.9203 68.2498 20.9203 68.3498 20.8503 68.4498L20.7903 68.7399L20.7303 69.11C20.6592 69.1725 20.5954 69.2429 20.5403 69.32C20.4636 69.4463 20.4254 69.5922 20.4304 69.7399C20.444 69.836 20.4781 69.9281 20.5303 70.0099L20.4703 70.12C20.0403 70.82 19.6003 71.5198 19.1603 72.2098C18.3403 73.4998 17.5603 74.81 16.7603 76.11C16.2503 76.94 15.7104 77.7499 15.1804 78.5599C15.1804 78.3999 15.2503 78.24 15.2803 78.08L15.5504 76.9098C15.7304 76.2598 15.9103 75.6098 16.1003 74.9598C16.2903 74.3098 16.5003 73.71 16.6603 73.07L16.8104 72.4799L16.9003 72.0499C16.9678 71.7198 17.0145 71.3859 17.0403 71.0499C17.0804 70.6142 17.0804 70.1756 17.0403 69.7399C17.0403 69.4499 16.9504 69.16 16.9304 68.87C16.8704 67.99 16.8104 67.1099 16.7404 66.2299C16.7404 66.0299 16.7404 65.8298 16.7404 65.6398V64.6398C16.7404 63.8398 16.7404 63.0299 16.6804 62.2299C16.6804 61.5699 16.6804 60.9099 16.6804 60.2299C16.6804 60.1399 16.6804 60.0499 16.6804 59.9699C17.048 59.829 17.3869 59.6224 17.6804 59.36C18.3009 58.773 18.6679 57.9669 18.7034 57.1134C18.7389 56.26 18.44 55.4264 17.8704 54.7899C17.5788 54.4599 17.2165 54.2001 16.8104 54.0299V53.9298C16.8104 53.9298 16.8104 53.9899 16.8104 54.0199C16.2006 53.7203 15.5132 53.6162 14.842 53.7218C14.1709 53.8274 13.5487 54.1376 13.0604 54.61ZM45.7903 53.09C45.7903 53 45.7903 52.91 45.7903 52.82C45.7903 52.73 45.7903 52.4499 45.7903 52.2699C45.7903 52.2199 45.7903 52.16 45.7903 52.11C45.7903 52.45 45.7903 52.77 45.7903 53.09ZM92.6503 19.87H92.7203L92.3804 20.0199L92.4803 19.9398C92.6201 19.8378 92.7537 19.7278 92.8804 19.61L93.3303 19.2098L93.7404 18.8099L94.4003 18.1298L95.1104 17.34C95.5339 17.5865 96.0022 17.7459 96.4881 17.8095C96.974 17.873 97.4677 17.8392 97.9404 17.7098L97.6804 17.84C96.8504 18.19 96.0103 18.53 95.1703 18.84C94.7504 19 94.3404 19.15 93.9304 19.33L92.6503 19.87ZM69.6503 46.7699L69.3303 46.8898L69.5004 46.7499C69.6004 46.6499 69.7104 46.5598 69.8004 46.4598L70.3104 45.9699L71.0403 45.2499C72.0403 44.2499 73.0403 43.2999 73.9103 42.2499C74.1703 41.9499 74.4203 41.63 74.6703 41.32C75.2601 41.6308 75.931 41.7533 76.5926 41.671C77.2542 41.5888 77.8747 41.3058 78.3704 40.86C78.4586 40.7712 78.5421 40.6777 78.6204 40.58C78.5589 41.0955 78.6135 41.6183 78.7803 42.11C78.3603 42.29 77.9403 42.4698 77.5403 42.6698C76.8903 42.9998 76.2604 43.3498 75.6204 43.6698C74.9804 43.9898 74.4403 44.31 73.8403 44.62L71.7103 45.6998H71.6104L71.3403 45.7799L70.8403 45.9398C70.7851 45.9592 70.7377 45.9961 70.7053 46.0448C70.6728 46.0935 70.657 46.1514 70.6603 46.2098C70.2903 46.4398 69.9704 46.6199 69.6304 46.7699H69.6503Z" fill="#DBCBB4"/>
<path d="M90.1202 11.2099C89.9089 11.4012 89.6305 11.5011 89.3458 11.488C89.061 11.4748 88.793 11.3497 88.6002 11.1398C88.4554 10.9823 88.3607 10.7853 88.3281 10.5739C88.2954 10.3625 88.3264 10.1462 88.4169 9.95231C88.5074 9.75846 88.6534 9.59576 88.8365 9.48503C89.0196 9.3743 89.2314 9.3204 89.4451 9.33024C89.6589 9.34009 89.8648 9.41337 90.0369 9.54045C90.209 9.66753 90.3396 9.84276 90.4119 10.0441C90.4842 10.2455 90.495 10.4638 90.4431 10.6713C90.3912 10.8789 90.2788 11.0663 90.1202 11.2099Z" fill="#DBCBB4"/>
<path d="M102.191 17.0001C101.931 16.7199 101.76 16.3687 101.7 15.9913C101.64 15.6139 101.693 15.2273 101.853 14.8802C102.013 14.5332 102.272 14.2414 102.598 14.0419C102.924 13.8423 103.302 13.7439 103.684 13.7594C104.066 13.7748 104.434 13.9033 104.743 14.1285C105.052 14.3537 105.287 14.6654 105.418 15.0243C105.55 15.3831 105.571 15.7731 105.481 16.1444C105.391 16.5157 105.192 16.8519 104.91 17.1102C104.527 17.4386 104.033 17.6096 103.529 17.5892C103.024 17.5688 102.546 17.3584 102.191 17.0001Z" fill="#DBCBB4"/>
</svg>
