<svg width="422" height="57" viewBox="0 0 422 57" fill="none" xmlns="http://www.w3.org/2000/svg">
<path d="M192.02 15.9102C189.61 15.6402 186.82 14.97 184.43 15.42C182.976 15.5856 181.612 16.213 180.54 17.21C180.311 17.4357 180.129 17.7049 180.005 18.002C179.882 18.2992 179.819 18.6187 179.82 18.9405C179.886 19.3728 180.07 19.7777 180.353 20.1114C180.635 20.4451 181.005 20.6943 181.42 20.8302C182.256 21.0801 183.131 21.1712 184 21.0997C183.337 22.1427 183.012 23.3651 183.07 24.5997C183.112 25.2141 183.341 25.8009 183.728 26.2803C184.114 26.7598 184.639 27.1093 185.23 27.2803C185.68 27.3526 186.14 27.3267 186.578 27.2042C187.017 27.0816 187.423 26.8653 187.77 26.5704C188.461 25.9702 189.049 25.2602 189.51 24.4698C190.654 22.716 191.699 20.9004 192.64 19.0303C192.192 19.3941 191.675 19.663 191.12 19.8204C190.842 19.8913 190.55 19.8795 190.278 19.7872C190.006 19.6949 189.767 19.5255 189.59 19.2999C189.445 18.9531 189.42 18.5678 189.52 18.2052C189.62 17.8425 189.838 17.5236 190.14 17.2999C190.72 16.7899 191.47 16.49 192.02 15.96" fill="#DBCBB4"/>
<path d="M194.26 14.3496C193.66 14.6429 193.172 15.124 192.87 15.7197C192.702 16.0215 192.597 16.3551 192.562 16.6992C192.528 17.0433 192.565 17.3905 192.67 17.7197C192.778 18.0456 192.983 18.33 193.259 18.5342C193.535 18.7383 193.867 18.8528 194.21 18.8604C194.757 18.7979 195.262 18.5379 195.63 18.1299C195.953 17.8414 196.21 17.4869 196.382 17.0898C196.555 16.6928 196.64 16.2629 196.63 15.8301C196.462 15.3489 196.131 14.9412 195.695 14.6768C195.259 14.4123 194.745 14.3072 194.24 14.3799" fill="#DBCBB4"/>
<path d="M190.94 15.0591C189.87 15.1791 188.94 14.06 188.27 12.94C186.75 10.51 185.43 7.3891 185.92 4.2691C186.08 3.2691 186.52 2.26964 187.24 2.07964C187.96 1.88964 188.7 2.79945 189.24 3.62945C189.317 2.69393 189.665 1.8007 190.24 1.05913C190.422 0.915026 190.633 0.811176 190.858 0.75347C191.083 0.695764 191.317 0.68553 191.546 0.724173C191.775 0.762816 191.994 0.849749 192.187 0.97808C192.381 1.10641 192.546 1.27339 192.67 1.46929C193.326 2.39135 193.748 3.45882 193.9 4.57964C194.375 7.53681 194.436 10.5452 194.08 13.5191C193.45 12.7591 192.77 10.5195 192.08 9.95953C191.73 9.70953 191.26 9.49945 190.99 9.87945C190.863 10.1161 190.798 10.3814 190.8 10.65C190.659 12.1203 190.71 13.6018 190.95 15.0591" fill="#DBCBB4"/>
<path d="M194.43 19.8701C193.21 21.7501 193.43 24.2096 193.99 26.3896C194.329 28.1105 195.009 29.7465 195.99 31.2002C196.291 31.6544 196.705 32.0223 197.19 32.2695C197.432 32.3942 197.705 32.4477 197.976 32.4229C198.247 32.3981 198.505 32.2964 198.72 32.1299C198.897 31.9416 199.034 31.7197 199.123 31.4775C199.212 31.2353 199.252 30.9776 199.24 30.7197C199.271 30.129 199.22 29.5371 199.09 28.96C200.15 29.01 201.15 29.4904 202.21 29.6104C203.27 29.7304 204.55 29.2802 204.8 28.2402C204.829 27.8139 204.766 27.3864 204.616 26.9863C204.466 26.5862 204.232 26.2224 203.93 25.9199C202.197 23.6266 200.47 21.3396 198.75 19.0596C198.45 19.7796 198.16 20.4997 197.87 21.2197C197.737 21.5956 197.522 21.9372 197.24 22.2197C197.043 22.3824 196.804 22.4855 196.55 22.5156C196.297 22.5458 196.04 22.5016 195.81 22.3896C195.175 21.658 194.774 20.7525 194.66 19.79" fill="#DBCBB4"/>
<path d="M196.79 13.8091C197.492 12.1583 198.447 10.6266 199.62 9.26906C200.804 7.9031 202.378 6.93355 204.13 6.48976C204.459 6.37315 204.811 6.33387 205.158 6.3755C205.505 6.41713 205.838 6.53877 206.13 6.72999C206.395 6.96155 206.589 7.26224 206.69 7.59913C206.845 8.09287 206.864 8.62008 206.744 9.12355C206.624 9.62702 206.371 10.0884 206.01 10.4595C207.29 9.89949 208.76 10.9297 209.44 12.1597C209.693 12.5399 209.853 12.9738 209.906 13.4273C209.96 13.8807 209.907 14.3402 209.75 14.7691C209.556 15.116 209.286 15.4156 208.961 15.6441C208.635 15.8726 208.262 16.0245 207.87 16.0894C207.086 16.2047 206.291 16.2347 205.5 16.1792C203.035 16.1379 200.582 16.5414 198.26 17.3696C198.664 16.969 198.975 16.4842 199.17 15.9497C199.39 15.4297 199.92 14.6298 199.48 14.2798C199.04 13.9298 198.56 13.2791 196.83 13.8091" fill="#DBCBB4"/>
<path d="M187.9 15.0702C187.8 15.3102 187.37 15.2494 187.11 15.2694C184.721 15.33 182.375 14.6296 180.41 13.2694C180.191 13.1549 180.007 12.9819 179.88 12.7694C179.82 12.5385 179.844 12.2936 179.949 12.079C180.053 11.8644 180.231 11.6944 180.45 11.5995C180.911 11.4475 181.405 11.4198 181.88 11.5194C181.509 11.0458 181.293 10.4705 181.26 9.87003C181.248 9.57276 181.31 9.27681 181.441 9.00968C181.572 8.74254 181.768 8.51237 182.01 8.33975C182.35 8.1604 182.735 8.0834 183.118 8.1171C183.501 8.1508 183.866 8.29419 184.17 8.53018C184.766 9.01055 185.268 9.5966 185.65 10.2597C186.42 11.3997 187.22 12.52 188.06 13.62C187.326 13.2787 186.549 13.0399 185.75 12.9101C185.38 12.8401 184.92 12.8503 184.75 13.1903C184.702 13.3038 184.688 13.4286 184.711 13.5497C184.734 13.6708 184.793 13.7825 184.88 13.87C185.062 14.041 185.276 14.1732 185.51 14.2597C186.287 14.5913 187.085 14.8687 187.9 15.0898" fill="#DBCBB4"/>
<path d="M195.15 12.4903C195.017 10.1729 195.244 7.8482 195.82 5.59971C195.893 5.10876 196.063 4.63817 196.32 4.21397C196.578 3.78977 196.918 3.42082 197.32 3.12998C197.464 3.02815 197.632 2.9661 197.808 2.9503C197.984 2.93449 198.16 2.96565 198.32 3.04014C198.477 3.15331 198.602 3.30466 198.684 3.47959C198.767 3.65452 198.803 3.84728 198.79 4.04014C198.745 4.44223 198.745 4.84801 198.79 5.2501C199.13 5.03882 199.507 4.89329 199.9 4.82041C200.09 4.79497 200.283 4.82087 200.46 4.89659C200.636 4.97231 200.788 5.09471 200.9 5.2501C201.22 5.7801 200.83 6.44053 200.45 6.94053L196.22 12.4601C196.738 11.6578 196.944 10.694 196.8 9.7501C196.8 9.6201 196.71 9.4403 196.57 9.4503C196.528 9.46176 196.488 9.48136 196.453 9.50889C196.419 9.53642 196.391 9.57145 196.37 9.61045C195.9 10.3205 195.64 11.7705 195.16 12.4405" fill="#DBCBB4"/>
<path d="M199.86 18.7804C201.115 20.1338 202.494 21.3656 203.98 22.4601C204.372 22.8003 204.855 23.0191 205.37 23.0899C205.617 23.0914 205.856 23.0014 206.041 22.837C206.225 22.6727 206.343 22.446 206.37 22.2003C206.338 21.9951 206.259 21.7998 206.14 21.63C205.77 21.0567 205.278 20.572 204.7 20.2101C205.891 20.2167 207.057 19.8685 208.05 19.2101C208.373 19.022 208.642 18.7529 208.83 18.4298C208.909 18.2726 208.945 18.0976 208.934 17.922C208.924 17.7464 208.867 17.5765 208.77 17.4298C208.628 17.2881 208.458 17.1796 208.27 17.1105C207.388 16.8163 206.457 16.6999 205.53 16.7696C203.39 16.7696 201.26 17.0499 199.13 17.2999C200.093 17.3589 201.035 17.6108 201.9 18.0401C202.18 18.1801 202.48 18.4703 202.34 18.7403C202.285 18.8351 202.201 18.909 202.1 18.9503C201.686 19.0617 201.252 19.0731 200.834 18.9845C200.415 18.8958 200.023 18.7099 199.69 18.4405" fill="#DBCBB4"/>
<path d="M192.42 20.6299L190.09 24.9102C189.34 26.3002 188.55 27.8304 188.78 29.4004C188.804 29.7694 188.948 30.1205 189.19 30.4004C189.31 30.5411 189.472 30.6392 189.652 30.6807C189.832 30.7221 190.021 30.7041 190.19 30.6299C190.74 30.3599 190.66 29.56 190.92 29C191.011 29.6431 191.314 30.238 191.78 30.6904C191.868 30.788 191.983 30.8568 192.11 30.8896C192.41 30.8896 192.64 30.6404 192.75 30.3604C193.005 29.3157 193.005 28.2244 192.75 27.1797C192.55 25.5189 192.689 23.8357 193.16 22.2305C192.751 23.2557 192.111 24.1724 191.29 24.9102C191.248 24.8282 191.226 24.7367 191.226 24.6445C191.226 24.5524 191.248 24.4619 191.29 24.3799C191.62 23.3799 191.95 22.3799 192.29 21.3799" fill="#DBCBB4"/>
<path d="M67.6201 35.8203C55.2401 36.7003 47.4201 24.2897 35.6201 22.8897C31.2735 22.4034 26.8783 23.1668 22.9501 25.0898C17.3701 27.7998 12.7201 37.0896 6.02009 33.8096C5.43009 33.5196 4.67008 34.3296 5.26008 34.8096C6.54154 35.9048 8.18094 36.4911 9.86628 36.4561C11.5516 36.421 13.1652 35.7676 14.4001 34.6201C17.1201 32.2301 18.6401 29.4097 21.8601 27.4297C24.9645 25.5434 28.4917 24.4643 32.1201 24.29C45.6201 23.72 53.9201 38.2203 67.6601 36.5303C68.0801 36.4803 68.1101 35.8098 67.6601 35.8398L67.6201 35.8203Z" fill="#DBCBB4"/>
<path d="M68.8598 29.6397C63.6998 29.0297 58.2098 30.3898 54.7998 34.5498C53.4599 36.1349 52.5935 38.0656 52.2998 40.1202C52.1748 41.3503 52.1748 42.5902 52.2998 43.8204C52.4598 45.0004 52.5998 46.1804 52.7198 47.3604C53.3265 50.7937 51.1431 52.6497 46.1698 52.9297C46.0766 52.8077 45.942 52.7242 45.7913 52.6944C45.6407 52.6646 45.4843 52.6912 45.3516 52.7686C45.219 52.846 45.1191 52.9685 45.0709 53.1143C45.0227 53.2601 45.0294 53.4184 45.0898 53.5596C47.1598 57.4396 51.9398 55.9097 53.4798 52.3497C55.3098 48.1197 52.5698 43.4704 53.6498 39.1504C55.3598 32.2604 62.7298 30.5702 68.8198 30.4502C68.9163 30.435 69.0042 30.3858 69.0676 30.3116C69.1311 30.2373 69.166 30.1426 69.166 30.045C69.166 29.9473 69.1311 29.8526 69.0676 29.7784C69.0042 29.7041 68.9163 29.6549 68.8198 29.6397H68.8598Z" fill="#DBCBB4"/>
<path d="M52.1101 39.29C52.1101 41.41 52.6001 43.6497 54.4101 44.9697C55.2146 45.6252 56.2266 45.9721 57.264 45.9482C58.3015 45.9244 59.2965 45.5316 60.0701 44.8398C61.2201 43.6998 61.8601 41.3499 60.4401 40.1299C60.1651 39.9124 59.8402 39.7665 59.4949 39.7061C59.1496 39.6456 58.7946 39.673 58.4621 39.7842C58.1296 39.8953 57.83 40.0868 57.5905 40.3428C57.3509 40.5988 57.1789 40.9109 57.0901 41.25C57.0885 41.3682 57.1257 41.4841 57.1961 41.5791C57.2665 41.6741 57.3661 41.7425 57.4796 41.7754C57.5932 41.8083 57.7144 41.8034 57.8246 41.7607C57.9349 41.7181 58.0282 41.6408 58.0901 41.54C58.7801 39.88 59.8901 41.0303 60.1401 41.7803C60.2422 42.1729 60.2397 42.5853 60.1326 42.9766C60.0256 43.3679 59.8178 43.7238 59.5301 44.0098C59.096 44.4753 58.5359 44.8043 57.9179 44.957C57.3 45.1097 56.651 45.0799 56.0501 44.8701C53.6701 44.1501 52.6201 41.56 52.6101 39.29C52.5981 39.2286 52.5651 39.1736 52.5167 39.1338C52.4684 39.094 52.4077 39.0713 52.3451 39.0713C52.2824 39.0713 52.2217 39.094 52.1734 39.1338C52.1251 39.1736 52.0921 39.2286 52.0801 39.29H52.1101Z" fill="#DBCBB4"/>
<path d="M68.4702 29.7691C67.6266 30.0721 66.932 30.6887 66.5302 31.4898C66.1902 32.1698 65.7602 33.3996 66.4202 33.9996C66.4848 34.0604 66.5622 34.1061 66.6466 34.1334C66.7311 34.1607 66.8205 34.1683 66.9085 34.1568C66.9965 34.1454 67.0809 34.115 67.1555 34.067C67.2302 34.019 67.2932 33.9548 67.3401 33.8795C67.6801 33.4195 67.5102 32.7298 67.7402 32.1998C67.9893 31.6368 68.3955 31.1578 68.9102 30.8199C69.4102 30.4799 69.1202 29.5299 68.4702 29.8199V29.7691Z" fill="#DBCBB4"/>
<path d="M68.6201 28.7695C67.8201 28.1795 66.9101 27.7699 66.1401 27.1299C65.3701 26.4899 64.8501 25.6595 64.1401 25.0195C63.4301 24.3795 62.3501 25.0199 62.6701 25.8799C63.1839 26.9889 64.0194 27.9181 65.068 28.5459C66.1167 29.1737 67.33 29.4715 68.5501 29.4004C68.8701 29.4004 68.8401 28.9295 68.6301 28.7695H68.6201Z" fill="#DBCBB4"/>
<path d="M80.1902 28.1395C76.7702 27.7695 72.8102 26.81 69.4302 27.45C67.3702 27.6891 65.44 28.5789 63.9202 29.9901C63.5978 30.3105 63.3431 30.6922 63.1713 31.1131C62.9995 31.534 62.9141 31.9857 62.9202 32.4403C63.0111 33.0516 63.2708 33.6248 63.67 34.0965C64.0693 34.5682 64.5924 34.9196 65.1802 35.1102C66.3621 35.4657 67.5999 35.5976 68.8302 35.4998C67.8808 36.9882 67.4226 38.7371 67.5202 40.4998C67.5796 41.3616 67.8977 42.1851 68.433 42.8631C68.9682 43.5411 69.6957 44.0419 70.5202 44.2996C71.1585 44.4061 71.8123 44.3718 72.4359 44.1991C73.0594 44.0263 73.6377 43.7193 74.1302 43.2996C75.1111 42.4405 75.9453 41.4272 76.6002 40.2996C78.2097 37.8117 79.6884 35.2414 81.0302 32.5994C80.392 33.1049 79.6619 33.4822 78.8802 33.7098C78.4868 33.8151 78.0711 33.8016 77.6851 33.6717C77.2991 33.5419 76.96 33.3019 76.7102 32.9803C76.1102 32.0603 76.7102 30.7999 77.4902 30.0799C78.2702 29.3599 79.3602 28.9298 80.1502 28.1698" fill="#DBCBB4"/>
<path d="M83.3604 25.9401C82.4989 26.345 81.7957 27.0233 81.3604 27.8698C81.1232 28.2918 80.9742 28.7576 80.9227 29.239C80.8711 29.7203 80.9179 30.2069 81.0604 30.6696C81.2168 31.1279 81.5093 31.5275 81.8989 31.8151C82.2884 32.1028 82.7564 32.2652 83.2404 32.28C84.0054 32.1971 84.7151 31.8422 85.2404 31.28C85.7303 30.8863 86.1243 30.3862 86.3928 29.8181C86.6613 29.2499 86.7972 28.6281 86.7904 27.9997C86.6604 26.7697 84.5804 25.6097 83.4004 25.9997" fill="#DBCBB4"/>
<path d="M78.6498 26.9401C77.1398 27.1101 75.8598 25.5101 74.8698 23.9401C72.7098 20.5001 70.8698 16.0801 71.5498 11.6501C71.7698 10.2601 72.3898 8.7797 73.4198 8.5397C74.4498 8.2997 75.4898 9.53966 76.2298 10.7497C76.5098 9.37966 76.8398 7.89927 77.7098 7.09927C78.7098 6.09927 80.2098 6.55935 81.1398 7.67935C82.072 8.98673 82.6757 10.4995 82.8998 12.0895C83.5647 16.2815 83.6455 20.5453 83.1398 24.7594C82.2598 23.6794 81.2998 20.4994 80.2598 19.7594C79.7698 19.3894 79.0898 19.0993 78.7098 19.6393C78.5295 19.9741 78.4367 20.3499 78.4398 20.7301C78.2434 22.8139 78.314 24.9142 78.6498 26.9801" fill="#DBCBB4"/>
<path d="M83.5995 33.75C81.8695 36.41 82.2395 39.9002 82.9695 42.9902C83.4389 45.4244 84.391 47.7395 85.7695 49.7998C86.199 50.4442 86.7835 50.9706 87.4695 51.3301C87.8149 51.5004 88.201 51.5713 88.5844 51.5342C88.9677 51.4971 89.3331 51.3535 89.6395 51.1201C89.8898 50.8528 90.0842 50.5378 90.2112 50.1943C90.3383 49.8509 90.3955 49.486 90.3795 49.1201C90.4176 48.2835 90.3402 47.4454 90.1495 46.6299C91.6595 46.7099 93.0795 47.3798 94.5795 47.5498C96.0795 47.7198 97.8995 47.0804 98.2495 45.6104C98.5295 44.4304 97.7495 43.2903 97.0195 42.3203L89.6695 32.6104C89.2595 33.6104 88.8395 34.6104 88.4295 35.6104C88.2495 36.1673 87.9412 36.6737 87.5295 37.0898C87.2544 37.3177 86.9195 37.4613 86.5648 37.5039C86.2101 37.5465 85.8507 37.4863 85.5295 37.3301C84.8795 37.0101 83.8495 34.3296 83.9095 33.6396" fill="#DBCBB4"/>
<path d="M86.9201 25.1702C87.9151 22.831 89.2642 20.6595 90.9201 18.7308C92.603 16.8067 94.8261 15.4333 97.3001 14.7904C97.7606 14.6398 98.2487 14.5931 98.7294 14.6536C99.21 14.7142 99.6714 14.8799 100.08 15.14C100.459 15.4629 100.734 15.8914 100.87 16.3704C101.085 17.0744 101.106 17.8236 100.93 18.5384C100.754 19.2532 100.388 19.9064 99.8701 20.43C101.69 19.63 103.77 21.0904 104.73 22.8304C105.087 23.37 105.312 23.9864 105.387 24.6292C105.462 25.272 105.384 25.9234 105.16 26.5306C104.887 27.0203 104.507 27.4419 104.048 27.764C103.589 28.0861 103.063 28.2997 102.51 28.39C101.399 28.5617 100.272 28.6093 99.1501 28.5306C95.6571 28.4719 92.182 29.0406 88.8901 30.2103C89.459 29.6441 89.899 28.962 90.1801 28.2103C90.4901 27.4803 91.2501 26.3402 90.6201 25.8402C89.9901 25.3402 89.3101 24.44 86.8701 25.18" fill="#DBCBB4"/>
<path d="M74.3497 27.0004C74.2097 27.3404 73.5897 27.2607 73.2297 27.2807C69.8424 27.3635 66.5172 26.3611 63.7397 24.4203C63.4247 24.2635 63.1636 24.0163 62.9897 23.7104C62.8864 23.3839 62.913 23.0304 63.0638 22.723C63.2147 22.4157 63.4783 22.1779 63.7997 22.06C64.4439 21.8432 65.1342 21.8026 65.7997 21.9408C65.2808 21.2692 64.9744 20.4577 64.9197 19.6107C64.9033 19.1896 64.9916 18.7707 65.1765 18.392C65.3615 18.0133 65.6375 17.6868 65.9797 17.4408C66.4607 17.185 67.0053 17.0734 67.5481 17.1195C68.0909 17.1656 68.6088 17.3673 69.0397 17.7006C69.8867 18.3828 70.5989 19.217 71.1397 20.1605C72.2264 21.7805 73.3631 23.367 74.5497 24.9203C73.5111 24.4377 72.4106 24.1012 71.2797 23.9203C70.7597 23.8303 70.0997 23.8407 69.8597 24.3207C69.7836 24.4872 69.7619 24.6734 69.7978 24.8529C69.8338 25.0325 69.9254 25.1963 70.0597 25.3207C70.3073 25.5687 70.6083 25.7566 70.9397 25.8705C72.0391 26.3469 73.1722 26.741 74.3297 27.0502" fill="#DBCBB4"/>
<path d="M84.6197 23.2994C84.4293 20.0165 84.7498 16.7242 85.5697 13.5396C85.9197 12.1796 86.4597 10.7196 87.6897 10.0396C87.8924 9.90442 88.1256 9.82207 88.3683 9.79937C88.6109 9.77668 88.8554 9.81448 89.0797 9.90973C89.3139 10.0754 89.4989 10.3017 89.6151 10.564C89.7313 10.8263 89.7744 11.1152 89.7397 11.4C89.6799 11.9717 89.6799 12.5479 89.7397 13.1197C90.2203 12.8179 90.7526 12.6076 91.3097 12.4996C91.5886 12.4547 91.8746 12.4876 92.1358 12.5953C92.3971 12.7029 92.6234 12.8815 92.7897 13.1099C93.2397 13.8699 92.6797 14.7996 92.1497 15.4996L86.1497 23.3199C86.8743 22.1832 87.1654 20.8235 86.9697 19.4898C86.9697 19.2998 86.8297 19.0499 86.6297 19.0699C86.4297 19.0899 86.4197 19.1896 86.3597 19.2896C85.6897 20.2896 85.3097 22.3496 84.6397 23.2896" fill="#DBCBB4"/>
<path d="M91.3004 32.2095C93.0742 34.1271 95.0263 35.8715 97.1304 37.4195C97.6944 37.9074 98.3904 38.2168 99.1304 38.3091C99.3107 38.3255 99.4925 38.3062 99.665 38.2515C99.8376 38.1967 99.9974 38.1081 100.135 37.9907C100.273 37.8734 100.386 37.7295 100.468 37.5679C100.549 37.4063 100.598 37.2299 100.61 37.0493C100.573 36.7601 100.462 36.4852 100.29 36.2495C99.7781 35.4446 99.0954 34.7618 98.2904 34.2495C99.9706 34.268 101.619 33.7914 103.03 32.8794C103.491 32.6184 103.877 32.2432 104.15 31.7896C104.28 31.5587 104.34 31.2959 104.324 31.0318C104.308 30.7676 104.217 30.5129 104.06 30.2993C103.861 30.0993 103.618 29.9492 103.35 29.8599C102.098 29.4458 100.777 29.2791 99.4604 29.3697C96.4604 29.4397 93.4104 29.7694 90.4004 30.1294C91.7659 30.1845 93.1047 30.5252 94.3304 31.1294C94.7204 31.3194 95.1504 31.7294 94.9504 32.1294C94.8719 32.2584 94.7521 32.3573 94.6104 32.4097C93.5204 32.9397 92.2504 32.3097 91.2004 31.6997" fill="#DBCBB4"/>
<path d="M80.7903 34.8301C79.6903 36.8301 78.5936 38.8496 77.5003 40.8896C76.4203 42.8896 75.3203 45.02 75.6403 47.25C75.6862 47.7511 75.8852 48.2263 76.2103 48.6104C76.3765 48.8003 76.5975 48.9341 76.8429 48.9932C77.0882 49.0523 77.3459 49.0339 77.5803 48.9404C78.3603 48.5504 78.2403 47.4199 78.5803 46.6299C78.7045 47.5446 79.1345 48.3909 79.8003 49.0303C79.9279 49.1655 80.0907 49.2617 80.2703 49.3096C80.6903 49.3796 81.0203 48.9596 81.1703 48.5596C81.7103 47.1396 81.3403 45.5598 81.1703 44.0498C80.893 41.7012 81.0902 39.3208 81.7503 37.0498C81.1831 38.5045 80.2783 39.8036 79.1103 40.8398C79.0531 40.7249 79.0233 40.5981 79.0233 40.4697C79.0233 40.3413 79.0531 40.2146 79.1103 40.0996C79.5803 38.7096 80.0403 37.3199 80.5103 35.9199" fill="#DBCBB4"/>
<path d="M48.94 26.7695C47.4013 25.5188 46.2723 23.8366 45.6984 21.9385C45.1245 20.0404 45.132 18.0139 45.72 16.1201C45.9858 16.5647 46.3846 16.9146 46.86 17.1201C48.23 14.7301 47.29 11.44 48.86 9.20996C48.9312 9.08395 49.0288 8.97522 49.1462 8.89062C49.2636 8.80603 49.398 8.74734 49.54 8.71973C49.761 8.72041 49.9755 8.79422 50.15 8.92969C51.8627 10.1225 53.0793 11.9011 53.57 13.9297C54.0499 15.9303 54.2816 17.9828 54.26 20.04C54.9959 19.3112 55.6808 18.5326 56.31 17.71C57.244 19.7891 57.4739 22.1162 56.965 24.3379C56.456 26.5596 55.236 28.5543 53.4901 30.0195C52.8096 27.1026 51.4951 24.3712 49.64 22.0195C49.0051 23.6752 48.8255 25.4711 49.12 27.2197" fill="#DBCBB4"/>
<path d="M24.7304 22.2598C25.4821 20.9465 26.0411 19.5319 26.3904 18.0596C26.7326 16.5693 26.4777 15.0049 25.6804 13.7002C24.8582 12.7646 23.9834 11.8763 23.0603 11.04C21.1303 8.83004 21.0603 5.60969 21.0603 2.67969C19.7199 3.02629 18.488 3.70429 17.478 4.65137C16.468 5.59845 15.7123 6.78415 15.2803 8.09961C14.4487 10.7419 14.2164 13.537 14.6003 16.2803C13.8281 14.9148 12.7749 13.7282 11.5104 12.7998C11.2114 15.425 11.9509 18.0632 13.5709 20.1504C15.191 22.2376 17.5631 23.6081 20.1804 23.9697C19.4909 22.7299 19.0896 21.3507 19.0065 19.9346C18.9234 18.5184 19.1606 17.102 19.7004 15.79C21.7457 17.6231 23.2617 19.9712 24.0903 22.5898" fill="#DBCBB4"/>
<path d="M43.5203 30.5501C42.7503 29.6501 41.2803 29.9001 40.2503 30.4701C38.5969 31.4047 37.3682 32.9416 36.8203 34.7601C36.621 35.7326 36.3706 36.6938 36.0703 37.64C35.1503 39.88 32.7703 41.1002 30.5703 42.1302C32.146 43.1155 33.933 43.7125 35.7845 43.8724C37.636 44.0323 39.499 43.7507 41.2203 43.0501C40.744 43.4867 40.4213 44.0658 40.3003 44.7005C41.7097 44.5759 43.0771 44.156 44.3135 43.4681C45.5499 42.7802 46.6276 41.8393 47.4765 40.7074C48.3255 39.5755 48.9266 38.2774 49.2408 36.8978C49.555 35.5182 49.5753 34.0884 49.3003 32.7005C46.7126 34.7868 43.4508 35.8539 40.1303 35.7005C41.7107 34.1769 43.0046 32.3819 43.9503 30.4007" fill="#DBCBB4"/>
<path d="M41.5102 25.4004C37.7702 23.4904 34.4002 21.34 32.3002 17.54C30.7802 14.79 30.3002 11.1902 33.4802 9.24023C34.2014 8.82351 35.0124 8.58636 35.8445 8.5498C36.6766 8.51324 37.5052 8.6784 38.2602 9.03027C39.1828 9.44719 39.9021 10.2132 40.2602 11.1602C41.8802 13.0802 40.6268 14.0596 36.5002 14.0996C35.9802 13.4796 34.8902 14.2997 35.3702 14.9697C37.2902 17.6697 41.9202 18.2104 42.5802 14.1504C43.2402 10.0904 38.8202 6.27003 34.8402 7.04003C33.9166 7.23634 33.0442 7.62374 32.2788 8.17675C31.5135 8.72976 30.8721 9.43571 30.3958 10.251C29.9194 11.0662 29.6186 11.9729 29.5126 12.9111C29.4066 13.8494 29.4977 14.7992 29.7802 15.7002C31.2302 20.5302 36.4802 24.7796 41.1902 26.0996C41.2811 26.1292 41.3799 26.124 41.4668 26.084C41.5537 26.044 41.6223 25.9722 41.6589 25.8838C41.6955 25.7954 41.6975 25.6972 41.6643 25.6074C41.6312 25.5177 41.5654 25.4438 41.4802 25.4004H41.5102Z" fill="#DBCBB4"/>
<path d="M33.0005 23.6105C29.8405 24.3805 26.0005 26.8005 26.8005 30.6105C26.8462 30.7569 26.9422 30.8816 27.0716 30.964C27.2009 31.0464 27.3552 31.081 27.5072 31.0607C27.6592 31.0403 27.7991 30.9672 27.9022 30.8536C28.0052 30.7401 28.0649 30.5938 28.0705 30.4406C28.0005 29.6259 28.1489 28.8067 28.5004 28.0685C28.852 27.3303 29.3939 26.6995 30.0705 26.2404C31.0705 25.5004 32.3905 25.2901 33.3205 24.5001C33.3867 24.4394 33.4342 24.3614 33.4572 24.2745C33.4802 24.1877 33.4779 24.0954 33.4505 24.0099V23.84C33.423 23.7596 33.3673 23.6918 33.2938 23.6495C33.2202 23.6072 33.1337 23.5938 33.0505 23.6105H33.0005Z" fill="#DBCBB4"/>
<path d="M30.7196 19.4695C30.4937 19.0999 30.2178 18.7634 29.8996 18.4695C29.5896 18.1195 29.3996 17.7699 28.8996 17.6199C28.801 17.5919 28.6973 17.5871 28.5966 17.6062C28.4959 17.6253 28.4011 17.6681 28.3196 17.7302C28.2381 17.7923 28.1722 17.8716 28.127 17.9636C28.0819 18.0556 28.0588 18.1571 28.0596 18.2595C28.0596 19.2595 29.3496 20.1295 30.2196 20.2595C30.6596 20.2595 30.8596 19.77 30.6896 19.45L30.7196 19.4695Z" fill="#DBCBB4"/>
<path d="M37.7903 20.9099C37.598 20.5047 37.4537 20.078 37.3603 19.6394C37.3079 19.1901 37.1864 18.7518 37.0003 18.3396C36.9184 18.2087 36.7965 18.1078 36.6528 18.0515C36.509 17.9951 36.3509 17.9867 36.2019 18.0271C36.0528 18.0674 35.9207 18.1539 35.8249 18.2751C35.7292 18.3963 35.675 18.5456 35.6703 18.6999C35.5703 19.6999 36.5303 20.6999 37.1403 21.4099C37.4703 21.7799 37.9903 21.3099 37.7903 20.9099Z" fill="#DBCBB4"/>
<path d="M16.0596 26.9404C15.5753 27.4059 15.0005 27.7661 14.3709 28C13.7413 28.234 13.0703 28.3361 12.3996 28.2998C11.5525 28.0972 10.7561 27.7232 10.0596 27.2002C8.08429 25.8529 5.85594 24.9205 3.50963 24.46C3.10612 24.354 2.68444 24.3367 2.27361 24.4092C1.86277 24.4817 1.47251 24.6423 1.12962 24.8799C0.844409 25.1751 0.651028 25.5473 0.572923 25.9502C0.494818 26.3532 0.535344 26.77 0.689622 27.1504C1.01666 27.9036 1.55068 28.5479 2.22963 29.0098C4.26004 30.5531 6.81302 31.2426 9.34425 30.9307C11.8755 30.6187 14.1847 29.33 15.7796 27.3399" fill="#DBCBB4"/>
<path d="M107.17 37.3394C120.9 39.0294 129.17 24.4899 142.71 25.1099C146.338 25.2819 149.864 26.3578 152.97 28.2398C155.9 30.0398 157.52 32.6397 159.91 34.9497C162.73 37.6797 166.45 38.0794 169.57 35.6294C170.16 35.1694 169.41 34.3494 168.81 34.6294C162.11 37.9194 157.93 29.0295 152.52 26.2095C148.433 24.0657 143.797 23.195 139.21 23.7095C127.38 25.0995 119.54 37.5192 107.21 36.6392C106.77 36.6392 106.79 37.2698 107.21 37.3198L107.17 37.3394Z" fill="#DBCBB4"/>
<path d="M105.93 31.2807C111.76 31.4007 118.28 32.76 120.65 38.85C122.46 43.51 119.29 48.5909 121.27 53.1909C122.81 56.7409 127.59 58.2601 129.66 54.3901C129.72 54.2489 129.727 54.0906 129.679 53.9448C129.631 53.7989 129.531 53.6755 129.398 53.5981C129.266 53.5207 129.109 53.495 128.959 53.5248C128.808 53.5546 128.673 53.6381 128.58 53.7602C123.607 53.4669 121.423 51.6109 122.03 48.1909C122.15 47.0109 122.29 45.8308 122.45 44.6508C122.58 43.4209 122.58 42.1805 122.45 40.9506C122.151 38.9004 121.286 36.9741 119.95 35.3901C116.55 31.2301 111.05 29.8602 105.89 30.4702C105.794 30.4854 105.706 30.5346 105.642 30.6088C105.579 30.6831 105.544 30.7778 105.544 30.8754C105.544 30.9731 105.579 31.0678 105.642 31.142C105.706 31.2163 105.794 31.2655 105.89 31.2807H105.93Z" fill="#DBCBB4"/>
<path d="M122.15 40.1201C122.15 42.4001 121.09 44.9802 118.72 45.7002C118.154 45.8939 117.547 45.9319 116.961 45.8105C116.375 45.6892 115.833 45.4125 115.39 45.0098C114.887 44.5129 114.575 43.8547 114.51 43.1504C114.51 42.0804 115.9 40.5301 116.67 42.3701C116.93 42.9801 117.88 42.7701 117.67 42.0801C117.584 41.7557 117.422 41.4566 117.198 41.207C116.974 40.9574 116.693 40.7646 116.38 40.6445C116.066 40.5244 115.729 40.4799 115.395 40.5156C115.062 40.5514 114.741 40.6658 114.46 40.8496C112.87 41.9996 113.51 44.4997 114.69 45.6797C115.431 46.3414 116.376 46.7292 117.368 46.7783C118.359 46.8275 119.338 46.5355 120.14 45.9502C122.14 44.6502 122.66 42.3401 122.65 40.1201C122.638 40.0586 122.605 40.0027 122.557 39.9629C122.509 39.9231 122.448 39.9014 122.385 39.9014C122.323 39.9014 122.262 39.9231 122.214 39.9629C122.165 40.0027 122.132 40.0586 122.12 40.1201H122.15Z" fill="#DBCBB4"/>
<path d="M106.26 30.2405C107.481 30.3093 108.694 30.0096 109.743 29.3802C110.791 28.7507 111.626 27.8203 112.14 26.7102C112.45 25.8202 111.27 25.3306 110.66 25.8606C110.05 26.3906 109.39 27.3202 108.66 27.9602C107.93 28.6002 106.98 29.0099 106.18 29.5999C105.97 29.7599 105.94 30.1805 106.27 30.2405H106.26Z" fill="#DBCBB4"/>
<path d="M125.85 27.5996C127.389 26.3488 128.518 24.6667 129.092 22.7686C129.665 20.8705 129.658 18.844 129.07 16.9502C128.804 17.3948 128.405 17.7446 127.93 17.9502C126.56 15.5702 127.5 12.28 125.93 10.04C125.859 9.91403 125.761 9.8053 125.644 9.7207C125.526 9.6361 125.392 9.57742 125.25 9.5498C125.031 9.56017 124.819 9.633 124.64 9.75977C122.929 10.9523 121.716 12.7316 121.23 14.7598C120.741 16.7624 120.506 18.8186 120.53 20.8799C119.811 20.146 119.143 19.3643 118.53 18.54C117.6 20.6216 117.373 22.9486 117.881 25.1709C118.39 27.3932 119.607 29.3905 121.35 30.8604C122.029 27.9427 123.343 25.211 125.2 22.8604C125.836 24.5124 126.015 26.3045 125.72 28.0498" fill="#DBCBB4"/>
<path d="M150.06 23.0996C149.312 21.7809 148.754 20.3637 148.4 18.8896C148.062 17.398 148.32 15.834 149.12 14.5303C149.939 13.598 150.81 12.7128 151.73 11.8799C153.66 9.65988 153.73 6.43977 153.73 3.50977C155.07 3.85636 156.302 4.53436 157.312 5.48145C158.322 6.42853 159.078 7.61422 159.51 8.92969C160.346 11.571 160.579 14.3672 160.19 17.1104C160.965 15.7468 162.018 14.5607 163.28 13.6299C163.579 16.2551 162.839 18.8933 161.219 20.9805C159.599 23.0677 157.227 24.4382 154.61 24.7998C155.302 23.5608 155.704 22.1812 155.787 20.7646C155.87 19.3481 155.632 17.9315 155.09 16.6201C153.042 18.4553 151.526 20.8071 150.7 23.4297" fill="#DBCBB4"/>
<path d="M131.27 31.3802C132.05 30.4902 133.51 30.7299 134.55 31.3099C136.2 32.2457 137.426 33.7826 137.97 35.5999C138.26 36.5499 138.34 37.5501 138.72 38.4701C139.64 40.7201 142.02 41.9303 144.22 42.9603C142.647 43.9478 140.862 44.5464 139.011 44.7064C137.161 44.8664 135.299 44.5831 133.58 43.8802C134.053 44.3182 134.372 44.8971 134.49 45.5306C133.081 45.406 131.713 44.9861 130.477 44.2982C129.24 43.6103 128.163 42.6694 127.314 41.5374C126.465 40.4055 125.864 39.1074 125.55 37.7279C125.235 36.3483 125.215 34.9185 125.49 33.5306C128.08 35.6127 131.34 36.6793 134.66 36.5306C133.083 35.0043 131.789 33.2099 130.84 31.2308" fill="#DBCBB4"/>
<path d="M133.57 26.9402C138.22 25.6302 143.1 21.6401 144.79 17.0301C145.157 16.1131 145.32 15.1267 145.267 14.1404C145.213 13.1541 144.946 12.1913 144.482 11.3191C144.018 10.447 143.37 9.68638 142.582 9.09062C141.794 8.49485 140.886 8.07849 139.92 7.86991C135.92 7.09991 131.61 10.7099 132.17 14.8699C132.73 19.0299 137.44 18.5298 139.39 15.7898C139.86 15.1298 138.79 14.2997 138.26 14.9197L133.86 13.0594C134.147 11.9372 134.866 10.9742 135.86 10.3797C136.47 9.92991 137.178 9.63227 137.926 9.51054C138.674 9.38881 139.44 9.4463 140.16 9.67948C144.38 10.8295 144.26 15.2901 142.53 18.3601C140.38 22.1601 137.08 24.3003 133.31 26.2303C133.225 26.2736 133.159 26.3476 133.126 26.4373C133.093 26.527 133.095 26.6253 133.132 26.7137C133.168 26.802 133.237 26.8738 133.324 26.9139C133.411 26.9539 133.509 26.9591 133.6 26.9295L133.57 26.9402Z" fill="#DBCBB4"/>
<path d="M141.39 24.6695V24.8492C141.366 24.935 141.365 25.0257 141.388 25.1119C141.411 25.198 141.456 25.2767 141.52 25.3394C142.45 26.1194 143.77 26.3399 144.77 27.0699C145.447 27.5283 145.989 28.1586 146.341 28.897C146.693 29.6354 146.841 30.4543 146.77 31.2691C146.773 31.4231 146.831 31.5709 146.933 31.6861C147.036 31.8013 147.176 31.8764 147.328 31.898C147.481 31.9196 147.636 31.8865 147.766 31.8042C147.897 31.722 147.993 31.5967 148.04 31.4498C148.89 27.6298 145.04 25.2098 141.84 24.4498C141.757 24.4278 141.67 24.4381 141.595 24.4791C141.521 24.52 141.465 24.5883 141.44 24.6695H141.39Z" fill="#DBCBB4"/>
<path d="M144.54 21.1103C145.41 21.0103 146.68 20.1103 146.71 19.1103C146.709 19.0073 146.684 18.9056 146.638 18.8135C146.592 18.7213 146.525 18.6407 146.443 18.5781C146.361 18.5155 146.266 18.4726 146.165 18.4521C146.064 18.4317 145.96 18.4342 145.86 18.4599C145.39 18.6099 145.2 18.9696 144.86 19.3096C144.545 19.606 144.269 19.9421 144.04 20.3096C143.87 20.6296 144.04 21.1701 144.51 21.1201L144.54 21.1103Z" fill="#DBCBB4"/>
<path d="M137.67 22.2407C138.28 21.5607 139.24 20.5205 139.15 19.5405C139.141 19.3868 139.085 19.2401 138.988 19.1205C138.891 19.001 138.759 18.9144 138.61 18.8745C138.462 18.8345 138.304 18.843 138.16 18.8979C138.017 18.9528 137.894 19.0513 137.81 19.1801C137.622 19.5874 137.503 20.0236 137.46 20.4702C137.36 20.9083 137.212 21.3347 137.02 21.7407C136.83 22.1407 137.34 22.6207 137.67 22.2407Z" fill="#DBCBB4"/>
<path d="M158.73 27.7693C159.215 28.2347 159.79 28.5959 160.419 28.8298C161.049 29.0638 161.72 29.1659 162.39 29.1296C163.237 28.9306 164.033 28.5598 164.73 28.0398C166.704 26.69 168.933 25.7574 171.28 25.2996C171.685 25.1921 172.109 25.1743 172.522 25.2468C172.934 25.3194 173.326 25.4804 173.67 25.7195C173.957 26.0121 174.15 26.3829 174.226 26.7849C174.303 27.1869 174.259 27.603 174.1 27.9802C173.776 28.7352 173.242 29.3803 172.56 29.8396C170.532 31.3866 167.979 32.0795 165.447 31.7693C162.916 31.4591 160.605 30.1703 159.01 28.1795" fill="#DBCBB4"/>
<path d="M403.94 15.9102C401.52 15.6402 398.73 14.97 396.34 15.42C394.886 15.5856 393.522 16.213 392.45 17.21C392.222 17.4362 392.042 17.7058 391.92 18.003C391.798 18.3002 391.737 18.6193 391.74 18.9405C391.802 19.3729 391.983 19.7792 392.264 20.1134C392.545 20.4475 392.915 20.6958 393.33 20.8302C394.166 21.0801 395.041 21.1712 395.91 21.0997C395.251 22.1439 394.93 23.3661 394.99 24.5997C395.031 25.2128 395.259 25.7991 395.644 26.2784C396.028 26.7577 396.551 27.1076 397.14 27.2803C397.591 27.3521 398.053 27.3257 398.493 27.2032C398.933 27.0807 399.341 26.8649 399.69 26.5704C400.376 25.9648 400.963 25.2558 401.43 24.4698C402.57 22.7138 403.615 20.8984 404.56 19.0303C404.111 19.3921 403.594 19.6607 403.04 19.8204C402.762 19.8913 402.47 19.8795 402.198 19.7872C401.927 19.6949 401.688 19.5255 401.51 19.2999C401.365 18.9531 401.34 18.5678 401.44 18.2052C401.54 17.8425 401.758 17.5236 402.06 17.2999C402.64 16.7899 403.38 16.49 403.94 15.96" fill="#DBCBB4"/>
<path d="M406.17 14.3496C405.573 14.6435 405.089 15.1247 404.79 15.7197C404.618 16.0199 404.51 16.3538 404.474 16.6982C404.437 17.0427 404.474 17.3902 404.58 17.7197C404.689 18.0448 404.895 18.3293 405.171 18.5332C405.446 18.7371 405.778 18.8513 406.12 18.8604C406.667 18.7979 407.172 18.5379 407.54 18.1299C407.863 17.8414 408.12 17.4869 408.292 17.0898C408.465 16.6928 408.549 16.2629 408.54 15.8301C408.37 15.3481 408.037 14.9402 407.6 14.6758C407.162 14.4114 406.646 14.3066 406.14 14.3799" fill="#DBCBB4"/>
<path d="M402.85 15.0591C401.78 15.1791 400.85 14.06 400.18 12.94C398.66 10.51 397.34 7.3891 397.84 4.2691C397.99 3.2691 398.43 2.26964 399.15 2.07964C399.87 1.88964 400.62 2.79945 401.15 3.62945C401.232 2.69497 401.579 1.80296 402.15 1.05913C402.332 0.915026 402.543 0.811176 402.768 0.75347C402.993 0.695764 403.227 0.68553 403.456 0.724173C403.685 0.762816 403.904 0.849749 404.097 0.97808C404.291 1.10641 404.455 1.27339 404.58 1.46929C405.237 2.39135 405.663 3.45844 405.82 4.57964C406.287 7.53772 406.344 10.5454 405.99 13.5191C405.36 12.7591 404.69 10.5195 403.99 9.95953C403.65 9.70953 403.17 9.49945 402.9 9.87945C402.773 10.1161 402.708 10.3814 402.71 10.65C402.579 12.1205 402.629 13.6008 402.86 15.0591" fill="#DBCBB4"/>
<path d="M406.35 19.8701C405.12 21.7501 405.35 24.2096 405.9 26.3896C406.239 28.1104 406.919 29.7464 407.9 31.2002C408.197 31.654 408.607 32.022 409.09 32.2695C409.334 32.3939 409.608 32.4476 409.88 32.4229C410.153 32.3981 410.413 32.2962 410.63 32.1299C410.98 31.7454 411.167 31.2395 411.15 30.7197C411.172 30.1286 411.119 29.5374 410.99 28.96C412.05 29.01 413.06 29.4904 414.12 29.6104C415.18 29.7304 416.45 29.2802 416.7 28.2402C416.73 27.8146 416.669 27.3874 416.521 26.9873C416.372 26.5872 416.14 26.2232 415.84 25.9199L410.65 19.0596L409.77 21.2197C409.64 21.5973 409.425 21.9396 409.14 22.2197C408.943 22.3824 408.704 22.4855 408.45 22.5156C408.197 22.5458 407.94 22.5016 407.71 22.3896C407.078 21.6571 406.681 20.7515 406.57 19.79" fill="#DBCBB4"/>
<path d="M408.69 13.8091C409.389 12.1563 410.344 10.6241 411.52 9.26906C412.699 7.90134 414.27 6.93121 416.02 6.48976C416.35 6.37315 416.702 6.33387 417.048 6.3755C417.395 6.41713 417.728 6.53877 418.02 6.72999C418.288 6.95894 418.483 7.26058 418.58 7.59913C418.735 8.09287 418.754 8.62008 418.634 9.12355C418.515 9.62702 418.261 10.0884 417.9 10.4595C419.19 9.89949 420.65 10.9297 421.34 12.1597C421.59 12.5414 421.747 12.9761 421.799 13.4292C421.851 13.8823 421.797 14.3407 421.64 14.7691C421.447 15.117 421.178 15.4174 420.852 15.646C420.526 15.8747 420.153 16.0259 419.76 16.0894C418.979 16.2045 418.188 16.2345 417.4 16.1792C414.932 16.1378 412.476 16.5413 410.15 17.3696C410.554 16.969 410.865 16.4842 411.06 15.9497C411.28 15.4297 411.82 14.6298 411.37 14.2798C410.92 13.9298 410.45 13.2791 408.73 13.8091" fill="#DBCBB4"/>
<path d="M399.79 15.0702C399.69 15.3102 399.25 15.2494 398.99 15.2694C396.601 15.3286 394.255 14.6283 392.29 13.2694C392.07 13.1549 391.887 12.9819 391.76 12.7694C391.7 12.5385 391.724 12.2936 391.829 12.079C391.933 11.8644 392.111 11.6944 392.33 11.5995C392.791 11.448 393.284 11.4203 393.76 11.5194C393.393 11.0439 393.177 10.4697 393.14 9.87003C393.128 9.57276 393.19 9.27681 393.321 9.00968C393.452 8.74254 393.648 8.51237 393.89 8.33975C394.23 8.1604 394.615 8.0834 394.998 8.1171C395.381 8.1508 395.746 8.29419 396.05 8.53018C396.652 9.00741 397.157 9.59395 397.54 10.2597C398.3 11.3997 399.11 12.52 399.94 13.62C399.206 13.2787 398.429 13.0399 397.63 12.9101C397.27 12.8401 396.8 12.8503 396.63 13.1903C396.583 13.3047 396.571 13.4305 396.596 13.5517C396.621 13.6729 396.681 13.7836 396.77 13.87C396.946 14.043 397.158 14.1757 397.39 14.2597C398.17 14.5913 398.972 14.8687 399.79 15.0898" fill="#DBCBB4"/>
<path d="M407.06 12.4903C406.931 10.1724 407.161 7.84771 407.74 5.59971C407.809 5.10871 407.976 4.63751 408.232 4.21299C408.489 3.78847 408.828 3.4197 409.23 3.12998C409.374 3.02815 409.543 2.9661 409.718 2.9503C409.894 2.93449 410.071 2.96565 410.23 3.04014C410.388 3.15197 410.515 3.30237 410.597 3.47764C410.68 3.65291 410.715 3.84705 410.7 4.04014C410.655 4.44223 410.655 4.84801 410.7 5.2501C411.037 5.04038 411.41 4.89492 411.8 4.82041C411.99 4.79606 412.183 4.8229 412.359 4.89854C412.535 4.97417 412.687 5.09551 412.8 5.2501C413.11 5.7801 412.72 6.44053 412.35 6.94053L408.12 12.4601C408.635 11.6569 408.838 10.6927 408.69 9.7501C408.69 9.6201 408.6 9.4403 408.46 9.4503C408.418 9.46176 408.378 9.48136 408.344 9.50889C408.309 9.53642 408.281 9.57145 408.26 9.61045C407.79 10.3205 407.53 11.7705 407.05 12.4405" fill="#DBCBB4"/>
<path d="M411.791 18.7804C413.043 20.1361 414.423 21.3682 415.911 22.4601C416.299 22.8006 416.779 23.0195 417.291 23.0899C417.538 23.0914 417.777 23.0014 417.961 22.837C418.146 22.6727 418.263 22.446 418.291 22.2003C418.268 21.9927 418.188 21.7951 418.061 21.63C417.693 21.0544 417.201 20.5691 416.621 20.2101C417.812 20.2167 418.978 19.8685 419.971 19.2101C420.296 19.0222 420.569 18.7533 420.76 18.4298C420.838 18.2717 420.872 18.0966 420.86 17.921C420.848 17.7454 420.789 17.5756 420.691 17.4298C420.551 17.286 420.38 17.1771 420.191 17.1105C419.309 16.8163 418.377 16.6999 417.451 16.7696C415.311 16.7696 413.181 17.0499 411.061 17.2999C412.021 17.3578 412.96 17.6098 413.821 18.0401C414.101 18.1801 414.411 18.4703 414.271 18.7403C414.213 18.8329 414.13 18.9061 414.031 18.9503C413.617 19.0617 413.183 19.0731 412.764 18.9845C412.345 18.8958 411.953 18.7099 411.621 18.4405" fill="#DBCBB4"/>
<path d="M404.33 20.6299L402.01 24.9102C401.25 26.3002 400.47 27.8304 400.7 29.4004C400.726 29.7673 400.866 30.117 401.1 30.4004C401.22 30.5411 401.382 30.6392 401.562 30.6807C401.742 30.7221 401.931 30.7041 402.1 30.6299C402.65 30.3599 402.57 29.56 402.83 29C402.921 29.6453 403.228 30.2413 403.7 30.6904C403.787 30.79 403.902 30.8591 404.03 30.8896C404.32 30.8896 404.55 30.6404 404.66 30.3604C404.915 29.3157 404.915 28.2244 404.66 27.1797C404.46 25.5189 404.6 23.8357 405.07 22.2305C404.665 23.255 404.028 24.1718 403.21 24.9102C403.09 24.7602 403.15 24.5599 403.21 24.3799L404.21 21.3799" fill="#DBCBB4"/>
<path d="M282.53 35.8202C270.15 36.7002 262.33 24.2896 250.53 22.8896C246.18 22.4014 241.781 23.1648 237.85 25.0898C232.27 27.7998 227.63 37.0895 220.93 33.8095C220.34 33.5195 219.58 34.3295 220.17 34.8095C221.45 35.904 223.088 36.4901 224.771 36.455C226.455 36.42 228.067 35.7668 229.3 34.6201C232.03 32.2301 233.55 29.4096 236.77 27.4296C239.875 25.5433 243.402 24.4642 247.03 24.29C260.53 23.72 268.83 38.2202 282.57 36.5302C282.99 36.4802 283.02 35.8098 282.57 35.8398L282.53 35.8202Z" fill="#DBCBB4"/>
<path d="M283.789 29.6397C278.629 29.0297 273.129 30.3898 269.729 34.5498C268.39 36.1349 267.523 38.0656 267.229 40.1202C267.099 41.3501 267.099 42.5904 267.229 43.8204C267.389 45.0004 267.529 46.1804 267.649 47.3604C268.263 50.7937 266.079 52.6497 261.099 52.9297C261.006 52.8077 260.872 52.7242 260.721 52.6944C260.57 52.6646 260.414 52.6912 260.281 52.7686C260.149 52.846 260.049 52.9685 260.001 53.1143C259.952 53.2601 259.959 53.4184 260.019 53.5596C262.089 57.4396 266.869 55.9097 268.409 52.3497C270.239 48.1197 267.5 43.4704 268.57 39.1504C270.29 32.2604 277.66 30.5702 283.75 30.4502C283.846 30.435 283.934 30.3858 283.997 30.3116C284.061 30.2373 284.096 30.1426 284.096 30.045C284.096 29.9473 284.061 29.8526 283.997 29.7784C283.934 29.7041 283.846 29.6549 283.75 29.6397H283.789Z" fill="#DBCBB4"/>
<path d="M267.02 39.29C267.02 41.41 267.51 43.6497 269.32 44.9697C270.125 45.6252 271.137 45.9721 272.174 45.9482C273.212 45.9244 274.207 45.5316 274.98 44.8398C276.13 43.6998 276.77 41.3499 275.35 40.1299C275.075 39.9124 274.751 39.7665 274.405 39.7061C274.06 39.6456 273.705 39.673 273.372 39.7842C273.04 39.8953 272.74 40.0868 272.501 40.3428C272.261 40.5988 272.089 40.9109 272 41.25C271.999 41.3682 272.036 41.4841 272.106 41.5791C272.177 41.6741 272.276 41.7425 272.39 41.7754C272.503 41.8083 272.625 41.8034 272.735 41.7607C272.845 41.7181 272.939 41.6408 273 41.54C273.69 39.88 274.79 41.0303 275 41.7803C275.1 42.173 275.095 42.5849 274.989 42.9756C274.882 43.3663 274.676 43.7222 274.39 44.0098C273.955 44.4762 273.393 44.8063 272.773 44.959C272.154 45.1117 271.503 45.0807 270.9 44.8701C268.53 44.1501 267.48 41.56 267.47 39.29C267.458 39.2286 267.425 39.1736 267.377 39.1338C267.329 39.094 267.268 39.0713 267.205 39.0713C267.143 39.0713 267.082 39.094 267.034 39.1338C266.985 39.1736 266.952 39.2286 266.94 39.29H267.02Z" fill="#DBCBB4"/>
<path d="M283.38 29.7691C282.535 30.0694 281.84 30.6867 281.44 31.4898C281.1 32.1698 280.67 33.3996 281.33 33.9996C281.395 34.0604 281.472 34.1061 281.557 34.1334C281.641 34.1607 281.731 34.1683 281.819 34.1568C281.907 34.1454 281.991 34.115 282.066 34.067C282.14 34.019 282.203 33.9548 282.25 33.8795C282.58 33.4195 282.42 32.7298 282.64 32.1998C282.896 31.6382 283.305 31.1601 283.82 30.8199C284.32 30.4799 284.03 29.5299 283.38 29.8199V29.7691Z" fill="#DBCBB4"/>
<path d="M283.53 28.7695C282.73 28.1795 281.82 27.7699 281.05 27.1299C280.28 26.4899 279.76 25.6595 279.05 25.0195C278.34 24.3795 277.26 25.0199 277.57 25.8799C278.086 26.9872 278.922 27.9145 279.97 28.542C281.018 29.1695 282.23 29.4687 283.45 29.4004C283.78 29.4004 283.75 28.9295 283.54 28.7695H283.53Z" fill="#DBCBB4"/>
<path d="M295.1 28.1395C291.68 27.7695 287.72 26.81 284.34 27.45C282.265 27.6857 280.321 28.5791 278.79 29.9998C278.469 30.3213 278.215 30.7032 278.044 31.1239C277.872 31.5445 277.786 31.9957 277.79 32.45C277.88 33.0617 278.139 33.6363 278.539 34.1082C278.938 34.5801 279.462 34.9304 280.05 35.1199C281.232 35.4754 282.47 35.6073 283.7 35.5096C282.751 36.998 282.293 38.7469 282.39 40.5096C282.448 41.3718 282.766 42.1966 283.301 42.8748C283.837 43.5531 284.565 44.0529 285.39 44.3094C286.028 44.4158 286.682 44.3816 287.306 44.2088C287.929 44.0361 288.508 43.7291 289 43.3094C289.981 42.4502 290.815 41.437 291.47 40.3094C293.08 37.8215 294.558 35.2521 295.9 32.6102C295.262 33.1156 294.532 33.492 293.75 33.7196C293.357 33.8248 292.941 33.8123 292.555 33.6824C292.169 33.5526 291.83 33.3117 291.58 32.9901C290.98 32.0701 291.58 30.8097 292.36 30.0897C293.14 29.3697 294.23 28.9395 295.02 28.1795" fill="#DBCBB4"/>
<path d="M298.27 25.9404C297.408 26.3453 296.705 27.0236 296.27 27.8701C296.032 28.2921 295.883 28.7579 295.832 29.2393C295.78 29.7206 295.827 30.2073 295.97 30.6699C296.126 31.1282 296.419 31.5278 296.808 31.8154C297.198 32.1031 297.666 32.2655 298.15 32.2803C298.914 32.1957 299.623 31.8411 300.15 31.2803C300.618 30.8789 300.992 30.3774 301.243 29.8135C301.494 29.2495 301.616 28.6365 301.6 28.0195C301.47 26.7895 299.39 25.6295 298.21 26.0195" fill="#DBCBB4"/>
<path d="M293.56 26.9401C292.05 27.1101 290.77 25.5101 289.78 23.9401C287.62 20.5001 285.78 16.0801 286.46 11.6501C286.68 10.2601 287.3 8.7797 288.32 8.5397C289.34 8.2997 290.4 9.53966 291.14 10.7497C291.42 9.37966 291.75 7.89927 292.61 7.09927C293.61 6.09927 295.12 6.55935 296.05 7.67935C296.982 8.98673 297.586 10.4995 297.81 12.0895C298.475 16.2815 298.556 20.5453 298.05 24.7594C297.16 23.6794 296.21 20.4994 295.16 19.7594C294.68 19.3894 294 19.0993 293.62 19.6393C293.435 19.9723 293.342 20.3493 293.35 20.7301C293.154 22.8139 293.224 24.9142 293.56 26.9801" fill="#DBCBB4"/>
<path d="M298.51 33.75C296.78 36.41 297.15 39.9002 297.88 42.9902C298.349 45.4244 299.301 47.7395 300.68 49.7998C301.109 50.4442 301.694 50.9706 302.38 51.3301C302.725 51.5004 303.111 51.5713 303.495 51.5342C303.878 51.4971 304.243 51.3535 304.55 51.1201C305.051 50.5777 305.318 49.8585 305.29 49.1201C305.328 48.2835 305.25 47.4454 305.06 46.6299C306.57 46.7099 307.99 47.3798 309.49 47.5498C310.99 47.7198 312.81 47.0804 313.15 45.6104C313.43 44.4304 312.66 43.2903 311.93 42.3203L304.58 32.6104C304.17 33.6104 303.75 34.6104 303.34 35.6104C303.16 36.1673 302.851 36.6737 302.44 37.0898C302.165 37.3177 301.83 37.4613 301.475 37.5039C301.12 37.5465 300.761 37.4863 300.44 37.3301C299.79 37.0101 298.76 34.3296 298.82 33.6396" fill="#DBCBB4"/>
<path d="M301.79 25.1702C302.781 22.8291 304.131 20.657 305.79 18.7308C307.471 16.8048 309.695 15.431 312.17 14.7904C312.631 14.6398 313.119 14.5931 313.599 14.6536C314.08 14.7142 314.541 14.8799 314.95 15.14C315.329 15.4629 315.604 15.8914 315.74 16.3704C315.955 17.0744 315.976 17.8236 315.8 18.5384C315.624 19.2532 315.258 19.9064 314.74 20.43C316.56 19.63 318.64 21.0904 319.6 22.8304C319.957 23.37 320.183 23.9864 320.257 24.6292C320.332 25.272 320.254 25.9234 320.03 26.5306C319.756 27.0215 319.374 27.4438 318.914 27.7659C318.453 28.0881 317.925 28.3011 317.37 28.39C316.262 28.5617 315.139 28.6093 314.02 28.5306C310.527 28.4719 307.052 29.0406 303.76 30.2103C304.329 29.6441 304.769 28.962 305.05 28.2103C305.35 27.4803 306.12 26.3402 305.49 25.8402C304.86 25.3402 304.18 24.44 301.74 25.18" fill="#DBCBB4"/>
<path d="M289.26 27.0004C289.12 27.3404 288.5 27.2607 288.14 27.2807C284.749 27.3636 281.421 26.3612 278.64 24.4203C278.328 24.2629 278.07 24.0156 277.9 23.7104C277.796 23.3852 277.821 23.0321 277.97 22.725C278.119 22.4179 278.38 22.1798 278.7 22.06C279.345 21.8451 280.034 21.8046 280.7 21.9408C280.177 21.2716 279.87 20.4588 279.82 19.6107C279.8 19.1891 279.887 18.7684 280.072 18.3891C280.257 18.0098 280.535 17.6842 280.88 17.4408C281.361 17.185 281.906 17.0734 282.448 17.1195C282.991 17.1656 283.509 17.3673 283.94 17.7006C284.787 18.3828 285.499 19.217 286.04 20.1605C287.127 21.7805 288.263 23.367 289.45 24.9203C288.411 24.4377 287.311 24.1012 286.18 23.9203C285.66 23.8303 285 23.8407 284.76 24.3207C284.684 24.4872 284.662 24.6734 284.698 24.8529C284.734 25.0325 284.826 25.1963 284.96 25.3207C285.208 25.5687 285.509 25.7566 285.84 25.8705C286.939 26.3484 288.072 26.7425 289.23 27.0502" fill="#DBCBB4"/>
<path d="M299.52 23.2994C299.351 20.014 299.688 16.7225 300.52 13.5396C300.87 12.1796 301.41 10.7196 302.64 10.0396C302.843 9.90442 303.076 9.82207 303.318 9.79937C303.561 9.77668 303.806 9.81448 304.03 9.90973C304.264 10.0754 304.449 10.3017 304.565 10.564C304.681 10.8263 304.725 11.1152 304.69 11.4C304.63 11.9717 304.63 12.5479 304.69 13.1197C305.171 12.8179 305.703 12.6076 306.26 12.4996C306.537 12.4543 306.822 12.4875 307.082 12.5953C307.341 12.703 307.566 12.8815 307.73 13.1099C308.18 13.8699 307.63 14.7996 307.1 15.4996C305.1 18.1129 303.1 20.7199 301.1 23.3199C301.826 22.184 302.114 20.8225 301.91 19.4898C301.91 19.2998 301.78 19.0499 301.58 19.0699C301.38 19.0899 301.37 19.1896 301.31 19.2896C300.64 20.2896 300.26 22.3496 299.58 23.2896" fill="#DBCBB4"/>
<path d="M306.21 32.2103C307.983 34.1278 309.935 35.8723 312.04 37.4202C312.604 37.9082 313.3 38.2175 314.04 38.3099C314.22 38.3263 314.402 38.307 314.574 38.2522C314.747 38.1975 314.907 38.1089 315.044 37.9915C315.182 37.8741 315.295 37.7303 315.377 37.5687C315.458 37.407 315.507 37.2307 315.52 37.0501C315.482 36.7608 315.372 36.4859 315.2 36.2503C314.687 35.4453 314.005 34.7626 313.2 34.2503C314.88 34.2688 316.528 33.7922 317.94 32.8802C318.399 32.6208 318.782 32.2449 319.05 31.7903C319.184 31.5611 319.247 31.2969 319.231 31.0315C319.215 30.7662 319.121 30.5115 318.96 30.3001C318.766 30.0981 318.526 29.9475 318.26 29.8606C317.007 29.447 315.686 29.2804 314.37 29.3704C311.37 29.4404 308.37 29.7702 305.31 30.1302C306.675 30.1867 308.013 30.5273 309.24 31.1302C309.62 31.3202 310.06 31.7302 309.86 32.1302C309.781 32.2592 309.661 32.3581 309.52 32.4104C308.43 32.9404 307.16 32.3105 306.11 31.7005" fill="#DBCBB4"/>
<path d="M295.659 34.8301C294.559 36.8301 293.463 38.8496 292.37 40.8896C291.29 42.8896 290.189 45.02 290.509 47.25C290.555 47.7511 290.754 48.2263 291.079 48.6104C291.246 48.8003 291.467 48.9341 291.712 48.9932C291.957 49.0523 292.215 49.0339 292.449 48.9404C293.229 48.5504 293.109 47.4199 293.449 46.6299C293.574 47.5446 294.004 48.3909 294.67 49.0303C294.797 49.1655 294.96 49.2617 295.139 49.3096C295.559 49.3796 295.889 48.9596 296.039 48.5596C296.579 47.1396 296.209 45.5598 296.039 44.0498C295.762 41.7012 295.959 39.3208 296.62 37.0498C296.047 38.5018 295.143 39.7998 293.979 40.8398C293.819 40.6398 293.899 40.3496 293.979 40.0996C294.449 38.7096 294.91 37.3199 295.38 35.9199" fill="#DBCBB4"/>
<path d="M263.85 26.7695C262.311 25.5188 261.182 23.8366 260.609 21.9385C260.035 20.0404 260.042 18.0139 260.63 16.1201C260.896 16.5647 261.295 16.9146 261.77 17.1201C263.14 14.7301 262.2 11.44 263.77 9.20996C263.841 9.08395 263.939 8.97522 264.056 8.89062C264.174 8.80603 264.308 8.74734 264.45 8.71973C264.671 8.72041 264.886 8.79422 265.06 8.92969C266.773 10.1202 267.987 11.9003 268.47 13.9297C268.958 15.929 269.193 17.9821 269.17 20.04C269.906 19.3112 270.591 18.5326 271.22 17.71C272.151 19.7897 272.379 22.116 271.87 24.3369C271.361 26.5579 270.143 28.5523 268.4 30.0195C267.715 27.1041 266.401 24.3736 264.55 22.0195C263.91 23.6741 263.731 25.4712 264.03 27.2197" fill="#DBCBB4"/>
<path d="M239.64 22.2598C240.387 20.9445 240.946 19.5305 241.3 18.0596C241.638 16.568 241.379 15.0039 240.58 13.7002C239.761 12.7647 238.889 11.8764 237.97 11.04C236.04 8.83004 235.97 5.60969 235.97 2.67969C234.629 3.02629 233.397 3.70429 232.387 4.65137C231.377 5.59845 230.622 6.78415 230.19 8.09961C229.353 10.7409 229.12 13.5371 229.509 16.2803C228.737 14.9148 227.684 13.7282 226.42 12.7998C226.121 15.425 226.86 18.0632 228.48 20.1504C230.1 22.2376 232.472 23.6081 235.09 23.9697C234.398 22.7307 233.996 21.3511 233.912 19.9346C233.829 18.518 234.068 17.1015 234.61 15.79C236.655 17.6231 238.171 19.9712 239 22.5898" fill="#DBCBB4"/>
<path d="M258.43 30.5501C257.65 29.6501 256.19 29.9001 255.15 30.4701C253.502 31.4082 252.278 32.9442 251.73 34.7601C251.44 35.7101 251.36 36.76 250.98 37.64C250.06 39.88 247.68 41.1002 245.48 42.1302C247.054 43.1154 248.84 43.7125 250.69 43.8724C252.539 44.0324 254.401 43.7506 256.12 43.0501C255.648 43.4881 255.329 44.0671 255.21 44.7005C256.62 44.5759 257.987 44.156 259.224 43.4681C260.46 42.7802 261.538 41.8393 262.387 40.7074C263.236 39.5755 263.837 38.2774 264.151 36.8978C264.465 35.5182 264.485 34.0884 264.21 32.7005C261.623 34.7868 258.361 35.8539 255.04 35.7005C256.618 34.1742 257.911 32.3798 258.86 30.4007" fill="#DBCBB4"/>
<path d="M256.42 25.4004C252.68 23.4904 249.31 21.34 247.2 17.54C245.68 14.79 245.25 11.1902 248.39 9.24023C249.111 8.82351 249.923 8.58636 250.755 8.5498C251.587 8.51324 252.415 8.6784 253.17 9.03027C254.093 9.44719 254.812 10.2132 255.17 11.1602C256.79 13.0802 255.537 14.0596 251.41 14.0996C250.89 13.4796 249.8 14.2997 250.28 14.9697C252.2 17.6697 256.82 18.2104 257.49 14.1504C258.16 10.0904 253.73 6.27003 249.75 7.04003C248.827 7.23634 247.954 7.62374 247.189 8.17675C246.424 8.72976 245.782 9.43571 245.306 10.251C244.83 11.0662 244.529 11.9729 244.423 12.9111C244.317 13.8494 244.408 14.7992 244.69 15.7002C246.13 20.5302 251.39 24.7796 256.1 26.0996C256.191 26.1292 256.29 26.124 256.377 26.084C256.464 26.044 256.532 25.9722 256.569 25.8838C256.606 25.7954 256.608 25.6972 256.575 25.6074C256.541 25.5177 256.476 25.4438 256.39 25.4004H256.42Z" fill="#DBCBB4"/>
<path d="M247.91 23.6105C244.75 24.3805 240.91 26.8005 241.71 30.6105C241.755 30.7569 241.851 30.8816 241.981 30.964C242.11 31.0464 242.264 31.081 242.416 31.0607C242.568 31.0403 242.708 30.9672 242.811 30.8536C242.914 30.7401 242.974 30.5938 242.98 30.4406C242.91 29.6259 243.058 28.8067 243.41 28.0685C243.761 27.3303 244.303 26.6995 244.98 26.2404C245.98 25.5004 247.3 25.2901 248.23 24.5001C248.294 24.4381 248.34 24.3599 248.363 24.2736C248.386 24.1872 248.385 24.0957 248.36 24.0099V23.84C248.332 23.7596 248.277 23.6918 248.203 23.6495C248.129 23.6072 248.043 23.5938 247.96 23.6105H247.91Z" fill="#DBCBB4"/>
<path d="M245.63 19.4698C245.401 19.1023 245.125 18.7662 244.81 18.4698C244.5 18.1198 244.31 17.7701 243.81 17.6201C243.711 17.5925 243.607 17.5884 243.506 17.6075C243.405 17.6265 243.309 17.6686 243.227 17.7305C243.145 17.7924 243.078 17.872 243.032 17.9639C242.985 18.0558 242.961 18.1569 242.96 18.2598C242.96 19.2598 244.26 20.1298 245.13 20.2598C245.56 20.2598 245.77 19.7702 245.6 19.4502L245.63 19.4698Z" fill="#DBCBB4"/>
<path d="M252.68 20.9106C252.489 20.504 252.341 20.0777 252.24 19.6401C252.196 19.1904 252.077 18.7514 251.89 18.3403C251.806 18.2115 251.683 18.1129 251.539 18.058C251.395 18.0032 251.238 17.9947 251.089 18.0346C250.941 18.0745 250.809 18.1602 250.712 18.2797C250.615 18.3993 250.558 18.547 250.55 18.7006C250.46 19.7006 251.42 20.7006 252.03 21.4106C252.35 21.7806 252.88 21.3106 252.68 20.9106Z" fill="#DBCBB4"/>
<path d="M230.97 26.9406C230.486 27.4061 229.911 27.7662 229.282 28.0002C228.652 28.2342 227.981 28.3363 227.31 28.3C226.463 28.0974 225.667 27.7234 224.97 27.2004C222.994 25.8548 220.766 24.9225 218.42 24.4602C218.015 24.3547 217.592 24.3379 217.18 24.4104C216.767 24.4828 216.375 24.6428 216.03 24.8801C215.745 25.175 215.552 25.5469 215.475 25.9504C215.399 26.3539 215.442 26.7716 215.6 27.1506C215.927 27.9038 216.461 28.5481 217.14 29.01C219.171 30.5533 221.724 31.2428 224.255 30.9309C226.786 30.6189 229.096 29.3302 230.69 27.34" fill="#DBCBB4"/>
<path d="M322.08 37.3394C335.81 39.0294 344.08 24.4899 357.62 25.1099C361.247 25.2819 364.774 26.3578 367.88 28.2398C370.81 30.0398 372.42 32.6397 374.81 34.9497C377.63 37.6797 381.35 38.0794 384.48 35.6294C385.06 35.1694 384.32 34.3494 383.72 34.6294C377.02 37.9194 372.84 29.0295 367.43 26.2095C363.343 24.0657 358.707 23.195 354.12 23.7095C342.29 25.0995 334.45 37.5192 322.12 36.6392C321.67 36.6392 321.69 37.2698 322.12 37.3198L322.08 37.3394Z" fill="#DBCBB4"/>
<path d="M320.84 31.2807C326.67 31.4007 333.19 32.76 335.56 38.85C337.37 43.51 334.2 48.5909 336.18 53.1909C337.72 56.7409 342.5 58.2601 344.57 54.3901C344.631 54.2489 344.637 54.0906 344.589 53.9448C344.541 53.7989 344.441 53.6755 344.308 53.5981C344.176 53.5207 344.019 53.495 343.869 53.5248C343.718 53.5546 343.584 53.6381 343.49 53.7602C338.517 53.4669 336.334 51.6109 336.94 48.1909C337.06 47.0109 337.2 45.8308 337.36 44.6508C337.49 43.4209 337.49 42.1805 337.36 40.9506C337.062 38.9004 336.196 36.9741 334.86 35.3901C331.46 31.2301 325.96 29.8602 320.8 30.4702C320.704 30.4854 320.616 30.5346 320.552 30.6088C320.489 30.6831 320.454 30.7778 320.454 30.8754C320.454 30.9731 320.489 31.0678 320.552 31.142C320.616 31.2163 320.704 31.2655 320.8 31.2807H320.84Z" fill="#DBCBB4"/>
<path d="M337.06 40.1201C337.06 42.4001 336 44.9802 333.62 45.7002C333.055 45.8931 332.449 45.931 331.865 45.8096C331.281 45.6882 330.741 45.4116 330.3 45.0098C329.79 44.5176 329.477 43.8569 329.42 43.1504C329.42 42.0804 330.81 40.5301 331.58 42.3701C331.642 42.4708 331.735 42.5482 331.845 42.5908C331.956 42.6334 332.077 42.6384 332.19 42.6055C332.304 42.5725 332.403 42.5032 332.474 42.4082C332.544 42.3132 332.581 42.1983 332.58 42.0801C332.494 41.7557 332.332 41.4566 332.108 41.207C331.883 40.9574 331.603 40.7646 331.289 40.6445C330.976 40.5244 330.639 40.4799 330.305 40.5156C329.971 40.5514 329.651 40.6658 329.37 40.8496C327.77 41.9996 328.37 44.4997 329.6 45.6797C330.34 46.3414 331.285 46.7292 332.277 46.7783C333.269 46.8275 334.248 46.5355 335.05 45.9502C337.05 44.6502 337.57 42.3401 337.56 40.1201C337.548 40.0586 337.515 40.0027 337.466 39.9629C337.418 39.9231 337.357 39.9014 337.295 39.9014C337.232 39.9014 337.172 39.9231 337.123 39.9629C337.075 40.0027 337.042 40.0586 337.03 40.1201H337.06Z" fill="#DBCBB4"/>
<path d="M321.16 30.2405C322.381 30.3107 323.595 30.0117 324.644 29.3821C325.693 28.7525 326.528 27.8211 327.04 26.7102C327.36 25.8202 326.18 25.3306 325.57 25.8606C324.96 26.3906 324.3 27.3202 323.57 27.9602C322.84 28.6002 321.89 29.0099 321.09 29.5999C320.88 29.7599 320.85 30.1805 321.17 30.2405H321.16Z" fill="#DBCBB4"/>
<path d="M340.79 27.5996C342.329 26.3488 343.458 24.6667 344.032 22.7686C344.606 20.8705 344.598 18.844 344.01 16.9502C343.744 17.3948 343.346 17.7446 342.87 17.9502C341.49 15.5702 342.44 12.28 340.87 10.04C340.799 9.91403 340.701 9.8053 340.584 9.7207C340.467 9.6361 340.332 9.57742 340.19 9.5498C339.971 9.56017 339.759 9.633 339.58 9.75977C337.869 10.9545 336.653 12.7323 336.16 14.7598C335.68 16.7637 335.448 18.8193 335.47 20.8799C334.751 20.146 334.083 19.3643 333.47 18.54C332.535 20.6207 332.305 22.9494 332.814 25.1729C333.323 27.3963 334.543 29.3935 336.29 30.8604C336.969 27.9427 338.283 25.211 340.14 22.8604C340.77 24.5139 340.949 26.3043 340.66 28.0498" fill="#DBCBB4"/>
<path d="M364.97 23.0996C364.218 21.7829 363.659 20.3652 363.31 18.8896C362.969 17.3993 363.223 15.8353 364.02 14.5303C364.842 13.5979 365.717 12.7128 366.64 11.8799C368.57 9.65988 368.64 6.43977 368.64 3.50977C369.98 3.85636 371.212 4.53436 372.222 5.48145C373.232 6.42853 373.988 7.61422 374.42 8.92969C375.251 11.572 375.483 14.367 375.1 17.1104C375.875 15.7468 376.928 14.5607 378.19 13.6299C378.489 16.2551 377.749 18.8933 376.129 20.9805C374.509 23.0677 372.137 24.4382 369.52 24.7998C370.209 23.56 370.611 22.1808 370.694 20.7646C370.777 19.3485 370.54 17.932 370 16.6201C367.952 18.4553 366.436 20.8071 365.61 23.4297" fill="#DBCBB4"/>
<path d="M346.18 31.3802C346.95 30.4902 348.42 30.7299 349.45 31.3099C351.106 32.2421 352.335 33.7799 352.88 35.5999C353.08 36.5691 353.33 37.5272 353.63 38.4701C354.55 40.7201 356.93 41.9303 359.13 42.9603C357.556 43.9479 355.768 44.5464 353.916 44.7064C352.064 44.8664 350.201 44.5831 348.48 43.8802C348.957 44.3168 349.279 44.8959 349.4 45.5306C347.991 45.406 346.623 44.9861 345.387 44.2982C344.151 43.6103 343.073 42.6694 342.224 41.5374C341.375 40.4055 340.774 39.1074 340.46 37.7279C340.146 36.3483 340.125 34.9185 340.4 33.5306C342.99 35.6127 346.25 36.6793 349.57 36.5306C347.99 35.0069 346.696 33.212 345.75 31.2308" fill="#DBCBB4"/>
<path d="M348.48 26.9402C353.13 25.6302 358.01 21.6401 359.7 17.0301C360.067 16.1131 360.23 15.1267 360.176 14.1404C360.123 13.1541 359.855 12.1913 359.392 11.3191C358.928 10.447 358.28 9.68638 357.492 9.09062C356.704 8.49485 355.796 8.07849 354.83 7.86991C350.83 7.09991 346.52 10.7099 347.07 14.8699C347.62 19.0299 352.35 18.5298 354.3 15.7898C354.77 15.1298 353.7 14.2997 353.17 14.9197L348.77 13.0594C349.057 11.9372 349.776 10.9742 350.77 10.3797C351.38 9.92991 352.088 9.63227 352.836 9.51054C353.583 9.38881 354.349 9.4463 355.07 9.67948C359.29 10.8295 359.17 15.2901 357.43 18.3601C355.29 22.1601 351.99 24.3003 348.22 26.2303C348.135 26.2736 348.069 26.3476 348.036 26.4373C348.003 26.527 348.005 26.6253 348.041 26.7137C348.078 26.802 348.147 26.8738 348.233 26.9139C348.32 26.9539 348.419 26.9591 348.51 26.9295L348.48 26.9402Z" fill="#DBCBB4"/>
<path d="M356.3 24.6695V24.8492C356.274 24.9348 356.272 25.0262 356.295 25.1128C356.318 25.1994 356.365 25.278 356.43 25.3394C357.36 26.1194 358.68 26.3399 359.68 27.0699C360.358 27.5283 360.9 28.1586 361.252 28.897C361.603 29.6354 361.751 30.4543 361.68 31.2691C361.684 31.4231 361.742 31.5709 361.844 31.6861C361.946 31.8013 362.086 31.8764 362.239 31.898C362.391 31.9196 362.547 31.8865 362.677 31.8042C362.807 31.722 362.904 31.5967 362.95 31.4498C363.79 27.6298 359.9 25.2098 356.75 24.4498C356.668 24.4278 356.581 24.4381 356.506 24.4791C356.432 24.52 356.376 24.5883 356.35 24.6695H356.3Z" fill="#DBCBB4"/>
<path d="M359.45 21.11C360.32 21.01 361.59 20.11 361.61 19.11C361.61 19.0074 361.587 18.9054 361.542 18.8132C361.497 18.7209 361.431 18.6406 361.35 18.5778C361.269 18.515 361.174 18.4713 361.074 18.4508C360.973 18.4304 360.869 18.4336 360.77 18.4596C360.3 18.6096 360.11 18.9692 359.77 19.3092C359.455 19.6057 359.179 19.9418 358.95 20.3092C358.78 20.6292 358.95 21.1698 359.42 21.1198L359.45 21.11Z" fill="#DBCBB4"/>
<path d="M352.58 22.2399C353.18 21.5599 354.15 20.5198 354.05 19.5398C354.046 19.3854 353.991 19.2361 353.896 19.1149C353.8 18.9938 353.668 18.9072 353.519 18.8669C353.37 18.8266 353.212 18.8349 353.068 18.8913C352.924 18.9477 352.802 19.0485 352.72 19.1794C352.534 19.5882 352.413 20.0234 352.36 20.4694C352.268 20.9085 352.124 21.3354 351.93 21.7399C351.73 22.1399 352.25 22.6199 352.58 22.2399Z" fill="#DBCBB4"/>
<path d="M373.64 27.7691C374.124 28.2346 374.699 28.5957 375.328 28.8297C375.958 29.0636 376.629 29.1657 377.3 29.1295C378.146 28.9305 378.943 28.5596 379.64 28.0396C381.613 26.6881 383.842 25.7553 386.19 25.2994C386.593 25.1914 387.015 25.1731 387.426 25.2457C387.837 25.3182 388.228 25.4798 388.57 25.7193C388.855 26.0122 389.049 26.3823 389.127 26.7838C389.205 27.1852 389.164 27.6014 389.01 27.9801C388.685 28.735 388.151 29.3801 387.47 29.8394C385.441 31.3864 382.889 32.0793 380.357 31.7691C377.825 31.4589 375.515 30.1701 373.92 28.1793" fill="#DBCBB4"/>
</svg>
