<svg width="272" height="266" viewBox="0 0 272 266" fill="none" xmlns="http://www.w3.org/2000/svg">
<path d="M257.46 162.47L257.88 161.91C258.049 161.679 258.206 161.438 258.35 161.19C258.544 160.874 258.705 160.539 258.83 160.19C259.049 159.684 259.081 159.117 258.92 158.59C258.832 158.406 258.705 158.244 258.548 158.115C258.391 157.985 258.207 157.891 258.01 157.84C257.408 157.66 256.793 157.53 256.17 157.45C255.509 157.327 254.841 157.25 254.17 157.22C253.49 157.22 252.81 157.22 252.17 157.22C251.53 157.22 250.89 157.22 250.25 157.22C248.89 157.22 247.53 157.28 246.17 157.33C244.81 157.38 243.36 157.46 241.95 157.46C241.56 157.46 241.18 157.41 240.79 157.37C239.411 157.096 238.048 156.742 236.71 156.31C235.28 155.9 233.85 155.44 232.39 155.17C231.68 155.029 230.962 154.932 230.24 154.88C229.575 154.811 228.905 154.811 228.24 154.88C227.564 154.949 226.895 155.072 226.24 155.25C225.55 155.45 224.86 155.66 224.24 155.92C222.92 156.422 221.631 157.003 220.38 157.66C219.1 158.34 217.84 159.04 216.5 159.6C216.03 159.77 215.57 159.93 215.1 160.07C212.321 160.764 209.685 161.939 207.31 163.54C205.08 165.21 202.92 166.98 200.69 168.65L200.5 168.79C199.15 169.79 197.76 170.72 196.43 171.79C195.1 172.86 194.01 173.65 192.79 174.56C191.86 175.25 190.91 175.93 189.92 176.56C188.93 177.19 188.1 177.62 187.18 178.13C185.6 178.983 183.987 179.77 182.34 180.49C180.61 181.24 178.88 181.97 177.13 182.67C176.6 182.88 176.06 183.09 175.52 183.28L174.45 183.38C172.998 183.552 171.556 183.799 170.13 184.12C168.662 184.442 167.213 184.846 165.79 185.33C165.14 185.57 164.49 185.81 163.85 186.07L162 186.53C161.41 186.66 160.82 186.8 160.23 186.92C157.18 187.55 154.09 188.02 151.02 188.53L146.96 189.22C148.43 188.49 149.9 187.75 151.34 186.97C153.34 185.91 155.18 184.77 157.05 183.6C157.92 183.05 158.81 182.51 159.65 181.92C160.49 181.33 161.52 180.59 162.44 179.92C164.4 178.467 166.343 176.996 168.27 175.51C170.19 174.03 172.16 172.6 174.08 171.12C176 169.64 178.03 168.04 179.99 166.48L181.14 165.58C181.798 165.728 182.467 165.818 183.14 165.85C183.985 165.884 184.831 165.816 185.66 165.65C186.46 165.51 187.26 165.36 188.06 165.2C191.148 164.583 194.191 163.761 197.17 162.74C198.697 162.231 200.184 161.609 201.62 160.88C202.33 160.52 203.03 160.13 203.7 159.71C204.37 159.29 205.03 158.85 205.7 158.41C206.37 157.97 206.98 157.53 207.61 157.07C208.24 156.61 208.85 156.17 209.48 155.73C210.78 154.82 212.12 153.97 213.48 153.09C214.84 152.21 216.03 151.35 217.31 150.48C218.59 149.61 219.82 148.74 221.04 147.83L221.65 147.38C221.708 147.334 221.755 147.276 221.788 147.209C221.82 147.142 221.837 147.069 221.837 146.995C221.837 146.921 221.82 146.848 221.788 146.781C221.755 146.715 221.708 146.656 221.65 146.61C221.452 146.463 221.228 146.355 220.99 146.29C220.763 146.23 220.533 146.18 220.3 146.14L219.5 146C219.02 145.912 218.536 145.849 218.05 145.81C217.551 145.755 217.048 145.755 216.55 145.81C216.249 145.857 215.952 145.923 215.66 146.01L215.99 145.84C216.51 145.58 216.99 145.3 217.51 145.01C218.03 144.72 218.45 144.46 218.9 144.16C219.9 143.46 220.9 142.72 221.9 141.93C222.9 141.14 223.75 140.41 224.67 139.65C225.59 138.89 226.39 138.21 227.23 137.46C228.07 136.71 229.07 135.77 229.93 134.86C230.79 133.95 231.45 133.18 232.16 132.29L232.66 131.66C233.49 130.66 234.26 129.52 234.98 128.41C235.33 127.86 235.66 127.31 235.98 126.74C236.3 126.17 236.56 125.65 236.8 125.08C237.04 124.51 237.28 123.9 237.5 123.3C237.61 123.01 237.68 122.7 237.78 122.41C237.88 122.12 237.92 121.88 237.98 121.62C238.249 120.547 238.449 119.458 238.58 118.36C238.89 116.02 239.1 113.66 239.46 111.36C239.75 109.66 240.08 107.96 240.46 106.28C240.84 104.6 241.35 102.78 241.81 101.04C242.39 98.8201 242.95 96.5899 243.38 94.3399C243.61 93.1799 243.83 92.0201 243.95 90.8501C243.95 90.5501 243.95 90.2602 244.01 89.9702C244.012 89.6953 243.988 89.4205 243.94 89.1499C243.916 88.9486 243.837 88.7582 243.71 88.6001C243.567 88.4147 243.36 88.2896 243.13 88.25C242.936 88.2202 242.738 88.259 242.57 88.3599C242.344 88.5063 242.13 88.6703 241.93 88.8501C240.25 90.3101 238.65 91.8499 237.03 93.3599C236.21 94.1399 235.39 94.9199 234.55 95.6699C233.71 96.4199 232.78 97.2298 231.9 98.0098C231.02 98.7898 230.19 99.5498 229.31 100.3C228.43 101.05 227.43 101.86 226.45 102.6C224.59 104.02 222.7 105.41 220.82 106.81L220.97 106.7C219.1 108.07 217.23 109.44 215.39 110.87C213.55 112.3 211.71 113.77 209.98 115.35C208.98 116.23 208.09 117.14 207.17 118.05C207 118.22 206.84 118.4 206.68 118.57C206.52 118.74 206.27 119 206.08 119.23L204.99 120.51C203.417 122.365 202.012 124.357 200.79 126.46C199.664 128.511 198.662 130.628 197.79 132.8C196.93 134.93 196.18 137.1 195.51 139.3L194.75 138.95L194.53 138.86L194.65 138.91C194.07 138.633 193.464 138.415 192.84 138.26C192.19 138.11 191.53 138 190.84 137.91C190.48 137.86 190.12 137.81 189.76 137.79C189.364 137.77 188.966 137.77 188.57 137.79C187.76 137.79 186.96 137.9 186.16 138C185.382 138.096 184.613 138.253 183.86 138.47C183.11 138.69 182.38 138.95 181.65 139.23L181.48 139.3L181.14 139.43C179.214 140.19 177.343 141.082 175.54 142.1L175.66 142.03L174.94 142.42C173.76 143.06 172.63 143.789 171.56 144.6C170.43 145.47 169.38 146.42 168.34 147.39C167.79 147.91 167.25 148.46 166.74 149.03C166.23 149.6 165.65 150.24 165.16 150.89C164.69 151.5 164.253 152.134 163.85 152.79C163.66 153.12 163.46 153.45 163.27 153.79C163.08 154.13 162.89 154.49 162.69 154.84L162.6 154.99C162.594 155.023 162.594 155.057 162.6 155.09C162.08 155.31 161.6 155.52 161.05 155.76C160.34 156.08 159.62 156.4 158.92 156.76C158.22 157.12 157.51 157.43 156.82 157.76C156.13 158.09 155.38 158.5 154.67 158.9C153.96 159.3 153.3 159.66 152.67 160.07L151.37 160.85C151.09 161.02 150.82 161.21 150.55 161.39C150.28 161.57 149.97 161.77 149.69 161.97L148.5 162.84C148.24 163.033 147.98 163.233 147.72 163.44L146.87 164.1L145.87 164.97C146.14 164.62 146.44 164.29 146.71 163.97C147.92 162.37 149.07 160.72 150.21 159.07C151.35 157.42 152.58 155.71 153.81 154.07C154.39 153.3 154.97 152.54 155.56 151.79L155.62 151.71L157.82 148.94C159.07 147.35 160.3 145.73 161.53 144.11C162.76 142.49 163.99 140.94 165.23 139.37C167.65 136.29 170.06 133.2 172.48 130.13C173.41 128.97 174.34 127.82 175.26 126.65C175.43 126.47 175.57 126.26 175.71 126.08L175.61 126.2L176.5 125.08L176.55 125.02V124.97L176.64 124.85L178.1 123.02C178.061 123.065 178.024 123.112 177.99 123.16C179.21 121.63 180.42 120.1 181.68 118.61C182.01 118.21 182.33 117.8 182.68 117.41L183.79 116.19C184.38 115.54 185.01 114.91 185.63 114.28L185.69 114.22L186.41 113.52C187.84 112.14 189.3 110.8 190.75 109.43C192.2 108.06 193.75 106.59 195.32 105.22C198.32 102.57 201.46 100.11 204.65 97.71C205.52 97.09 206.39 96.4601 207.28 95.8501L210 93.98C210.55 93.88 211.1 93.7699 211.64 93.6499L213.64 93.2403C214.37 93.0903 215.11 92.9699 215.84 92.8399C216.57 92.7099 217.19 92.6598 217.84 92.5698H217.74L218.74 92.48C220.1 92.35 221.47 92.2803 222.83 92.2403C224.19 92.2003 225.66 92.24 227.07 92.19C227.42 92.19 227.77 92.19 228.07 92.19L229.34 92.1099C229.69 92.1099 230.05 92.04 230.4 92L231.31 91.8701C231.64 91.8201 231.98 91.78 232.31 91.71L233.56 91.44L233.97 91.3399L234.69 91.1499C234.99 91.0699 235.28 90.9699 235.58 90.8799C235.88 90.7899 236.18 90.6901 236.48 90.5801L237.6 90.1699C237.98 90.0299 238.36 89.8702 238.73 89.7202C239.1 89.5702 239.24 89.5202 239.48 89.4102C240.893 88.8102 242.297 88.1934 243.69 87.5601L245.53 86.7002C245.87 86.5402 246.2 86.36 246.53 86.19C246.86 86.02 247.07 85.92 247.34 85.77L248.53 85.1099C248.8 84.9599 249.06 84.7899 249.32 84.6299C249.58 84.4699 249.87 84.3001 250.14 84.1201L251.25 83.3599C251.87 82.9399 252.45 82.4801 253.05 82.0401C253.65 81.6001 254.13 81.1898 254.66 80.7598C255.19 80.3298 255.66 79.9203 256.21 79.4903C256.76 79.0603 257.21 78.63 257.74 78.19L259.41 76.7202C259.99 76.2002 260.56 75.6702 261.13 75.1402C262.13 74.1902 263.13 73.21 264.13 72.23C264.45 71.93 264.75 71.6201 265.06 71.3101C266.06 70.3101 267 69.3101 267.96 68.3101C268.44 67.7901 268.96 67.3098 269.42 66.7598C269.65 66.5098 269.89 66.2603 270.12 65.9903L270.51 65.5498C270.654 65.3887 270.788 65.2185 270.91 65.0401L271.07 64.75C271.116 64.6457 271.156 64.5391 271.19 64.4302C271.264 64.2441 271.264 64.0363 271.19 63.8501C271.114 63.6961 270.992 63.5702 270.84 63.4903C270.701 63.3912 270.539 63.329 270.37 63.3101C270.221 63.2901 270.069 63.2901 269.92 63.3101C269.49 63.3101 269.06 63.3699 268.62 63.3999H267.38C266.44 63.3999 265.51 63.47 264.58 63.48C263.15 63.48 261.71 63.5298 260.28 63.5698C258.85 63.6098 257.4 63.68 255.96 63.73C254.52 63.78 253.12 63.7998 251.7 63.8198H249.61L247.45 63.7598H247.51C246.7 63.7598 245.89 63.6899 245.08 63.6499L243.53 63.5698C243.11 63.5698 242.68 63.5698 242.26 63.5698H241.54H240.77C240.25 63.6298 239.77 63.7101 239.22 63.8101C238.5 63.9401 237.78 64.1398 237.06 64.3198C236.34 64.4998 235.83 64.6699 235.23 64.8599C233.88 65.2899 232.55 65.7598 231.23 66.2598L229.51 66.9302C228.175 67.4478 226.884 68.0729 225.65 68.7998C224.46 69.5539 223.312 70.3719 222.21 71.25C221.15 72.07 220.1 72.9301 219.07 73.7901C217.962 74.6986 216.913 75.6774 215.93 76.7202C215.43 77.2602 214.93 77.8101 214.48 78.3701C214.03 78.9301 213.6 79.5199 213.18 80.1099C212.76 80.6999 212.38 81.2398 211.99 81.8198C211.593 82.4075 211.226 83.0153 210.89 83.6402C210.58 84.2402 210.28 84.85 210.01 85.48C209.74 86.11 209.46 86.7602 209.2 87.4102C208.94 88.0602 208.63 88.8298 208.36 89.5498C208.09 90.2698 207.89 90.7899 207.64 91.3999C207.45 91.8199 207.25 92.2299 207.02 92.6299L206.95 92.7403C204.95 94.0903 202.87 95.4302 200.9 96.8902C198.32 98.7902 195.76 100.72 193.31 102.79C191.55 104.28 189.85 105.79 188.16 107.38C188.45 106.75 188.74 106.14 188.98 105.49C189.31 104.56 189.6 103.61 189.85 102.66C190.4 100.66 190.85 98.6001 191.33 96.5401C191.54 95.5401 191.71 94.6099 191.85 93.6299C191.91 93.1699 191.98 92.7198 192.04 92.2598C192.71 90.9998 193.36 89.73 194.04 88.48C194.95 86.88 195.86 85.2602 196.75 83.6402C197.64 82.0202 198.32 80.58 199.02 79.02C199.44 78.1 199.85 77.1703 200.26 76.2403C200.67 75.3103 200.99 74.6699 201.35 73.8799C201.55 73.4599 201.76 73.0499 201.97 72.6299C202.18 72.2099 202.28 72.0102 202.44 71.7002L203.79 69.0601C204.523 67.6401 205.247 66.2198 205.96 64.7998C206.28 64.4998 206.6 64.1899 206.96 63.8999C207.66 63.2899 208.36 62.66 209.02 62C210.2 60.84 211.37 59.6598 212.56 58.5098C212.98 58.1098 213.4 57.6998 213.83 57.3198C214.26 56.9398 214.75 56.5199 215.21 56.1299C215.67 55.7399 216.09 55.4399 216.54 55.1299L217.87 54.1299L218.61 53.6099C219.36 53.0799 220.15 52.6099 220.94 52.1299C221.73 51.6499 222.65 51.1299 223.51 50.6499C225.19 49.6499 226.83 48.6499 228.51 47.6499L229.77 46.8799C230.18 46.6299 230.58 46.3601 230.98 46.1001C231.38 45.8401 231.79 45.53 232.2 45.25C232.61 44.97 232.99 44.6298 233.39 44.3198C233.79 44.0098 234.05 43.78 234.39 43.5L235.3 42.7202C235.76 42.3102 236.22 41.9 236.69 41.5C236.99 41.23 237.31 40.96 237.6 40.69L239.91 38.5401C240.034 38.4275 240.151 38.3074 240.26 38.1802L240.93 37.4702C241.26 37.1202 241.55 36.7602 241.86 36.4102C242.17 36.0602 242.47 35.6601 242.77 35.2901C243.07 34.9201 243.34 34.5199 243.63 34.1299C244.2 33.3399 244.7 32.5002 245.19 31.6602C246.14 30.0402 246.89 28.3202 247.68 26.6602C248.47 25.0002 249.35 23.19 250.29 21.52C251.23 19.85 252.21 18.21 253.16 16.52C253.64 15.68 254.11 14.8303 254.57 13.9903C255.03 13.1503 255.46 12.3398 255.88 11.5098C256.09 11.0798 256.31 10.65 256.51 10.21C256.71 9.76998 256.96 9.26983 257.16 8.79983C257.36 8.32983 257.54 7.93979 257.72 7.50979C257.9 7.07979 258.09 6.62996 258.25 6.18996C258.58 5.27996 258.91 4.36996 259.16 3.43996C259.25 3.12996 259.34 2.80996 259.41 2.43996C259.48 2.06996 259.51 1.95998 259.54 1.70998C259.565 1.52081 259.565 1.32933 259.54 1.14016C259.49 0.860159 259.31 0.530022 258.99 0.500022C258.851 0.480513 258.71 0.497559 258.58 0.549827C258.412 0.644801 258.252 0.752059 258.1 0.870139H258.15C257.642 1.23178 257.114 1.5656 256.57 1.87014C255.41 2.47014 254.25 3.04014 253.09 3.62014L251.36 4.49026C251.06 4.64026 250.76 4.80996 250.45 4.93996L249.53 5.35012C248.99 5.55012 248.44 5.75996 247.89 5.93996L245.27 6.77004C244.81 6.92004 244.35 7.06024 243.9 7.22024C243.45 7.38024 242.96 7.53024 242.5 7.72024L241.62 8.0801L241.09 8.29006C240.64 8.50006 240.19 8.69994 239.75 8.91994L237.22 10.1802C235.51 11.0402 233.79 11.9001 232.12 12.8301L227.12 15.6699C225.4 16.6699 223.68 17.5798 221.97 18.5698C221.58 18.7998 221.2 19.0198 220.82 19.2598C220.44 19.4998 219.95 19.8099 219.53 20.1099C219.11 20.4099 218.71 20.7 218.32 21.02C217.93 21.34 217.49 21.69 217.09 22.02L215.86 23.0801L214.86 23.96C214.54 24.25 214.22 24.5401 213.91 24.8501L213.16 25.5899L212.86 25.8799C212.66 26.1099 212.45 26.3301 212.24 26.5601C212.089 26.706 211.945 26.8595 211.81 27.02L210.89 28.1001C210.72 28.3001 210.56 28.52 210.4 28.73C210.24 28.94 210.14 29.0602 210.02 29.2202C209.75 29.6102 209.47 29.9799 209.22 30.3799C208.97 30.7799 208.66 31.2399 208.39 31.6699L207.61 33C207.15 33.79 206.71 34.5902 206.32 35.4102C206.12 35.8302 205.91 36.2302 205.74 36.6602L205.35 37.6602C205.29 37.8002 205.23 37.9399 205.18 38.0899C205.01 38.6199 204.83 39.1502 204.66 39.6802C204.604 39.8475 204.557 40.0175 204.52 40.19C204.44 40.5 204.36 40.8101 204.29 41.1201C204.06 42.0301 203.89 42.9599 203.74 43.8799C203.59 44.7999 203.46 45.7402 203.38 46.6802C203.38 47.1102 203.3 47.5402 203.28 47.9702L203.19 49.7403C203.19 50.2203 203.19 50.7399 203.19 51.1699C203.19 51.5999 203.19 51.9799 203.19 52.3799C203.19 52.7799 203.19 53.4798 203.26 54.0298C203.33 54.5798 203.34 55.13 203.37 55.69C203.43 56.56 203.5 57.4398 203.54 58.3198C203.58 59.1998 203.64 60.3198 203.67 61.3198C203.67 61.7998 203.72 62.32 203.74 62.77C203.76 63.22 203.74 63.77 203.74 64.21C203.74 64.32 203.74 64.4301 203.74 64.5401L202.93 65.9199C202.51 66.6699 202.08 67.4199 201.65 68.1699C201.22 68.9199 200.71 69.86 200.25 70.71C200.07 71.03 199.9 71.37 199.73 71.71C199.56 72.05 199.34 72.4501 199.16 72.8301C198.77 73.6801 198.36 74.5199 198 75.3799C197.28 77.0999 196.58 78.8201 195.86 80.5401L195.92 80.3999L195.1 82.2598C194.85 82.8298 194.57 83.39 194.32 83.96C193.97 84.72 193.61 85.46 193.26 86.21C193.04 86.7 192.81 87.21 192.58 87.69C192.68 87.2 192.79 86.69 192.86 86.23C192.99 85.39 193.1 84.55 193.18 83.71C193.26 82.87 193.33 82.0402 193.39 81.2002C193.51 79.6402 193.54 78.07 193.58 76.5C193.649 75.1676 193.649 73.8325 193.58 72.5L193.52 71.7901C193.52 71.5601 193.46 71.3301 193.43 71.1001C193.37 70.6601 193.28 70.2401 193.2 69.8101C193.03 68.9701 192.79 68.1498 192.55 67.3198C192.31 66.4898 192.1 65.8699 191.86 65.1499C191.62 64.4299 191.34 63.5403 191.07 62.7403C190.582 61.1757 189.967 59.6536 189.23 58.19C189.16 58.05 189.08 57.91 189 57.77C188.92 57.63 189 57.55 189 57.44V56.2202L189.06 54.8101C189.06 54.3701 189.06 53.93 189.06 53.48C189.06 53.29 189.06 53.1002 189.06 52.9102C189.06 52.7202 189.06 52.5501 189.06 52.3701C189.06 52.1901 189.06 51.7399 189.01 51.4199C189.01 51.2899 189.01 51.1598 189.01 51.0298V50.9702C189.01 50.9702 189.01 50.9001 189.01 50.8701C189.015 50.827 189.015 50.7834 189.01 50.7403C189.015 50.6837 189.015 50.6264 189.01 50.5698V50.6402C189.01 50.5902 189.01 50.5403 189.01 50.4903V50.4199C189.01 50.3599 189.01 50.29 189.01 50.23C189.01 50.17 189.01 50.2901 189.01 50.3101V49.9903V50.0698C189.015 50.0033 189.015 49.9367 189.01 49.8701C189.015 49.7902 189.015 49.7098 189.01 49.6299C189.01 49.5799 189.01 49.52 189.01 49.46C189.014 49.4865 189.014 49.5136 189.01 49.5401V49.2598C189.016 49.2334 189.016 49.2066 189.01 49.1802C189.01 48.8902 188.93 48.6001 188.89 48.3101C188.85 48.0201 188.8 47.7099 188.75 47.4199C188.7 47.1299 188.59 46.6898 188.52 46.3198C188.45 45.9498 188.39 45.7502 188.32 45.4702L188.11 44.7202C188.11 44.6002 188.05 44.4699 188.01 44.3399C187.89 43.9799 187.76 43.62 187.63 43.25C187.5 42.88 187.43 42.7102 187.31 42.4302C187.19 42.1502 186.98 41.65 186.8 41.27C186.37 40.3861 185.872 39.5368 185.31 38.73C184.736 37.9224 184.104 37.1571 183.42 36.44C182.35 35.31 181.19 34.25 180.04 33.21C179.56 32.78 179.04 32.3502 178.59 31.9302C178.34 31.7002 178.08 31.48 177.82 31.27C177.56 31.06 177.26 30.8201 176.96 30.6201C176.663 30.4247 176.356 30.2445 176.04 30.0801L175.04 29.6099C174.41 29.3499 173.77 29.1299 173.13 28.8999C171.88 28.4599 170.64 28.0398 169.42 27.5298C169.06 27.3698 168.71 27.2098 168.42 27.0298L167.32 26.4102C166.86 26.1202 166.41 25.8298 165.96 25.5098L164.55 24.5098C163.47 23.7198 162.38 22.97 161.24 22.27L157.78 20.1299L155.97 18.98L155.2 18.48L154.74 18.1699C154.51 18.0099 154.28 17.8402 154.03 17.7002C153.823 17.5684 153.592 17.4797 153.35 17.44C153.139 17.3951 152.921 17.3951 152.71 17.44C152.518 17.5066 152.339 17.6046 152.18 17.73C152.033 17.8587 151.908 18.0109 151.81 18.1802C151.568 18.5939 151.402 19.0476 151.32 19.52C151.24 19.9 151.17 20.2802 151.12 20.6602C151.05 21.3202 150.97 21.9802 150.92 22.6602C150.8 24.0902 150.69 25.53 150.56 26.96C150.5 27.66 150.45 28.3498 150.4 29.0498C150.4 29.4198 150.4 29.7802 150.34 30.1402C150.34 30.2702 150.34 30.3998 150.34 30.5298V32.3501C150.34 32.7901 150.34 33.2302 150.42 33.6602C150.5 34.0902 150.5 34.5998 150.57 35.0698C150.827 37.0095 151.341 38.9064 152.1 40.71C152.49 41.6402 152.938 42.5452 153.44 43.4199C153.94 44.2873 154.484 45.1284 155.07 45.94C155.667 46.7503 156.315 47.522 157.01 48.25C157.607 48.8873 158.245 49.4853 158.92 50.0401L158.99 50.1001L159.12 50.2002L159.02 50.1201L159.22 50.2798L159.38 50.3999L159.28 50.3198L159.49 50.4903L159.77 50.7202H159.83L159.9 50.7798L159.97 50.8301L160.04 50.8902L160.1 50.94L160.23 51.0401L160.31 51.1099C160.52 51.2699 160.75 51.4201 160.97 51.5801L161.76 52.1201C162 52.2801 162.25 52.4101 162.49 52.5601L163.27 53.02L163.16 52.96C163.33 53.06 163.51 53.14 163.69 53.23L164.52 53.6402C165.14 53.9402 165.78 54.19 166.41 54.46C166.73 54.6 167.07 54.7099 167.41 54.8399L168.2 55.1499L170.4 56C170.98 56.23 171.56 56.4599 172.14 56.6699C172.72 56.8799 173.58 57.21 174.31 57.46L176.22 58.1299C177.51 58.5899 178.77 59.1299 180.03 59.6299C180.56 59.8599 181.08 60.0999 181.6 60.3599C182.12 60.6199 182.6 60.8601 183.03 61.1201H182.96C183.14 61.2301 183.33 61.3302 183.51 61.4502L184.03 61.8101C185.812 63.2321 187.508 64.7579 189.11 66.3799C189.433 66.6922 189.733 67.0263 190.01 67.3799C190.062 67.4529 190.109 67.5298 190.15 67.6099C190.25 67.795 190.34 67.9855 190.42 68.1802C190.52 68.4502 190.6 68.73 190.69 69C190.78 69.27 190.88 69.66 191.01 70C191.13 70.2573 191.271 70.505 191.43 70.7403C191.43 71.6103 191.43 72.4901 191.43 73.3701C191.43 74.2501 191.36 75.31 191.32 76.27C191.23 78.27 191.11 80.2702 191.1 82.2202C191.1 83.1702 191.1 84.1199 191.1 85.0698C191.1 86.0198 191.1 87.1202 191.1 88.1402C191.1 88.6302 191.05 89.1399 191.01 89.6299C190.97 90.1199 190.91 90.6298 190.85 91.0698L190.7 91.8999C190.52 92.6499 190.34 93.3999 190.15 94.1499L189.97 94.98L189.41 96.1802C189.24 96.5402 189.09 96.8998 188.94 97.2598C188.74 97.7084 188.57 98.1697 188.43 98.6402C188.414 98.7157 188.419 98.7942 188.446 98.8667C188.472 98.9393 188.519 99.0026 188.58 99.0498C188.628 99.0832 188.683 99.1072 188.74 99.1201C188.47 99.9901 188.21 100.87 187.92 101.74C187.4 103.29 186.83 104.81 186.18 106.31C185.82 107.1 185.47 107.9 185.06 108.66C184.65 109.42 184.25 110.14 183.83 110.87C183.54 111.35 183.25 111.82 182.95 112.29L182.49 113C182.33 113.24 182.15 113.48 182 113.73C181.85 113.969 181.72 114.22 181.61 114.48L181.33 114.81C181.07 115.11 180.81 115.42 180.56 115.73C179.92 116.56 179.27 117.39 178.65 118.24C177.39 119.94 176.17 121.68 174.95 123.41C173.73 125.14 172.58 126.75 171.37 128.41C166.703 134.83 161.9 141.163 156.96 147.41V147.46L154.4 150.62L154.33 150.71L153.88 151.27C152.77 152.65 151.68 154.06 150.61 155.48C149.54 156.9 148.61 158.18 147.61 159.54C146.61 160.9 145.73 162.11 144.76 163.38C143.05 165.52 141.28 167.62 139.41 169.62C136.61 172.62 133.75 175.54 130.87 178.45C127.99 181.36 125.19 184.15 122.31 186.96C121.08 188.14 119.84 189.32 118.56 190.44C117.28 191.56 116 192.65 114.7 193.72C112.21 195.78 109.65 197.72 107.06 199.67H107.12L107.05 199.72C105.25 201.03 103.38 202.23 101.55 203.49C100.22 204.4 98.8799 205.3 97.5499 206.14C95.8299 206.55 94.1099 206.99 92.4199 207.5L89.0999 208.5C87.9999 208.86 86.8899 209.22 85.7799 209.56C84.1399 210.07 82.4899 210.56 80.7799 211.04L81.0299 210.85C82.1499 209.95 83.2099 208.98 84.2799 208.01C85.3499 207.04 86.2799 206.1 87.3499 205.14C89.4499 203.14 91.4999 201.14 93.4699 199.02C94.4566 197.96 95.4366 196.89 96.4099 195.81C97.4099 194.74 98.3199 193.64 99.2599 192.55C101.1 190.41 102.95 188.3 104.87 186.23C106.79 184.16 108.57 181.99 110.38 179.83C111.31 178.73 112.25 177.63 113.14 176.5C113.53 176 113.89 175.5 114.26 174.97C114.26 174.97 114.26 175.03 114.33 175.05C114.424 175.127 114.533 175.182 114.651 175.211C114.768 175.241 114.891 175.244 115.01 175.22C115.268 175.17 115.507 175.048 115.7 174.87C115.83 174.75 115.94 174.61 116.06 174.48C116.18 174.35 116.49 174.05 116.71 173.83L117.59 172.92C118.28 172.22 118.97 171.53 119.67 170.84C120.99 169.6 122.3 168.37 123.67 167.15C125.21 165.75 126.763 164.364 128.33 162.99C129.8 161.71 131.33 160.48 132.84 159.28L133.4 158.88C133.58 158.76 133.75 158.63 133.93 158.52L135.1 157.83C136.67 156.98 138.27 156.18 139.88 155.41C140.82 154.95 141.75 154.49 142.68 154.01C143.11 153.78 143.52 153.53 143.94 153.29C144.17 153.16 144.39 153.01 144.61 152.86C144.772 152.769 144.929 152.669 145.08 152.56C145.51 152.25 145.94 151.95 146.35 151.61C146.55 151.44 146.76 151.29 146.95 151.11L147.59 150.51C147.97 150.16 148.33 149.79 148.69 149.42C149.05 149.05 149.31 148.77 149.59 148.42C149.87 148.07 150.28 147.61 150.59 147.2C150.74 147.01 150.9 146.81 151.04 146.61C151.18 146.41 151.34 146.2 151.47 145.99C152.016 145.132 152.5 144.236 152.92 143.31C153.142 142.839 153.336 142.354 153.5 141.86C153.734 141.101 153.888 140.32 153.96 139.53C154.05 138.53 154.15 137.46 154.31 136.42C154.397 135.9 154.514 135.386 154.66 134.88C154.82 134.36 155 133.88 155.21 133.35C155.32 133.1 155.43 132.84 155.53 132.59C155.63 132.34 155.89 131.87 156.06 131.51C156.23 131.15 156.38 130.92 156.54 130.63C156.86 130.02 157.21 129.42 157.54 128.82C157.87 128.22 158.2 127.68 158.54 127.1C158.73 126.76 158.93 126.42 159.1 126.1L159.64 125.04C159.84 124.63 160.02 124.21 160.21 123.79C160.4 123.37 160.57 122.93 160.73 122.49C160.89 122.05 161.08 121.49 161.24 120.94C161.4 120.39 161.53 119.94 161.67 119.39C161.81 118.84 161.88 118.56 161.96 118.15C162.121 117.335 162.228 116.51 162.28 115.68C162.312 114.546 162.278 113.41 162.18 112.28C162.03 110.28 161.9 108.28 161.82 106.22L161.7 103.16C161.7 102.21 161.59 101.27 161.53 100.32C161.47 99.3699 161.4 98.4102 161.31 97.4502C161.275 96.9873 161.215 96.5262 161.13 96.0698C161.039 95.5895 160.919 95.1154 160.77 94.6499C160.48 93.7399 160.13 92.84 159.77 91.96C159.66 91.6679 159.451 91.4237 159.18 91.27C159.094 91.2296 159.003 91.1996 158.91 91.1802C158.865 91.1298 158.806 91.0947 158.74 91.0801C158.653 91.0463 158.559 91.0369 158.467 91.0528C158.376 91.0686 158.29 91.1089 158.22 91.1699L157.78 91.52L156.95 92.21L155.25 93.6001C154.04 94.6001 152.81 95.5998 151.58 96.5098L150.48 97.3101C150.12 97.5801 149.73 97.8198 149.36 98.0698C148.99 98.3198 148.65 98.54 148.28 98.75C147.91 98.96 147.41 99.27 146.96 99.52L146.54 99.75L146.43 99.8101L146.27 99.8902H146.35L146.16 99.9903H146.24L145.18 100.54C143.42 101.42 141.64 102.26 139.9 103.18C138.9 103.69 137.9 104.23 136.98 104.78C136.06 105.33 135.29 105.78 134.45 106.35C133.61 106.92 132.88 107.35 132.11 107.88C131.34 108.41 130.39 109.1 129.55 109.76C128.765 110.387 128.014 111.054 127.3 111.76C126.55 112.47 125.85 113.23 125.15 113.99C124.45 114.75 123.84 115.52 123.23 116.32C122.619 117.142 122.058 118.001 121.55 118.89C121.05 119.74 120.62 120.63 120.2 121.51C119.78 122.39 119.36 123.3 118.97 124.2C118.19 126.05 117.43 127.91 116.81 129.81C116.49 130.76 116.22 131.73 115.95 132.7C115.663 133.686 115.433 134.688 115.26 135.7C115.144 136.36 115.097 137.03 115.12 137.7C115.12 138.08 115.19 138.46 115.23 138.84C115.285 139.311 115.365 139.778 115.47 140.24C115.59 140.76 115.7 141.24 115.84 141.79C115.98 142.34 116.13 142.87 116.29 143.41C116.57 144.33 116.9 145.25 117.2 146.16C117.5 147.07 117.76 148 118 148.93C118.11 149.41 118.22 149.93 118.29 150.37C118.36 150.81 118.44 151.37 118.5 151.84C118.56 152.31 118.57 152.58 118.58 152.95C118.59 153.32 118.58 153.71 118.58 154.09C118.529 155.201 118.422 156.31 118.26 157.41C118.15 158.03 118.02 158.64 117.87 159.26C117.65 160.19 117.37 161.11 117.13 162.03C116.89 162.95 116.68 163.94 116.49 164.91C116.3 165.88 116.18 166.91 115.99 167.83C115.8 168.75 115.6 169.63 115.35 170.52L115.29 170.68V170.77C114.55 171.97 113.78 173.14 112.97 174.29C112.16 175.44 111.44 176.38 110.64 177.4C109.84 178.42 108.94 179.53 108.08 180.58C107.22 181.63 106.31 182.74 105.37 183.76C104.43 184.78 103.37 185.88 102.3 186.92C100.3 188.92 98.3699 190.92 96.3899 192.92C94.9899 194.27 93.5599 195.59 92.1399 196.92C89.9399 198.98 87.7399 201.05 85.5999 203.16C83.5999 205.16 81.6999 207.16 79.7199 209.16C78.4799 210.34 77.2199 211.5 75.9299 212.62L72.5899 213.69C70.3299 214.42 68.0599 215.11 65.7999 215.85C64.6799 216.21 63.5599 216.6 62.4499 216.99C61.3399 217.38 60.2999 217.82 59.2399 218.25C58.6999 218.47 58.1699 218.7 57.6399 218.94C53.8999 220.43 50.3399 222.3 46.7599 224.12C44.0199 225.51 41.3499 227.04 38.7599 228.65C39.1499 228.24 39.5399 227.82 39.9299 227.42C40.3199 227.02 40.9299 226.42 41.3599 225.92C41.7899 225.42 42.2999 224.92 42.7699 224.36C44.6099 222.36 46.5499 220.41 48.5099 218.5C48.5899 218.42 48.6599 218.34 48.7399 218.27L48.7999 218.21C50.1099 216.95 51.4199 215.69 52.6899 214.39C53.9599 213.09 55.2399 211.77 56.5499 210.49L56.4799 210.56L57.9099 209.2C60.0169 207.31 62.0198 205.307 63.9099 203.2C64.8005 202.15 65.619 201.041 66.3599 199.88L67.5799 198.01C67.7599 197.73 67.9399 197.46 68.1299 197.19C68.4133 196.818 68.6548 196.416 68.8499 195.99C68.8709 195.929 68.8748 195.864 68.8611 195.801C68.8474 195.738 68.8166 195.68 68.7722 195.634C68.7278 195.587 68.6714 195.554 68.6092 195.538C68.5471 195.521 68.4816 195.522 68.4199 195.54H68.3599C68.2943 195.56 68.2363 195.599 68.1935 195.653C68.1507 195.706 68.125 195.771 68.1199 195.84C68.0399 195.97 67.9499 196.09 67.8599 196.21C67.2599 196.96 66.6399 197.69 66.0399 198.45C65.4399 199.21 64.9299 199.86 64.3699 200.57C63.5899 201.57 62.7799 202.46 61.9299 203.37C61.0799 204.28 60.3099 205.02 59.4899 205.82C57.6199 207.58 55.7099 209.28 53.8399 211.05C52.8399 212.05 51.7299 213.05 50.6399 213.99C49.5499 214.93 47.7899 215.73 46.6699 216.62L43.3699 219.31C42.3699 220.16 41.2699 220.98 40.2399 221.83C39.2099 222.68 38.1699 223.6 37.1099 224.47C36.0499 225.34 34.9399 226.13 33.9199 227.03C32.8999 227.93 31.7899 229.03 30.7599 230.03C29.7299 231.03 28.7599 231.95 27.8699 232.97C26.9228 234.034 26.0348 235.149 25.2099 236.31C24.4999 237.31 23.8399 238.31 23.2099 239.38L21.2599 241.12C19.7599 242.46 18.1999 243.71 16.6199 244.95C15.0399 246.19 13.6199 247.25 12.2299 248.52C10.8399 249.79 9.34993 251.22 7.91993 252.52C6.48993 253.82 5.00993 255.23 3.57993 256.6C2.80026 257.363 2.08141 258.185 1.42993 259.06C1.08103 259.531 0.776398 260.033 0.519932 260.56L0.379933 260.86C0.195627 261.245 0.0740898 261.657 0.0199323 262.08C-0.0573627 262.703 0.046807 263.335 0.319931 263.9C0.527052 264.364 0.846687 264.77 1.24993 265.08C1.40757 265.205 1.57862 265.312 1.75993 265.4C2.377 265.712 3.07621 265.824 3.75993 265.72C4.53537 265.601 5.24368 265.211 5.75993 264.62C5.98993 264.37 6.17993 264.07 6.38993 263.79C6.59993 263.51 6.81993 263.21 7.03993 262.93C7.94993 261.8 8.95993 260.74 9.96993 259.71C11.1399 258.5 12.3599 257.32 13.5299 256.11C14.8899 254.69 16.1999 253.22 17.5299 251.76C18.8599 250.3 20.2599 248.85 21.6399 247.4C22.4499 246.54 23.2499 245.66 24.0499 244.78L24.5499 244.28C25.6799 243.22 26.8199 242.18 28.0099 241.19C29.1999 240.2 30.5299 239.12 31.8099 238.1C34.2499 236.14 36.7199 234.22 39.2199 232.34C39.8599 231.89 40.4899 231.43 41.1399 230.99C41.7899 230.55 42.6799 229.99 43.4599 229.48C44.8399 228.6 46.2499 227.78 47.6599 226.96L48.8899 226.3C48.9851 226.292 49.0741 226.249 49.1399 226.18C50.4599 225.47 51.7899 224.78 53.1399 224.13L54.5499 223.48L54.9999 223.4C55.2999 223.4 55.6099 223.33 55.9099 223.33H56.8399C57.1199 223.33 57.4199 223.33 57.6999 223.38L58.5699 223.49C59.5099 223.66 60.4499 223.86 61.3999 224.06C62.3499 224.26 63.2299 224.39 64.1499 224.53C65.0699 224.67 65.9799 224.78 66.8899 224.9L69.5899 225.28C71.3299 225.57 73.0799 225.88 74.8199 226.16H74.7899L77.3999 226.58H77.2399L78.2399 226.75H78.4399L80.7599 227.16L80.8199 227.24C80.8653 227.275 80.916 227.301 80.9699 227.32C81.0429 227.33 81.1169 227.33 81.1899 227.32H81.7899L84.8499 227.87C86.9199 228.23 88.9999 228.58 91.0699 228.97L94.1299 229.55C95.2833 229.77 96.4333 229.97 97.5799 230.15C98.5799 230.31 99.6599 230.43 100.71 230.57C101.76 230.71 102.71 230.83 103.65 230.99H103.77L105.58 231.3C107.71 231.67 109.83 232.1 111.96 232.42C112.55 232.5 113.14 232.54 113.73 232.61L114.28 232.88L115.65 233.65L116.29 234.01C116.49 234.11 116.69 234.22 116.88 234.34L116.77 234.27L117.37 234.63C118.59 235.42 119.76 236.27 120.95 237.1C122.14 237.93 123.09 238.58 124.17 239.3C125.25 240.02 126.49 240.67 127.68 241.3C128.19 241.57 128.68 241.83 129.24 242.09L131.14 243L132.04 243.41L133.17 243.88L133.89 244.15C134.22 244.26 134.55 244.4 134.89 244.49L135.16 244.57H135.04L135.35 244.66H135.23L135.8 244.82H135.68L136.02 244.92H136.11H136.22L136.97 245.12L137.62 245.28L139.28 245.65C139.91 245.78 140.54 245.92 141.18 246.03L142.26 246.2C142.6 246.25 142.95 246.28 143.26 246.31C144.556 246.408 145.859 246.382 147.15 246.23H147.38H147.49H147.7H147.59H147.81H147.69C148.69 246.13 149.77 246.01 150.81 245.89C151.85 245.77 152.81 245.67 153.81 245.54C155.11 245.37 156.4 245.19 157.68 244.91C158.36 244.77 159.03 244.61 159.68 244.42L160.68 244.13L161.61 243.81L162.09 243.61L162.46 243.45C162.76 243.31 163.05 243.18 163.34 243.03C163.95 242.7 164.55 242.36 165.14 242.03C166.29 241.32 167.4 240.56 168.51 239.79C169.62 239.02 170.64 238.28 171.71 237.54C172.78 236.8 173.85 236.07 174.93 235.35L178.11 233.35C179.22 232.65 180.32 231.95 181.43 231.27C183.68 229.88 185.96 228.54 188.21 227.14C189.31 226.45 190.41 225.75 191.49 225.04C192.57 224.33 193.49 223.57 194.41 222.8C194.496 222.747 194.567 222.671 194.614 222.582C194.662 222.492 194.684 222.391 194.68 222.29C194.677 222.185 194.647 222.083 194.593 221.994C194.538 221.904 194.462 221.83 194.37 221.78C194.249 221.719 194.112 221.702 193.98 221.73H193.5H192.69C192.09 221.73 191.5 221.73 190.91 221.73C190.51 221.73 190.12 221.73 189.72 221.65C189.32 221.57 188.86 221.55 188.43 221.49L186.43 221.13C185.53 220.95 184.62 220.77 183.73 220.52C183.09 220.33 182.47 220.06 181.85 219.82L180.94 219.4C180.65 219.27 180.36 219.11 180.06 218.96C179.54 218.69 179.06 218.4 178.52 218.12L177.7 217.66C177.4 217.5 177.1 217.33 176.8 217.18C176.099 216.794 175.37 216.46 174.62 216.18C173.157 215.725 171.632 215.505 170.1 215.53H168.03C167.41 215.53 166.79 215.53 166.17 215.53C165.8 215.53 165.43 215.53 165.06 215.53L163.92 215.43C163.73 215.43 163.55 215.43 163.37 215.37L162.82 215.3L161.82 215.14L159.82 214.82C159.15 214.72 158.49 214.64 157.82 214.56C157.52 214.56 157.21 214.56 156.91 214.5C156.61 214.44 156.31 214.5 156.01 214.5C155.71 214.5 155.38 214.5 155.07 214.5L153.94 214.58C153.57 214.58 153.2 214.67 152.83 214.71L152.05 214.82L151.05 214.98L149.96 215.19C147.32 215.69 144.72 216.34 142.14 217.03C141.5 217.2 140.87 217.39 140.23 217.57C139.59 217.75 138.98 217.96 138.36 218.16L137.64 218.43C137.31 218.55 136.97 218.66 136.64 218.8C136.05 219.05 135.45 219.29 134.87 219.57C134.58 219.71 134.28 219.83 134 219.98L132.93 220.54C132.67 220.67 132.43 220.81 132.18 220.95L131.35 221.4C130.16 222.1 128.98 222.8 127.8 223.53C126.62 224.26 125.73 224.81 124.69 225.45L122.82 226.58C122.29 226.9 121.75 227.2 121.22 227.51L119.95 228.22L116.43 230H115.96C115.3 230 114.65 229.95 113.96 229.89C113.27 229.83 112.62 229.73 111.96 229.64H112.14L111.21 229.49C109.28 229.18 107.35 228.81 105.42 228.49H105.24H105.01C102.3 228.05 99.5699 227.79 96.8599 227.38C94.5899 227 92.3299 226.57 90.0499 226.17H90.2199C90.9999 225.98 91.7599 225.77 92.5299 225.56L94.6799 224.97L98.1099 224.03C99.2099 223.74 100.33 223.48 101.43 223.19C102.53 222.9 103.74 222.57 104.89 222.24C106.003 221.963 107.101 221.629 108.18 221.24L108.48 221.12H108.4L108.69 221H108.78L109.69 220.64L112.9 219.33L113.72 218.99C114.015 218.875 114.292 218.717 114.54 218.52C114.917 218.203 115.181 217.771 115.29 217.29C114.885 217.195 114.464 217.195 114.06 217.29C113.883 217.33 113.709 217.383 113.54 217.45L113.16 217.63L112.42 217.96L110.8 218.68C109.8 219.14 108.71 219.6 107.65 220.03C107.16 220.21 106.65 220.39 106.18 220.55L104.52 221.04C103.44 221.37 102.34 221.66 101.24 221.96L97.8299 222.86C96.7299 223.15 95.6499 223.48 94.5599 223.86C92.2899 224.55 90.0299 225.28 87.7199 225.86C85.6599 225.53 83.6099 225.18 81.5499 224.86C79.4899 224.54 77.3099 224.28 75.1899 224.03C73.0699 223.78 70.9499 223.52 68.8199 223.32C66.6899 223.12 64.7499 223.04 62.7199 222.76L60.9699 222.51C60.5099 222.43 60.0399 222.36 59.5699 222.3C59.2999 222.3 59.0299 222.23 58.7599 222.22H57.9499C58.2099 222.11 58.4699 221.99 58.7399 221.89C59.8599 221.46 60.9899 221.06 62.1399 220.68C63.2899 220.3 64.3099 219.98 65.3899 219.63C67.7099 218.88 70.0399 218.14 72.3899 217.38C74.7399 216.62 76.8099 215.86 79.0499 215.21C81.2899 214.56 83.5299 213.99 85.7899 213.44C88.5299 212.8 91.2599 212.17 93.9899 211.51L100.26 210.07C102.26 209.62 104.26 209.13 106.19 208.52C108.62 207.75 111.03 206.91 113.39 205.94C115.75 204.97 117.95 203.94 120.21 202.94C121.36 202.4 122.52 201.87 123.68 201.35C124.84 200.83 125.96 200.35 127.08 199.82C129.34 198.76 131.56 197.61 133.74 196.4C135.67 195.34 137.58 194.26 139.5 193.2C140.5 192.65 141.5 192.12 142.5 191.6L142.87 191.42L143.72 191.2C144.62 190.98 145.53 190.78 146.44 190.62L148.44 190.27C149.38 190.11 150.31 189.94 151.26 189.79C154.35 189.3 157.44 188.79 160.53 188.31C163.3 187.84 166.01 187.1 168.78 186.6C170.26 186.34 171.78 186.13 173.23 185.85C174.62 185.57 175.992 185.209 177.34 184.77H178.59L184.35 184.82C185.08 184.82 185.8 184.88 186.52 184.96C187.24 185.04 187.97 185.13 188.7 185.24C189.85 185.46 190.99 185.68 192.12 185.94C193.25 186.2 194.33 186.49 195.42 186.79C196.51 187.09 197.75 187.48 198.94 187.79C199.583 187.949 200.234 188.073 200.89 188.16C201.628 188.287 202.372 188.373 203.12 188.42C203.88 188.42 204.62 188.48 205.37 188.47C206.058 188.479 206.745 188.452 207.43 188.39C208.18 188.32 208.94 188.26 209.69 188.15C210.44 188.04 211.3 187.91 212.11 187.77C213.42 187.55 214.73 187.32 216.05 187.17C217.52 187.04 218.99 186.9 220.44 186.65C221.89 186.4 223.36 186.1 224.81 185.8C226.26 185.5 227.56 185.22 228.93 184.91C229.73 184.72 230.52 184.52 231.31 184.3C231.65 184.21 232 184.1 232.31 183.98C232.62 183.86 233.09 183.7 233.47 183.53C234.09 183.27 234.72 183 235.31 182.68C236.05 182.28 236.78 181.88 237.5 181.46C238.22 181.04 238.71 180.69 239.3 180.29C239.89 179.89 240.55 179.43 241.14 178.97C241.73 178.51 242.26 178.09 242.81 177.63C243.36 177.17 243.95 176.63 244.52 176.15C245.09 175.67 245.52 175.15 246.08 174.7L247.56 173.28C247.578 173.252 247.602 173.228 247.63 173.21L247.79 173.05L247.67 173.17L248.05 172.8L247.93 172.92L248.14 172.72C248.14 172.72 248.14 172.72 248.19 172.67C248.25 172.6 248.32 172.54 248.38 172.48C249.86 171.05 251.3 169.58 252.72 168.08C253.46 167.3 254.21 166.53 254.92 165.72C255.63 164.91 256.19 164.33 256.77 163.59L256.94 163.37C257 163.3 257.05 163.23 257.11 163.17L257.23 163.01C257.33 162.841 257.407 162.659 257.46 162.47ZM209.52 89.2002L210.1 87.9302C210.21 87.6902 210.33 87.4402 210.45 87.2002C210.57 86.9602 210.58 86.9398 210.65 86.7998C211 86.0798 211.41 85.3702 211.8 84.6802V84.6299C212.14 84.0799 212.5 83.49 212.91 82.94C213.32 82.39 213.83 81.6899 214.29 81.1099C214.8 80.4599 215.36 79.7699 215.96 79.1099C216.56 78.4499 217.22 77.78 217.81 77.21L217.89 77.1299C218.14 76.8999 218.38 76.66 218.64 76.44C219.18 75.96 219.73 75.4898 220.28 75.0298L221.88 73.6802L222.11 73.4903C223.04 72.7203 224 71.9202 224.99 71.1802L225.07 71.1201C225.36 70.9101 225.66 70.7 225.97 70.5C226.28 70.3 226.71 70.0401 227.06 69.8301C227.61 69.5301 228.06 69.3001 228.49 69.1001C228.92 68.9001 229.41 68.6802 229.93 68.4702C231.07 67.9902 232.21 67.55 233.07 67.21L233.52 67.0401C234.27 66.7601 235.05 66.49 235.82 66.23C236.3 66.08 236.82 65.9098 237.28 65.7798L238.79 65.3701L239.86 65.1499L240.75 65.02H241.05H241.47H242.1H242.16H242.83H243.27H244.03H244.38L246.57 65.1099L248.57 65.1699H249.84C250.6 65.1699 251.32 65.1699 252.02 65.1699H253.02C254.46 65.1699 255.92 65.1101 257.33 65.0601C258.74 65.0101 260.06 64.96 261.43 64.94H263.53L263.37 65.0098L263.21 65.0801C262.35 65.4501 261.51 65.8099 260.67 66.1299C260.15 66.3299 259.59 66.5202 258.96 66.7202C257.82 67.0702 256.66 67.4498 255.54 67.8198C253.17 68.5898 250.73 69.3998 248.28 70.0098C247.47 70.1898 246.61 70.3798 245.72 70.5098C245.36 70.5698 245 70.6202 244.64 70.6602H244.48H244.17C243.84 70.6602 243.5 70.7401 243.17 70.8101H242.98C242.791 70.8428 242.604 70.8861 242.42 70.94C242.19 71 241.96 71.0699 241.74 71.1499C241.22 71.3199 240.81 71.4701 240.44 71.6201C239.62 71.9601 238.77 72.3699 237.83 72.8599L237.39 73.1001L236.34 73.6499C236 73.8499 235.66 74.0498 235.34 74.2798L234.23 75.0401L234.04 75.1699L233.66 75.4302C233.577 75.4855 233.5 75.5491 233.43 75.6201C233.359 75.6926 233.316 75.7886 233.31 75.8902C233.309 75.9359 233.318 75.9814 233.337 76.023C233.356 76.0646 233.385 76.1009 233.42 76.1299C233.452 76.1574 233.489 76.1779 233.53 76.19C233.639 76.2036 233.749 76.1907 233.852 76.1524C233.955 76.1141 234.047 76.0518 234.12 75.9702L234.23 75.8902L234.69 75.5801L234.92 75.4302L236.09 74.6699C236.52 74.4399 237.01 74.18 237.5 73.96L238.99 73.3198C239.47 73.1398 239.99 72.9601 240.42 72.8101C240.85 72.6601 241.25 72.56 241.66 72.46H241.82H241.99L242.69 72.3198C242.91 72.3198 243.13 72.26 243.35 72.23H243.45L244.93 72.1299L246.52 72.0298C247.6 71.9498 248.67 71.7699 249.6 71.6099C250.53 71.4499 251.5 71.2698 252.5 71.0698L253.39 70.8902C253.97 70.7802 254.56 70.6701 255.15 70.5401C255.97 70.3601 256.83 70.1499 257.96 69.8599L258.53 69.7202C259.23 69.5402 259.95 69.3601 260.65 69.1201C261.572 68.7839 262.474 68.3932 263.35 67.9502C264.35 67.4702 265.17 67.0201 265.95 66.5801H266.04C266.415 66.3793 266.778 66.1589 267.13 65.9199L267.48 65.6699H267.54C267.657 65.5897 267.765 65.4959 267.86 65.3902C267.988 65.2366 268.093 65.0645 268.17 64.8799H268.92V64.94L268.85 65.0098C268.46 65.4498 268.04 65.86 267.65 66.27L267.48 66.4302L265.98 67.9502L265.82 68.1099L263.97 69.9302L262.79 71L262.68 71.1001L262.52 71.2598L261.52 72.2598H261.47L260.96 72.75L260.18 73.5L260.08 73.6001L259.57 74.0801C259.31 74.3301 259.05 74.5901 258.78 74.8301L257.13 76.3501C256.08 77.3001 255.02 78.2198 253.75 79.2998L252.67 80.2002L252.13 80.6499C251.81 80.9199 251.48 81.1702 251.13 81.4302L250.6 81.8399L249.73 82.46L249.42 82.6802C249.15 82.8702 248.87 83.05 248.59 83.23L248.46 83.3198L248.27 83.4302C248 83.6102 247.74 83.78 247.46 83.94L246.98 84.21L246.26 84.6201L245.89 84.8198L245.51 85.0098L245.27 85.1402L244.8 85.3799L244.21 85.6602L243 86.23L240.93 87.1699L238.8 88.0899L237.28 88.7002L237.02 88.7998L236.47 89L235.92 89.2002L235.2 89.4302H235.08L234.87 89.5L234.22 89.69L233.89 89.77L233.18 89.96L232.34 90.1299L232.06 90.19L231.24 90.3301H231.04L230.28 90.4302L229.18 90.5498H228.5H228.1H227.34H227.17H225.53H224.59C223.37 90.5498 222.11 90.5501 220.87 90.6201C220.12 90.6201 219.38 90.6998 218.63 90.7598C217.88 90.8198 217.24 90.88 216.56 90.96H216.5C215.89 91.03 215.24 91.1298 214.5 91.2598C214.01 91.3398 213.5 91.4398 213.03 91.5298L213.76 91.02L218.08 87.9302L220.58 86.1402L222.69 84.6402L225.1 82.94L228.84 80.23L230.3 79.1602C230.451 79.0528 230.58 78.9165 230.68 78.7598C230.764 78.6125 230.815 78.4488 230.83 78.2798C230.849 78.1239 230.835 77.9659 230.788 77.8159C230.742 77.666 230.664 77.5278 230.56 77.4102C230.51 77.3437 230.449 77.2863 230.38 77.2403C230.172 77.0774 229.914 76.9923 229.65 77C229.378 77.0125 229.117 77.1066 228.9 77.27L226.35 79.27L224.72 80.44L224.35 80.71L223.35 81.4302C222.67 81.9202 221.96 82.4299 221.28 82.8599L220.81 83.1802C220.07 83.6902 219.32 84.18 218.57 84.69L216.2 86.2998C214.333 87.5798 212.46 88.8566 210.58 90.1299L208.32 91.6499C208.38 91.5499 208.45 91.4399 208.5 91.3399C208.66 91.0499 208.79 90.75 208.92 90.46L209.05 90.1699C209.21 89.9299 209.36 89.5702 209.52 89.2002ZM204.79 62.5298C204.79 62.2098 204.79 61.8898 204.79 61.5298C204.79 60.6898 204.79 59.8101 204.79 58.8701C204.79 57.9301 204.73 56.8698 204.68 55.7998C204.68 55.1898 204.63 54.6299 204.61 54.0899C204.59 53.5499 204.61 53.0898 204.55 52.5698C204.55 51.8998 204.55 51.2198 204.55 50.5698C204.55 50.3198 204.55 50.0801 204.55 49.8301V49.2598C204.55 48.6298 204.62 47.9801 204.68 47.3501V46.9702C204.68 46.6402 204.73 46.3102 204.78 45.9702L204.86 45.3701L204.96 44.6402C205.03 44.2202 205.1 43.7999 205.18 43.3799C205.18 43.1199 205.28 42.8701 205.34 42.6201L205.4 42.3399V42.23C205.47 41.93 205.53 41.6198 205.61 41.3198L205.92 40.1402V39.98L206.13 39.3501C206.13 39.2601 206.18 39.1701 206.21 39.0801C206.24 38.9901 206.28 38.8998 206.31 38.7998L206.4 38.52L206.71 37.7598C206.82 37.4998 206.92 37.2503 207.02 36.9903L207.59 35.8198C207.72 35.5298 207.87 35.26 208.02 34.98C208.35 34.37 208.72 33.73 209.16 32.98L209.32 32.71C209.45 32.5 209.57 32.2801 209.71 32.0801L209.92 31.75C210.07 31.53 210.21 31.2999 210.36 31.0899L210.6 30.7598C210.76 30.5298 210.93 30.2898 211.1 30.0698L211.47 29.6001L211.84 29.1402L212.38 28.52L212.51 28.3701C212.595 28.2622 212.685 28.1587 212.78 28.0601L213.22 27.6001C213.41 27.4001 213.61 27.2003 213.8 26.9903L213.87 26.9199L213.98 26.8198L214.17 26.6299C214.54 26.2699 214.92 25.8998 215.31 25.5498L215.57 25.3198C216.05 24.8898 216.57 24.4498 217.03 24.0298C217.49 23.6098 218.25 22.9802 218.86 22.4702C219.28 22.1202 219.72 21.7902 220.15 21.4702L220.42 21.2598L221.09 20.8198L221.62 20.46L222.33 20.02L222.52 19.9102C223.25 19.4502 224 19.0001 224.75 18.5601L227.02 17.1802L229.58 15.6299L229.96 15.4102C230.64 15.0002 231.31 14.5902 231.96 14.2002C232.85 13.6802 233.75 13.2 234.6 12.71C234.78 12.61 234.96 12.5099 235.15 12.4199C236.01 11.9599 236.89 11.5098 237.76 11.0698L238.76 10.5801C239.4 10.2601 240.08 9.9101 240.76 9.5801L241.66 9.16994L241.98 9.02981L242.79 8.68996L243.34 8.50002L244.18 8.18996C244.47 8.07996 244.77 7.98016 245.07 7.89016L245.56 7.73L246.4 7.45998C247 7.25998 247.63 7.05987 248.24 6.83987L249.62 6.31985C250.05 6.13985 250.46 5.95979 250.86 5.75979L252.15 5.08987L253.44 4.41994L256.16 2.99026C256.935 2.58382 257.68 2.12228 258.39 1.60989C258.396 1.70314 258.396 1.79691 258.39 1.89016C258.32 2.33016 258.2 2.76996 258.09 3.18996L258.03 3.43996L257.94 3.75979C257.85 4.03979 257.77 4.32989 257.67 4.60989C257.67 4.73989 257.58 4.86026 257.54 4.99026C257.44 5.28026 257.34 5.5601 257.23 5.8301C256.9 6.6901 256.55 7.55992 256.23 8.39992C255.92 9.07992 255.58 9.81981 255.23 10.5298C254.45 12.1298 253.58 13.7698 252.57 15.5298C252.01 16.5298 251.43 17.5298 250.85 18.5298L249.68 20.5298C248.68 22.2398 247.75 23.98 246.89 25.71L245.99 27.5298L245.56 28.4199C245.18 29.1799 244.76 29.9402 244.35 30.6802L244.25 30.8501C244.07 31.1401 243.89 31.42 243.72 31.71L243.62 31.8701C243.49 32.0701 243.36 32.2602 243.22 32.4502L243.09 32.6499C242.92 32.8999 242.76 33.1401 242.58 33.3701L241.89 34.2598L241.08 35.2598C240.92 35.4498 240.75 35.6298 240.58 35.8198L240.42 36C240 36.45 239.56 36.9001 239.13 37.3301L238.91 37.5498L238.17 38.2202L236.81 39.44C236.39 39.82 235.96 40.1801 235.54 40.5401L235.05 40.96C234.44 41.48 233.81 41.96 233.18 42.52L233.07 42.6099L232.36 43.1699L232.04 43.4102L231.31 43.9502L230.94 44.2002L230.19 44.7002C229.97 44.8602 229.73 45.0002 229.49 45.1402L229.18 45.3301C228.7 45.6301 228.18 45.91 227.72 46.19L227.14 46.52L225.94 47.2202C225 47.7702 224.02 48.3402 223.04 48.8902L221.1 49.9502L219.49 50.8599C218.86 51.2299 218.23 51.5902 217.61 51.9702C217.24 52.2002 216.87 52.4602 216.52 52.7002C216.17 52.9402 215.64 53.3202 215.21 53.6402C214.78 53.9602 214.37 54.2601 213.96 54.5801C213.83 54.6701 213.72 54.7599 213.6 54.8599L213.49 54.9502L213.3 55.1001L212.98 55.3599L212.66 55.6299L211.95 56.25L211.72 56.46L210.85 57.27L210.03 58.0698C209.73 58.3498 209.42 58.66 209.08 59L209.6 58.1699L209.93 57.6201C210.56 56.6201 211.19 55.5601 211.78 54.6201C212.17 53.9601 212.58 53.2801 212.98 52.6201L213.59 51.6201C214.37 50.3101 215.22 48.9501 216.26 47.3301L217.04 46.1402C217.62 45.2302 218.23 44.2901 218.81 43.3501C219.29 42.5701 219.81 41.78 220.27 41C220.732 40.2639 221.233 39.5531 221.77 38.8701C222.35 38.1201 222.88 37.32 223.27 36.71C223.87 35.78 224.33 35 224.72 34.25L224.63 34.3301L224.54 34.4102L223.95 34.9102C223.47 35.3102 222.95 35.7299 222.5 36.1699C222.22 36.4199 221.9 36.7201 221.6 37.0401L221.52 37.1201C221.211 37.437 220.921 37.7708 220.65 38.1201C220.103 38.8169 219.593 39.5411 219.12 40.2901L218.12 42.02L217.76 42.6201L217.62 42.8399C216.62 44.3899 215.62 45.94 214.62 47.44L214.53 47.5698C213.53 49.0498 212.64 50.5202 211.61 52.1402C210.58 53.7602 209.61 55.2102 208.61 56.7202L208.07 57.5C207.25 58.71 206.4 59.9702 205.59 61.2202C205.29 61.6802 204.99 62.1399 204.71 62.6099L204.79 62.5298ZM189.33 65.19L187.91 63.8701L187.56 63.5601C187.17 63.2101 186.77 62.8501 186.37 62.5601L186.03 62.2598C185.62 61.9098 185.2 61.53 184.77 61.19L184.51 60.9903L184.26 60.7901L184.21 60.7403L183.95 60.5601L183.83 60.48C183.566 60.2885 183.293 60.1118 183.01 59.9502C182.4 59.6002 181.75 59.2602 181.01 58.8902C180.49 58.6302 179.92 58.3598 179.26 58.0698L179.07 57.98L177.29 57.19C176.59 56.88 175.83 56.5901 175.1 56.3101L174.44 56.0498C173.29 55.5998 172.09 55.1 170.53 54.44L167.95 53.3599L166.54 52.7798C166.05 52.5498 165.54 52.3301 165.06 52.1201L164.33 51.7403L163.66 51.3999H163.59L163.21 51.1699L162.97 51.0298L162.49 50.73H162.44L162.3 50.6499L160.99 49.7202L160.31 49.1699L159.97 48.8999C159.41 48.4399 158.83 47.9 158.2 47.27C157.556 46.5983 156.955 45.887 156.4 45.1402C155.72 44.2097 155.099 43.2377 154.54 42.23C154.064 41.3522 153.64 40.4473 153.27 39.52C152.939 38.6368 152.658 37.7351 152.43 36.8198C152.204 35.8311 152.04 34.8291 151.94 33.8198C151.94 33.3098 151.84 32.8201 151.84 32.3701C151.84 32.1501 151.84 31.9402 151.84 31.7202V30.3399C151.84 29.9599 151.84 29.5802 151.84 29.2002V28.8999C151.84 28.3099 151.91 27.7099 151.95 27.1099V26.8101C151.95 26.1001 152.05 25.4 152.09 24.69L152.17 23.4102V22.6001L152.23 21.9903V21.7598C152.23 21.3298 152.32 20.8399 152.4 20.3599V20.2202C152.44 19.9841 152.493 19.7502 152.56 19.52C152.56 19.44 152.56 19.3601 152.64 19.2901L152.83 19.4199L152.97 19.5098C154.11 20.2898 155.24 21.0598 156.38 21.8198C156.88 22.1598 157.38 22.4898 157.87 22.8198L159.75 24.0801C160.75 24.7401 161.75 25.48 163.03 26.46L163.18 26.5801C163.66 26.9401 164.18 27.3202 164.66 27.6602C165.14 28.0002 165.89 28.4701 166.48 28.8101C167.089 29.152 167.716 29.4591 168.36 29.73C168.97 29.99 169.58 30.2302 170.18 30.4502L171 30.7403C172 31.0803 173 31.4399 174 31.8399C174.42 32.0299 174.78 32.2199 175.11 32.3999C175.596 32.7095 176.067 33.0433 176.52 33.3999L176.97 33.7598C177.65 34.3098 178.36 34.89 179.04 35.48L179.44 35.8301L180.24 36.5401L180.39 36.6699C180.93 37.1699 181.49 37.67 182.02 38.23C182.561 38.7932 183.068 39.3873 183.54 40.0098C184.004 40.6517 184.431 41.3194 184.82 42.0098C184.98 42.3098 185.14 42.6302 185.28 42.9302L185.61 43.6001C185.61 43.6001 185.61 43.7 185.67 43.75V43.8101L185.79 44.1001L185.86 44.2901L185.96 44.5401L186.11 44.9102C186.17 45.0902 186.23 45.2602 186.28 45.4302L186.35 45.6499C186.35 45.7199 186.35 45.8001 186.43 45.8701C186.51 45.9401 186.53 46.1601 186.57 46.3101L186.69 46.7403L186.96 47.7403C187.01 48.0103 187.07 48.2798 187.13 48.5498L187.27 49.21C187.33 49.49 187.37 49.7898 187.42 50.0698L187.47 50.4302C187.53 50.7702 187.59 51.15 187.63 51.52V52.0498C187.63 52.3498 187.69 52.6502 187.73 52.9502C187.77 53.2502 187.73 53.6898 187.8 54.0498V54.52C187.8 54.85 187.8 55.17 187.8 55.52V55.8701V56.44C187.773 56.4022 187.75 56.3619 187.73 56.3198C187.63 56.1898 187.55 56.0502 187.46 55.9102C187.32 55.7002 187.17 55.4998 187.03 55.2998L186.81 54.9903C186.71 54.8503 186.61 54.7199 186.5 54.5899L186.37 54.4199L186.25 54.27L186.01 53.96L185.79 53.71C185.37 53.2 184.92 52.71 184.44 52.19C183.96 51.67 183.26 51.0199 182.58 50.4199C181.9 49.8199 181.48 49.4203 180.94 48.9903C180.4 48.5603 179.65 47.9001 179.03 47.3301C177.84 46.2301 176.68 45.06 175.59 43.96C174.74 43.1 173.87 42.2602 173.02 41.4302L172.02 40.5098C171.38 39.8898 170.78 39.3201 170.21 38.7901C169.64 38.2601 169.07 37.7898 168.54 37.2998L167.63 36.52L167.4 36.3198L166.95 35.94L166.7 35.7598C166.404 35.5683 166.089 35.4075 165.76 35.2798C165.435 35.1612 165.1 35.0708 164.76 35.0098C164.813 35.6447 165.046 36.2515 165.43 36.7598C165.557 36.9247 165.697 37.079 165.85 37.2202L166.51 37.77L166.79 38C167.16 38.3 167.53 38.6002 167.89 38.9102C168.52 39.4502 169.14 39.9998 169.74 40.5498L171.5 42.2202C171.83 42.5402 172.16 42.8599 172.5 43.1699C173.3 43.9399 174.14 44.73 174.94 45.52L175.11 45.7002C176.17 46.7002 177.26 47.8299 178.37 48.8599L179.37 49.7403L180.11 50.3999L181.03 51.2598L181.85 52.0698C182.22 52.4598 182.59 52.8598 182.95 53.2598L183.02 53.3301C183.16 53.4801 183.29 53.6301 183.42 53.7901L183.83 54.2998L183.96 54.46C184.347 55 184.737 55.5499 185.13 56.1099C185.47 56.5799 185.76 57.1101 186.05 57.5801L186.16 57.77L186.27 57.9702C186.53 58.4602 186.8 58.9703 187.02 59.4903L187.15 59.7798C187.25 59.9898 187.34 60.2099 187.42 60.4199C187.5 60.6299 187.64 60.9703 187.74 61.2403C188.09 62.2403 188.42 63.24 188.74 64.19C188.86 64.57 188.98 64.9501 189.11 65.3301C189.091 65.3049 189.084 65.2732 189.088 65.2422C189.093 65.2113 189.11 65.1836 189.135 65.1651C189.16 65.1465 189.192 65.1389 189.223 65.1436C189.254 65.1483 189.281 65.1648 189.3 65.19H189.33ZM118.46 163.19C118.46 163.03 118.54 162.85 118.58 162.68L118.67 162.33C118.76 161.96 118.86 161.56 118.98 161.13C119.23 160.18 119.46 159.22 119.66 158.28C119.86 157.34 120.01 156.39 120.12 155.37V155.21C120.12 155.05 120.12 154.88 120.17 154.72C120.22 154.56 120.23 154.2 120.24 153.94C120.24 153.84 120.24 153.74 120.24 153.64C120.24 153.54 120.24 153.22 120.24 153V152.22C120.24 151.81 120.24 151.39 120.16 150.98V150.73C120.11 150.21 120.03 149.73 119.94 149.16C119.85 148.59 119.77 148.23 119.65 147.75C119.53 147.27 119.41 146.75 119.26 146.26C119.11 145.77 118.85 144.95 118.64 144.32L118.36 143.47C118.19 142.94 118.03 142.41 117.87 141.88C117.78 141.57 117.7 141.26 117.62 140.96L117.52 140.62V140.52L117.44 140.15L117.29 139.56C117.17 138.92 117.04 138.26 116.96 137.61C116.935 137.25 116.935 136.889 116.96 136.53C116.96 136.27 116.96 135.99 117.03 135.71C117.11 135.21 117.21 134.71 117.31 134.22C117.41 133.73 117.48 133.47 117.57 133.1L117.65 132.75C117.88 131.75 118.12 130.84 118.38 129.95C118.98 128.08 119.72 126.1 120.66 123.88C121.02 123.09 121.4 122.27 121.83 121.39C122.26 120.51 122.71 119.74 123.13 119.04C123.37 118.66 123.63 118.27 123.89 117.9C124.15 117.53 124.43 117.17 124.7 116.82C125.15 116.29 125.75 115.59 126.37 114.92C126.99 114.25 127.61 113.63 128.16 113.08C128.71 112.53 129.52 111.82 130.16 111.24L130.36 111.08C130.97 110.58 131.61 110.08 132.19 109.66C134.08 108.27 135.74 107.13 137.29 106.12C137.81 105.79 138.29 105.47 138.81 105.12C140.25 104.24 141.73 103.4 143.17 102.59L144.12 102.06C144.9 101.62 145.73 101.15 146.54 100.64C146.95 100.39 147.38 100.11 147.83 99.8198L149.24 98.8198C149.53 98.6199 149.83 98.4002 150.12 98.1802L150.45 97.9302C150.83 97.6502 151.21 97.3501 151.59 97.0401L154.05 95.0401L154.48 94.69L156.3 93.19L157.36 92.3399L157.54 92.19L157.62 92.3999L157.67 92.5401V92.6602C158.03 93.5863 158.34 94.5311 158.6 95.4903C158.77 96.2703 158.86 97.0799 158.95 97.8599C158.95 98.1299 159.02 98.3999 159.05 98.6699C159.22 100.04 159.35 101.15 159.46 102.16V102.55V102.95C159.57 104.1 159.65 105.28 159.72 106.42C159.72 107.21 159.82 108 159.88 108.79L160.06 111.03L160.13 111.94C160.232 113.034 160.279 114.132 160.27 115.23C160.253 115.712 160.21 116.193 160.14 116.67C160.05 117.18 159.94 117.74 159.81 118.28C159.68 118.82 159.54 119.28 159.38 119.87V120.01C159.23 120.49 159.07 121.01 158.88 121.49C158.69 121.97 158.49 122.49 158.29 122.92L158.07 123.37L157.77 123.99C157.66 124.22 157.53 124.45 157.41 124.68L157.21 125.05C156.9 125.61 156.57 126.17 156.21 126.72V126.81V126.87L155.92 127.37C154.965 128.9 154.117 130.494 153.38 132.14C153.19 132.61 153.02 133.04 152.87 133.46C152.72 133.869 152.594 134.287 152.49 134.71C152.4 135.06 152.33 135.43 152.26 135.83C152.19 136.23 152.14 136.65 152.09 137.13L151.94 138.65V138.87C151.94 139.28 151.87 139.71 151.81 140.13C151.75 140.55 151.68 140.75 151.6 141.05C151.44 141.56 151.23 142.05 151 142.58V142.7C150.81 143.08 150.63 143.47 150.43 143.85C150.23 144.23 149.98 144.63 149.76 145.01V145.06L149.63 145.27C149.522 145.446 149.406 145.616 149.28 145.78L148.71 146.54C148.23 147.13 147.71 147.72 147.24 148.27L146.97 148.56C146.79 148.77 146.6 148.97 146.41 149.16L145.87 149.69L145.59 149.97L145.45 150.09L145.14 150.35L144.99 150.49L144.69 150.75L143.78 151.45C143.28 151.79 142.78 152.15 142.2 152.45C141.62 152.75 141.2 153.05 140.71 153.31C139.91 153.73 139.1 154.14 138.29 154.55L136.78 155.32L134.54 156.49L133.71 156.96L133.43 157.12C133.21 157.24 132.98 157.38 132.77 157.52L132.42 157.75C132.14 157.94 131.84 158.14 131.56 158.35L131.2 158.62C130.92 158.83 130.63 159.04 130.35 159.27C129.49 159.94 128.64 160.62 127.8 161.27C126.5 162.32 125.22 163.38 123.94 164.45L123.06 165.17C122.33 165.78 121.59 166.41 120.83 167.07C120.07 167.73 119.27 168.43 118.44 169.17C118.13 169.44 117.83 169.72 117.53 170L116.59 170.87C116.7 170.59 116.79 170.32 116.89 170.05C117.73 168.62 118.58 167.05 119.49 165.21C119.8 164.6 120.09 163.99 120.39 163.38C120.69 162.77 121.01 162.1 121.33 161.46L122.33 159.55L122.53 159.14C122.8 158.62 123.08 158.07 123.33 157.53C123.66 156.79 123.96 156.13 124.21 155.43C124.32 155.12 124.42 154.79 124.51 154.43C124.605 154.074 124.682 153.714 124.74 153.35C124.86 152.65 125 151.92 125.16 151.18C125.28 150.61 125.45 150.04 125.61 149.49L125.7 149.18V149.06V148.91L125.84 148.45L126.41 146.67C126.65 145.91 126.9 145.15 127.13 144.39C127.45 143.39 127.79 142.3 128.13 141.28L128.44 140.33L128.86 138.99C129.14 138.1 129.43 137.19 129.74 136.3C130 135.57 130.25 134.89 130.51 134.24C130.77 133.59 131.01 132.97 131.27 132.38C132.01 130.79 132.86 129.3 133.6 128.05L134.34 126.8C134.92 125.8 135.5 124.8 136.09 123.8L136.26 123.52L136.44 123.21C136.97 122.34 137.44 121.43 137.98 120.56L138.66 119.37C139.56 117.89 140.3 116.72 141.01 115.67C141.86 114.4 142.73 113.18 143.59 112.04C144.04 111.45 144.49 110.86 144.95 110.28L145.4 109.71C145.69 109.34 146 108.95 146.28 108.56C147.074 107.423 147.773 106.222 148.37 104.97C147.34 105.7 146.394 106.541 145.55 107.48C145.22 107.83 144.91 108.22 144.62 108.59L144.36 108.91L143.59 109.91L143.15 110.47C143.104 110.521 143.06 110.574 143.02 110.63C142.48 111.32 141.95 112.04 141.42 112.78C141.22 113.05 141.02 113.32 140.82 113.61C140.18 114.52 139.54 115.47 138.88 116.49C138.23 117.49 137.6 118.54 136.88 119.7L136.24 120.84C135.89 121.45 135.55 122.06 135.24 122.66C134.65 123.66 134.07 124.71 133.49 125.73L133.17 126.3V126.38C132.49 127.57 131.8 128.8 131.17 130.03C129.963 132.521 128.959 135.106 128.17 137.76C127.79 138.92 127.4 140.08 127.01 141.23L126.84 141.73C126.64 142.3 126.45 142.88 126.26 143.46C126 144.26 125.73 145.09 125.45 145.9C125.33 146.22 125.22 146.53 125.11 146.9C124.75 147.9 124.38 148.9 124.11 149.97C123.89 150.76 123.7 151.5 123.53 152.23V152.4C123.4 152.97 123.26 153.57 123.1 154.14C122.96 154.56 122.82 154.95 122.66 155.33C122.11 156.53 121.48 157.71 120.87 158.86L120.76 159.08C120 160.51 119.31 161.83 118.66 163.14L118.49 163.48L118.46 163.19ZM118.05 229.78L118.26 229.68C118.94 229.4 119.61 229.12 120.26 228.83L121.26 228.38L121.81 228.13C122.47 227.82 123.07 227.53 123.67 227.22L125.4 226.3L125.53 226.23C126.37 225.77 127.22 225.23 128.04 224.81L128.8 224.38C129.88 223.75 130.98 223.14 132.07 222.53L132.23 222.44L133.51 221.77C133.64 221.69 133.78 221.63 133.92 221.56L134.14 221.45L134.36 221.34L134.78 221.13L135.2 220.94L135.47 220.82L135.65 220.74L136.06 220.55L136.38 220.42L137.38 220.01L138.07 219.76L138.76 219.51L139.28 219.35L139.53 219.27L139.87 219.16L140.52 218.95L140.9 218.85L141.27 218.74L142.4 218.41L143.69 218.07L144.33 217.89L145.47 217.6L146.24 217.4L147.48 217.1L148.02 216.97L148.33 216.9L148.65 216.82L149.65 216.59L150.72 216.36L151.19 216.27C152.19 216.07 153.13 215.92 154.12 215.78H154.66H154.85H155.28H155.94H156.94H157.29H157.38H157.82H158.23C158.59 215.78 158.96 215.84 159.32 215.89L160.8 216.09L162.56 216.32C163.81 216.483 165.069 216.56 166.33 216.55C167 216.55 167.67 216.55 168.33 216.55H169.94H170.5H170.96C171.12 216.55 171.27 216.55 171.42 216.55C171.82 216.55 172.22 216.63 172.57 216.67H172.67C173.01 216.74 173.36 216.81 173.67 216.91C174.01 217.01 174.344 217.13 174.67 217.27L174.86 217.36L175.45 217.64L175.75 217.8L176.03 217.95L176.31 218.09L177 218.49L177.69 218.89L178.08 219.11C178.59 219.41 179.08 219.7 179.6 219.97L179.83 220.1C180.03 220.21 180.23 220.32 180.44 220.42L180.72 220.55C180.95 220.67 181.18 220.78 181.42 220.88L181.65 220.98L182.35 221.27C183.108 221.571 183.891 221.806 184.69 221.97L185.32 222.09L186.69 222.36C187.45 222.5 188.09 222.6 188.69 222.68C189.29 222.76 189.93 222.79 190.63 222.81C191.33 222.83 191.87 222.81 192.41 222.81L192.35 222.86L192.29 222.91C191.85 223.23 191.42 223.53 190.97 223.82C190.52 224.11 190.08 224.38 189.69 224.61L187.54 225.85L186.32 226.55L182.85 228.55C180.72 229.79 178.5 231.14 176.24 232.55C175.1 233.26 173.99 233.96 172.9 234.69C171.81 235.42 170.78 236.15 169.73 236.89L168.83 237.53C168.09 238.06 167.32 238.61 166.55 239.12C165.95 239.52 165.35 239.92 164.75 240.3C164.15 240.68 163.75 240.9 163.28 241.17L163.2 241.22L162.98 241.33C162.7 241.48 162.42 241.63 162.13 241.76C161.84 241.89 161.46 242.04 161.13 242.18C160.8 242.32 160.38 242.44 160 242.55C159.62 242.66 159.41 242.73 159.11 242.8L158.86 242.87L158.49 242.96L158.11 243.05C157.18 243.25 156.28 243.44 155.37 243.56C154.46 243.68 153.48 243.81 152.53 243.91H152.31L150.53 244.08L149.6 244.17C148.79 244.25 147.97 244.31 147.15 244.38C146.33 244.45 145.62 244.46 144.82 244.47H144.21C143.54 244.47 142.87 244.36 142.14 244.27L140.79 244C140.3 243.9 139.79 243.82 139.34 243.72L138.52 243.54L137.98 243.41L137.6 243.31L137.21 243.21L136.67 243.07L136.13 242.91L135.59 242.74C135.35 242.67 135.12 242.58 134.89 242.49L134.64 242.4L133.79 242L133.35 241.81L132.76 241.56L131.24 240.84C130.73 240.58 130.24 240.32 129.66 240.03C129.08 239.74 128.47 239.41 127.89 239.09C127.51 238.89 127.15 238.68 126.78 238.47L126.48 238.29L126.13 238.08L125.52 237.69L125.26 237.51L124.47 236.98L122.75 235.78C122.243 235.44 121.733 235.09 121.22 234.73L120.59 234.29C120.28 234.07 119.96 233.84 119.59 233.63C119.22 233.42 119.02 233.23 118.73 233.05L118.31 232.78H118.49L120.39 232.71H121.64H122.38L124.68 232.62C126.97 232.49 129.19 232.28 131.28 231.99C132.36 231.85 133.45 231.61 134.4 231.41C135.35 231.21 136.48 230.92 137.4 230.66L139.92 229.95C141.13 229.61 142.38 229.26 143.62 228.95C144.62 228.73 145.62 228.54 146.49 228.38C147.36 228.22 148.49 228.12 149.24 228.03C149.78 228.03 150.33 227.97 150.87 227.94C151.78 227.89 152.72 227.85 153.65 227.73C155.2 227.54 156.76 227.26 158.2 226.98C159.43 226.75 160.67 226.47 161.87 226.2L164.17 225.69C165.29 225.46 166.29 225.24 167.3 224.99C167.97 224.82 168.64 224.62 169.3 224.42L170.21 224.15L171.06 223.9L171.62 223.75L171.8 223.69L172.3 223.55H172.5C172.654 223.522 172.805 223.478 172.95 223.42C172.95 223.42 172.95 223.42 173.03 223.36C173.114 223.321 173.186 223.259 173.238 223.181C173.289 223.103 173.317 223.013 173.32 222.92C173.317 222.864 173.302 222.809 173.276 222.759C173.25 222.709 173.214 222.665 173.17 222.63L173.07 222.57C172.97 222.525 172.859 222.508 172.75 222.52C172.641 222.533 172.534 222.556 172.43 222.59H172.35L171.71 222.77C170.81 223.01 169.84 223.27 168.87 223.56C168.32 223.73 167.81 223.87 167.32 224.01L165.92 224.37H165.98C164.08 224.8 162.09 225.22 160.08 225.62C158.7 225.89 157.25 226.11 155.77 226.3L154.29 226.49H153.89H153.49C152.49 226.56 151.49 226.49 150.49 226.49H148.94H147.29C145.223 226.57 143.165 226.794 141.13 227.16L138.32 227.67C137.12 227.9 135.88 228.13 134.66 228.33C132.88 228.63 130.96 228.88 128.66 229.12C127.04 229.27 125.42 229.38 123.85 229.5L122.35 229.61L121.1 229.71L119.02 229.87L117.81 229.95L118.05 229.78ZM216.87 146.55C217.1 146.55 217.34 146.61 217.57 146.63H217.98L219.2 146.79H219.32H219.48L220.24 146.93L219.95 147.13C219.43 147.51 218.95 147.86 218.43 148.18C217.43 148.87 216.32 149.53 215.28 150.18L214.55 150.63C213.21 151.46 211.85 152.24 210.47 153.03C209.27 153.72 208.09 154.46 206.94 155.18L206.41 155.51C205.84 155.87 205.22 156.26 204.57 156.65C203.92 157.04 203.23 157.45 202.57 157.83C201.91 158.21 201.33 158.47 200.63 158.83C199.93 159.19 199.48 159.33 198.91 159.56H198.85C198.3 159.76 197.73 159.96 197.15 160.15C195.97 160.53 194.72 160.9 193.34 161.27C192.65 161.45 191.93 161.64 191.18 161.82L190.81 161.9L189.6 162.16L188.13 162.43L187.88 162.48C186.8 162.67 185.76 162.83 184.78 162.94H184.14L185.68 161.73C186.967 160.717 188.247 159.7 189.52 158.68L189.62 158.6L190.57 157.87L190.66 157.79L191.89 156.79L192.52 156.3L192.61 156.23L192.82 156.07L192.92 156L193.07 155.89L193.22 155.78L193.31 155.71H193.26L193.67 155.41L193.85 155.29C194.4 154.89 194.94 154.52 195.46 154.19C196.26 153.68 197.1 153.19 197.82 152.82L199.57 151.9C200.14 151.61 200.69 151.34 201.23 151.09C202.36 150.54 203.51 150.09 204.58 149.66C205.27 149.4 205.98 149.14 206.76 148.88C207.54 148.62 208.36 148.34 209.27 148.06L209.59 147.95L209.91 147.85C210.79 147.58 211.7 147.29 212.59 146.97C213.464 146.662 214.322 146.308 215.16 145.91C215.701 146.181 216.263 146.408 216.84 146.59L216.87 146.55ZM200 132.29C200.5 131.34 201 130.39 201.6 129.38L201.75 129.14C202.06 128.62 202.39 128.09 202.75 127.58C203.11 127.07 203.62 126.36 204.07 125.76L204.73 124.95C205.36 124.19 205.89 123.56 206.42 122.95C206.95 122.34 207.42 121.84 207.92 121.3C208.26 120.93 208.62 120.57 208.92 120.22L209.08 120.06C210 119.18 211 118.25 212.01 117.35C212.8 116.66 213.61 115.98 214.4 115.35L214.56 115.22L214.71 115.1L217 113.22L217.44 112.86L219.95 110.86C220.903 110.1 221.853 109.33 222.8 108.55C224.65 107.03 226.52 105.46 228.36 103.89C229.74 102.7 231.06 101.4 232.36 100.14L233.36 99.1402L233.45 99.0498C234.83 97.7298 236.07 96.5201 237.24 95.3501L237.71 94.8799L240.98 91.6299L241.1 91.52L241.35 91.2798C241.66 90.9898 241.94 90.7202 242.22 90.4702L242.39 90.3198C242.385 90.3396 242.385 90.3602 242.39 90.3799V90.4502C242.39 91.0902 242.28 91.7301 242.2 92.3501C242.12 92.9701 242.02 93.5701 241.93 94.1201C241.77 95.1201 241.62 95.92 241.48 96.69C241.34 97.46 241.19 98.1699 241.04 98.8399L240.14 102.84L240 103.47C239.76 104.53 239.5 105.66 239.26 106.82C239.02 107.98 238.78 109.17 238.58 110.35C238.38 111.53 238.19 112.76 238.05 113.94C237.91 115.12 237.75 116.23 237.59 117.35V117.29L237.51 117.75C237.44 118.24 237.36 118.75 237.25 119.23C237.14 119.71 236.97 120.5 236.82 121.11V121.26C236.7 121.65 236.57 122.06 236.44 122.45C236.31 122.84 236.1 123.34 235.92 123.77C235.72 124.2 235.49 124.69 235.24 125.18C234.99 125.67 234.79 125.97 234.56 126.36L234.5 126.46C234.23 126.88 233.91 127.37 233.57 127.84C233.23 128.31 232.99 128.63 232.69 129.03C232.04 129.84 231.42 130.58 230.8 131.3C230.18 132.02 229.51 132.7 228.8 133.38C228.09 134.06 227.4 134.72 226.61 135.38C225.66 136.18 224.88 136.81 224.16 137.38L223.82 137.65C222.34 138.82 220.82 140.03 219.27 141.19L218.98 141.41C218.52 141.73 218.05 142.08 217.56 142.41C217.07 142.74 216.44 143.08 215.87 143.41C215.3 143.74 214.77 144 214.12 144.3C213.47 144.6 212.87 144.85 212.28 145.09C211.69 145.33 210.94 145.55 210.28 145.78L208.97 146.24C208.07 146.54 207.18 146.84 206.3 147.15C205.76 147.35 205.3 147.56 204.75 147.77C203.87 148.1 202.97 148.43 202.15 148.77L202.39 148.58L203.21 147.93L203.65 147.58C204.42 146.98 205.21 146.36 205.95 145.71C206.363 145.344 206.757 144.957 207.13 144.55L207.19 144.48C207.58 144.05 207.99 143.61 208.37 143.16C211.568 139.561 214.355 135.616 216.68 131.4C217.19 130.4 217.68 129.4 218.34 128.02C218.64 127.39 218.93 126.76 219.22 126.12C219.51 125.48 219.66 125.12 219.89 124.62L220.01 124.37C220.23 123.9 220.45 123.37 220.69 122.95C220.93 122.53 221.26 121.86 221.55 121.31C222.02 120.43 222.55 119.56 223.04 118.71L223.34 118.19L223.64 117.72C223.91 117.3 224.19 116.86 224.48 116.44C224.91 115.82 225.33 115.2 225.77 114.58C226.67 113.32 227.5 112.16 228.31 111.05L227.93 111.43C227.22 112.15 226.49 112.9 225.78 113.65L224.59 114.94L223.49 116.18C223.22 116.49 222.97 116.83 222.73 117.18C222.62 117.32 222.52 117.46 222.41 117.59C222.17 117.9 221.95 118.23 221.73 118.59L221.49 118.95C221.27 119.26 221.06 119.59 220.86 119.95L220.65 120.29C220.35 120.76 220.1 121.2 219.88 121.61L219.08 123.18C218.83 123.68 218.6 124.18 218.38 124.63C217.92 125.63 217.38 126.63 216.95 127.63L216.89 127.77C216.44 128.7 215.97 129.67 215.49 130.61C215.01 131.55 214.41 132.61 213.94 133.38V133.32L213.89 133.39C213.53 133.99 213.15 134.6 212.75 135.21C212.35 135.82 211.94 136.44 211.51 137.03C210.65 138.22 209.77 139.37 208.7 140.73L208.13 141.43V141.48C207.82 141.86 207.48 142.26 207.13 142.67L206.87 142.96C206.49 143.4 206.1 143.85 205.68 144.28C205.654 144.212 205.609 144.152 205.55 144.11C205.47 144.048 205.371 144.016 205.27 144.02C205.009 144.045 204.769 144.17 204.6 144.37C203.192 145.72 201.717 146.998 200.18 148.2C198.71 149.36 197.12 150.62 195.18 152.2L193.8 153.31L193.64 153.41C193.06 153.79 192.48 154.19 191.87 154.62L191.75 154.71C191.41 154.95 191.08 155.2 190.75 155.45L189.93 156.06C190.25 155.66 190.54 155.27 190.79 154.9C191.55 153.77 192.14 152.83 192.64 151.9C192.91 151.41 193.17 150.9 193.42 150.36C193.67 149.82 193.91 149.25 194.15 148.65C194.25 148.39 194.33 148.11 194.42 147.84C194.75 146.84 195.05 145.91 195.32 144.94C195.4 144.62 195.5 144.3 195.58 143.94C195.76 143.28 195.94 142.62 196.13 141.94C196.133 141.917 196.133 141.893 196.13 141.87C196.19 141.69 196.24 141.5 196.3 141.32C196.388 141.259 196.466 141.185 196.53 141.1C196.596 140.995 196.637 140.877 196.651 140.754C196.665 140.631 196.651 140.507 196.61 140.39C196.89 139.58 197.19 138.75 197.52 137.88C197.85 137.01 198.21 136.13 198.6 135.19C198.99 134.25 199.51 133.22 199.97 132.33L200 132.29ZM165.09 152.9C165.32 152.63 165.55 152.38 165.77 152.14C166.24 151.64 166.77 151.14 167.35 150.52L168.56 149.42C168.93 149.08 169.29 148.77 169.65 148.48C170.01 148.19 170.41 147.85 170.83 147.53L172.13 146.53L172.34 146.38L172.86 146.01L173.12 145.84L173.64 145.5H173.71L173.93 145.36L174.43 145.07L174.78 144.87L175.19 144.64C176.33 144.03 177.53 143.39 178.76 142.79C179.99 142.19 181.23 141.64 182.44 141.17L182.65 141.08L183.65 140.73C184.07 140.59 184.51 140.46 184.95 140.34C185.39 140.22 185.62 140.19 185.95 140.13L187.02 140C187.76 139.918 188.505 139.878 189.25 139.88C189.46 139.88 189.65 139.88 189.86 139.94L190.56 140.02C190.72 140.02 190.9 140.02 191.03 140.09L191.84 140.23C192.12 140.29 192.42 140.36 192.71 140.44C193 140.52 193.37 140.68 193.71 140.81C194.05 140.94 194.34 141.07 194.62 141.19H194.69H194.77C194.69 141.48 194.6 141.77 194.53 142.07L194.29 143L194.23 143.26C193.98 144.26 193.73 145.26 193.45 146.26C193.17 147.26 192.82 148.13 192.45 149.08C192.21 149.63 191.96 150.14 191.71 150.63C191.46 151.12 191.22 151.52 190.97 151.94L190.9 152.07C190.51 152.71 190.18 153.22 189.9 153.69C189.62 154.16 189.2 154.69 188.9 155.13L188.75 155.31C188.43 155.7 188.11 156.1 187.75 156.48C187.39 156.86 186.86 157.48 186.4 157.93C185.65 158.73 184.85 159.51 184.08 160.26L183.84 160.5C183.14 161.17 182.5 161.76 181.89 162.31L181.18 162.8C180.44 162.64 179.65 162.45 178.75 162.2C178.14 162.02 177.52 161.81 176.83 161.58C176.14 161.35 175.57 161.11 174.96 160.86L174.65 160.73L173.57 160.3L172.49 159.86L171.87 159.61L171.24 159.36L170.46 159.06C169.74 158.77 169.02 158.47 168.24 158.13L167.79 158L166.93 157.59L166.69 157.46C166.29 157.26 165.89 157.05 165.49 156.83L165.18 156.66L164.34 156.21C165.34 155.85 166.41 155.44 167.57 155.07C168.18 154.87 168.8 154.68 169.45 154.5L171.45 153.96H171.56H171.63H171.78H171.88H171.96H172.14H172.22H172.37L172.73 153.87L174.44 153.46L176.13 153.06C176.63 152.95 177.13 152.83 177.62 152.73L179.14 152.39C180.14 152.18 181.06 151.98 182.01 151.75C182.96 151.52 183.73 151.33 184.59 151.12L186.43 150.66L188.56 150.16H188.63L189.86 149.87L190.08 149.81L190.47 149.72H190.57C190.837 149.678 191.091 149.578 191.314 149.425C191.537 149.273 191.724 149.073 191.86 148.84C191.86 148.77 191.96 148.67 191.94 148.61C191.92 148.55 191.94 148.54 191.84 148.49L191.77 148.44C191.46 148.233 191.092 148.132 190.72 148.15C190.549 148.163 190.378 148.187 190.21 148.22H190.11L189.55 148.33L188.07 148.6C187.07 148.78 186.07 148.97 185.12 149.17L182.91 149.67L180.78 150.14L179.26 150.45C178.26 150.65 177.26 150.85 176.31 151.08C174.77 151.43 173.25 151.8 171.8 152.19C170.14 152.63 168.69 153.07 167.35 153.53C166.65 153.77 165.9 154.05 164.98 154.39L164.23 154.68L163.91 154.81H163.78L163.87 154.67L164.35 154.03C164.61 153.46 164.85 153.17 165.09 152.9ZM138.09 189.62C135.97 190.75 133.88 191.93 131.75 193.04C130.17 193.87 128.58 194.69 126.97 195.46L124.97 196.28C122.97 197.1 120.97 197.94 118.97 198.81C116.97 199.68 114.75 200.65 112.61 201.51C111.1 202.09 109.61 202.67 108.05 203.17C107.26 203.42 106.47 203.68 105.68 203.91C105.28 204.03 104.87 204.13 104.47 204.24C105.71 203.36 106.93 202.45 108.11 201.5C109.7 200.23 111.29 198.96 112.86 197.66C114.43 196.36 115.93 195.13 117.43 193.82C118.93 192.51 120.43 191.15 121.93 189.76C123.43 188.37 124.82 186.99 126.26 185.6C127.5 184.4 128.73 183.18 129.95 181.96C132.857 179.027 135.743 176.07 138.61 173.09C140.15 171.477 141.643 169.81 143.09 168.09C143.151 168.103 143.215 168.103 143.276 168.087C143.336 168.071 143.393 168.041 143.44 168C144.03 167.46 144.69 167 145.32 166.51L147.38 164.96C147.85 164.63 148.3 164.29 148.77 163.96C149.24 163.63 149.77 163.29 150.26 162.96L151.26 162.35C151.45 162.24 151.63 162.12 151.82 162.02L153.47 161.1C154.09 160.78 154.71 160.46 155.32 160.1C155.93 159.74 156.72 159.4 157.42 159.1C158.12 158.8 158.84 158.43 159.55 158.1C160.26 157.77 160.96 157.47 161.67 157.15C162.38 156.83 163.04 156.59 163.72 156.31H163.62L163.8 156.24C164.08 156.43 164.36 156.63 164.63 156.84L165.37 157.41C165.79 157.73 166.22 158.05 166.66 158.34L167.66 158.99C167.89 159.15 168.14 159.29 168.38 159.44C168.93 159.78 169.48 160.1 170.04 160.44C171.34 161.2 172.66 161.94 173.99 162.64C174.7 163.02 175.41 163.38 176.14 163.7C176.51 163.85 176.87 164.02 177.24 164.16C177.61 164.3 178.03 164.47 178.43 164.61C175.77 166.48 173.12 168.39 170.52 170.34C168.68 171.73 166.84 173.12 165.03 174.55L163.89 175.46C162 176.77 160.13 178.09 158.19 179.31C157.28 179.89 156.33 180.41 155.39 180.94C154.45 181.47 153.56 181.94 152.63 182.48C151.39 183.13 150.15 183.76 148.9 184.38C147.65 185 146.58 185.53 145.4 186.05L141.57 187.78C140.37 188.42 139.22 189 138.07 189.62H138.09ZM256.09 162.35C255.717 162.75 255.347 163.13 254.98 163.49L254.62 163.84L253.94 164.5L253.34 165.04C252.6 165.71 251.84 166.39 251.06 167.04C250.28 167.69 249.2 168.55 248.06 169.43C246.44 170.61 244.76 171.76 243.13 172.87L242.98 172.97L242.83 173.08C242.37 173.39 241.9 173.71 241.44 174L240.13 174.85C239.46 175.27 238.76 175.67 238.13 176.05L237.73 176.27L237.37 176.47C236.68 176.83 235.98 177.2 235.27 177.53C234.39 177.94 233.5 178.33 232.63 178.67C231.54 179.07 230.36 179.44 229.03 179.81C227.7 180.18 226.34 180.57 225.12 180.93L222.67 181.68C221.08 182.18 219.43 182.68 217.77 183.11L216.98 183.29C215.98 183.53 214.88 183.77 213.83 184.05L212.34 184.47C211.6 184.69 210.84 184.91 210.08 185.09H210.13L209.59 185.22L208.75 185.43C207.75 185.65 206.75 185.8 205.75 185.93H205.36C205.07 185.93 204.77 185.99 204.48 186H203.79H203.14H202.86C202.57 186 202.27 186 201.99 186L200.71 185.86L200.14 185.77L199.56 185.67C199.29 185.67 199.02 185.56 198.76 185.5L198.37 185.4C197.77 185.27 197.17 185.09 196.59 184.92L196.05 184.76C194.8 184.4 193.48 184.07 191.75 183.68C191.16 183.55 190.52 183.43 189.75 183.3H189.58L188.67 183.15H188.32C188.07 183.15 187.81 183.07 187.55 183.05C186.77 182.99 186.07 182.94 185.34 182.93C184.9 182.93 184.47 182.93 184.03 182.93L184.86 182.76C185.86 182.55 186.96 182.34 188.03 182.22H188.27L188.8 182.16L189.3 182.11C189.63 182.11 189.96 182.01 190.3 181.94L190.88 181.84L191.31 181.77C191.64 181.71 192 181.63 192.39 181.52C192.98 181.35 193.56 181.11 194.13 180.89L194.41 180.78L194.94 180.56L196.33 180L196.57 179.91L196.81 179.82H196.9H196.85L197.64 179.54C197.95 179.42 198.23 179.34 198.53 179.24L199.13 179.04C199.75 178.84 200.35 178.67 200.93 178.52L201.86 178.33C202.12 178.28 202.39 178.25 202.65 178.22H202.86C203.07 178.22 203.28 178.22 203.5 178.22H204.5H205.5H206.16C206.78 178.22 207.38 178.22 207.94 178.22C208.5 178.22 209.04 178.22 209.53 178.14L210.77 178.01L211.25 177.94H211.44L211.83 177.87H211.93C212.26 177.79 212.59 177.72 212.93 177.63C213.27 177.54 213.65 177.43 214.09 177.29C214.8 177.06 215.49 176.8 216.09 176.55L216.42 176.42L218.14 175.74L218.81 175.47L219.16 175.34L219.54 175.2L220.09 175L220.45 174.87L221.71 174.44L222.89 174.08L224.23 173.73L225.64 173.42L227.64 172.98C228.71 172.73 229.81 172.44 231 172.11C231.64 171.93 232.39 171.71 233.12 171.46C233.85 171.21 234.62 170.9 235.31 170.62C236.63 170.08 237.95 169.52 239.26 168.95L239.65 168.77L241.28 168.05L243.4 167.05C244 166.76 244.59 166.46 245.17 166.16L245.4 166.05L246.4 165.52L247.25 165.07H247.31L247.46 164.99L247.61 164.91L247.85 164.78L248.1 164.64H248.15H248.22H248.28H248.34L248.52 164.54C249.74 163.87 250.93 163.15 252.08 162.45C252.54 162.18 252.99 161.89 253.44 161.61C254.17 161.17 254.92 160.7 255.66 160.27L255.87 160.16L256.36 159.89C256.52 159.8 256.69 159.73 256.87 159.65L257.11 159.55H257.17H257.27C257.292 159.541 257.311 159.528 257.327 159.511C257.342 159.493 257.354 159.473 257.36 159.45C257.371 159.434 257.376 159.415 257.376 159.395C257.376 159.375 257.371 159.356 257.36 159.34C257.344 159.333 257.327 159.33 257.31 159.33C257.293 159.33 257.276 159.333 257.26 159.34H257.17C257.069 159.353 256.968 159.373 256.87 159.4H256.81L256.57 159.47L256.33 159.54C256.022 159.621 255.718 159.718 255.42 159.83L255.18 159.91L254.4 160.19L254.24 160.25C253.62 160.48 252.97 160.73 252.35 160.99L252.09 161.1C251.5 161.35 250.88 161.61 250.28 161.89L249.55 162.24L248.11 162.92C245.05 164.38 242.55 165.54 240.24 166.56L239.54 166.88L236.15 168.39L235.59 168.64C234.47 169.15 233.3 169.64 232.14 170.16C230.392 170.821 228.61 171.386 226.8 171.85L226.44 171.94H226.33H226.28H226.13H225.96L225.14 172.12L224.67 172.22L223.17 172.57H223.08C222.2 172.78 221.29 173.04 220.36 173.36L219.82 173.54C218.96 173.84 218.16 174.13 217.43 174.41L217.13 174.52L216.91 174.61L216.67 174.7L216.51 174.76L216.35 174.83L215.99 174.97C215.42 175.2 214.88 175.4 214.32 175.58L213.13 175.95L212.13 176.2H211.99C211.67 176.27 211.35 176.33 210.99 176.38L209.99 176.5H209.69C208.55 176.59 207.41 176.61 206.27 176.62H205.03C204.363 176.608 203.695 176.631 203.03 176.69C202.66 176.69 202.29 176.77 201.93 176.83C201.57 176.89 201.28 176.95 200.93 177.04C199.503 177.397 198.1 177.844 196.73 178.38C195.98 178.67 195.22 178.98 194.48 179.28C193.74 179.58 193.25 179.79 192.62 180.03C192.35 180.14 192.11 180.22 191.87 180.3C191.63 180.38 191.43 180.44 191.22 180.49L190.68 180.61L190.25 180.7L189.69 180.84L189.33 180.93C188.82 181.04 188.33 181.11 187.78 181.18L187.27 181.25L187.53 181.13L189.22 180.27C190.471 179.612 191.674 178.867 192.82 178.04C193.93 177.22 195.01 176.32 196.05 175.45C197.09 174.58 198.12 173.73 199.2 172.93L199.31 172.85L199.54 172.68C201.1 171.55 202.71 170.38 204.23 169.13C204.85 168.62 205.46 168.13 206.07 167.58C206.97 166.81 207.9 166.02 208.85 165.27C209.423 164.86 210.02 164.486 210.64 164.15C211.51 163.69 212.41 163.26 213.4 162.83C213.93 162.6 214.48 162.38 215.01 162.17L216.11 161.72C217.44 161.129 218.727 160.444 219.96 159.67L221.44 158.8C222.628 158.176 223.846 157.612 225.09 157.11C225.75 156.87 226.36 156.67 226.96 156.51L228.2 156.29C228.68 156.29 229.2 156.24 229.69 156.24C230.18 156.24 230.82 156.33 231.39 156.4C231.96 156.47 232.72 156.64 233.39 156.83C234.06 157.02 234.93 157.25 235.61 157.45L236.08 157.59L238.23 158.23H238.33C238.95 158.42 239.59 158.61 240.24 158.74C240.924 158.851 241.617 158.908 242.31 158.91H242.37C242.9 158.91 243.43 158.91 243.96 158.91H244.49C245.19 158.91 245.88 158.91 246.58 158.91C247.47 158.91 248.38 158.91 249.25 158.91H250.61H253.2C253.63 158.91 254.08 158.91 254.52 158.91C255.23 158.91 255.98 159.02 256.75 159.13C256.982 159.168 257.213 159.218 257.44 159.28H257.58H257.63L257.7 159.34L257.76 159.41V159.51V159.81V159.91C257.71 160.082 257.646 160.249 257.57 160.41C257.523 160.517 257.469 160.62 257.41 160.72C257.231 161.013 257.038 161.297 256.83 161.57L256.09 162.35Z" fill="#DBCBB4"/>
</svg>
