<svg width="106" height="97" viewBox="0 0 106 97" fill="none" xmlns="http://www.w3.org/2000/svg">
<path d="M89.15 54.4801C89.15 54.4801 89.15 54.42 89.15 54.39V54.4901C88.7474 54.6665 88.3863 54.9254 88.09 55.2501C87.5204 55.8866 87.2216 56.7202 87.257 57.5736C87.2925 58.4271 87.6595 59.2332 88.28 59.8202C88.5726 60.0839 88.9117 60.2906 89.28 60.43C89.2751 60.5166 89.2751 60.6035 89.28 60.6901C89.28 61.3501 89.28 62.0101 89.28 62.6901C89.28 63.5001 89.28 64.3002 89.22 65.1002V66.1002C89.22 66.2902 89.22 66.5001 89.22 66.6901C89.15 67.5701 89.09 68.4602 89.03 69.3402C89.03 69.6202 88.96 69.9101 88.93 70.2001C88.865 70.6335 88.8448 71.0726 88.87 71.5101C88.8951 71.8461 88.9418 72.1802 89.01 72.5101L89.1 72.9501L89.25 73.5402C89.41 74.1702 89.62 74.79 89.81 75.42C90 76.05 90.19 76.72 90.36 77.42C90.46 77.81 90.54 78.2002 90.63 78.5902C90.63 78.7502 90.7 78.9102 90.73 79.0702C90.2 78.2602 89.66 77.4502 89.15 76.6202C88.35 75.3202 87.57 74.0101 86.75 72.7201C86.31 72.0301 85.87 71.34 85.44 70.64L85.38 70.5201C85.4323 70.4383 85.4664 70.3462 85.48 70.2501C85.4839 70.1025 85.4457 69.957 85.37 69.8302C85.3149 69.7532 85.2512 69.6827 85.18 69.6202L85.12 69.2501L85.06 68.9601L85 68.66C84.89 68.23 84.78 67.8 84.65 67.38L84.26 66.0201C84.26 65.8801 84.19 65.7502 84.16 65.6202L84.07 65.2601C84.07 65.1201 84.02 64.9802 83.99 64.8402C83.96 64.7002 83.94 64.6001 83.92 64.4901L83.8 63.7101C83.8 63.4401 83.73 63.17 83.7 62.89C83.54 61.49 83.4 60.0801 83.25 58.68L83.04 56.68L82.92 55.6202C82.88 55.2536 82.85 54.8835 82.83 54.5101C83.0678 54.443 83.2824 54.3114 83.45 54.13C83.6526 53.9103 83.7854 53.6355 83.8317 53.3402C83.8779 53.0449 83.8355 52.7427 83.7098 52.4716C83.5841 52.2004 83.3808 51.9725 83.1256 51.817C82.8704 51.6615 82.5747 51.5854 82.2761 51.598C81.9775 51.6106 81.6894 51.7116 81.4482 51.8881C81.207 52.0645 81.0236 52.3084 80.9212 52.5892C80.8189 52.87 80.8021 53.1749 80.8731 53.4652C80.9441 53.7555 81.0996 54.0182 81.32 54.2201C81.4699 54.3556 81.6452 54.46 81.8358 54.527C82.0264 54.5939 82.2284 54.6222 82.43 54.6102C82.43 55.1302 82.49 55.61 82.53 56.17C82.61 57.17 82.7 58.2401 82.77 59.2701C82.83 59.9401 82.87 60.6201 82.92 61.2701C82.97 61.9201 83.05 62.7701 83.14 63.5201C83.14 63.8701 83.23 64.2101 83.28 64.5201C83.28 64.7001 83.34 64.8802 83.38 65.0602C83.3961 65.1856 83.4228 65.3092 83.46 65.43C83.55 65.81 83.64 66.1802 83.74 66.5602L84 67.5602V67.6102L84.21 68.4801C83.91 67.9501 83.6 67.4202 83.34 66.8602C83.18 66.5402 83.01 66.2102 82.87 65.8602C82.73 65.5102 82.6 65.2202 82.46 64.8602C82.19 64.1802 81.93 63.4902 81.66 62.8002C81.39 62.1102 81.08 61.2701 80.75 60.5201L80.03 58.9C80.03 58.9 80.03 58.9 80.09 58.9C80.1189 58.8687 80.1348 58.8276 80.1348 58.785C80.1348 58.7424 80.1189 58.7014 80.09 58.67L79.79 58.39C79.61 57.98 79.44 57.56 79.25 57.15C78.97 56.47 78.7 55.79 78.43 55.15L78.19 54.4901C78.12 54.2601 78.05 54.0302 77.99 53.7902C77.8297 53.1314 77.7094 52.4635 77.63 51.7902C77.57 51.2902 77.53 50.7901 77.48 50.2801C77.43 49.7701 77.48 49.5701 77.42 49.2201C77.36 48.8701 77.42 48.5301 77.42 48.2201C77.42 47.7001 77.42 47.22 77.42 46.66C77.4201 46.2726 77.4401 45.8855 77.48 45.5001V45.3502C77.5292 45.3297 77.5735 45.2989 77.61 45.2601C77.6333 45.2263 77.647 45.1869 77.6499 45.1459C77.6527 45.1049 77.6445 45.0637 77.6262 45.027C77.6078 44.9902 77.5799 44.9592 77.5454 44.9369C77.5109 44.9146 77.4711 44.9017 77.43 44.9C77.15 44.9 77.06 45.2801 77.04 45.4901C76.9984 45.7517 76.9717 46.0155 76.96 46.2801C76.96 46.5201 76.96 46.7701 76.96 47.0101C76.96 47.2501 76.96 47.28 76.96 47.42C76.96 47.79 76.96 48.1702 76.96 48.5402V50.1102V50.6202C76.96 50.8702 76.96 51.1202 76.96 51.3702C76.96 51.6202 76.96 51.6101 76.96 51.7401C76.71 51.0901 76.46 50.4402 76.18 49.8102C76 49.4302 75.82 49.05 75.63 48.68C75.44 48.3101 75.25 47.98 75.04 47.63C74.83 47.28 74.63 46.96 74.43 46.63L74.13 46.18H74.18C74.4874 45.8491 74.6896 45.4344 74.7609 44.9884C74.8323 44.5424 74.7696 44.0854 74.5807 43.6752C74.3919 43.2649 74.0854 42.9198 73.7003 42.684C73.3151 42.4481 72.8686 42.3319 72.4173 42.3502C71.966 42.3685 71.5303 42.5205 71.1655 42.7867C70.8007 43.053 70.5231 43.4216 70.3681 43.8458C70.2131 44.27 70.1875 44.7306 70.2947 45.1693C70.4018 45.6081 70.6369 46.0052 70.97 46.3102C71.2525 46.5586 71.5925 46.7327 71.9592 46.8165C72.3259 46.9003 72.7077 46.8912 73.07 46.7902C73.39 47.2802 73.71 47.7901 74.01 48.2801C74.31 48.7701 74.42 49.0401 74.61 49.43C74.8 49.82 74.95 50.1902 75.11 50.5702C75.35 51.2102 75.59 51.8501 75.82 52.5001C76.05 53.1501 76.33 53.95 76.61 54.67L76.98 55.6002L76.75 55.3402L76.3 54.8402C76.2321 54.7523 76.1586 54.6688 76.08 54.5902L75.44 53.89C75.28 53.72 75.11 53.5302 74.94 53.3602L74.11 52.5402L73.57 52.0201L73.14 51.6102L72.91 51.39C72.9203 51.3511 72.9221 51.3106 72.9153 51.2709C72.9084 51.2312 72.8931 51.1933 72.8703 51.16C72.8475 51.1268 72.8178 51.0989 72.7833 51.0782C72.7487 51.0575 72.7101 51.0446 72.67 51.0402H72.53C72.4939 51.0313 72.4562 51.0313 72.42 51.0402C72.3917 51.0557 72.3674 51.0774 72.3489 51.1039C72.3304 51.1304 72.3183 51.1608 72.3134 51.1927C72.3086 51.2247 72.3112 51.2572 72.321 51.288C72.3308 51.3187 72.3476 51.347 72.37 51.3702L73.7 52.7401L74.56 53.68C74.78 53.91 74.98 54.16 75.18 54.39C75.67 54.95 76.18 55.5102 76.64 56.0602C76.71 56.1502 76.79 56.2302 76.87 56.3202L77.37 56.8402C77.4316 56.9118 77.4985 56.9786 77.57 57.0402C77.86 57.7502 78.17 58.46 78.47 59.16C78.77 59.86 79.07 60.5802 79.36 61.3002C79.3638 61.2703 79.3638 61.24 79.36 61.2101C79.69 62.0801 80.0201 62.9502 80.36 63.8402C80.53 64.3302 80.7 64.8402 80.88 65.3102C79.3334 63.7568 77.77 62.2201 76.19 60.7001L76.12 60.5902L75.7 59.8102C75.6595 59.7423 75.6228 59.6722 75.59 59.6002L75.44 59.3002C75.32 59.0302 75.19 58.7601 75.07 58.5001C75.07 58.4201 75 58.3401 74.97 58.2701C74.94 58.2001 74.82 57.9301 74.75 57.7601L74.49 57.1901L74.27 56.7001C74.2408 56.6282 74.2074 56.5581 74.17 56.4901L73.96 56.0902C73.96 55.9902 73.86 55.8801 73.8 55.7801C73.74 55.6801 73.54 55.2902 73.39 55.0502V55.0001C73.4041 54.9758 73.4115 54.9481 73.4115 54.92C73.4115 54.892 73.4041 54.8645 73.39 54.8402C73.3617 54.8175 73.3264 54.805 73.29 54.805C73.2537 54.805 73.2184 54.8175 73.19 54.8402C73.1568 54.8542 73.1285 54.8778 73.1089 54.9081C73.0893 54.9384 73.0792 54.974 73.08 55.0101C73.1012 55.1355 73.1489 55.2549 73.22 55.3602L73.46 55.8602L73.58 56.1202C73.67 56.3302 73.77 56.5301 73.87 56.7401C73.97 56.9501 73.97 56.9802 74.03 57.1002C74.17 57.4202 74.3 57.7402 74.44 58.1002L74.71 58.7401C74.71 58.8401 74.8 58.9402 74.85 59.0402C74.9 59.1402 75.06 59.5001 75.17 59.7301C74.17 58.8301 73.26 57.9402 72.29 57.0502L70.59 55.4901L70.13 55.0802C70.337 54.8207 70.4395 54.493 70.4173 54.1617C70.3951 53.8305 70.2498 53.5197 70.01 53.2902C69.8255 53.1135 69.594 52.9935 69.3431 52.9449C69.0923 52.8964 68.8328 52.9212 68.5956 53.0162C68.3584 53.1113 68.1536 53.2725 68.0057 53.4808C67.8578 53.6892 67.773 53.9358 67.7616 54.191C67.7501 54.4463 67.8124 54.6993 67.9409 54.92C68.0695 55.1408 68.259 55.32 68.4867 55.4359C68.7144 55.5518 68.9706 55.5997 69.2248 55.5738C69.479 55.548 69.7204 55.4496 69.92 55.2902L70.29 55.7301L72.06 57.7301C72.93 58.7301 73.8 59.7301 74.7 60.7301C75.7 61.8601 76.78 63.0102 77.86 64.1002L78.23 64.4801L80.23 66.4801C80.7 66.9601 81.17 67.48 81.65 67.92L82.46 68.7301C82.82 69.4001 83.18 70.0701 83.57 70.7301C83.96 71.3901 84.46 72.2 84.91 72.93C84.42 72.45 83.91 71.9301 83.43 71.5001C83.19 71.2801 82.96 71.0602 82.71 70.8502L82.29 70.5001L81.86 70.16C81.62 69.97 81.37 69.7902 81.12 69.6102L80.12 68.9401C79.57 68.5601 79.01 68.2002 78.43 67.8402C77.85 67.4802 77.18 67.0801 76.55 66.7101L75.55 66.0902C75.8061 65.6846 75.9079 65.2006 75.8369 64.7262C75.7658 64.2518 75.5267 63.8187 75.163 63.506C74.7993 63.1932 74.3354 63.0216 73.8558 63.0223C73.3761 63.0231 72.9127 63.1962 72.55 63.5101C72.1992 63.8995 72.0151 64.411 72.0376 64.9347C72.06 65.4583 72.2871 65.9523 72.67 66.3102C73.033 66.6227 73.4961 66.7945 73.975 66.7945C74.454 66.7945 74.9171 66.6227 75.28 66.3102H75.37L76.16 66.8002L76.85 67.2601L78.19 68.18C79.09 68.81 79.97 69.48 80.83 70.18L81.22 70.5001C82.28 71.3601 83.22 72.3601 84.22 73.2801C84.74 73.7501 85.22 74.21 85.8 74.67L85.92 74.7701C85.9803 74.8956 86.0505 75.0158 86.13 75.13C86.2378 75.2931 86.3546 75.4502 86.48 75.6002C86.48 75.6002 86.55 75.6 86.59 75.66C87.2 76.66 87.82 77.66 88.48 78.66C89.39 79.99 90.31 81.31 91.26 82.66C91.72 83.29 92.21 83.8801 92.72 84.4701C92.91 84.7001 93.09 84.92 93.3 85.13C93.51 85.34 93.71 85.5 93.92 85.68L92.7 84.7501L92.63 84.6901H92.58C88.68 81.6901 84.81 78.5601 80.93 75.4901L77.32 72.63C77.04 72.39 76.78 72.13 76.5 71.89C75.89 71.38 75.28 70.89 74.66 70.38C74.04 69.87 73.66 69.6001 73.12 69.2301C72.76 68.9601 72.39 68.7001 72.02 68.4401L70.65 67.3502L69.05 66.1102L67.26 64.5902C66.97 64.3302 66.67 64.0902 66.37 63.8502C66.0678 63.5439 65.7324 63.2722 65.37 63.0402L64.37 62.1901L63.84 61.7401C63.69 61.5001 63.55 61.2701 63.41 61.0201C62.52 59.3801 61.67 57.7101 60.83 56.0201C60.6 55.5601 60.39 55.1 60.17 54.64C60.1855 54.6251 60.1977 54.6073 60.2061 54.5875C60.2145 54.5678 60.2188 54.5465 60.2188 54.525C60.2188 54.5036 60.2145 54.4825 60.2061 54.4628C60.1977 54.443 60.1855 54.4249 60.17 54.41C60.1282 54.3938 60.0819 54.3938 60.04 54.41C60.04 54.29 60.04 54.1602 60.04 54.0402C60.0429 54.0701 60.0542 54.0984 60.0725 54.1222C60.0909 54.146 60.1155 54.1642 60.1437 54.1747C60.1719 54.1851 60.2024 54.1874 60.2318 54.1813C60.2613 54.1752 60.2884 54.1608 60.31 54.14C60.3682 54.071 60.4154 53.9934 60.45 53.91C60.5 53.81 60.56 53.7002 60.61 53.5902C60.6291 53.5526 60.6335 53.5093 60.6224 53.4686C60.6113 53.428 60.5855 53.393 60.55 53.3702C60.5261 53.3551 60.4983 53.347 60.47 53.347C60.4417 53.347 60.414 53.3551 60.39 53.3702C60.39 53.1502 60.39 52.9401 60.39 52.7201L60.51 50.5702C60.56 49.8702 60.63 49.1801 60.69 48.4801C60.69 48.1401 60.74 47.8001 60.69 47.4801C60.7117 47.1471 60.7117 46.8131 60.69 46.4801C60.64 46.1301 60.58 45.7801 60.53 45.4801C61.1532 45.4176 61.7307 45.1252 62.15 44.66C62.5051 44.2741 62.7376 43.7917 62.8183 43.2736C62.899 42.7554 62.8241 42.225 62.6032 41.7494C62.3823 41.2738 62.0252 40.8745 61.5772 40.6019C61.1293 40.3294 60.6105 40.196 60.0866 40.2184C59.5627 40.2408 59.0572 40.4181 58.6342 40.7279C58.2111 41.0377 57.8895 41.4662 57.71 41.9589C57.5305 42.4516 57.5012 42.9864 57.6258 43.4957C57.7504 44.0051 58.0233 44.466 58.41 44.8202C58.8337 45.2038 59.3708 45.439 59.94 45.4901C59.99 45.7901 60.03 46.1 60.07 46.41C60.0749 46.4398 60.0749 46.4703 60.07 46.5001C60.07 46.5601 60.07 46.62 60.07 46.67C60.07 46.99 60.01 47.3002 59.97 47.6102C59.93 47.9202 59.97 47.97 59.91 48.14C59.85 48.31 59.91 48.5101 59.86 48.6901L59.8 49.2801C59.8 49.4301 59.8 49.5801 59.8 49.7301C59.8 49.8801 59.8 50.0401 59.8 50.1901C59.8 50.3401 59.8 50.5601 59.8 50.7401C59.8 50.9201 59.8 51.3901 59.8 51.7401C59.8 52.0901 59.8 52.4802 59.8 52.8502C59.8 53.1302 59.8 53.4001 59.8 53.68V53.8502C59.55 53.3202 59.28 52.8001 59.04 52.2701C58.95 52.0401 58.86 51.8202 58.78 51.6002C58.66 51.2502 58.54 50.9002 58.43 50.6002C58.32 50.3002 58.22 49.8601 58.12 49.4801C58.02 49.0501 57.9 48.6201 57.78 48.1901C57.7833 48.1668 57.7833 48.1435 57.78 48.1202C57.78 47.9402 57.69 47.7602 57.64 47.5802C57.46 46.9502 57.23 46.3401 56.99 45.7301V45.67C56.85 45.31 56.7 44.9502 56.55 44.5902C56.14 43.5902 55.66 42.59 55.19 41.65C55.19 41.54 55.19 41.4302 55.19 41.3102C55.19 41.0202 55.19 40.7201 55.19 40.43C55.19 40.1101 55.19 39.78 55.19 39.43C55.19 39.3301 55.19 39.24 55.19 39.14C55.19 39.04 55.19 38.7301 55.19 38.5301C55.185 38.4335 55.185 38.3367 55.19 38.2401C55.19 38.0801 55.19 37.9101 55.24 37.7501C55.29 37.5901 55.29 37.2201 55.32 36.9601C55.47 35.7601 55.61 34.5602 55.77 33.3502C55.8845 33.3241 55.9888 33.2649 56.07 33.18C56.1867 33.0474 56.246 32.8739 56.2347 32.6976C56.2235 32.5213 56.1426 32.3568 56.01 32.2401C55.8774 32.1234 55.7039 32.0643 55.5276 32.0756C55.3513 32.0868 55.1867 32.1676 55.07 32.3002C55.0096 32.3605 54.9616 32.4322 54.9289 32.5111C54.8961 32.59 54.8793 32.6747 54.8793 32.7601C54.8793 32.8456 54.8961 32.9302 54.9289 33.0092C54.9616 33.0881 55.0096 33.1597 55.07 33.2201C55.1498 33.2957 55.2512 33.3448 55.36 33.3602V33.6202C55.3649 33.7102 55.3649 33.8001 55.36 33.89C55.36 34.15 55.3 34.4201 55.26 34.68C55.2 35.0801 55.14 35.4802 55.09 35.8702L54.91 37.0802V37.2902C54.91 37.4502 54.91 37.6101 54.91 37.7601C54.91 37.9101 54.91 38.02 54.91 38.15C54.9045 38.1965 54.9045 38.2437 54.91 38.2902V38.7801V39.4V39.5502C54.91 39.6602 54.91 39.78 54.91 39.89V40.4401C54.8999 40.5765 54.8999 40.7137 54.91 40.8502C54.8 40.6302 54.69 40.4201 54.6 40.2001C53.91 38.7001 53.25 37.2001 52.44 35.7501C52.1 35.1601 51.74 34.5901 51.38 34.0201C51.38 34.0201 51.38 34.0201 51.38 33.9401L51.2 33.66L50.95 33.2701C50.77 32.7901 50.58 32.3202 50.41 31.8502C50.32 31.5902 50.22 31.3402 50.13 31.0802C50.04 30.8202 49.99 30.7001 49.93 30.5001C49.51 29.1401 49.13 27.7801 48.6 26.5001C48.34 25.8501 48.03 25.2302 47.71 24.6002V24.5201C48.0918 24.4204 48.4381 24.2159 48.71 23.93C49.0559 23.5463 49.2584 23.0549 49.2834 22.5389C49.3084 22.023 49.1543 21.5141 48.8472 21.0987C48.5401 20.6834 48.0988 20.387 47.5982 20.2596C47.0975 20.1323 46.5683 20.1819 46.1 20.4C46.1 20.35 46.1 20.2901 46.1 20.2301C46.105 20.3 46.105 20.3701 46.1 20.4401C45.8619 20.5506 45.6478 20.7068 45.47 20.9C45.0741 21.3391 44.8659 21.916 44.8902 22.5067C44.9145 23.0974 45.1693 23.6551 45.6 24.0602C45.9139 24.3325 46.299 24.5094 46.71 24.5702C46.82 24.9402 46.93 25.31 47.07 25.67C47.26 26.21 47.47 26.7401 47.68 27.2701C47.88 27.8001 48.08 28.3302 48.27 28.8702C48.46 29.4102 48.66 30.0102 48.88 30.5802C48.88 30.6702 48.96 30.7602 49 30.8502L48.21 30.0702C47.7 29.5902 47.21 29.0702 46.72 28.5902C45.87 27.6802 45.1 26.7001 44.34 25.7201L43.73 24.9401L43.36 24.5001C43.4004 24.306 43.3903 24.105 43.3308 23.9159C43.2712 23.7268 43.1643 23.556 43.02 23.42C42.8504 23.2713 42.6431 23.1722 42.4209 23.1334C42.1987 23.0946 41.97 23.1177 41.76 23.2001C41.6157 23.2666 41.4864 23.3619 41.38 23.4801C41.1717 23.7146 41.0625 24.0209 41.0755 24.3343C41.0886 24.6478 41.2229 24.9437 41.45 25.16C41.6132 25.3023 41.8112 25.3987 42.0239 25.4391C42.2365 25.4795 42.4561 25.4625 42.66 25.39C42.73 25.49 42.79 25.6101 42.87 25.7101C43.33 26.3801 43.8 27.0501 44.28 27.7101C44.76 28.3701 45.18 28.9902 45.67 29.6002C46.16 30.2102 46.61 30.7401 47.13 31.2801C47.6384 31.8088 48.1159 32.3664 48.56 32.9501C48.9 33.4501 49.2 33.9501 49.56 34.5001C49.92 35.0501 50.13 35.5001 50.41 36.0101V36.1002L50.47 36.2101L50.55 36.3602L50.61 36.4601C50.97 37.1401 51.33 37.8301 51.66 38.5301C52.36 39.9801 53.01 41.46 53.73 42.89L54.1 43.63C53.49 42.9 52.88 42.1801 52.23 41.5001C51.2126 40.4237 50.1016 39.4399 48.91 38.5602C49.0129 38.2166 49.0369 37.8542 48.98 37.5001C48.857 36.9091 48.5183 36.3851 48.03 36.0301C47.6949 35.7673 47.3406 35.53 46.97 35.3202C46.4985 35.0788 45.9556 35.0157 45.4412 35.1425C44.9268 35.2692 44.4755 35.5773 44.17 36.0101C43.9014 36.407 43.7672 36.8795 43.787 37.3583C43.8068 37.837 43.9796 38.2967 44.28 38.67C44.5377 39.0243 44.8219 39.3586 45.13 39.67C45.568 40.067 46.1409 40.282 46.7319 40.2709C47.3229 40.2597 47.8874 40.0234 48.31 39.6102C49.03 40.4102 49.76 41.2001 50.51 41.9801C51.11 42.6201 51.72 43.2502 52.36 43.8602C53 44.4702 53.58 45.04 54.17 45.65L54.11 45.5902C54.28 45.7702 54.45 45.96 54.63 46.14L54.57 46.0802L54.9 46.42L55.79 47.42L55.86 47.5001C56.42 48.9901 56.86 50.5001 57.55 51.9801C57.8855 52.7117 58.2697 53.4201 58.7 54.1002C59.08 54.7402 59.45 55.3701 59.81 56.0201V56.1102C59.8304 56.138 59.8472 56.1681 59.86 56.2001L59.92 56.3202C60.02 56.4902 60.12 56.6602 60.21 56.8402V56.7801L60.33 57.0001C60.82 57.8801 61.33 58.78 61.79 59.67L62.09 60.2301H62.04C61.14 59.4101 60.27 58.5501 59.39 57.7101C58.84 57.1801 58.28 56.65 57.71 56.13C57.14 55.61 56.63 55.0601 56.1 54.5101L56.19 54.6102C56.01 54.4202 55.83 54.2402 55.66 54.0502C55.45 53.8302 55.24 53.6 55.02 53.38L55.12 53.4801C54.91 53.2601 54.7 53.0302 54.49 52.8202C54.02 52.3602 53.56 51.9001 53.08 51.4601L51.58 50.14C50.58 49.23 49.51 48.3002 48.51 47.3402C47.51 46.3802 46.62 45.5102 45.66 44.6202C44.7 43.7302 43.66 42.82 42.66 41.89C42.07 41.34 41.5 40.7701 40.92 40.2101C40.8 40.0001 40.65 39.8102 40.53 39.6002C40.2299 39.0416 39.9595 38.4672 39.72 37.88L39.08 36.1901C38.94 35.7801 38.79 35.3801 38.65 34.9801C38.42 34.3601 38.17 33.7402 38 33.1002C37.9753 33.0113 37.9552 32.9212 37.94 32.8302C37.9537 32.7811 37.9537 32.7291 37.94 32.68C37.9397 32.6301 37.9255 32.5813 37.899 32.5389C37.8725 32.4966 37.8348 32.4623 37.79 32.4401C37.7467 32.4125 37.6964 32.3978 37.645 32.3978C37.5937 32.3978 37.5434 32.4125 37.5 32.4401C37.4616 32.4638 37.4291 32.496 37.4049 32.5341C37.3806 32.5721 37.3653 32.6152 37.36 32.66V32.7902C37.36 32.7902 37.36 32.86 37.36 32.9L37.42 33.1901C37.47 33.3701 37.53 33.5501 37.58 33.7201C37.72 34.1801 37.89 34.6202 38.05 35.0702C38.21 35.5202 38.3 35.8201 38.43 36.1901C38.56 36.5601 38.61 36.7301 38.71 37.0001C38.81 37.2701 38.88 37.5001 38.97 37.7501L39.13 38.2001C39.21 38.3901 39.3 38.5801 39.39 38.7701C38.5 37.8901 37.62 37.0002 36.74 36.1002C36.18 35.5302 35.6 34.96 35.03 34.4C34.43 33.28 33.82 32.1601 33.23 31.0301L32.23 29.14C32.14 28.97 32.08 28.7902 32 28.6102C32.054 28.6439 32.1164 28.6617 32.18 28.6617C32.2437 28.6617 32.306 28.6439 32.36 28.6102C32.3781 28.5883 32.391 28.5626 32.3979 28.535C32.4047 28.5074 32.4053 28.4786 32.3995 28.4508C32.3937 28.423 32.3818 28.3967 32.3646 28.3741C32.3474 28.3515 32.3253 28.3331 32.3 28.3202C32.2685 28.3007 32.2321 28.2904 32.195 28.2904C32.158 28.2904 32.1216 28.3007 32.09 28.3202C32.0851 28.2803 32.0851 28.2399 32.09 28.2001V28.1202L32.17 27.91C32.17 27.82 32.26 27.75 32.3 27.67C32.7467 27.9959 33.2957 28.15 33.8466 28.1041C34.3975 28.0582 34.9135 27.8153 35.3 27.42C35.5076 27.1986 35.6692 26.9384 35.7757 26.6542C35.8821 26.37 35.9313 26.0673 35.9203 25.764C35.9093 25.4607 35.8384 25.1626 35.7116 24.8868C35.5849 24.6111 35.4048 24.3632 35.1818 24.1573C34.9588 23.9515 34.6973 23.7917 34.4123 23.6874C34.1272 23.5831 33.8244 23.5364 33.5212 23.5497C33.218 23.5629 32.9204 23.636 32.6456 23.7648C32.3708 23.8936 32.1242 24.0756 31.92 24.3002C31.5869 24.6821 31.388 25.1625 31.3537 25.6681C31.3193 26.1737 31.4515 26.6768 31.73 27.1002C31.6715 27.266 31.628 27.4367 31.6 27.6102C31.5901 27.73 31.5901 27.8503 31.6 27.9701C31.54 27.8201 31.47 27.6801 31.41 27.5301C31.23 27.0501 31.06 26.5702 30.9 26.0902C30.83 25.8802 30.76 25.6701 30.7 25.4601C30.64 25.2501 30.55 24.93 30.48 24.67C30.4847 24.5934 30.4847 24.5167 30.48 24.4401C30.32 23.7801 30.18 23.1101 30.04 22.4401C29.9 21.7701 29.76 21.0202 29.6 20.3102L29.36 19.3102C29.26 18.9502 29.17 18.5801 29.07 18.2201L28.53 16.2201C28.27 15.2201 27.99 14.2201 27.71 13.2201C27.9768 13.3493 28.2778 13.39 28.5693 13.3361C28.8607 13.2821 29.1273 13.1362 29.33 12.92C29.4548 12.7848 29.5517 12.6264 29.6152 12.4537C29.6787 12.281 29.7075 12.0973 29.7001 11.9134C29.6927 11.7296 29.6491 11.549 29.5719 11.382C29.4947 11.2149 29.3853 11.0648 29.25 10.9401C29.1148 10.8153 28.9563 10.7184 28.7836 10.6549C28.6109 10.5914 28.4273 10.5625 28.2435 10.5699C28.0596 10.5774 27.879 10.6211 27.712 10.6984C27.545 10.7756 27.3948 10.8849 27.27 11.0201C27.2747 11.0399 27.2747 11.0605 27.27 11.0802C27.0867 11.3055 26.977 11.5815 26.9555 11.8712C26.9341 12.1609 27.0019 12.4502 27.15 12.7001C27.1535 13.2016 27.1869 13.7025 27.25 14.2001C27.304 14.7442 27.3875 15.2851 27.5 15.8202C27.61 16.3802 27.77 16.9401 27.92 17.5001C28.07 18.0601 28.19 18.5001 28.33 19.0301C28.33 19.0301 28.33 19.0301 28.33 18.9701C28.47 19.5101 28.6 20.0502 28.72 20.6002C28.84 21.1502 28.98 21.8501 29.1 22.4701C29.1048 22.55 29.1048 22.6301 29.1 22.7101L28.92 22.4801C28.62 22.0301 28.34 21.5802 28.06 21.1202C27.78 20.6602 27.46 20.12 27.14 19.63C26.82 19.14 26.37 18.47 25.98 17.9C25.74 17.55 25.48 17.22 25.22 16.9C25.3467 16.8317 25.4643 16.7477 25.57 16.65C25.95 16.2029 26.1421 15.6261 26.1061 15.0404C26.07 14.4547 25.8085 13.9057 25.3765 13.5087C24.9445 13.1116 24.3755 12.8972 23.7889 12.9105C23.2023 12.9238 22.6436 13.1639 22.23 13.5802C22.1608 13.6901 22.0974 13.8035 22.04 13.92C21.91 13.84 21.8 13.74 21.68 13.66L21.57 13.6002L21.22 13.39L21.7 13.88C21.78 13.97 21.85 14.06 21.93 14.14C21.7372 14.5079 21.6529 14.9231 21.6871 15.337C21.7213 15.751 21.8724 16.1466 22.123 16.4779C22.3736 16.8092 22.7131 17.0626 23.1022 17.2081C23.4912 17.3537 23.9136 17.3856 24.32 17.3002L24.67 17.8102V17.7501C25.05 18.2701 25.45 18.7501 25.84 19.2601L27.01 20.7001L28.27 22.2201L28.84 22.9C28.9894 23.0861 29.1496 23.2631 29.32 23.43C29.39 23.77 29.46 24.1 29.55 24.43C29.55 24.61 29.63 24.8001 29.68 24.9801L29.83 25.4601C29.83 25.6201 29.92 25.7901 29.97 25.9501C30.02 26.1101 30.1 26.3001 30.16 26.4801C30.28 26.8201 30.4 27.1401 30.54 27.4801C30.6 27.6401 30.66 27.8001 30.73 27.9601L30.97 28.4901C31.11 28.8201 31.27 29.1401 31.43 29.4901L31.68 29.9401C31.76 30.0901 31.85 30.24 31.94 30.39L32 30.5001L32.06 30.6202C32.0546 30.6533 32.0546 30.687 32.06 30.7201C32.1297 30.821 32.19 30.9282 32.24 31.0402L32.33 31.2101C32.41 31.3601 32.5 31.51 32.58 31.67V31.6202C32.5746 31.6533 32.5746 31.687 32.58 31.7201V31.7801L33.26 33.0201C32.54 32.3101 31.82 31.6002 31.12 30.8702C30.2 29.8702 29.31 28.8702 28.43 27.8702C27.55 26.8702 26.72 25.9902 25.81 25.1002L22.89 22.2501C22.83 22.2501 22.78 22.1402 22.72 22.0802L22.54 21.8502C22.36 21.6002 22.18 21.3602 22.01 21.1102L21.47 20.3102L20.98 19.5402L20.41 18.5402L20.07 17.92L19.7 17.2501C19.59 17.0501 19.49 16.84 19.39 16.63L19.05 15.9801C18.76 15.3801 18.46 14.79 18.21 14.18C18.1084 13.9185 18.0216 13.6513 17.95 13.38C17.95 13.21 17.88 13.05 17.85 12.88C17.8541 12.8568 17.8541 12.8333 17.85 12.8102C17.8805 12.8045 17.9095 12.7927 17.9352 12.7755C17.961 12.7583 17.9831 12.736 18 12.7101C18.0116 12.6845 18.0179 12.6571 18.0186 12.629C18.0193 12.601 18.0144 12.5731 18.0041 12.547C17.9939 12.5209 17.9785 12.497 17.9589 12.4769C17.9393 12.4569 17.9159 12.4409 17.89 12.43C17.8551 12.4099 17.8154 12.3993 17.775 12.3993C17.7347 12.3993 17.695 12.4099 17.66 12.43C17.6035 12.4687 17.5613 12.5251 17.54 12.5902C17.5148 12.7055 17.5148 12.8248 17.54 12.9401V13.16C17.54 13.26 17.54 13.3601 17.59 13.4601C17.64 13.5601 17.67 13.8301 17.72 14.0101C17.77 14.1901 17.86 14.4701 17.94 14.6901C18.02 14.9101 18.03 14.9602 18.09 15.0902L18.57 16.18L18.69 16.43C18.79 16.64 18.9 16.8502 19.01 17.0702L19.25 17.5402C19.25 17.6502 19.36 17.7402 19.41 17.8402L19.8 18.5402L19.98 18.8702L20.64 19.8702L20.23 19.4601L20.04 19.2601C19.53 18.7201 19.04 18.19 18.48 17.66L16.79 15.7601C16.7375 15.699 16.6769 15.6452 16.61 15.6002C16.5513 15.5593 16.4816 15.5372 16.41 15.5372C16.3385 15.5372 16.2687 15.5593 16.21 15.6002C16.03 15.4302 15.84 15.2702 15.66 15.0902L15.04 14.43C14.84 14.21 14.65 13.9902 14.43 13.7902C13.98 13.3602 13.51 12.9602 13.02 12.5702L11.77 11.5702C11.35 11.2402 10.95 10.9002 10.54 10.5702C9.7585 9.94363 9.01078 9.27602 8.30004 8.57019L8.19004 8.44006C8.40664 8.2757 8.6075 8.09153 8.79004 7.89001C9.34173 7.28801 9.70259 6.53614 9.82701 5.72912C9.95143 4.9221 9.83384 4.09628 9.48908 3.35607C9.14432 2.61587 8.58788 1.99449 7.89007 1.57043C7.19227 1.14637 6.38441 0.938582 5.5686 0.973505C4.75279 1.00843 3.96564 1.28433 3.30662 1.76647C2.64761 2.24862 2.14631 2.91553 1.86607 3.68249C1.58583 4.44945 1.53924 5.28212 1.73218 6.07556C1.92511 6.86899 2.34892 7.58736 2.95004 8.14001C3.58322 8.70264 4.37106 9.06173 5.21108 9.17053C6.0511 9.27932 6.90442 9.13288 7.66004 8.75012C7.87004 8.99012 8.10004 9.21005 8.33004 9.43005C8.56004 9.65005 8.79003 9.87019 9.03003 10.0802C10.03 10.9602 11.03 11.83 12.03 12.66L12.26 12.8402L12.84 13.3102C13.3495 13.7066 13.8369 14.1306 14.3 14.5802C14.73 15.0002 15.13 15.4502 15.57 15.8502L17.01 17.13V17.18L17.57 17.7501C18.39 18.6301 19.18 19.5401 19.99 20.4401C20.8 21.3401 21.7 22.2901 22.56 23.2101C23.42 24.1301 24.31 25.0401 25.13 26.0001C24.51 25.5701 23.88 25.1401 23.23 24.7401L23.07 24.65L22.86 24.5201H22.94C22.3757 24.1845 21.7913 23.884 21.19 23.6202C21.2099 23.5313 21.2099 23.4391 21.19 23.3502C21.1352 23.192 21.0214 23.0609 20.8723 22.9845C20.7233 22.9081 20.5505 22.8922 20.39 22.9401L20.07 23.0301L19.9 23.0802L19.15 22.7801L17.15 22.0502L16.09 21.63L15.99 21.5702L15.82 21.4701L15.12 21.0101L14.68 20.7201C14.51 20.6001 14.33 20.4902 14.16 20.3602L13.79 20.0001L13.37 19.6202C13.25 19.5202 13.14 19.4102 13.03 19.3002C12.92 19.1902 12.57 18.8402 12.35 18.6002C11.95 18.1702 11.55 17.7502 11.13 17.3302C11.2629 17.224 11.3866 17.1068 11.5 16.9801C11.6913 16.7676 11.8558 16.5326 11.99 16.2801C12.4225 15.4211 12.5024 14.4272 12.2129 13.5101C11.9234 12.593 11.2873 11.8253 10.44 11.3702L9.93004 11.0802C9.15897 10.6824 8.26993 10.5772 7.42738 10.7843C6.58483 10.9914 5.84578 11.4965 5.34692 12.2064C4.84806 12.9163 4.62316 13.7828 4.71381 14.6456C4.80447 15.5085 5.20455 16.3093 5.84004 16.9C6.0993 17.14 6.37316 17.364 6.66004 17.5702C6.89314 17.7414 7.14892 17.8793 7.42003 17.9801C8.2605 18.7501 9.18656 19.4212 10.18 19.9801C10.67 20.2501 11.18 20.4901 11.67 20.7601L13.19 21.5502C13.79 21.8602 14.41 22.1601 15.02 22.4501C15.63 22.7401 16.29 23.0702 16.94 23.3602L17.75 23.7001C17.19 23.8701 16.64 24.0601 16.09 24.2501L14.25 24.9C14.2335 24.3678 14.1109 23.8442 13.8894 23.36C13.6679 22.8757 13.3519 22.4407 12.96 22.0802C12.3743 21.5546 11.6465 21.2134 10.8678 21.0995C10.0891 20.9855 9.2941 21.1036 8.5823 21.4393C7.87049 21.775 7.27354 22.3133 6.86616 22.9867C6.45879 23.66 6.2591 24.4387 6.29209 25.225C6.32508 26.0113 6.58929 26.7702 7.05164 27.4071C7.51399 28.044 8.15393 28.5304 8.89136 28.8053C9.62878 29.0802 10.4309 29.1315 11.1973 28.9528C11.9637 28.774 12.6604 28.373 13.2 27.8002C13.6686 27.273 13.9894 26.6312 14.13 25.9401C14.39 25.9401 14.65 25.8301 14.9 25.7601L15.9 25.4901C17.11 25.1501 18.31 24.78 19.51 24.43L20.79 24.9501C21.66 25.3301 22.5 25.7601 23.33 26.2001L24.71 26.9501L25.86 27.6202C26.0758 27.7462 26.283 27.8865 26.48 28.0402L27.13 28.6202L27.32 28.8502C27.3536 28.9045 27.3989 28.9504 27.4525 28.985C27.5061 29.0196 27.5668 29.0419 27.63 29.0502C28.4 30.0502 29.19 31.0502 30.04 32.0502L32.74 35.0502L32.04 34.7301C31.2 34.3601 30.35 34.0301 29.51 33.7301C28.23 33.1901 26.94 32.65 25.63 32.17L24.63 31.8102L23.63 31.4601L22.96 31.2201L22.64 31.1102L22.53 31.0602C22.5263 30.9126 22.4958 30.7667 22.44 30.63C22.3685 30.4861 22.2661 30.3598 22.14 30.2601C22.1145 30.2076 22.0844 30.1575 22.05 30.1102C21.9957 30.0293 21.9356 29.9522 21.87 29.88C21.8182 29.8248 21.7612 29.7747 21.7 29.7301C21.5584 29.6294 21.393 29.5674 21.22 29.5502C21.0609 29.5241 20.8975 29.545 20.75 29.6102C20.6279 29.6584 20.5185 29.7339 20.4301 29.8309C20.3417 29.928 20.2767 30.044 20.24 30.17C20.1934 30.3369 20.1809 30.5117 20.2033 30.6835C20.2256 30.8553 20.2823 31.0206 20.37 31.17C20.526 31.4934 20.7727 31.7645 21.08 31.9501C21.2267 32.0355 21.3908 32.0869 21.56 32.1002C21.6464 32.1098 21.7336 32.1098 21.82 32.1002C21.8997 32.083 21.9769 32.0561 22.05 32.0201C22.1228 31.9828 22.19 31.9355 22.25 31.88C22.2799 31.8692 22.3048 31.8481 22.32 31.8202L22.41 31.7001C22.4452 31.631 22.4689 31.5568 22.48 31.4801L22.6 31.5301L23.52 31.9601L24.52 32.38L26.11 33.1002L27.85 33.9C28.45 34.17 29.05 34.4601 29.66 34.7201C30.48 35.0801 31.31 35.4201 32.14 35.7201C32.52 35.8701 32.89 36 33.26 36.16L33.86 36.4L34.04 36.4601C35.46 38.0601 36.87 39.6701 38.33 41.2301C39.33 42.2301 40.27 43.2801 41.33 44.2301C42.39 45.1801 43.33 46.1402 44.33 47.0902C45.33 48.0402 46.25 48.9102 47.25 49.7902C48.25 50.6702 49.35 51.54 50.42 52.4L50.3 52.3002L51.62 53.42C51.02 53.12 50.42 52.8001 49.82 52.5101C49.22 52.2201 48.48 51.8601 47.82 51.5101C47.16 51.1601 46.56 50.9701 45.93 50.7001L45.63 50.5902C45.17 50.2402 44.72 49.9102 44.26 49.5902L42.66 48.43C41.53 47.5801 40.39 46.75 39.29 45.88C39.2514 45.85 39.2039 45.8339 39.155 45.8339C39.1061 45.8339 39.0586 45.85 39.02 45.88C38.9821 45.9124 38.9557 45.9563 38.9449 46.005C38.9341 46.0537 38.9394 46.1046 38.96 46.15C38.9796 46.1921 39.003 46.2324 39.03 46.2701C39.0598 46.3078 39.1026 46.3329 39.15 46.3402C39.66 46.8102 40.15 47.2701 40.68 47.7201L41.42 48.3702L42.24 49.0602C42.5 49.2702 42.76 49.46 43.03 49.66L42.03 49.3402C41.36 49.1502 40.7 48.9501 40.03 48.7401C39.5634 48.5868 39.0934 48.4268 38.62 48.2601C38.36 48.0901 38.11 47.9201 37.87 47.7401L37.45 47.4501L36.92 47.0502C36.7136 46.8671 36.5167 46.6734 36.33 46.4701L35.87 46.0101C35.65 45.7901 35.44 45.5602 35.22 45.3302L33.9 43.93C33.45 43.4501 33 42.9301 32.55 42.4601L31.67 41.5101C31.7748 41.422 31.8749 41.3285 31.97 41.2301C32.4963 40.5977 32.7596 39.7876 32.7057 38.9667C32.6519 38.1458 32.2849 37.3769 31.6805 36.8187C31.0762 36.2606 30.2806 35.9557 29.458 35.9672C28.6354 35.9786 27.8486 36.3053 27.26 36.88C26.6799 37.54 26.385 38.4032 26.44 39.2801C26.3341 39.1409 26.217 39.0104 26.09 38.89C25.5725 38.4058 24.9226 38.0866 24.223 37.973C23.5234 37.8595 22.8059 37.9567 22.1617 38.2523C21.5176 38.548 20.976 39.0287 20.606 39.6332C20.236 40.2377 20.0543 40.9387 20.0841 41.6468C20.1138 42.355 20.3537 43.0382 20.773 43.6095C21.1924 44.1808 21.7724 44.6143 22.439 44.8549C23.1057 45.0954 23.8289 45.1324 24.5165 44.9606C25.204 44.7887 25.8249 44.4159 26.3 43.89C26.4553 43.7082 26.5958 43.5144 26.72 43.3102C27.43 43.8102 28.14 44.3101 28.89 44.7601C29.49 45.1201 30.1 45.4501 30.71 45.7601L31.4 46.1202H30.95L29.68 46.2801L28.97 46.3602H28.84H28.74H28.09C27.86 46.3602 27.64 46.3602 27.42 46.3602H27.11H27.04C27.0161 46.3151 26.9772 46.2797 26.93 46.2601C26.8907 46.2479 26.8488 46.2464 26.8087 46.256C26.7686 46.2655 26.7319 46.2857 26.7022 46.3143C26.6726 46.3429 26.6512 46.3791 26.6403 46.4188C26.6293 46.4585 26.6292 46.5004 26.64 46.5402C26.69 46.7002 26.88 46.7501 27.03 46.7801C27.1498 46.79 27.2702 46.79 27.39 46.7801H27.73H28.43C28.87 46.7801 29.32 46.7801 29.76 46.7801H30.98H32.18H32.81L34.28 47.5902C34.86 47.9102 35.43 48.2201 36.03 48.5001L37.97 49.38H38.07L38.36 49.5001C39.6 50.0501 40.88 50.5001 42.15 50.9801C42.75 51.2001 43.35 51.43 43.96 51.64L45.96 52.3302C47.27 52.7802 48.58 53.23 49.9 53.63C50.6 53.84 51.3 54.0401 52.01 54.2001C52.35 54.2801 52.7 54.36 53.01 54.42L53.48 54.8302C53.4735 54.8551 53.473 54.8812 53.4787 54.9064C53.4845 54.9315 53.4962 54.9548 53.5129 54.9745C53.5296 54.9941 53.5507 55.0095 53.5746 55.0192C53.5985 55.0289 53.6244 55.0326 53.65 55.0301C54.04 55.3701 54.42 55.7201 54.81 56.0301C56.08 57.0801 57.37 58.12 58.65 59.15L58.86 59.39C59.33 59.93 59.86 60.4801 60.31 61.0101C60.62 61.3301 60.95 61.6501 61.31 62.0101C60.44 61.7901 59.56 61.5802 58.69 61.3402C57.34 60.9802 55.99 60.6002 54.63 60.2902C53.88 60.1202 53.13 59.9502 52.38 59.8002C51.63 59.6502 51.08 59.5401 50.38 59.43C48.96 59.19 47.54 58.9601 46.11 58.7801L45.59 58.4901C45.13 58.2301 44.68 57.9601 44.23 57.6901L43.55 57.2801L42.38 56.5602L41.38 55.9601L39.78 54.9601H39.7L39.54 54.8602H39.46L39.2 54.7001C38.7 54.4001 38.2 54.1102 37.69 53.8602C37.18 53.6102 36.69 53.37 36.11 53.14C36.2645 52.8494 36.3197 52.5165 36.2674 52.1915C36.215 51.8666 36.0579 51.5676 35.82 51.3402C35.5225 51.0722 35.1318 50.9313 34.7317 50.9481C34.3316 50.9649 33.954 51.138 33.68 51.43C33.5451 51.5825 33.44 51.7589 33.37 51.9501C33.2635 52.2536 33.2581 52.5836 33.3547 52.8905C33.4512 53.1974 33.6444 53.4648 33.9055 53.6527C34.1666 53.8407 34.4815 53.9391 34.8032 53.9332C35.1249 53.9274 35.436 53.8176 35.69 53.6202C35.86 53.7302 36.02 53.8501 36.19 53.9501C37.19 54.5801 38.19 55.1601 39.28 55.7501L41.02 56.7501C41.64 57.1101 42.26 57.4802 42.89 57.8202C43.52 58.1602 43.89 58.37 44.39 58.66H43.99C43.28 58.66 42.57 58.5702 41.86 58.5402L39.76 58.4401C39.06 58.4401 38.36 58.3201 37.67 58.2401L36.59 58.0602C36.24 58.0002 35.88 57.9102 35.54 57.8202C34.86 57.6602 34.19 57.4702 33.54 57.2902L31.61 56.7601C30.95 56.5701 30.27 56.4402 29.61 56.3002C29.41 56.2502 29.21 56.19 29.01 56.15C29.059 55.8556 29.0345 55.5538 28.9385 55.2711C28.8426 54.9885 28.6782 54.7339 28.46 54.5301C28.187 54.2805 27.8461 54.1175 27.4803 54.0616C27.1146 54.0058 26.7405 54.0596 26.4055 54.2164C26.0704 54.3733 25.7894 54.6262 25.5979 54.9427C25.4065 55.2593 25.3133 55.6257 25.3301 55.9952C25.3469 56.3648 25.473 56.721 25.6923 57.0189C25.9117 57.3168 26.2144 57.543 26.5624 57.6688C26.9103 57.7946 27.2877 57.8142 27.6469 57.7255C28.006 57.6367 28.3308 57.4434 28.58 57.17C28.7145 57.008 28.8225 56.8257 28.9 56.63L29.17 56.7701C29.8193 57.037 30.4879 57.2542 31.17 57.42C31.85 57.6 32.53 57.74 33.17 57.91C34.5 58.23 35.82 58.5902 37.17 58.7902C37.88 58.8902 38.58 58.9802 39.29 59.0402C40 59.1002 40.63 59.1301 41.29 59.18L43.34 59.3302L42.92 59.4501L42.42 59.63L41.97 59.8202C41.65 59.9602 41.35 60.1201 41.05 60.2801L40.17 60.7401L39.24 61.2401L37.38 62.2401C37.21 62.3401 37.04 62.4401 36.86 62.5301L36.48 62.7601L35.55 63.2902L34.42 63.91C34.3089 63.6135 34.131 63.3466 33.9 63.13C33.5223 62.7417 33.0171 62.5029 32.4773 62.4571C31.9375 62.4114 31.3993 62.562 30.9616 62.8812C30.5239 63.2004 30.216 63.6667 30.0946 64.1947C29.9732 64.7227 30.0463 65.2769 30.3006 65.7552C30.5548 66.2336 30.9732 66.604 31.4787 66.7987C31.9842 66.9934 32.5431 66.9993 33.0525 66.8151C33.562 66.6308 33.9879 66.269 34.2519 65.796C34.516 65.323 34.6005 64.7705 34.49 64.2401C35 63.9601 35.49 63.69 36.03 63.4C36.31 63.24 36.59 63.08 36.86 62.91L37.55 62.5301L38.78 61.8702C39.2 61.6402 39.62 61.4101 40.05 61.1901C40.48 60.9701 40.91 60.7201 41.35 60.5001C41.55 60.3901 41.76 60.2901 41.98 60.1901L42.57 59.93L42.98 59.7902L43.39 59.66C43.63 59.58 43.87 59.5201 44.12 59.4501H44.25H44.56L45.56 59.5802L46.2 59.68L46.61 59.91C46.6602 59.939 46.7171 59.9542 46.775 59.9542C46.833 59.9542 46.8899 59.939 46.94 59.91L47 59.8602C48.17 60.0502 49.34 60.2501 50.5 60.4801L52.79 60.9401L53.68 61.15C53.99 61.22 54.3 61.2802 54.61 61.3602L55.61 61.6102C55.1962 61.669 54.7856 61.7491 54.38 61.8502C54.02 61.9402 53.68 62.04 53.33 62.16C52.98 62.28 52.75 62.3701 52.45 62.4701L51.45 62.8202L50.87 63.0402L50.36 63.2501L49.93 63.4601C49.8 63.5201 49.67 63.58 49.55 63.65L48.55 64.2201L47.63 64.7001L47.13 64.9601L46.58 65.2601C46.4671 65.0095 46.3037 64.7849 46.1 64.6002C45.7277 64.2253 45.2343 63.9948 44.7079 63.9498C44.1814 63.9048 43.6561 64.0482 43.2255 64.3544C42.7949 64.6606 42.487 65.1096 42.3567 65.6217C42.2264 66.1338 42.2822 66.6755 42.5141 67.1503C42.7459 67.625 43.1389 68.0021 43.6228 68.2142C44.1067 68.4263 44.6502 68.4595 45.1565 68.3082C45.6627 68.1569 46.0988 67.8307 46.387 67.3878C46.6752 66.9449 46.7967 66.4141 46.73 65.89H46.84C46.8807 65.8743 46.9143 65.8444 46.9345 65.8058C46.9547 65.7672 46.9602 65.7224 46.95 65.68C46.9433 65.6593 46.9325 65.6403 46.9181 65.6239C46.9038 65.6075 46.8862 65.5942 46.8666 65.5848C46.8469 65.5755 46.8256 65.5703 46.8038 65.5695C46.782 65.5686 46.7603 65.5723 46.74 65.5802L47.13 65.42C47.73 65.2 48.31 64.9901 48.9 64.7501L49.9 64.3302L50.64 64.0301L51.59 63.68L52.51 63.38L53.46 63.0502C53.76 62.9502 54.05 62.8702 54.35 62.7902C55.095 62.6008 55.8494 62.4506 56.61 62.3402C57.0212 62.285 57.4353 62.2549 57.85 62.2501H58.21L59.02 62.4601C59.68 62.6301 60.36 62.76 61.02 62.91C61.4934 63.01 61.9634 63.1201 62.43 63.2401C63.17 63.9401 63.93 64.6202 64.68 65.3102C65.68 66.2302 66.68 67.1802 67.68 68.0902C68.11 68.4802 68.54 68.8701 68.99 69.2501C69.44 69.6301 70.1 70.18 70.67 70.63L72.22 71.7902C72.77 72.1902 73.31 72.6101 73.85 73.0301C75.42 74.2901 76.95 75.6 78.51 76.88C80.07 78.16 81.65 79.5502 83.27 80.8302L86.71 83.4901L89.49 85.67L89.34 85.6002C88.61 85.2802 87.86 85.0001 87.11 84.7301L84.57 83.8202C83.01 83.2802 81.43 82.8202 79.84 82.3502C79.8105 82.2924 79.7655 82.2438 79.71 82.2101C79.6585 82.1855 79.605 82.1654 79.55 82.15L79.2 82.0101L79.03 81.93L76.89 80.6901H76.95L76.77 80.5802C76.03 80.1102 75.29 79.64 74.56 79.16C73.83 78.68 73.06 78.16 72.33 77.65C70.9 76.65 69.51 75.5401 68.14 74.4501C66.92 73.4501 65.79 72.3001 64.63 71.2101C63.47 70.1201 62.34 69.1502 61.2 68.1102C60.54 67.5202 59.9 66.9102 59.2 66.3602C58.5 65.8102 57.34 65.0701 56.31 65.4501C56.0557 65.5437 55.8299 65.7015 55.6546 65.9083C55.4794 66.1151 55.3607 66.3637 55.31 66.63C55.2713 66.8618 55.2797 67.0992 55.3347 67.3278C55.3897 67.5563 55.4901 67.7712 55.63 67.9601C56.0805 68.5316 56.6549 68.9933 57.31 69.3102C57.6902 69.5245 58.0884 69.7052 58.5 69.8502C58.87 69.9802 59.24 70.1101 59.61 70.2101C59.83 70.4101 60.04 70.6002 60.27 70.7902C60.8234 71.2502 61.3934 71.6902 61.98 72.1102L63.16 72.9L63.89 73.5101L63.97 73.5802L63.91 73.5301C64.85 74.2801 65.83 74.97 66.82 75.64L68.23 76.5702L69.67 77.4801H69.61L69.69 77.5301L69.93 77.67L70.22 77.8502L70.52 78.0201C71.18 78.4601 71.83 78.8801 72.52 79.2902C73.64 79.9502 74.77 80.5801 75.91 81.2101L75.08 80.9601C73.27 80.3501 71.46 79.7602 69.6 79.3302C68.97 79.1902 68.33 79.0601 67.69 78.9401L67.4 78.8302C66.84 78.6202 66.27 78.4401 65.7 78.2401C65.13 78.0401 64.5 77.8102 63.91 77.5802L62.77 77.18C62.77 77.18 62.77 77.1802 62.77 77.1202C62.7675 77.0756 62.7561 77.0316 62.7367 76.9913C62.7172 76.951 62.6899 76.9151 62.6565 76.8854C62.623 76.8556 62.584 76.8329 62.5418 76.8182C62.4995 76.8036 62.4547 76.7975 62.41 76.8002H61.75C61.23 76.6202 60.75 76.4401 60.2 76.2401C58.98 75.7801 57.77 75.3002 56.57 74.8002H56.51C55.78 74.4702 55.06 74.1202 54.33 73.8002L53.44 73.38C53.34 73.28 53.22 73.2002 53.12 73.1002C53.3408 72.781 53.432 72.3897 53.3751 72.0057C53.3183 71.6218 53.1176 71.2736 52.8138 71.0321C52.5099 70.7906 52.1256 70.6735 51.7388 70.7047C51.3519 70.7359 50.9913 70.913 50.73 71.2001C50.4565 71.5048 50.3128 71.9042 50.3296 72.3133C50.3464 72.7225 50.5224 73.1088 50.82 73.39C50.9897 73.5348 51.1871 73.6437 51.4 73.7101C51.4 73.7101 51.4 73.7702 51.4 73.8002C51.5313 74.0398 51.7442 74.2243 52 74.3202C52.48 74.5502 52.94 74.8001 53.41 75.0301C53.88 75.2601 54.47 75.5602 55 75.8102C55.53 76.0602 56.24 76.38 56.87 76.63C56.32 76.63 55.78 76.5401 55.23 76.5201C54.68 76.5001 53.94 76.5201 53.3 76.5201H52.79C52.38 76.5201 51.96 76.5201 51.55 76.5201C51.14 76.5201 50.74 76.45 50.33 76.4C49.2823 76.2532 48.244 76.0463 47.22 75.7801L46.72 75.65C46.9379 75.1323 46.9915 74.5602 46.8734 74.0111C46.7554 73.462 46.4714 72.9626 46.06 72.5802C45.6588 72.2134 45.1578 71.9737 44.6205 71.8915C44.0831 71.8093 43.5334 71.8882 43.0409 72.1183C42.5483 72.3483 42.135 72.7194 41.8532 73.1842C41.5713 73.649 41.4335 74.187 41.4573 74.7301C41.481 75.2732 41.6652 75.797 41.9865 76.2355C42.3079 76.674 42.7519 77.0073 43.2627 77.1935C43.7734 77.3797 44.3279 77.4104 44.856 77.2816C45.3842 77.1528 45.8623 76.8705 46.23 76.4701V76.42C46.7764 76.6494 47.3419 76.8301 47.92 76.9601L48.92 77.2001L50.04 77.4C50.37 77.45 50.71 77.4801 51.04 77.5101C51.37 77.5401 51.73 77.5702 52.04 77.5702C52.71 77.5702 53.37 77.5702 54.04 77.5702C54.71 77.5702 55.4 77.5702 56.04 77.5702L57.7 77.63H58.42C58.64 77.63 58.86 77.63 59.08 77.63L60.52 78.14C61.16 78.35 61.82 78.5301 62.47 78.7101C63.3 78.9501 64.11 79.2201 64.95 79.4501L67.14 80.0301C67.91 80.3901 68.69 80.7301 69.49 81.0301C70.29 81.3301 71.23 81.61 72.1 81.93C72.97 82.25 73.86 82.59 74.73 82.93C76.3967 83.5967 78.0634 84.2436 79.73 84.8702C79.21 84.8702 78.68 84.8702 78.15 84.8702H77.76L76.7 84.7401L75.44 84.64L73.97 84.4501C73.3 84.3601 72.63 84.2601 71.97 84.2001C71.31 84.1401 70.51 84.0702 69.78 84.0502H69C68.56 84.0502 68.11 83.98 67.67 83.92C66.8 83.78 65.96 83.58 65.11 83.39C64.26 83.2 63.6 83.0701 62.84 82.9501C62.08 82.8301 61.25 82.72 60.45 82.64C59.65 82.56 59 82.49 58.27 82.4C57.5198 82.3149 56.7651 82.275 56.01 82.2801H56.17C55.4818 82.2753 54.7942 82.2352 54.11 82.16L53.62 82.0502L53.22 81.91C52.71 81.68 52.22 81.41 51.7 81.18C51.0893 80.8733 50.445 80.6384 49.78 80.4801C49.2767 80.3785 48.7612 80.3514 48.25 80.4C48.1962 80.2045 48.0841 80.0299 47.9287 79.8995C47.7733 79.7691 47.582 79.6891 47.38 79.67C47.2834 79.665 47.1866 79.665 47.09 79.67C46.811 79.7045 46.5438 79.8038 46.31 79.9601C46.0628 80.1026 45.8286 80.2666 45.61 80.4501C45.3819 80.6475 45.2397 80.9261 45.2135 81.2267C45.1874 81.5273 45.2794 81.8263 45.47 82.0602C45.5912 82.2026 45.7464 82.3121 45.9212 82.3785C46.0961 82.445 46.2848 82.4661 46.47 82.4401C46.6382 82.6481 46.8593 82.8069 47.11 82.9C47.2692 82.9737 47.4328 83.0373 47.6 83.0902C48.3041 83.2837 49.0186 83.4372 49.74 83.5502L50.81 83.7401L51.65 83.91L51.89 84.0502C52.5554 84.4139 53.2931 84.6255 54.05 84.67C54.7358 84.7201 55.4243 84.7201 56.11 84.67C56.76 84.62 57.4 84.6002 58.05 84.5902H58.31L58.69 84.66H58.79H58.98H59.13H59.26L59.94 84.7601H60.05L60.77 84.8602H60.67H60.84L61.93 85.0101C62.64 85.1201 63.35 85.2002 64.06 85.2902C64.77 85.3801 65.44 85.4101 66.12 85.4601C66.43 85.4601 66.75 85.4601 67.06 85.4601C67.37 85.4601 67.89 85.4601 68.31 85.4601H70.31C71.11 85.4601 71.91 85.5102 72.71 85.6002L73.48 85.68L73.01 85.7902C72.46 85.9202 71.91 86.06 71.36 86.17L70.44 86.3402L69.86 86.4501L69.32 86.5702L68.87 86.68L68.41 86.8102L67.82 87.0001L67.27 87.1901C66.62 87.4201 65.97 87.67 65.33 87.91C64.69 88.15 64.08 88.4301 63.45 88.6901L62.92 88.9H62.81C62.8285 88.7463 62.8109 88.5905 62.7589 88.4447C62.7068 88.2989 62.6216 88.1674 62.51 88.0602C62.3662 87.9314 62.1881 87.8468 61.9973 87.817C61.8066 87.7872 61.6112 87.8134 61.435 87.8922C61.2587 87.971 61.109 88.0991 61.0039 88.2611C60.8989 88.4231 60.843 88.612 60.843 88.805C60.843 88.9981 60.8989 89.1872 61.0039 89.3492C61.109 89.5112 61.2587 89.6394 61.435 89.7181C61.6112 89.7969 61.8066 89.8229 61.9973 89.7931C62.1881 89.7633 62.3662 89.679 62.51 89.5502C62.51 89.5502 62.58 89.5502 62.62 89.5502L63.62 89.2101L64.51 88.91L66.3 88.3402C66.6534 88.2269 66.9867 88.1068 67.3 87.9801L68.09 87.6901L68.67 87.4801C68.82 87.4201 68.98 87.3802 69.13 87.3302C69.28 87.2802 69.68 87.1602 69.96 87.0802L71.26 86.7601C71.69 86.6601 72.1 86.54 72.52 86.42L73.64 86.0702L74.35 85.8602C74.4573 85.8209 74.5677 85.7907 74.68 85.7701C75.42 85.8401 76.15 85.9301 76.88 85.9901C77.61 86.0501 78.2 86.0802 78.88 86.0902H81.01C81.63 86.0902 82.26 86.09 82.88 86.16L83.82 86.2701L85.26 86.8002L90.71 88.65C91.62 88.96 92.51 89.31 93.41 89.65C93.86 89.82 94.3 90.0101 94.75 90.1901L95.41 90.4601C95.67 90.5701 95.94 90.6901 96.21 90.7801L96.43 90.9801C96.8115 91.4049 97.219 91.8056 97.65 92.18L98.25 92.68L99.61 93.8102C100.86 94.8702 102.16 95.8802 103.47 96.8702L104.31 95.8702L105.16 94.92L105.63 94.38L99.9 90.2301V90.17C99.946 90.0323 99.9422 89.8827 99.8892 89.7474C99.8362 89.6122 99.7374 89.4999 99.61 89.43H99.53C99.3351 89.3014 99.1481 89.1612 98.97 89.0101C98.21 88.3501 97.46 87.6701 96.72 87.0101C96.38 86.7001 96.04 86.3902 95.72 86.0702L94.96 85.3602L94.13 84.5602L93.77 84.1202L93.35 83.5502C92.98 83.0102 92.63 82.47 92.28 81.92C92.08 81.59 91.87 81.26 91.66 80.92C91.54 80.44 91.43 79.9201 91.34 79.4801C91.23 78.8201 91.11 78.1601 91.02 77.4801C91.02 77.4201 91.02 77.3602 91.02 77.3002C91.02 77.2402 90.96 77.0701 90.94 76.9501C90.92 76.8301 90.87 76.7002 90.84 76.5702C90.75 76.2202 90.66 75.8802 90.56 75.5702C90.39 74.9202 90.21 74.27 90.04 73.63C89.8969 73.0596 89.7835 72.4822 89.7 71.9C89.7 71.7 89.7 71.4901 89.7 71.2801C89.7 70.6701 89.83 70.0601 89.87 69.4401C89.91 68.8201 89.94 68.44 89.97 67.93C90 67.42 90.06 66.75 90.07 66.16C90.07 65.22 90.07 64.2802 90.07 63.3402C90.07 62.6702 90.07 62.0002 90.07 61.3402V60.8702C90.575 60.9351 91.0881 60.8779 91.5665 60.704C92.0449 60.53 92.4747 60.2442 92.82 59.8702C93.3204 59.3255 93.6186 58.6253 93.6649 57.8871C93.7111 57.1488 93.5025 56.417 93.074 55.8141C92.6455 55.2111 92.023 54.7735 91.3106 54.5743C90.5982 54.3752 89.8391 54.4267 89.16 54.7201L89.15 54.4801ZM59.9 52.5802C59.9 52.6402 59.9 52.6901 59.9 52.7401C59.9 52.9201 59.9 53.1102 59.9 53.2902C59.9 53.4702 59.9 53.4702 59.9 53.5602C59.89 53.2202 59.9 52.9002 59.9 52.5802ZM11.79 19.7501C11.38 19.5701 10.97 19.4101 10.55 19.2601C9.71004 18.9501 8.87004 18.6101 8.04004 18.2601L7.78003 18.13C8.25269 18.2593 8.74637 18.2934 9.23226 18.2299C9.71815 18.1663 10.1865 18.0066 10.61 17.7601L11.32 18.5502L11.98 19.2301L12.39 19.63L12.84 20.0301C12.9668 20.1479 13.1003 20.2582 13.24 20.3602L13.35 20.4401L13 20.2902H13.07L11.79 19.7501ZM35.12 46.7501C35.1226 46.6932 35.1076 46.6367 35.0773 46.5885C35.0469 46.5402 35.0025 46.5024 34.95 46.4801L34.44 46.3202L34.17 46.2501H34.07L31.94 45.17C31.34 44.86 30.75 44.55 30.16 44.17C29.57 43.79 28.89 43.47 28.24 43.17C27.84 42.96 27.42 42.7802 27 42.6002C27.1652 42.1116 27.2232 41.5932 27.17 41.0802C27.25 41.1702 27.32 41.2702 27.41 41.3602C27.9082 41.8019 28.529 42.0814 29.1899 42.1617C29.8508 42.2421 30.5205 42.1195 31.11 41.8102C31.36 42.1202 31.61 42.4401 31.87 42.7501C32.78 43.7501 33.76 44.7501 34.74 45.7501L35.47 46.4701L35.98 46.9601L36.28 47.2501L36.45 47.4L36.13 47.2701C35.72 47.0701 35.39 46.8901 35.07 46.7301L35.12 46.7501Z" fill="#DBCBB4"/>
<path d="M15.5599 11.66C15.7726 11.8418 16.0475 11.934 16.3268 11.9171C16.6061 11.9002 16.8679 11.7758 17.0571 11.5697C17.2464 11.3636 17.3482 11.092 17.3413 10.8123C17.3344 10.5326 17.2192 10.2666 17.0199 10.0702C16.9166 9.96831 16.7939 9.88818 16.659 9.8348C16.5241 9.78143 16.3799 9.75577 16.2348 9.75937C16.0898 9.76296 15.947 9.7958 15.815 9.8558C15.6829 9.9158 15.5643 10.0019 15.4661 10.1087C15.368 10.2156 15.2924 10.3409 15.2439 10.4776C15.1954 10.6143 15.1749 10.7596 15.1836 10.9044C15.1924 11.0492 15.2302 11.1905 15.2949 11.3204C15.3595 11.4503 15.4497 11.5657 15.5599 11.66Z" fill="#DBCBB4"/>
<path d="M3.48999 17.4501C3.74644 17.1706 3.91436 16.8215 3.97255 16.4466C4.03074 16.0718 3.9766 15.6882 3.81696 15.3441C3.65731 15 3.39932 14.7109 3.07554 14.5133C2.75176 14.3157 2.3767 14.2182 1.99769 14.2335C1.61868 14.2488 1.2527 14.3761 0.945932 14.5992C0.639168 14.8223 0.40537 15.1313 0.274034 15.4872C0.142698 15.843 0.119711 16.2298 0.207979 16.5987C0.296246 16.9676 0.491816 17.3023 0.769998 17.5602C1.1482 17.9001 1.64425 18.0788 2.15237 18.0582C2.66049 18.0377 3.14047 17.8194 3.48999 17.4501Z" fill="#DBCBB4"/>
</svg>
