<svg width="353" height="400" viewBox="0 0 353 400" fill="none" xmlns="http://www.w3.org/2000/svg">
<path d="M258.791 342.21C258.557 341.916 258.222 341.721 257.851 341.663C257.481 341.606 257.102 341.69 256.791 341.9L256.691 341.98L256.581 342.06C256.131 342.32 255.691 342.57 255.231 342.8C254.382 343.186 253.51 343.52 252.621 343.8C250.318 344.486 247.981 345.053 245.621 345.5L243.131 346.01C242.191 346.2 241.241 346.36 240.301 346.58L237.631 347.19C237.091 347.32 236.551 347.43 236.011 347.57C234.541 347.96 233.071 348.35 231.601 348.72L229.281 349.31L227.791 349.69C227.581 349.74 227.391 349.8 227.191 349.84L223.001 350.71C220.301 351.13 217.591 351.51 214.881 351.88C213.611 352.05 212.341 352.31 211.081 352.54C210.571 352.63 210.081 352.7 209.551 352.82L207.321 353.37L205.851 353.73L205.371 353.85L202.941 354.6C202.361 354.78 201.771 354.95 201.201 355.14L198.521 356.07C197.141 356.55 195.771 357.07 194.401 357.56L192.641 358.19C191.951 358.43 191.271 358.69 190.591 358.91L190.361 358.99L190.521 358.93L187.971 359.76L186.711 360.17H186.871L186.581 360.26H186.741C181.351 361.88 175.911 363.26 170.521 364.91C167.751 365.73 164.991 366.64 162.221 367.49C160.841 367.91 159.441 368.28 158.041 368.63C156.641 368.98 155.371 369.22 154.041 369.47H153.931L151.991 369.83H152.191L151.841 369.89H152.031L150.181 370.24H150.371H150.141C148.901 370.46 147.661 370.71 146.411 370.88C145.161 371.05 143.731 371.23 142.411 371.39C139.591 371.72 136.791 372.06 133.991 372.46C131.191 372.86 128.351 373.29 125.541 373.76C124.191 373.99 122.841 374.23 121.491 374.45C119.961 374.69 118.421 374.93 116.901 375.22C116.381 375.32 115.851 375.38 115.321 375.46L114.551 375.59L112.781 375.53H112.551C114.001 374.73 115.461 373.95 116.881 373.08C118.731 371.96 120.591 370.85 122.411 369.66C126.031 367.31 129.691 365 133.241 362.54C137.021 359.92 140.791 357.3 144.451 354.54L145.511 353.73L147.341 353.01C148.341 352.63 149.271 352.23 150.221 351.83C150.621 351.66 151.021 351.47 151.411 351.29C151.801 351.11 152.331 350.89 152.781 350.67C153.631 350.25 154.481 349.85 155.311 349.41C157.191 348.41 159.051 347.41 160.911 346.41C161.911 345.89 162.831 345.41 163.801 344.89C164.601 344.47 165.411 344.09 166.221 343.71L166.411 343.63C166.251 343.86 166.101 344.09 165.951 344.33C167.169 344.258 168.378 344.071 169.561 343.77C170.087 343.627 170.604 343.453 171.111 343.25C171.67 342.995 172.214 342.708 172.741 342.39C174.051 341.61 175.341 340.8 176.591 339.93L177.141 339.74C179.032 339.079 180.887 338.322 182.701 337.47C184.481 336.62 186.241 335.72 187.991 334.79C189.741 333.86 191.711 332.79 193.591 331.88C195.051 331.21 196.501 330.55 198.001 329.98C199.501 329.41 201.181 328.84 202.781 328.31L205.391 327.47C206.101 327.23 206.801 326.98 207.491 326.69C208.631 326.23 209.741 325.69 210.831 325.13C213.261 323.88 215.661 322.56 218.071 321.26L222.821 318.68C224.341 317.85 225.881 317.07 227.431 316.28L229.611 315.28C230.321 314.95 231.051 314.67 231.771 314.37C232.491 314.07 233.411 313.74 234.221 313.37C235.221 312.95 236.221 312.53 237.141 312.08C237.601 311.87 238.081 311.67 238.531 311.43L240.131 310.59C240.931 310.17 241.731 309.74 242.501 309.27C243.271 308.8 244.291 308.18 245.171 307.61C246.051 307.04 247.061 306.38 248.001 305.76C249.681 304.64 251.331 303.5 253.001 302.38C254.671 301.26 256.221 300.24 257.781 299.1C259.341 297.96 261.131 296.66 262.781 295.37C266.034 292.79 269.177 290.087 272.211 287.26L274.48 285.11C275.241 284.38 275.951 283.62 276.681 282.85C277.411 282.08 278.081 281.3 278.761 280.51C279.441 279.72 280.041 278.94 280.671 278.13C281.901 276.55 283.051 274.89 284.191 273.23C285.331 271.57 286.371 269.99 287.451 268.37C288.021 267.57 288.571 266.76 289.171 265.99C289.501 265.56 289.821 265.12 290.171 264.71C290.521 264.3 290.901 263.84 291.261 263.41C292.481 261.95 293.76 260.54 294.98 259.09C296.201 257.64 297.651 255.87 298.98 254.24C300.31 252.61 301.421 251.16 302.721 249.69C303.181 249.2 303.651 248.69 304.121 248.25C304.843 247.8 305.535 247.302 306.191 246.76C306.829 246.27 307.406 245.706 307.911 245.08C308.14 244.794 308.334 244.482 308.491 244.15C308.566 243.995 308.601 243.822 308.591 243.65C308.576 243.531 308.515 243.423 308.422 243.349C308.328 243.274 308.21 243.239 308.091 243.25C307.751 243.25 307.501 243.69 307.291 243.92C306.291 244.92 305.291 245.92 304.291 246.86C303.081 247.59 301.851 248.28 300.591 248.94C299.331 249.6 298.131 250.23 296.911 250.89L292.821 253.11C291.601 253.77 290.371 254.37 289.131 254.99C288.191 255.41 287.261 255.83 286.311 256.22C285.871 256.39 285.441 256.57 285.001 256.72L283.491 257.23C282.491 257.53 281.41 257.83 280.361 258.1C278.421 258.59 276.471 259.02 274.531 259.52C273.379 259.823 272.244 260.187 271.131 260.61C269.527 261.25 267.97 262.002 266.471 262.86C266.091 263.06 265.73 263.29 265.371 263.52C265.011 263.75 264.481 264.04 264.051 264.32L261.691 265.88C259.941 267.05 258.201 268.21 256.441 269.36C255.991 269.65 255.541 269.94 255.081 270.22C253.441 271.22 251.741 272.22 250.081 273.28C249.231 273.83 248.381 274.38 247.561 274.97C246.741 275.56 245.811 276.27 244.951 276.97C243.331 278.24 241.791 279.63 240.251 280.97C238.711 282.31 237.431 283.46 235.991 284.67C234.551 285.88 233.261 286.87 231.881 287.97C230.501 289.07 229.041 290.36 227.671 291.62C225.031 294.03 222.491 296.54 219.861 298.96C216.921 301.67 213.861 304.2 210.861 306.85L206.311 310.85C204.631 312.35 202.931 313.85 201.211 315.26C199.741 316.43 198.271 317.59 196.771 318.71C195.271 319.83 193.931 320.79 192.521 321.85C189.521 324.09 186.521 326.3 183.701 328.69L183.201 329.1L182.871 329.38C180.561 331.32 178.311 333.33 176.011 335.29C175.121 336.03 174.221 336.76 173.301 337.46L172.611 337.97L171.061 338.52C170.131 338.86 169.211 339.2 168.291 339.58C167.371 339.96 166.291 340.44 165.291 340.89C164.861 341.09 164.441 341.31 164.021 341.53C163.601 341.75 163.221 341.92 162.841 342.13C161.961 342.61 161.081 343.08 160.211 343.57C158.321 344.65 156.441 345.73 154.531 346.78L153.981 347.07L155.161 346.07C156.731 344.8 158.251 343.46 159.851 342.22C161.451 340.98 163.351 339.48 165.121 338.14C168.409 335.541 171.542 332.749 174.501 329.78C177.501 326.88 180.501 323.94 183.251 320.78C186.251 317.47 189.111 314.12 192.041 310.78L192.211 310.6C192.438 310.673 192.685 310.661 192.905 310.567C193.125 310.474 193.305 310.305 193.411 310.09C193.591 309.6 193.821 309.14 194.021 308.66C195.631 306.95 197.241 305.24 198.831 303.51C201.391 300.723 203.941 297.923 206.481 295.11C208.701 292.63 210.851 290.11 212.911 287.45C214.971 284.79 217.141 282.04 219.101 279.22C219.057 279.289 219.011 279.356 218.961 279.42C219.401 278.79 219.851 278.16 220.291 277.52L221.791 276C224.601 273.36 227.411 270.71 230.131 268C231.501 266.63 232.811 265.2 234.131 263.76C234.701 263.13 235.241 262.44 235.781 261.76C236.321 261.08 236.961 260.31 237.541 259.58C239.881 256.64 242.141 253.58 244.331 250.58C245.511 248.96 246.654 247.32 247.761 245.66C248.761 244.19 249.691 242.66 250.631 241.2L252.991 239.89C254.341 239.17 255.701 238.49 257.081 237.82L258.901 237.01C259.441 236.77 259.991 236.57 260.531 236.36C261.591 235.95 262.671 235.6 263.741 235.24L266.441 234.5C267.351 234.25 268.271 234.07 269.181 233.87C270.091 233.67 270.941 233.48 271.821 233.3C272.701 233.12 273.471 232.92 274.291 232.73C275.111 232.54 275.621 232.41 276.291 232.22C276.961 232.03 277.901 231.8 278.691 231.54L281.271 230.67C282.051 230.4 282.821 230.09 283.591 229.8C286.491 228.71 289.361 227.53 292.241 226.39C293.681 225.82 295.101 225.23 296.531 224.63L298.531 223.8C299.341 223.43 300.171 223.09 300.98 222.7L303.431 221.51C304.071 221.2 304.701 220.85 305.331 220.51C305.961 220.17 306.541 219.86 307.131 219.51L308.631 218.59C308.861 218.45 309.101 218.31 309.321 218.16L311.631 216.54C312.271 216.1 312.861 215.54 313.48 215.11C314.6 214.24 315.691 213.34 316.781 212.44C319.381 210.3 321.997 208.183 324.631 206.09C325.884 205.103 327.131 204.103 328.371 203.09C328.901 202.67 329.371 202.2 329.911 201.76C330.451 201.32 331.001 200.85 331.501 200.35L333.651 198.27C334.151 197.78 334.651 197.27 335.101 196.76C336.121 195.68 337.121 194.59 338.101 193.49L338.221 193.36L338.351 193.21V193.16C338.741 192.72 339.141 192.29 339.541 191.85L339.451 191.95L339.761 191.61L339.671 191.71C339.951 191.41 340.221 191.09 340.501 190.78C340.781 190.47 341.201 190.02 341.501 189.62C341.77 189.318 341.998 188.982 342.181 188.62C342.319 188.356 342.381 188.058 342.361 187.76C342.344 187.496 342.238 187.246 342.061 187.05C341.875 186.854 341.628 186.727 341.361 186.69C341.02 186.665 340.679 186.716 340.361 186.84L339.541 187.15L338.631 187.49L336.571 188.27C334.981 188.87 333.411 189.48 331.841 190.11C330.271 190.74 328.961 191.36 327.531 192.03C324.751 193.32 322.021 194.75 319.261 196.11L316.941 197.17C316.301 197.47 315.651 197.74 314.941 198.02C313.531 198.63 312.111 199.23 310.671 199.78L305.98 201.54C304.63 202.03 303.28 202.54 301.98 203.04L299.271 204.12C298.621 204.38 297.981 204.69 297.341 204.98C296.701 205.27 296.021 205.54 295.341 205.87L292.641 207.23C291.201 207.95 289.781 208.71 288.361 209.46C286.94 210.21 285.781 210.76 284.491 211.46C283.201 212.16 282.081 212.57 280.871 213.11C279.661 213.65 278.171 214.28 276.871 214.91L272.871 216.8C272.101 217.16 271.341 217.58 270.591 217.98L267.761 219.46C266.991 219.87 266.241 220.34 265.491 220.78L262.751 222.37C262.601 222.45 262.461 222.56 262.321 222.65C262.521 222.3 262.741 221.96 262.941 221.65C263.941 220 264.821 218.33 265.771 216.65C266.721 214.97 267.771 213.36 268.771 211.73C270.771 208.53 272.831 205.38 274.771 202.13C276.647 198.906 278.318 195.566 279.771 192.13C280.561 190.29 281.331 188.45 282.061 186.59C282.721 184.89 283.331 183.17 284.001 181.47C284.671 179.77 285.411 178.03 286.171 176.34L287.391 173.64C287.591 173.19 287.801 172.74 288.001 172.3C288.215 171.895 288.389 171.469 288.521 171.03C288.606 170.721 288.609 170.394 288.528 170.083C288.448 169.773 288.287 169.489 288.062 169.26C287.837 169.031 287.556 168.865 287.247 168.779C286.938 168.693 286.611 168.69 286.301 168.77C285.541 168.95 285.171 169.56 284.771 170.15C284.069 171.092 283.311 171.99 282.501 172.84C280.158 175.334 277.67 177.688 275.051 179.89C272.351 182.14 269.571 184.29 266.841 186.51C263.921 188.87 261.001 191.23 258.021 193.51C257.601 193.83 257.161 194.12 256.741 194.43C256.891 193.83 257.041 193.23 257.181 192.63C257.181 192.44 257.251 192.25 257.301 192.06C257.351 191.87 257.431 191.61 257.491 191.38C258.321 188.38 259.161 185.45 260.001 182.49C260.379 182.321 260.677 182.012 260.834 181.628C260.99 181.245 260.993 180.815 260.841 180.43C260.841 180.31 260.751 180.19 260.701 180.07C261.131 179.07 261.531 178.07 262.011 177.07C262.222 176.671 262.456 176.283 262.711 175.91C262.951 175.59 263.181 175.28 263.441 174.97L263.761 174.61C263.761 174.61 263.881 174.55 263.941 174.51C264.256 174.25 264.55 173.966 264.821 173.66L265.621 172.84C266.621 171.79 267.621 170.75 268.73 169.84L269.281 169.38L269.431 169.25C269.951 168.82 270.431 168.4 271.021 167.98C271.611 167.56 272.021 167.26 272.491 166.91L273.651 166.18C274.041 165.93 274.471 165.72 274.881 165.49C275.611 165.08 276.361 164.72 277.121 164.35L278.911 163.56C279.381 163.35 279.911 163.17 280.341 162.98C281.501 162.51 282.671 162.07 283.851 161.63C286.091 160.8 288.311 159.89 290.541 159.02C291.721 158.56 292.911 158.12 294.101 157.69C295.291 157.26 296.291 156.95 297.381 156.58L297.191 156.65C299.081 156.06 300.981 155.49 302.891 154.97C304.801 154.45 306.731 153.97 308.651 153.44C311.171 152.78 313.651 152.08 316.191 151.36C318.461 150.71 320.711 150.01 322.961 149.36C325.211 148.71 327.551 148.01 329.841 147.31C332.281 146.57 334.711 145.8 337.151 145.03C339.591 144.26 341.751 143.61 344.091 143.03C345.231 142.73 346.391 142.49 347.541 142.23L349.281 141.86C349.958 141.747 350.626 141.587 351.281 141.38C351.572 141.262 351.824 141.065 352.008 140.811C352.192 140.557 352.3 140.256 352.321 139.943C352.342 139.629 352.274 139.317 352.126 139.04C351.977 138.764 351.753 138.535 351.48 138.38C351.339 138.3 351.192 138.23 351.041 138.17L350.23 137.82L348.371 137.06C347.046 136.542 345.681 136.13 344.291 135.83C341.891 135.3 339.461 134.95 337.031 134.57C334.601 134.19 332.031 133.79 329.581 133.39C327.131 132.99 324.841 132.58 322.441 132.39C321.791 132.34 321.151 132.3 320.441 132.28C320.111 132.28 319.781 132.28 319.441 132.28H318.611C317.991 132.28 317.391 132.28 316.771 132.37C316.151 132.46 315.621 132.46 315.051 132.54L313.051 132.84C312.341 132.94 311.641 133.11 310.931 133.25C310.421 133.34 309.931 133.47 309.421 133.59C308.911 133.71 308.321 133.85 307.781 134L305.571 134.62C305.011 134.78 304.461 134.99 303.901 135.18C303.341 135.37 302.901 135.51 302.421 135.7L301.141 136.2C300.931 136.28 300.731 136.35 300.541 136.44H300.611L298.721 137.33C298.191 137.58 297.721 137.86 297.171 138.14C296.621 138.42 296.261 138.64 295.811 138.92C295.361 139.2 294.811 139.53 294.301 139.86C293.791 140.19 293.131 140.63 292.551 141.03C291.971 141.43 291.551 141.73 291.081 142.09C290.611 142.45 290.321 142.65 289.951 142.94C289.581 143.23 288.951 143.71 288.421 144.13L288.551 144.02L286.551 145.73C285.861 146.3 285.191 146.91 284.551 147.5C283.911 148.09 283.211 148.74 282.551 149.36C281.271 150.55 280 151.76 278.73 152.96C276.931 154.673 275.161 156.41 273.421 158.17C273.031 158.56 272.661 158.97 272.291 159.37C271.921 159.77 271.541 160.15 271.181 160.56L269.681 162.28C269.281 162.73 268.921 163.2 268.551 163.66C267.031 165.53 265.611 167.46 264.191 169.4L263.651 170.16C263.991 168.9 264.351 167.65 264.651 166.4C265.751 162.29 266.861 158.18 267.951 154.07C268.291 152.78 268.601 151.48 268.951 150.18C269.611 148.18 270.311 146.13 270.891 144.07L271.051 143.49C271.691 142.11 272.351 140.74 273.051 139.38C273.581 138.38 274.141 137.32 274.701 136.3C276.291 133.37 277.781 130.39 279.491 127.52C280.311 126.14 281.181 124.78 282.021 123.41C282.861 122.04 283.721 120.68 284.601 119.33C285.481 117.98 286.461 116.56 287.291 115.12C288.121 113.68 288.891 112.3 289.581 110.84C291.001 107.84 292.301 104.74 293.581 101.67C294.861 98.5999 296.171 95.28 297.341 92.03C297.901 90.4767 298.404 88.91 298.851 87.33C299.321 85.7 299.681 84.0499 300.031 82.3899C300.481 80.2199 300.811 78.0301 301.181 75.84C301.711 72.69 302.301 69.5401 302.791 66.3701C303.057 64.6101 303.331 62.8434 303.611 61.07C303.72 60.32 303.841 59.56 303.971 58.81L304.211 57.4199C304.317 56.997 304.384 56.5651 304.411 56.1298C304.405 55.9079 304.337 55.6921 304.215 55.5066C304.094 55.321 303.922 55.1733 303.721 55.08C303.539 55.0018 303.34 54.9725 303.143 54.9953C302.947 55.0181 302.76 55.0921 302.601 55.2099C302.386 55.3971 302.215 55.6292 302.101 55.8899V55.9599C301.804 56.5219 301.47 57.0632 301.101 57.58C300.481 58.46 299.821 59.2999 299.101 60.1399C296.951 62.8199 294.781 65.46 292.491 68.03C291.371 69.29 290.261 70.5501 289.181 71.8501C288.101 73.1501 287.051 74.63 286.061 76.06C284.611 78.14 283.251 80.2798 281.841 82.3798C280.341 84.6398 278.841 86.8699 277.341 89.1399C276.471 90.4699 275.671 91.8499 274.881 93.2199L273.881 95.05L274.091 94.3C274.611 92.52 275.181 90.7599 275.681 88.9799C276.681 85.5399 277.681 82.1001 278.361 78.6101C278.356 78.5803 278.356 78.5498 278.361 78.52C278.355 78.4334 278.355 78.3465 278.361 78.26L278.48 77.6699L278.541 77.3701C278.541 77.3701 278.541 77.32 278.541 77.29C278.536 77.2535 278.536 77.2164 278.541 77.1799C278.545 77.1367 278.545 77.0932 278.541 77.05L278.601 76.8C278.881 75.45 279.111 74.0799 279.331 72.7099C279.931 69.0699 280.441 65.4099 280.901 61.7099C281.111 59.9999 281.301 58.2901 281.571 56.6001C281.861 54.7601 282.171 52.92 282.451 51.08C282.591 50.19 282.731 49.2899 282.841 48.3999C282.951 47.5099 283.101 46.52 283.181 45.58L283.451 42.58C283.541 41.58 283.541 40.52 283.581 39.49C283.621 38.46 283.581 37.6099 283.581 36.6799C283.581 35.7499 283.461 34.8399 283.391 33.9299C283.231 32.135 282.981 30.3496 282.641 28.58C281.981 24.9 281.161 21.24 280.301 17.58C279.841 15.66 279.361 13.75 278.881 11.83C278.651 10.92 278.401 10.0101 278.161 9.10006C277.921 8.19006 277.781 7.45986 277.591 6.63986C277.491 5.97986 277.381 5.32986 277.281 4.63986C277.181 3.94986 277.171 3.64003 277.131 3.07003C277.176 2.49679 277.025 1.92503 276.701 1.44991C276.573 1.28401 276.407 1.15146 276.217 1.06344C276.027 0.975418 275.819 0.93448 275.61 0.944299C275.4 0.954117 275.197 1.0144 275.016 1.11984C274.835 1.22527 274.682 1.37288 274.571 1.55001C274.041 2.34001 273.571 3.17995 273.081 3.98995C272.591 4.79995 272.081 5.49996 271.661 6.24996C270.661 7.83996 269.661 9.41997 268.661 11.01C268.201 11.74 267.781 12.4699 267.351 13.2199C266.921 13.9699 266.491 14.6799 266.121 15.4399C265.851 16.0099 265.571 16.5699 265.291 17.1399C265.161 17.4199 265.011 17.6999 264.891 17.9799C264.481 18.9299 264.081 19.88 263.681 20.83C263.281 21.78 263.001 22.61 262.681 23.5C261.935 25.2916 261.304 27.1286 260.791 29C260.162 31.4447 259.889 33.9673 259.981 36.49C259.981 37.49 260.051 38.4899 260.131 39.4099C260.271 41.4099 260.461 43.35 260.671 45.32C260.761 46.09 260.871 46.8501 260.991 47.6201C261.141 48.6201 261.251 49.5399 261.461 50.4799C261.711 51.5799 261.951 52.68 262.191 53.78C262.391 54.64 262.641 55.4901 262.871 56.34C263.311 57.9901 263.79 59.63 264.23 61.28C264.72 63.16 265.231 65.0299 265.661 66.9299C266.091 68.8299 266.47 70.64 266.861 72.5C267.01 73.32 267.181 74.1299 267.291 74.9499C267.401 75.7699 267.531 76.66 267.641 77.52C267.881 79.45 268.141 81.38 268.441 83.3C268.711 85.03 268.971 86.75 269.121 88.49C269.291 90.39 269.421 92.2799 269.531 94.1699V94.1101L269.651 96.03C269.531 96.42 269.421 96.8099 269.331 97.1999C269.118 98.1486 269.084 99.1289 269.23 100.09C269.337 100.704 269.547 101.296 269.851 101.84L269.641 102.22C268.851 103.76 268.141 105.34 267.461 106.93C266.124 109.929 265.057 113.042 264.271 116.23C264.061 117.16 263.861 118.09 263.691 119.03C263.521 119.97 263.411 120.81 263.301 121.71C263.091 123.44 263.031 125.18 262.961 126.91C262.859 130.298 263.032 133.69 263.48 137.05C263.91 140.35 264.311 143.65 264.541 146.97C264.541 147.36 264.541 147.76 264.541 148.16C264.541 148.56 264.541 148.96 264.541 149.36C264.541 149.5 264.541 149.63 264.541 149.77C264.405 150.034 264.367 150.336 264.433 150.625C264.499 150.914 264.664 151.171 264.901 151.35L264.751 151.86C264.171 153.75 263.621 155.63 263.101 157.53C262.581 159.43 262.101 161.46 261.551 163.41C261.001 165.36 260.401 167.32 259.921 169.31C259.681 170.31 259.471 171.26 259.231 172.24C259.111 172.77 258.981 173.3 258.851 173.82C258.851 172.88 258.771 171.93 258.711 170.99C258.551 168.46 258.371 165.99 258.011 163.44C257.831 162.23 257.641 161.03 257.401 159.84C257.161 158.65 256.911 157.37 256.611 156.15C256.001 153.65 255.381 151.15 254.611 148.68C254.521 148.39 254.421 148.09 254.321 147.79C254.34 147.836 254.357 147.882 254.371 147.93L254.101 147.1C254.101 147.1 254.101 147.15 254.101 147.17V147.07C254.101 147.07 254.101 147.07 254.101 147.01V146.93C253.681 145.63 253.231 144.33 252.751 143.06C252.271 141.79 251.751 140.45 251.231 139.16C251.001 138.59 250.711 138.03 250.451 137.48C249.87 136.21 249.17 134.998 248.361 133.86C247.991 133.33 247.571 132.81 247.171 132.29C246.941 131.99 246.671 131.71 246.431 131.43C246.191 131.15 246.081 131.01 245.891 130.82C245.031 129.91 244.161 129.01 243.231 128.16L242.801 127.76L242.981 127.92L242.711 127.68C241.601 126.68 240.461 125.68 239.291 124.75C238.401 124.02 237.471 123.3 236.521 122.63C235.571 121.96 234.351 121.1 233.221 120.4C231.083 119.086 228.854 117.926 226.551 116.93C224.271 115.93 221.921 115.07 219.551 114.2L216.161 112.95C214.991 112.52 213.821 112.13 212.651 111.72L211.651 111.34C211.095 111.027 210.449 110.914 209.821 111.02C209.499 111.112 209.21 111.293 208.986 111.543C208.763 111.792 208.616 112.1 208.561 112.43C208.519 113.182 208.707 113.928 209.101 114.57C209.281 114.98 209.471 115.38 209.671 115.78C209.971 116.4 210.271 117.02 210.561 117.65V117.73C211.611 119.98 212.631 122.25 213.701 124.49C214.481 126.18 215.251 127.89 216.131 129.49C216.491 130.16 216.851 130.82 217.201 131.49C217.551 132.16 217.881 132.63 218.201 133.19C218.841 134.26 219.521 135.3 220.201 136.32C220.881 137.34 221.601 138.32 222.341 139.32C223.081 140.32 224.041 141.47 224.901 142.54C225.761 143.61 226.581 144.54 227.441 145.54C228.301 146.54 229.071 147.36 229.891 148.26C231.531 150.07 233.131 151.91 234.731 153.76C235.661 154.88 236.561 156.01 237.461 157.16C239.021 159.16 240.551 161.16 242.181 163.03C243.811 164.9 245.471 166.78 247.091 168.67C247.651 169.36 248.191 170.05 248.731 170.75C249.271 171.45 249.801 172.16 250.351 172.86C250.901 173.56 251.481 174.28 252.021 175.01C252.561 175.74 253.071 176.48 253.551 177.23C254.031 177.98 254.451 178.76 254.851 179.56C255.051 180.01 255.241 180.45 255.401 180.91C255.591 181.54 255.731 182.17 255.901 182.8C255.961 183.02 256.011 183.23 256.071 183.44C256.042 183.513 256.039 183.593 256.062 183.668C256.086 183.743 256.135 183.807 256.201 183.85C255.761 185.35 255.331 186.85 254.891 188.36C253.961 191.57 252.991 194.77 252.031 197.97C251.031 198.64 250.031 199.32 249.091 200.04C247.511 201.22 245.941 202.42 244.461 203.73C242.981 205.04 241.651 206.26 240.301 207.58L236.191 211.68L235.861 211.99C235.751 211.2 235.601 210.41 235.521 209.61C235.331 207.71 235.171 205.82 234.961 203.92C234.751 202.02 234.511 200.19 234.311 198.32C234.211 197.37 234.121 196.42 234.031 195.48C233.941 194.54 233.881 193.6 233.741 192.67C233.614 191.723 233.417 190.787 233.151 189.87C232.881 188.98 232.581 188.1 232.291 187.22C232.291 187.22 232.291 187.17 232.291 187.14C231.711 185.3 231.221 183.43 230.671 181.58C230.12 179.767 229.424 178.001 228.591 176.3C227.751 174.55 226.881 172.81 225.911 171.13C224.941 169.45 223.911 167.92 222.851 166.39C221.791 164.86 220.771 163.39 219.621 162.02C219.031 161.31 218.411 160.62 217.771 159.95C217.174 159.29 216.536 158.669 215.861 158.09C215.218 157.557 214.513 157.103 213.761 156.74C213.431 156.57 213.081 156.43 212.761 156.29C212.147 156.02 211.46 155.964 210.811 156.13C210.481 156.2 210.175 156.356 209.926 156.582C209.676 156.809 209.491 157.098 209.391 157.42C209.32 157.746 209.319 158.084 209.39 158.41C209.461 158.736 209.601 159.043 209.801 159.31C209.943 159.465 210.1 159.606 210.271 159.73C210.289 159.802 210.324 159.868 210.372 159.924C210.421 159.979 210.482 160.022 210.551 160.05L210.631 160.12C210.791 160.221 210.962 160.305 211.141 160.37L211.331 160.45L212.011 160.76L212.251 160.91C212.251 161.11 212.201 161.3 212.181 161.49C212.068 162.496 212.15 163.514 212.421 164.49C212.691 165.37 212.931 166.26 213.191 167.15C213.521 168.24 213.851 169.33 214.191 170.42C214.501 171.32 214.811 172.23 215.111 173.14C215.261 173.58 215.401 174.03 215.541 174.47C215.751 175.15 215.971 175.83 216.151 176.47C216.331 177.11 216.571 178.09 216.761 178.9C217.111 180.37 217.431 181.84 217.761 183.3C218.091 184.76 218.481 186.16 218.901 187.57C219.101 188.26 219.311 188.94 219.491 189.63C219.671 190.32 219.841 191.09 219.991 191.83C220.061 192.28 220.151 192.74 220.191 193.2C220.231 193.66 220.281 194.2 220.321 194.62C220.371 195.91 220.421 197.19 220.411 198.48L220.351 202.48C220.351 204.03 220.291 205.59 220.351 207.14C220.411 208.69 220.421 210.45 220.491 212.14C220.561 213.83 220.611 215.14 220.601 216.69C220.591 218.24 220.521 219.69 220.421 221.12C220.321 222.16 220.211 223.2 220.091 224.24C219.961 225.32 219.811 226.39 219.671 227.46C219.531 228.53 219.341 229.83 219.181 231.02L217.751 233.02C215.521 236.19 213.341 239.41 211.331 242.72C209.304 245.996 207.513 249.411 205.971 252.94C204.511 256.35 203.241 259.85 201.971 263.35L201.701 264.11C201.701 264.02 201.771 263.92 201.801 263.83L201.681 264.18L201.611 264.38C201.615 264.4 201.615 264.42 201.611 264.44C201.541 264.63 201.471 264.82 201.411 265.01V264.9C200.241 268.2 199.141 271.54 198.281 274.9C197.331 278.63 196.471 282.39 195.601 286.14C195.191 287.88 194.831 289.63 194.411 291.37C194.181 292.31 193.971 293.26 193.691 294.18C193.411 295.1 193.151 295.92 192.851 296.78C191.851 299.27 190.851 301.78 189.771 304.17C189.271 305.32 188.771 306.47 188.251 307.62C187.981 308.21 187.721 308.81 187.451 309.41C187.301 309.76 187.151 310.11 186.991 310.46C186.281 311.26 185.551 312.04 184.841 312.84C183.147 314.74 181.444 316.63 179.731 318.51C175.131 323.297 170.341 327.887 165.361 332.28C163.841 333.52 162.281 334.69 160.701 335.86C157.411 338.31 154.281 340.98 151.091 343.56C149.411 344.92 147.741 346.29 146.011 347.61C144.281 348.93 142.641 350.19 140.931 351.46C139.221 352.73 137.371 354.16 135.541 355.46C134.011 356.53 132.541 357.61 130.951 358.66L130.561 358.9C128.191 360.32 125.881 361.82 123.561 363.33C123.62 363.143 123.641 362.945 123.621 362.75C123.931 362.33 124.251 361.91 124.541 361.48C125.321 360.35 126.081 359.2 126.841 358.05L129.601 355.36C130.934 354.073 132.291 352.823 133.671 351.61C135.181 350.29 136.671 349.01 138.181 347.61C141.181 344.85 143.831 341.85 146.581 338.88C148.021 337.33 149.451 335.76 150.901 334.22C152.161 332.87 153.461 331.57 154.721 330.22C156.151 328.69 157.561 327.15 158.911 325.53C160.261 323.91 161.491 322.34 162.711 320.68C165.077 317.44 167.377 314.153 169.611 310.82C170.781 309.06 171.951 307.31 173.091 305.53C174.231 303.75 175.291 302.01 176.371 300.23C177.451 298.45 178.371 296.91 179.371 295.23C180.371 293.55 181.371 291.85 182.371 290.15C183.371 288.45 184.261 286.8 185.141 285.09C186.021 283.38 187.071 281.38 187.951 279.48C188.751 277.733 189.534 275.977 190.301 274.21C191.111 272.37 191.941 270.53 192.721 268.68C194.341 264.91 195.591 260.99 196.951 257.12C197.581 255.32 198.211 253.52 198.741 251.69C199.271 249.86 199.741 247.89 200.331 245.99C201.421 242.2 202.631 238.43 203.841 234.68C204.421 232.85 205.061 231.04 205.601 229.21C206.111 227.602 206.498 225.957 206.761 224.29C206.797 224.018 206.753 223.742 206.634 223.495C206.515 223.248 206.326 223.041 206.091 222.901C205.856 222.76 205.584 222.692 205.31 222.704C205.037 222.717 204.772 222.809 204.551 222.97C204.243 223.24 204.009 223.584 203.871 223.97C203.751 224.22 203.631 224.46 203.501 224.71C203.151 225.37 202.811 226.05 202.421 226.71L200.781 229.37C200.381 230.03 199.911 230.65 199.471 231.29L197.951 233.51C197.831 233.67 197.691 233.83 197.571 234L196.461 235.42C195.881 236.18 195.281 236.93 194.701 237.69C194.561 237.88 194.381 238.06 194.221 238.24L193.001 239.59L191.271 241.51L187.701 245.14C186.441 246.44 185.141 247.7 183.901 249.01C182.521 250.48 181.131 251.95 179.771 253.44C178.261 255.09 176.771 256.74 175.261 258.44C173.751 260.14 172.421 261.67 171.011 263.29C170.511 263.88 170.011 264.49 169.541 265.09C168.891 265.9 168.201 266.69 167.541 267.53C166.311 269.16 165.081 270.77 163.901 272.44C163.271 273.33 162.621 274.21 162.011 275.12L160.071 278.03C159.621 278.7 159.201 279.38 158.771 280.03C158.251 280.87 157.691 281.7 157.201 282.56L155.401 285.77C154.951 286.57 154.561 287.39 154.141 288.21C153.221 290.03 152.334 291.87 151.481 293.73C150.621 295.6 149.791 297.49 148.961 299.38C148.211 301.09 147.471 302.79 146.791 304.52C145.991 306.573 145.211 308.627 144.451 310.68C143.751 312.57 143.071 314.47 142.391 316.36C141.031 320.13 139.541 323.84 138.031 327.55C136.521 331.26 135.031 334.74 133.501 338.31C131.971 341.88 130.401 345.46 128.681 348.96C128.151 349.96 127.611 350.96 127.041 351.96C126.471 352.96 125.891 353.81 125.281 354.71C124.981 355.18 124.661 355.64 124.351 356.1C123.541 356.92 122.731 357.75 121.911 358.56C120.541 359.91 119.141 361.2 117.681 362.46C116.011 363.84 114.311 365.19 112.601 366.52L110.131 368.11C109.851 368.28 109.591 368.47 109.311 368.65L107.811 369.65C107.091 370.13 106.361 370.65 105.651 371.1L103.081 372.87C101.925 373.634 100.813 374.462 99.7506 375.35C99.0306 375.56 98.3105 375.75 97.5905 375.98L93.2205 377.33C92.4105 377.33 91.6006 377.33 90.8006 377.33C89.7051 377.371 88.6132 377.478 87.5305 377.65C86.3908 377.854 85.2626 378.118 84.1505 378.44C83.0005 378.76 81.8805 379.19 80.7705 379.61L77.6806 380.8C76.6806 381.17 75.7706 381.48 74.8206 381.8C69.8206 382.62 64.9006 383.44 59.9206 384.08C58.5206 384.26 57.1105 384.4 55.7005 384.55C56.4605 383.96 57.2205 383.39 57.9505 382.76L59.2005 382.17H59.1505L59.4806 382.01L59.3106 382.09C60.1306 381.7 60.9205 381.24 61.7205 380.81C62.3305 380.48 62.9205 380.15 63.5205 379.81C64.3505 379.3 65.2005 378.81 66.0205 378.29C66.8405 377.77 67.7706 377.19 68.6106 376.6L71.2205 374.79C71.9605 374.28 72.6705 373.74 73.3905 373.21C74.9605 372.06 76.4905 370.86 78.0205 369.67C78.6905 369.15 79.3405 368.6 80.0205 368.07C80.7005 367.54 81.5206 366.86 82.2506 366.24L82.1605 366.31L85.6605 363.37L86.1206 362.99L86.3305 362.81L86.1505 362.97C88.8205 360.74 91.5005 358.53 94.1505 356.28C94.7705 355.77 95.3706 355.22 95.9806 354.68L98.1706 352.76C98.7206 352.27 99.2505 351.76 99.7805 351.21L101.921 349.15C102.471 348.62 102.991 348.06 103.521 347.51C104.051 346.96 104.791 346.19 105.431 345.51C106.071 344.83 106.591 344.26 107.171 343.63C107.751 343 108.221 342.52 108.731 341.95C109.861 340.73 110.981 339.49 112.101 338.26L112.161 338.2C114.661 335.36 117.161 332.53 119.491 329.53C120.111 328.73 120.771 327.94 121.361 327.11L123.361 324.39C124.361 322.96 125.361 321.49 126.361 320.04V319.98L126.581 319.67L127.281 318.67L127.151 318.87C127.581 318.25 128.011 317.62 128.451 317L128.311 317.2L129.031 316.2L129.171 316.01L129.261 315.88L132.201 311.7C133.741 309.513 135.257 307.31 136.751 305.09C137.441 304.09 138.071 303.01 138.751 301.95C139.061 301.44 139.401 300.95 139.681 300.42C139.961 299.89 140.171 299.48 140.421 299.01L141.881 296.25C142.371 295.32 142.791 294.35 143.251 293.41C144.001 291.83 144.741 290.24 145.481 288.66C147.101 285.24 148.711 281.81 150.361 278.4C150.526 278.129 150.645 277.831 150.711 277.52C150.736 277.324 150.736 277.126 150.711 276.93C150.692 276.782 150.643 276.64 150.566 276.512C150.488 276.385 150.384 276.276 150.262 276.191C150.139 276.107 149.999 276.05 149.852 276.024C149.706 275.998 149.555 276.003 149.411 276.04C148.896 276.164 148.404 276.366 147.951 276.64C147.461 276.94 146.951 277.25 146.521 277.58L145.451 278.36C144.744 278.867 144.044 279.387 143.351 279.92C141.681 281.2 140.021 282.5 138.351 283.8C135.437 286.1 132.494 288.363 129.521 290.59C128.101 291.66 126.671 292.72 125.271 293.83C123.871 294.94 122.271 296.16 120.841 297.36C117.731 299.93 114.651 302.54 111.631 305.23C110.161 306.53 108.731 307.87 107.291 309.23C105.851 310.59 104.481 311.95 103.091 313.33C101.701 314.71 100.541 315.95 99.2705 317.27C98.5605 318.02 97.8806 318.81 97.1806 319.57C96.6606 320.15 96.1805 320.74 95.6405 321.34C95.1005 321.94 94.4305 322.71 93.9005 323.44C93.2005 324.44 92.5006 325.35 91.8106 326.31C91.3006 327 90.8106 327.74 90.3806 328.46C89.9506 329.18 89.4406 329.88 88.9906 330.61C86.9906 333.89 85.0605 337.24 83.0805 340.55C81.1005 343.86 79.2706 346.96 77.3106 350.13C75.3506 353.3 73.2006 356.68 71.0606 359.91L69.6005 362.01C68.0505 364.14 66.4706 366.25 64.8806 368.34C64.0906 369.34 63.3105 370.4 62.5205 371.42C61.7305 372.44 60.8506 373.48 59.9906 374.49C59.3006 375.23 58.6205 375.97 57.8905 376.67C57.5205 377.03 57.1605 377.39 56.7705 377.67L55.4605 378.79C54.8305 379.29 54.2006 379.79 53.5506 380.28C52.9006 380.77 52.0006 381.41 51.2406 382C50.3006 382.73 49.3905 383.5 48.5105 384.3C48.1405 384.48 47.7906 384.65 47.4406 384.84C46.7506 384.74 46.0506 384.67 45.3606 384.62C43.5562 384.495 41.7434 384.585 39.9605 384.89C38.3005 385.18 36.6705 385.61 35.0205 385.96C34.5505 386.05 34.0205 386.1 33.6005 386.17H33.1206C30.1706 386.17 27.2205 386.1 24.2705 385.93C22.4505 385.79 20.6306 385.65 18.8006 385.56C16.9706 385.47 15.2706 385.45 13.5006 385.41C10.9166 385.213 8.32057 385.237 5.74056 385.48C4.73256 385.596 3.77177 385.972 2.95168 386.569C2.1316 387.167 1.48013 387.966 1.06057 388.89C0.677051 389.791 0.534369 390.777 0.646569 391.75C0.758769 392.723 1.12195 393.65 1.70052 394.44C2.13663 395.018 2.66345 395.521 3.26052 395.93C3.95768 396.46 4.71246 396.909 5.51052 397.27C5.80166 397.391 6.09871 397.498 6.40054 397.59C7.70078 397.954 9.0605 398.056 10.4005 397.89C11.314 398.67 12.4311 399.173 13.6206 399.34L14.3405 399.4C15.2305 399.52 16.1205 399.6 17.0205 399.65C17.5305 399.65 18.0206 399.65 18.5506 399.65C19.8506 399.65 21.1505 399.65 22.4505 399.54C24.7705 399.39 27.0605 399.16 29.3505 398.81L31.1505 398.52C31.5805 398.44 32.0205 398.37 32.4505 398.28L33.6106 398.06L32.8606 398.2C34.9906 397.8 37.1105 397.38 39.2105 396.83C40.3073 396.566 41.3862 396.232 42.4406 395.83C43.5349 395.394 44.5918 394.869 45.6005 394.26C46.9718 393.423 48.2758 392.48 49.5006 391.44H49.5805C51.8105 391.14 54.0505 390.84 56.2805 390.52C60.4305 389.92 64.5206 388.96 68.6306 388.14C72.9906 387.27 77.3406 386.44 81.6906 385.53C83.8606 385.07 86.0005 384.44 88.1405 383.85C89.0405 383.61 89.9206 383.29 90.8006 383L93.9306 382L99.0006 380.35C100.581 379.84 102.181 379.41 103.781 378.93C104.781 378.62 105.871 378.3 106.901 377.93C107.221 377.83 107.521 377.69 107.831 377.58C108.531 377.73 109.231 377.89 109.931 378.03C110.631 378.17 111.401 378.3 112.141 378.42C112.881 378.54 113.581 378.59 114.301 378.65C115.766 378.76 117.239 378.74 118.701 378.59C119.391 378.52 120.071 378.45 120.751 378.32L122.251 378.05L123.511 378.23C124.891 378.44 126.281 378.66 127.671 378.83L130.671 379.2C131.301 379.28 131.931 379.39 132.551 379.43H132.381L137.541 379.86C138.041 379.86 138.541 379.92 139.041 379.94L142.191 380.12L145.921 380.29C147.301 380.29 148.681 380.42 150.061 380.45L155.621 380.54C156.931 380.54 158.251 380.46 159.571 380.41C160.891 380.36 162.101 380.34 163.361 380.22L169.071 379.65C170.251 379.53 171.421 379.33 172.591 379.16L175.681 378.71L176.961 378.53L182.071 377.63C184.861 377.14 187.641 376.63 190.421 376.06H190.611L201.811 374.06C203.141 373.82 204.461 373.51 205.811 373.21L208.381 372.63C208.771 372.54 209.151 372.43 209.531 372.32L212.531 371.47C213.091 371.31 213.661 371.17 214.221 371L219.011 369.53C221.811 368.67 224.614 367.823 227.421 366.99C230.556 366.112 233.606 364.951 236.531 363.52C238.348 362.59 240.084 361.51 241.721 360.29C243.194 359.196 244.593 358.007 245.911 356.73C248.051 354.63 250.141 352.48 252.271 350.38C253.341 349.32 254.431 348.27 255.511 347.22L256.831 345.95C257.411 345.4 257.991 344.83 258.591 344.3L258.681 344.23C258.95 343.969 259.111 343.616 259.131 343.241C259.151 342.867 259.03 342.499 258.791 342.21ZM206.311 316C207.761 314.67 209.211 313.31 210.651 312L210.941 311.73C212.421 310.35 213.941 308.95 215.461 307.57L216.661 306.48C217.661 305.6 218.661 304.69 219.661 303.77C221.751 301.77 223.831 299.77 225.851 297.77C226.851 296.83 227.771 295.89 228.741 294.96C229.481 294.24 230.221 293.54 230.971 292.83L231.971 291.89L232.911 291.06L234.601 289.61C235.601 288.77 236.601 287.93 237.601 287.08C238.961 285.89 240.331 284.65 241.601 283.45C243.171 282.02 244.801 280.54 246.441 279.14L246.841 278.81C247.141 278.56 247.451 278.31 247.761 278.08L248.541 277.49L249.151 277.04C249.941 276.44 250.791 275.88 251.611 275.34L252.011 275.08L252.321 274.88C252.881 274.52 253.441 274.16 254.011 273.81C255.611 272.81 257.261 271.81 258.871 270.7L262.431 268.28C263.431 267.59 264.431 266.9 265.431 266.23L266.111 265.79L266.461 265.57L266.751 265.38L267.391 264.99L267.651 264.85C268.651 264.28 269.711 263.69 270.791 263.17C271.361 262.91 271.931 262.68 272.531 262.46L274.441 261.78C275.581 261.45 276.731 261.14 277.881 260.78L278.561 260.59L281.561 259.76C282.561 259.46 283.691 259.11 284.771 258.7C285.911 258.289 287.029 257.819 288.121 257.29L288.971 256.88L289.821 256.46C290.101 256.33 290.371 256.17 290.641 256.02L291.011 255.82C291.911 255.33 292.661 254.9 293.421 254.45L295.811 253.02L298.811 251.21L300.361 250.3L301.011 249.91C301.011 249.97 300.921 250.03 300.871 250.08C300.711 250.28 300.541 250.47 300.381 250.66L299.291 251.96C298.581 252.8 297.881 253.64 297.161 254.48C296.161 255.61 295.161 256.8 293.771 258.33L293.351 258.78L292.521 259.68L290.581 261.76C290.011 262.36 289.35 263.07 288.73 263.76C288.111 264.45 287.371 265.37 286.631 266.31C286.051 267.06 285.481 267.82 284.911 268.58L284.691 268.88C284.271 269.43 283.871 269.99 283.461 270.55C282.751 271.55 282.021 272.55 281.261 273.49L280.711 274.18L280.171 274.86L279.901 275.21L279.601 275.59C279.501 275.71 279.411 275.84 279.301 275.96L278.211 277.24L277.371 278.24L276.911 278.73L276.451 279.22C276.331 279.34 276.211 279.47 276.101 279.6C275.991 279.73 275.661 280.07 275.431 280.29L274.371 281.29L274.061 281.6C273.851 281.81 273.641 282.02 273.421 282.22L272.831 282.73C271.661 283.73 270.481 284.81 269.301 285.83L268.48 286.51C267.701 287.17 266.911 287.81 266.121 288.45C264.921 289.45 263.701 290.39 262.451 291.36C260.841 292.62 259.151 293.83 257.511 295C256.511 295.73 255.411 296.47 254.141 297.31L252.801 298.19L251.631 298.96C250.321 299.81 249.021 300.66 247.731 301.54C246.071 302.65 244.311 303.83 242.531 304.98L241.961 305.35C241.571 305.59 241.181 305.84 240.781 306.07L240.141 306.44C239.691 306.71 239.241 306.97 238.781 307.22L238.431 307.41L238.091 307.59C237.651 307.83 237.221 308.07 236.771 308.29L234.881 309.19L234.361 309.42L232.831 310.1L231.441 310.68L231.001 310.86L230.291 311.15L228.791 311.82C228.291 312.04 227.791 312.25 227.291 312.49C225.571 313.29 223.821 314.16 222.101 315.08L216.591 318.03L214.751 319.03C212.481 320.26 210.131 321.53 207.751 322.66C207.084 322.967 206.384 323.267 205.651 323.56C204.921 323.84 204.141 324.12 203.301 324.4L202.561 324.64L202.101 324.79C200.231 325.39 198.301 326.08 196.361 326.79L196.191 326.87L197.831 325.79L202.431 322.87H202.361C203.091 322.42 203.851 322.02 204.591 321.59L207.151 320.11C208.761 319.19 210.391 318.28 212.011 317.37C213.371 316.6 214.691 315.75 216.011 314.94C216.551 314.61 217.101 314.31 217.621 313.94L219.541 312.66C220.761 311.86 221.991 311.07 223.191 310.23C224.661 309.23 226.111 308.16 227.601 307.16C228.131 306.8 228.601 306.4 229.151 306.03L231.821 304.08C232.981 303.233 234.134 302.377 235.281 301.51C236.401 300.67 237.531 299.85 238.661 299.03C239.791 298.21 241.121 297.21 242.381 296.34C245.281 294.34 248.177 292.34 251.071 290.34C252.191 289.56 253.281 288.74 254.381 287.92C255.481 287.1 256.631 286.27 257.731 285.41L266.121 278.82C268.821 276.72 271.561 274.67 274.311 272.62L272.191 273.93C269.471 275.6 266.741 277.26 264.021 278.93C261.301 280.6 258.571 282.34 255.871 284.08L255.991 284C253.521 285.48 251.091 287 248.621 288.5C247.381 289.25 246.121 289.98 244.891 290.75L240.401 293.59L240.221 293.7H240.311L240.161 293.79C239.401 294.28 238.681 294.79 237.941 295.33C237.031 295.96 236.131 296.61 235.221 297.25C234.611 297.69 234.011 298.16 233.411 298.62L230.641 300.72C228.301 302.48 225.971 304.24 223.641 305.96C222.481 306.8 221.321 307.66 220.131 308.47C218.701 309.47 217.241 310.47 215.811 311.47C214.531 312.26 213.251 313.07 211.961 313.88C209.541 315.39 207.031 316.78 204.551 318.2L202.021 319.67C203.511 318.53 204.961 317.23 206.311 316ZM258.641 229.26C259.091 228.93 259.561 228.59 260.031 228.26L262.281 226.82L264.541 225.37C265.391 224.84 266.281 224.37 267.141 223.84L268.421 223.1C269.421 222.52 270.421 221.99 271.331 221.5L272.331 220.97C273.091 220.56 273.881 220.13 274.681 219.75L275.531 219.35L278.531 217.91L279.441 217.5L279.751 217.36L284.421 215.24L284.971 214.99C285.421 214.79 285.881 214.58 286.331 214.36L289.071 212.97C290.151 212.43 291.221 211.86 292.291 211.29L293.361 210.73C294.211 210.28 295.081 209.85 295.951 209.41L297.161 208.8L298.041 208.4L298.811 208.05C299.341 207.8 299.891 207.55 300.441 207.33L301.661 206.83L302.881 206.34C303.881 205.94 304.881 205.56 305.881 205.18L306.73 204.86C309.73 203.71 312.731 202.58 315.591 201.27L316.361 200.93C316.901 200.69 317.431 200.46 317.951 200.2L320.48 198.94C321.48 198.42 322.571 197.85 323.581 197.3L324.331 196.89L325.331 196.32C326.331 195.8 327.331 195.25 328.331 194.74C329.091 194.35 329.821 193.98 330.541 193.63L332.631 192.63L334.181 191.94L336.761 190.78L337.98 190.23L338.491 190C338.466 190.029 338.44 190.056 338.411 190.08V190.15L338.271 190.3L337.531 191.11C336.531 192.23 335.411 193.4 334.321 194.51L333.651 195.2C333.161 195.71 332.651 196.2 332.131 196.73L331.391 197.43L330.651 198.13L330.421 198.34C330.234 198.533 330.044 198.713 329.851 198.88L329.761 198.95L329.291 199.34C328.577 199.947 327.867 200.547 327.161 201.14C325.771 202.22 324.371 203.28 322.971 204.34C320.451 206.25 317.911 208.22 315.461 210.13L315.091 210.41C313.951 211.29 312.781 212.21 311.601 213.07L311.081 213.45C310.671 213.76 310.231 214.08 309.801 214.37L308.571 215.18L307.661 215.78L306.781 216.29L306.241 216.6L305.861 216.83C305.591 216.99 305.321 217.16 305.041 217.3L304.471 217.6C303.761 217.97 303.031 218.35 302.301 218.71L301.671 219C300.791 219.42 299.881 219.85 298.961 220.24C297.421 220.9 296.161 221.43 294.961 221.91C292.631 222.85 290.241 223.77 287.961 224.66L286.111 225.38L285.111 225.77C284.111 226.16 283.111 226.55 282.111 226.92L281.511 227.15C280.981 227.35 280.461 227.54 279.931 227.72L277.621 228.48L276.081 228.92L274.98 229.22C274.44 229.38 273.881 229.5 273.341 229.62L272.691 229.77C271.961 229.95 271.231 230.1 270.511 230.26L268.331 230.75L267.511 230.94L266.681 231.14L266.331 231.22C266.122 231.256 265.915 231.303 265.711 231.36L263.161 232.08C262.611 232.24 262.051 232.43 261.511 232.62L260.871 232.85C260.271 233.05 259.671 233.29 259.091 233.52L260.911 232.43C261.671 231.98 262.451 231.55 263.241 231.14C263.621 230.94 264.001 230.74 264.391 230.55L265.771 229.89C267.061 229.31 268.371 228.75 269.691 228.23L273.951 226.55C275.821 225.81 277.681 225.06 279.521 224.27C281.361 223.48 282.991 222.73 284.711 221.92L284.561 221.99L285.181 221.7L287.181 220.78L287.041 220.85C287.801 220.49 288.551 220.13 289.311 219.79L291.911 218.66C292.721 218.31 293.551 218.01 294.371 217.66L295.371 217.31C295.761 217.17 296.141 217.03 296.541 216.9L298.491 216.27H298.411H298.581H298.651C300.231 215.77 301.821 215.27 303.381 214.71C305.191 214.05 306.981 213.39 308.781 212.71C306.054 213.377 303.311 213.983 300.551 214.53H300.441L300.041 214.6L299.221 214.75H299.301L299.041 214.8H298.98L298.48 214.89H298.561H298.361C296.6 215.22 294.831 215.59 293.101 216.07C292.631 216.21 292.101 216.33 291.671 216.48L290.091 217.01C289.341 217.27 288.591 217.54 287.851 217.84C286.024 218.593 284.207 219.377 282.401 220.19C280.591 221.02 278.79 221.87 276.98 222.71C275.38 223.45 273.771 224.16 272.161 224.88C270.351 225.68 268.561 226.49 266.791 227.36C266.291 227.59 265.791 227.85 265.321 228.11C264.851 228.37 264.531 228.53 264.141 228.76C263.751 228.99 263.411 229.17 263.051 229.39C262.691 229.61 262.131 229.92 261.701 230.22C260.851 230.79 260.001 231.35 259.161 231.94C258.321 232.53 257.691 232.94 256.951 233.51C256.211 234.08 255.481 234.51 254.721 235.05L254.521 235.16C255.311 233.95 256.091 232.72 256.881 231.51L258.031 229.72L258.641 229.26ZM228.291 219.26C228.421 218.73 228.551 218.2 228.651 217.67C228.807 216.693 228.904 215.708 228.941 214.72C228.941 214.53 228.941 214.33 228.941 214.13C228.941 213.93 228.941 213.53 228.941 213.23C228.941 212.75 228.941 212.23 228.881 211.77C228.781 209.77 228.541 207.86 228.331 205.92C227.921 202.05 227.531 198.17 227.331 194.28C227.261 195.04 227.211 195.81 227.151 196.57C227.151 197.04 227.081 197.5 227.051 197.97C226.964 199.21 226.904 200.45 226.871 201.69C226.871 202.99 226.811 204.3 226.871 205.6C226.871 206.6 226.871 207.6 226.871 208.6C226.871 209.6 226.951 210.49 226.981 211.44C227.011 212.39 227.031 213.5 227.041 214.53C227.051 215.56 226.981 216.3 226.941 217.19C226.891 217.81 226.821 218.42 226.731 219.04C226.661 219.411 226.57 219.778 226.461 220.14C226.398 220.179 226.344 220.23 226.301 220.29C226.196 220.413 226.139 220.569 226.139 220.73C226.139 220.891 226.196 221.047 226.301 221.17C226.361 221.225 226.428 221.273 226.501 221.31C225.811 222.11 225.101 222.88 224.441 223.71C223.941 224.36 223.441 225.01 222.971 225.66C223.051 225.05 223.141 224.33 223.231 223.57C223.321 222.81 223.401 221.98 223.461 221.16V221.1V220.85V220.57V220.25V220.05V219.87V219.55C223.631 217.16 223.601 214.74 223.541 212.46C223.541 210.93 223.481 209.3 223.481 207.65C223.481 206 223.531 204.48 223.571 202.87L223.631 201.05C223.756 198.625 223.756 196.195 223.631 193.77C223.571 193 223.491 192.2 223.381 191.32C223.271 190.44 223.121 189.84 222.961 189.12V188.99C222.761 188.11 222.511 187.24 222.271 186.39C222.131 185.87 221.981 185.39 221.841 184.82C221.501 183.55 221.191 182.25 220.901 181C220.501 179.31 220.081 177.57 219.591 175.88C219.051 173.99 218.351 172.11 217.671 170.29C217.271 169.23 216.861 168.12 216.481 167.03L216.201 166.22L215.791 165C215.791 164.82 215.681 164.65 215.621 164.47L215.401 163.8L215.471 163.88L215.581 164C215.861 164.3 216.141 164.61 216.401 164.92C218.121 167.035 219.73 169.238 221.221 171.52C221.801 172.44 222.351 173.36 222.861 174.27C223.371 175.18 223.861 176.12 224.291 177.03L224.341 177.13V177.2L224.411 177.32L224.491 177.51V177.46L224.581 177.63L224.731 177.96V178.02V178.11C224.871 178.42 225.011 178.73 225.141 179.04C225.201 179.16 225.241 179.29 225.291 179.41C225.691 180.35 226.061 181.31 226.411 182.34C226.631 183.09 226.841 183.85 227.051 184.6C227.371 185.77 227.701 186.97 228.051 188.14L228.671 190.04C228.891 190.78 229.071 191.49 229.211 192.2C229.381 193.48 229.461 194.75 229.541 195.94V196.11V196.53V196.88C229.651 198.71 229.821 200.56 230.001 202.44C230.051 203.05 230.111 203.66 230.161 204.27C230.211 204.88 230.271 205.48 230.331 206.09L230.501 208.09V208.43C230.651 210.2 230.811 212.02 231.101 213.8C231.161 214.22 231.231 214.64 231.311 215.06C231.311 215.3 231.371 215.55 231.411 215.78C230.501 217 229.381 218.08 228.291 219.25V219.26ZM282.291 152.52L282.541 152.29L285.321 149.81C285.691 149.48 286.071 149.16 286.451 148.81L287.581 147.81L287.931 147.51L289.931 145.92C290.351 145.58 290.801 145.25 291.241 144.92L291.891 144.44C292.321 144.12 292.761 143.82 293.201 143.51L293.391 143.38L293.911 143.02C294.341 142.72 294.781 142.45 295.221 142.17L295.791 141.81L296.031 141.67L296.711 141.27L296.871 141.17L297.031 141.07C297.241 140.94 297.451 140.81 297.671 140.7L298.621 140.21L299.621 139.7L300.621 139.27L300.931 139.13C301.151 139.02 301.371 138.92 301.601 138.83L302.331 138.55C302.831 138.35 303.331 138.16 303.841 137.99H303.761L304.191 137.85L306.011 137.25H306.111L306.991 137.01L307.381 136.9L307.791 136.78L308.581 136.58L309.371 136.4L311.121 135.98C311.581 135.91 312.03 135.82 312.48 135.74L312.931 135.66C313.391 135.58 313.851 135.52 314.321 135.46L314.771 135.39C315.141 135.39 315.501 135.29 315.871 135.27L317.601 135.15H318.511H319.421C319.631 135.15 319.831 135.15 320.041 135.15H320.431H320.751H321.061C322.061 135.25 323.401 135.37 324.641 135.57L328.491 136.21L335.591 137.43L337.451 137.74C339.121 138.03 340.851 138.32 342.541 138.66L343.891 138.98L345.031 139.29H344.861C344.63 139.36 344.401 139.41 344.161 139.47C342.821 139.8 341.531 140.17 340.451 140.47C338.971 140.91 337.451 141.39 336.021 141.85C335.201 142.11 334.381 142.38 333.561 142.63C332.211 143.06 331.011 143.42 329.911 143.76L326.831 144.67L324.621 145.3C322.941 145.78 321.261 146.3 319.621 146.76L317.621 147.35L312.711 148.8L312.271 148.92C311.271 149.21 310.271 149.51 309.271 149.78L307.991 150.11L305.721 150.72C304.391 151.08 303.121 151.44 301.891 151.79C300.661 152.14 299.471 152.51 298.311 152.88C297.151 153.25 296.091 153.61 295.011 153.99L294.741 154.08C293.531 154.5 292.531 154.87 291.601 155.25C290.421 155.72 289.241 156.2 288.061 156.7L287.531 156.93L286.681 157.29L285.171 157.93L284.801 158.09L281.151 159.58C280.661 159.77 280.151 159.98 279.701 160.19L279.351 160.33C278.971 160.49 278.601 160.65 278.221 160.83L277.98 160.94L277.73 161.07L277.471 161.2C278.341 160.38 279.221 159.58 280.121 158.79C280.471 158.49 280.821 158.19 281.191 157.92L282.351 157.08L283.441 156.38C285.161 155.33 286.951 154.38 288.751 153.45C289.331 153.18 289.911 152.91 290.501 152.66L292.661 151.79C293.961 151.29 295.271 150.79 296.571 150.35L296.421 150.4C297.421 150.08 298.421 149.74 299.421 149.4C300.421 149.06 301.671 148.62 302.791 148.19C304.791 147.4 306.791 146.5 308.791 145.62C306.931 146.06 305.061 146.41 303.181 146.77H303.261C302.411 146.91 301.561 147.08 300.711 147.22C299.861 147.36 298.991 147.49 298.151 147.65L296.591 147.95C295.262 148.207 293.95 148.541 292.661 148.95C291.421 149.36 290.211 149.83 289.001 150.3C287.791 150.77 286.561 151.37 285.371 151.97L283.511 152.97C282.991 153.24 282.511 153.5 281.961 153.8C281.411 154.1 280.751 154.52 280.171 154.92C279.891 155.11 279.601 155.28 279.331 155.48L278.331 156.21C278.121 156.37 277.931 156.53 277.741 156.7C279.051 155.49 280.651 154 282.331 152.51L282.291 152.52ZM272.051 79.52C271.876 79.3204 271.755 79.0795 271.701 78.82C271.656 78.4213 271.656 78.0188 271.701 77.6201C271.701 77.1401 271.701 76.6199 271.651 76.1899L271.561 73.6298V73.3899C271.451 72.6599 271.341 71.9799 271.221 71.3899L271.131 70.8999C270.801 69.2099 270.461 67.47 270.061 65.77C269.841 64.85 269.611 63.9099 269.371 62.9299C269.131 61.9499 268.861 60.93 268.571 59.84C268.281 58.75 268.021 57.84 267.721 56.84L267.151 54.84L267.051 54.4799C266.871 53.8099 266.671 53.1199 266.511 52.4799L266.191 51.1001C266.061 50.5601 265.941 50.02 265.811 49.49L265.601 48.3501L265.201 46.09C265.071 45.3301 264.971 44.54 264.881 43.78C264.881 43.44 264.791 43.1 264.751 42.78C264.451 40.5 264.261 38.23 264.141 36.5C264.08 35.4842 264.08 34.4657 264.141 33.4499C264.227 32.4122 264.374 31.3806 264.581 30.3601C264.976 28.5633 265.474 26.7903 266.071 25.05L266.331 24.29L266.961 22.4199L267.23 21.6999L267.511 20.9499L267.691 20.4499C267.801 20.1399 267.911 19.82 268.051 19.51C268.261 19.01 268.481 18.51 268.701 18.02L269.351 16.53L269.721 15.8C270.111 15.03 270.521 14.2299 270.951 13.4699L271.451 12.57L271.961 11.6699L272.961 9.87008L274.851 6.4399L274.98 6.20992C274.98 6.27992 274.98 6.3599 274.98 6.4399C275.07 6.9099 275.181 7.4399 275.301 7.9399C275.301 7.9399 275.301 7.93996 275.301 7.99996C275.521 8.89996 275.741 9.7899 275.98 10.6899L276.171 11.3601C276.581 12.8701 277.011 14.4199 277.371 15.9699L277.511 16.6101C277.924 18.3501 278.321 20.0934 278.701 21.8401C278.981 23.0901 279.23 24.3501 279.491 25.6001L279.811 27.2099L279.901 27.7099C280.121 29.0399 280.361 30.42 280.531 31.79L280.601 32.3401C280.671 32.8701 280.741 33.4099 280.771 33.9499V34.3701C280.771 35.0501 280.861 35.7301 280.901 36.3701V37.9499C280.901 38.1099 280.901 38.2599 280.901 38.4099C280.901 38.7399 280.901 39.0699 280.901 39.4099C280.901 40.4099 280.801 41.4099 280.741 42.4099L280.591 43.9499L280.441 45.49C280.371 46.22 280.271 46.9699 280.161 47.6899L280.041 48.6001C279.841 50.0601 279.581 51.5399 279.341 52.9699L279.111 54.31C279.04 54.71 278.971 55.14 278.891 55.59C278.741 56.5 278.581 57.5 278.431 58.54C278.351 59.06 278.281 59.5901 278.211 60.1201C277.971 62.0001 277.714 63.8733 277.441 65.74C277.287 66.7599 277.137 67.7399 276.991 68.6799C276.6 71.2199 276.191 73.4799 275.771 75.6799C275.871 74.3799 275.981 73.07 276.071 71.77C276.141 70.77 276.181 69.7099 276.151 68.6799C276.121 67.6499 276.061 66.45 276.021 65.33C275.921 63.03 275.811 60.7199 275.691 58.4199C275.571 56.1199 275.491 53.9599 275.461 51.7299C275.431 49.4999 275.461 47.3 275.401 45.08C275.401 44.44 275.401 43.7999 275.331 43.1599C275.261 42.5199 275.241 42.08 275.181 41.54C275.121 41 275.081 40.5401 275.001 40.1001C274.921 39.6601 274.781 38.86 274.661 38.25C274.541 37.64 274.381 37.09 274.241 36.51C274.1 35.93 273.941 35.5099 273.791 34.9399C273.461 33.8099 273.131 32.68 272.841 31.53C272.841 31.74 272.841 31.9599 272.841 32.1799L272.931 33.6899C272.991 34.6899 273.071 35.6899 273.131 36.6899C273.131 37.3399 273.201 37.9898 273.191 38.6298C273.181 39.2698 273.191 39.8399 273.191 40.4399C273.191 41.0399 273.191 41.7298 273.121 42.3798C273.121 43.5298 273.051 44.68 273.031 45.84C273.011 47 272.961 48.0599 272.931 49.1699C272.901 50.2799 272.931 51.41 272.861 52.53C272.861 54.47 272.861 56.4101 272.971 58.3501C272.971 58.5201 272.971 58.6801 272.971 58.8501C273.071 61.1501 273.171 63.46 273.311 65.77C273.311 66.77 273.441 67.8599 273.511 68.9099C273.511 69.1599 273.511 69.3999 273.511 69.6499C273.581 71.8499 273.411 74.06 273.291 76.25C273.211 77.66 273.131 79.0599 273.061 80.4599V80.9799L273.001 80.1201C272.885 80.1407 272.766 80.1407 272.651 80.1201C272.475 80.0504 272.31 79.9561 272.161 79.84C272.161 79.84 272.141 79.56 272.091 79.51L272.051 79.52ZM267.401 141.52C267.401 140.66 267.29 139.8 267.241 138.94C267.171 137.94 267.111 136.83 267.031 135.8C266.951 134.77 266.901 134.01 266.841 133.11V132.5C266.841 131.38 266.761 130.22 266.781 129.08C266.781 127.67 266.881 126.25 266.951 124.84C267.041 123.84 267.141 122.74 267.291 121.66C267.441 120.58 267.611 119.66 267.801 118.66L267.951 118.02C268.111 117.34 268.281 116.64 268.461 115.96C268.741 114.96 269.051 113.96 269.321 113.16C270.061 111.16 270.871 109.16 271.491 107.64C272.251 105.82 273.151 103.99 273.951 102.38C274.931 100.553 275.914 98.7299 276.901 96.9099L277.001 96.7099C277.881 95.0899 278.79 93.42 279.73 91.8C280.82 89.93 281.991 88.07 283.121 86.26L284.881 83.4299L286.021 81.56L286.131 81.3798L287.541 79.06L288.901 76.9299C289.351 76.2499 289.79 75.5899 290.23 74.9299C291.23 73.6399 292.001 72.5799 292.781 71.6399C293.321 70.9799 293.871 70.3199 294.421 69.6399C294.971 68.9599 295.521 68.3299 296.061 67.6399C297.061 66.3899 298.061 65.0801 299.061 63.8501L299.321 63.51L301.251 60.9599V61.1699V61.4099V61.53L301.161 62.1001C300.901 63.8701 300.63 65.5401 300.361 67.1001C300.091 68.6601 299.831 70.16 299.551 71.58C299.271 73 298.971 74.6499 298.691 76.1899C298.364 78.0099 298.031 79.8265 297.691 81.6399C297.691 81.8799 297.591 82.1201 297.531 82.3601C297.471 82.6001 297.421 82.83 297.371 83.07L297.23 83.6799C297.124 84.1399 297.004 84.6 296.871 85.06L296.711 85.6499C296.441 86.6499 296.101 87.6499 295.771 88.6499L295.551 89.32L295.341 89.8999C295.051 90.7199 294.751 91.5301 294.441 92.34C293.221 95.4601 291.921 98.65 290.581 101.83L290.441 102.15C289.231 105 287.981 107.95 286.581 110.77C285.801 112.25 284.951 113.77 284.041 115.2C283.561 115.96 283.041 116.71 282.571 117.47C282.181 118.06 281.791 118.65 281.421 119.24L281.361 119.33C280.711 120.33 280.091 121.33 279.471 122.38L278.781 123.52C278.281 124.32 277.831 125.07 277.401 125.79C276.971 126.51 276.571 127.2 276.181 127.9C275.791 128.6 275.451 129.26 275.101 129.9C275.341 129.15 275.571 128.4 275.821 127.66C275.808 127.708 275.792 127.755 275.771 127.8C277.121 124.02 278.361 120.22 279.691 116.44V116.49C280.431 114.4 281.141 112.3 281.841 110.2C283.641 104.83 285.171 99.37 286.971 94C285.361 97 283.641 100 282.081 103C281.801 103.53 281.521 104.06 281.251 104.59C279.981 107.11 278.731 109.65 277.641 112.26C276.471 115.04 275.481 117.88 274.581 120.76C272.871 126.15 271.071 131.52 269.681 137.01C269.331 138.36 269.031 139.73 268.681 141.09L267.931 144.23C267.801 144.5 267.671 144.78 267.551 145.06C267.461 143.76 267.491 142.64 267.441 141.51L267.401 141.52ZM252.581 170.37L251.821 169.37C251.371 168.75 250.911 168.11 250.431 167.5C249.161 165.88 247.791 164.31 246.431 162.79L245.431 161.64C243.891 159.77 242.671 158.23 241.591 156.79L241.041 156.05C239.891 154.52 238.711 152.93 237.491 151.41C236.541 150.21 235.551 149.04 234.551 147.87C233.551 146.7 232.551 145.57 231.551 144.45C230.551 143.33 229.501 142.11 228.481 140.93L227.761 140.11C227.111 139.32 226.511 138.6 225.961 137.91C225.411 137.22 224.901 136.58 224.421 135.91C223.941 135.24 223.241 134.36 222.661 133.57C222.287 133.063 221.927 132.543 221.581 132.01L221.271 131.54L220.931 131.02C220.651 130.59 220.371 130.15 220.111 129.7C219.971 129.45 219.821 129.2 219.671 128.95C219.391 128.47 219.101 127.95 218.841 127.47L218.441 126.72C218.171 126.21 217.901 125.72 217.651 125.19L216.491 122.8C216.141 122.06 215.781 121.31 215.421 120.57V120.5C215.181 119.98 214.931 119.5 214.681 118.93L214.371 118.3V118.38L214.301 118.23L214.121 117.86C213.871 117.33 213.621 116.8 213.361 116.28V116.23C213.311 116.13 213.261 116.02 213.221 115.92L213.001 115.48L213.301 115.6C213.851 115.8 214.391 116.01 214.931 116.23L218.651 117.69L221.821 118.94C222.531 119.22 223.241 119.52 223.941 119.82C225.491 120.49 227.041 121.22 228.551 121.99H228.491L228.671 122.08C229.331 122.43 230.001 122.79 230.671 123.19C231.341 123.59 232.211 124.19 232.971 124.66C233.731 125.13 234.251 125.57 234.911 126.05C235.571 126.53 236.221 127.05 236.911 127.57C237.601 128.09 238.371 128.77 239.091 129.39C239.631 129.85 240.151 130.33 240.681 130.81H240.731C241.311 131.36 241.961 132 242.581 132.64L243.211 133.33C243.511 133.65 243.811 133.99 244.141 134.33L244.301 134.54C244.851 135.25 245.411 135.98 245.911 136.74C246.071 137 246.221 137.27 246.391 137.56C246.561 137.85 246.731 138.19 246.921 138.56L247.151 139.04L247.591 140.04C247.731 140.34 247.851 140.65 247.981 140.96L248.081 141.22C248.491 142.22 248.881 143.22 249.271 144.22C249.661 145.22 250.001 146.22 250.331 147.11C250.661 148 250.971 148.94 251.241 149.76L251.411 150.27C251.741 151.27 252.021 152.38 252.341 153.44C252.751 154.79 253.181 156.15 253.541 157.5C253.731 158.22 253.891 158.87 254.061 159.5C254.521 161.32 254.931 163.05 255.251 164.66C255.491 166 255.721 167.34 255.931 168.66C255.991 169.06 256.041 169.46 256.101 169.87C255.641 168.87 255.191 167.87 254.721 166.87L254.801 167.04C254.411 166.19 254.011 165.35 253.611 164.5C253.211 163.65 252.961 163.08 252.611 162.38C252.598 162.341 252.581 162.305 252.561 162.27C251.911 160.84 251.241 159.4 250.561 157.98C250.361 157.59 250.191 157.17 249.961 156.79L249.351 155.79C248.931 155.1 248.481 154.44 248.011 153.79C247.19 152.617 246.267 151.519 245.251 150.51C244.951 150.22 244.671 149.92 244.361 149.64L243.451 148.84C242.861 148.32 242.251 147.84 241.641 147.32C242.151 147.89 242.641 148.48 243.151 149.06C243.631 149.65 244.091 150.25 244.531 150.87C244.971 151.49 245.261 151.95 245.611 152.5C245.961 153.05 246.251 153.57 246.521 154.12C246.791 154.67 247.141 155.37 247.441 156C247.441 156 247.441 155.93 247.441 155.9C247.731 156.59 248.051 157.27 248.301 157.97C248.551 158.67 248.861 159.54 249.131 160.33C249.641 161.77 250.131 163.21 250.691 164.64C251.521 166.84 252.471 168.99 253.441 171.14L252.581 170.37ZM196.791 294.49C197.251 292.99 197.631 291.49 198.011 289.95L198.261 288.95L198.341 288.65L198.411 288.36C198.821 286.76 199.221 285.17 199.641 283.58L200.381 280.81C200.641 279.87 200.911 278.92 201.181 277.98C201.451 277.04 201.671 276.35 201.951 275.48C202.231 274.61 202.531 273.67 202.861 272.66C202.88 272.618 202.897 272.574 202.911 272.53C202.911 272.47 202.911 272.4 202.971 272.35L203.151 271.86L203.321 271.37C203.931 269.73 204.571 268.11 205.221 266.5C205.871 264.89 206.531 263.3 207.221 261.74L207.451 261.18L207.681 260.62L207.831 260.27C208.471 258.73 209.111 257.18 209.831 255.65C210.551 254.12 211.321 252.32 212.211 250.51L212.441 250.07L212.641 249.67C213.101 248.8 213.641 247.98 214.071 247.14C215.281 245 216.511 242.94 217.751 241C217.971 240.65 218.201 240.27 218.421 239.93C219.471 238.29 220.611 236.57 221.841 234.74C222.701 233.45 223.611 232.12 224.621 230.67L225.421 229.55C226.211 228.45 227.031 227.32 227.881 226.19C228.411 225.49 228.961 224.8 229.541 224.13C230.121 223.46 230.701 222.78 231.291 222.13C232.641 220.71 233.881 219.46 235.101 218.3C236.501 216.96 237.901 215.62 239.281 214.3C239.911 213.69 240.531 213.07 241.161 212.44L243.311 210.32C244.671 208.99 246.081 207.74 247.311 206.69L249.311 205.11L249.901 204.67C250.281 204.38 250.671 204.08 251.031 203.82C252.251 202.94 253.491 202.1 254.861 201.2L255.001 201.1C256.614 200.04 258.181 198.96 259.701 197.86C261.221 196.76 262.697 195.653 264.131 194.54C267.131 192.21 270.01 189.85 273.241 187.24C274.801 185.97 276.241 184.79 277.551 183.63C278.861 182.47 280.131 181.31 281.331 180.09C281.331 180.23 281.241 180.36 281.191 180.49L280.461 182.49L280.131 183.49C280.131 183.59 280.061 183.68 280.031 183.78C279.571 185.03 279.131 186.2 278.691 187.31C278.251 188.42 277.841 189.46 277.421 190.45L277.221 190.93C276.831 191.86 276.421 192.83 275.991 193.76C275.561 194.69 275.051 195.76 274.571 196.76L274.491 196.92L274.421 197.08V197C274.311 197.23 274.191 197.46 274.071 197.68L273.661 198.47C273.551 198.68 273.441 198.88 273.331 199.1C272.981 199.75 272.621 200.41 272.251 201.1C271.701 202.05 271.091 203.1 270.421 204.21L269.761 205.31L268.761 206.97C267.131 209.66 265.431 212.45 263.821 215.23C263.301 216.13 262.821 217.06 262.291 217.97C261.901 218.68 261.51 219.4 261.111 220.11C260.23 221.67 259.281 223.33 258.251 224.96C256.781 227.29 255.251 229.64 253.731 231.9C253.121 232.82 252.511 233.74 251.911 234.66C251.881 234.695 251.855 234.732 251.831 234.77L250.191 237.29L249.431 238.43C248.241 240.27 247.021 242.13 245.771 243.95C245.711 244.05 245.631 244.14 245.561 244.24C243.461 247.24 241.251 250.09 238.771 253.24C238.171 254 237.571 254.76 236.961 255.5C236.751 255.77 236.531 256.02 236.311 256.28C235.924 256.76 235.534 257.23 235.141 257.69L234.451 258.5L233.381 259.74C233.071 260.11 232.761 260.46 232.451 260.81L231.791 261.57L231.661 261.72L230.811 262.64L230.531 262.93C229.371 264.19 228.161 265.47 226.901 266.71C224.631 268.94 222.281 271.17 220.001 273.33L218.531 274.72C217.381 275.81 216.231 276.95 215.121 278.04L214.451 278.7L214.011 279.13C213.531 279.61 213.011 280.08 212.571 280.57C211.821 281.36 211.081 282.17 210.461 282.86C209.211 284.24 208.071 285.71 206.971 287.13L206.051 288.33L205.161 289.5L205.021 289.68L203.961 291.06C204.201 290.7 204.431 290.34 204.661 289.97C208.111 284.57 211.201 278.97 214.131 273.26L214.341 272.84L214.231 273.05L214.741 272.05L214.951 271.63C214.978 271.592 215.001 271.552 215.021 271.51C215.041 271.454 215.068 271.4 215.101 271.35C215.101 271.41 215.031 271.48 214.991 271.55C215.391 270.78 215.791 270.01 216.181 269.24L216.071 269.45C217.391 266.93 218.741 264.45 220.121 261.96C220.891 260.6 221.691 259.26 222.491 257.96C223.291 256.66 224.121 255.23 224.971 253.89L227.661 249.59C228.471 248.32 229.311 247.08 230.161 245.84C232.011 243.23 233.951 240.68 235.931 238.16C237.911 235.64 239.931 233.09 241.801 230.47C243.671 227.85 245.521 225.19 247.541 222.67C248.567 221.39 249.631 220.137 250.731 218.91C251.731 217.74 252.851 216.57 253.901 215.39C254.951 214.21 256.091 212.96 257.091 211.67C258.091 210.38 259.171 208.96 260.151 207.56C258.811 208.99 257.361 210.32 255.911 211.63C254.911 212.49 253.911 213.33 252.821 214.16C251.731 214.99 251.001 215.61 250.101 216.35C249.441 216.89 248.771 217.42 248.101 217.98C247.431 218.54 246.901 218.98 246.341 219.55C245.181 220.67 244.011 221.8 242.951 223.01C240.791 225.46 238.741 228.01 236.741 230.56L233.821 234.37C232.821 235.63 231.821 236.89 230.931 238.18C228.991 240.85 227.111 243.54 225.381 246.33C223.651 249.12 221.871 252.03 220.141 254.9C219.341 256.22 218.571 257.56 217.801 258.9C217.031 260.24 216.281 261.56 215.561 262.9C213.971 265.9 212.411 268.9 210.941 271.96C209.591 274.74 208.241 277.52 206.841 280.27C206.331 281.27 205.841 282.2 205.311 283.15C204.711 284.26 204.101 285.36 203.491 286.46C202.411 288.38 201.281 290.27 200.181 292.18C198.541 295.02 196.961 297.89 195.511 300.83C195.191 301.48 194.891 302.14 194.581 302.83C194.091 303.42 193.581 303.98 193.171 304.49L192.631 305.11L192.501 305.26C192.591 305.05 192.681 304.83 192.781 304.62C192.881 304.41 193.011 304.08 193.131 303.8L193.771 302.36C194.946 299.805 195.954 297.176 196.791 294.49ZM132.291 348.12C132.461 347.76 132.611 347.39 132.771 347.03C132.831 347.09 132.871 347.18 132.961 347.21C133.041 347.242 133.125 347.262 133.211 347.27H133.261L132.261 348.14L132.291 348.12ZM139.291 332.12C139.961 330.56 140.751 328.76 141.571 326.83C142.391 324.9 143.251 322.83 144.081 320.76C144.671 319.29 145.241 317.76 145.781 316.32L146.201 315.21C146.867 313.35 147.567 311.497 148.301 309.65C149.541 306.4 150.971 302.97 152.961 298.53C153.751 296.76 154.581 294.94 155.441 293.11C156.301 291.28 157.161 289.55 158.061 287.76C158.281 287.37 158.491 286.98 158.701 286.59L159.161 285.77L159.451 285.21C159.651 284.85 159.841 284.48 160.061 284.13L160.511 283.38L161.351 281.99C161.471 281.8 161.581 281.61 161.691 281.41C161.801 281.21 162.101 280.73 162.311 280.41C162.521 280.09 162.881 279.54 163.151 279.1C163.661 278.3 164.151 277.48 164.721 276.7L165.161 276.05C165.851 275.05 166.541 274.05 167.161 273.05L167.891 272.05C168.721 270.89 169.581 269.7 170.461 268.55L171.271 267.55L172.721 265.67C173.121 265.16 173.531 264.67 173.951 264.16C174.151 263.93 174.351 263.7 174.541 263.46C177.111 260.35 179.831 257.25 182.231 254.46C182.961 253.67 183.681 252.87 184.401 252.07C184.841 251.59 185.271 251.07 185.711 250.63C186.411 249.87 187.141 249.12 187.871 248.38C188.221 248.01 188.581 247.65 188.941 247.28C189.581 246.61 190.241 245.94 190.941 245.28L191.861 244.33C193.051 243.11 194.211 241.82 195.341 240.57L196.141 239.68C196.581 239.19 197.001 238.68 197.401 238.15L197.551 237.96L198.551 236.68L199.791 235C199.851 234.92 199.901 234.84 199.961 234.77L199.391 236.29C199.271 236.6 199.151 236.91 199.041 237.22C198.541 238.58 198.041 239.93 197.611 241.22V241.27C197.221 242.39 196.891 243.39 196.611 244.27C196.331 245.15 196.071 246.02 195.831 246.84L195.541 247.84C195.101 249.39 194.641 250.98 194.131 252.54L193.251 255.17C192.351 257.85 191.381 260.68 190.311 263.75C189.641 265.55 189.101 266.93 188.561 268.22C187.894 269.793 187.227 271.367 186.561 272.94C185.181 276.17 183.851 279.03 182.501 281.69C181.151 284.35 179.921 286.48 178.801 288.4C177.891 289.96 176.961 291.51 176.031 293.06L174.841 295.06C172.911 298.3 170.841 301.74 168.591 305.12C166.231 308.68 163.901 312.12 161.661 315.35L160.981 316.35L160.731 316.7C159.791 318.04 158.811 319.4 157.731 320.7C156.281 322.59 154.731 324.41 153.371 325.96L152.251 327.2L151.681 327.81L151.761 327.72L151.551 327.94C151.141 328.39 150.731 328.84 150.311 329.28C149.691 329.93 149.071 330.59 148.461 331.28L147.601 332.22L147.441 332.4L147.301 332.55L146.941 332.95C145.501 334.51 144.071 336.08 142.651 337.66L140.351 340.2C138.611 342.08 136.851 343.84 135.101 345.49L136.221 343.83C136.951 342.75 137.701 341.67 138.441 340.6L138.371 340.7L140.011 338.36L139.931 338.47C140.411 337.81 140.931 337.15 141.361 336.47C143.151 333.98 144.911 331.47 146.571 328.9C148.231 326.33 149.901 323.77 151.481 321.16C153.061 318.55 154.641 315.84 156.141 313.16C157.641 310.48 159.051 307.78 160.551 305.16C162.051 302.54 163.671 299.7 165.281 296.99C166.891 294.28 168.471 291.7 170.041 288.99C173.291 283.47 176.431 277.89 179.611 272.33C182.611 267.04 185.871 261.85 189.061 256.66C188.291 257.66 187.511 258.66 186.731 259.66C184.731 262.17 182.731 264.66 180.731 267.15C180.311 267.68 179.911 268.22 179.501 268.76C179.091 269.3 178.501 270 178.061 270.64C177.181 271.88 176.271 273.09 175.401 274.34C171.771 279.54 168.271 284.81 164.981 290.23C161.811 295.44 158.701 300.7 155.911 306.14L154.231 309.41L154.291 309.3L154.341 309.19C153.841 310.19 153.341 311.19 152.851 312.12L151.491 314.75C150.621 316.4 149.761 318.05 148.881 319.69C148.001 321.33 147.261 322.69 146.431 324.14C144.931 326.82 143.431 329.49 141.811 332.14C140.191 334.79 138.491 337.14 136.811 339.66L136.881 339.55L134.601 342.83C136.154 339.223 137.707 335.637 139.261 332.07L139.291 332.12ZM90.2906 332.85C90.7606 332.06 91.2906 331.27 91.7406 330.45C92.1906 329.63 92.7405 328.81 93.3305 327.94L94.3806 326.47L95.2105 325.29C95.6305 324.71 96.0905 324.15 96.5305 323.61L96.8106 323.27L97.1206 322.89C97.5506 322.36 98.0005 321.81 98.4705 321.29L100.651 318.86L101.941 317.51L102.211 317.23C102.881 316.52 103.561 315.83 104.271 315.12C104.981 314.41 105.721 313.66 106.531 312.86C107.701 311.69 108.921 310.56 110.111 309.45L110.761 308.84C112.081 307.6 113.431 306.39 114.761 305.19C116.091 303.99 117.551 302.79 118.971 301.58C120.681 300.17 122.441 298.71 124.211 297.32C126.211 295.71 128.211 294.16 130.211 292.71L132.981 290.61L134.561 289.42C135.751 288.52 136.941 287.58 138.091 286.66L138.571 286.28L139.321 285.68C140.631 284.68 141.941 283.61 143.261 282.59L143.871 282.11C144.381 281.71 144.871 281.3 145.431 280.92L146.121 280.41L147.241 279.59L146.701 280.59L146.121 281.71C145.061 283.71 144.001 285.71 142.961 287.71L141.391 290.71V290.8V290.87C141.385 290.896 141.385 290.924 141.391 290.95L140.551 292.57L139.711 294.18C139.331 294.9 138.931 295.61 138.541 296.29L138.231 296.83L137.931 297.35C137.551 298.03 137.151 298.74 136.721 299.41L136.091 300.41C135.631 301.11 135.171 301.81 134.721 302.52L133.941 303.6C133.361 304.41 132.791 305.22 132.191 306.02L131.041 307.55L129.351 309.82L128.531 310.93C126.861 313.17 125.141 315.49 123.471 317.8L122.641 318.96C121.851 320.05 121.061 321.15 120.251 322.23L119.671 323.02C119.261 323.58 118.841 324.15 118.411 324.7L117.241 326.17L116.361 327.27H116.311C115.431 328.39 114.481 329.49 113.571 330.55L112.571 331.68C111.571 332.89 110.451 334.09 109.401 335.26L109.211 335.46L105.881 339.11L105.191 339.86C104.061 341.1 102.891 342.37 101.711 343.61L100.891 344.46C100.341 345.05 99.7906 345.63 99.2306 346.2L97.5006 347.89L96.7005 348.67C94.2005 351.12 91.5006 353.44 88.8806 355.67L87.9906 356.44L84.5606 359.37L83.7906 360.03L82.0406 361.53C81.2706 362.2 80.5005 362.87 79.7205 363.53L78.7205 364.36C77.5905 365.31 76.4106 366.3 75.2406 367.24C74.3406 367.97 73.4805 368.65 72.6505 369.31L72.3206 369.56L73.1306 368.77C73.8706 368.04 74.5906 367.29 75.3106 366.54C76.2206 365.6 77.1405 364.67 78.0305 363.72C79.1105 362.58 80.1839 361.437 81.2506 360.29C83.1206 358.29 84.9206 356.29 86.7306 354.29C87.3506 353.59 87.9606 352.88 88.5606 352.17C89.6539 350.89 90.7406 349.603 91.8206 348.31C93.4906 346.31 95.1606 344.31 96.8206 342.31C97.5406 341.44 98.3006 340.6 99.0406 339.75L101.691 336.66C103.171 335.05 104.631 333.43 106.101 331.82L106.751 331.16L108.701 329.16C109.061 328.8 109.411 328.41 109.791 328.06C110.791 327.13 111.791 326.18 112.791 325.25C114.851 323.34 116.941 321.47 119.041 319.6C116.811 321.3 114.571 322.99 112.351 324.71C111.271 325.55 110.211 326.42 109.131 327.26C108.761 327.55 108.411 327.88 108.051 328.18L106.051 329.95C105.731 330.22 105.401 330.49 105.051 330.78L103.771 332L100.361 335.28C100.131 335.49 99.9205 335.73 99.7005 335.95L97.7906 338C96.8706 339 95.9205 339.91 95.0205 340.9C93.4205 342.63 91.8505 344.4 90.2805 346.15C88.5472 348.103 86.8339 350.067 85.1405 352.04C84.4605 352.83 83.7506 353.61 83.0606 354.4C82.1406 355.4 81.2306 356.48 80.3006 357.51L80.4206 357.38C78.8106 359.1 77.2506 360.86 75.6306 362.57C74.4906 363.79 73.3439 365.007 72.1906 366.22C71.5006 366.96 70.7806 367.66 70.0706 368.38L69.0706 369.38C69.5906 368.62 70.0706 367.86 70.6206 367.11C72.3206 364.6 73.8805 362.03 75.2605 359.66C75.7205 358.87 76.1605 358.11 76.5805 357.37C78.4339 354.13 80.2705 350.883 82.0905 347.63C82.1905 347.44 82.2905 347.25 82.4005 347.07C83.3672 345.33 84.3272 343.583 85.2805 341.83L87.6405 337.53C88.6005 335.75 89.4306 334.28 90.3006 332.8L90.2906 332.85ZM132.461 376.85L130.051 376.67H130.171H130.291L132.761 376.23C132.766 376.376 132.804 376.52 132.871 376.65C132.94 376.758 133.024 376.855 133.121 376.94L132.461 376.85ZM250.591 347.44L250.511 347.52L249.511 348.46L248.511 349.36L247.511 350.27C246.661 351.08 245.791 351.9 244.911 352.71C244.031 353.52 243.141 354.32 242.231 355.09C240.982 356.134 239.669 357.099 238.301 357.98C237.641 358.39 237.001 358.78 236.301 359.13C235.601 359.48 235.021 359.82 234.381 360.13C233.741 360.44 232.791 360.84 231.951 361.13C231.111 361.42 230.241 361.78 229.341 362.07C227.611 362.62 225.821 363.13 224.101 363.63L222.811 364C221.811 364.29 220.811 364.6 219.811 364.91L218.201 365.39L214.991 366.39L213.811 366.76C212.811 367.05 211.881 367.33 210.911 367.6L210.001 367.87L208.901 368.18L207.511 368.58C207.201 368.67 206.891 368.74 206.581 368.81H206.321L204.901 369.14C203.781 369.39 202.651 369.65 201.531 369.92H201.471H201.351L200.981 369.99H200.831H200.731H200.791H200.691H200.611L198.531 370.38H198.411L197.811 370.5H197.691H197.581H197.461H197.351H197.261H197.181L196.771 370.58H196.671H196.531H196.461H196.281H196.101L195.771 370.64H195.691H195.441H195.351H195.191L194.651 370.74H194.511H194.421L193.721 370.87L193.341 370.94L192.961 371.01H193.021L191.901 371.22L190.611 371.47H190.501L189.711 371.62C188.921 371.76 188.171 371.91 187.421 372.06L186.281 372.29L183.861 372.76L183.211 372.89H183.081H182.971L182.051 373.06L181.151 373.23L179.291 373.56L178.291 373.75L177.011 373.97L175.751 374.19L172.191 374.73L170.021 375.06C169.231 375.18 168.431 375.29 167.571 375.39L166.751 375.48L165.141 375.68C164.081 375.81 163.021 375.94 161.951 376.04C159.671 376.17 157.751 376.29 155.821 376.43C155.201 376.43 154.571 376.43 153.951 376.43H152.271H149.671C148.671 376.43 147.671 376.43 146.671 376.43H145.171H141.471H140.261H139.791C140.561 376.34 141.341 376.29 142.101 376.17L145.481 375.65C146.211 375.54 146.951 375.45 147.681 375.31H147.811H147.901L148.341 375.23L148.921 375.12L149.311 375.05H149.181L151.641 374.59H151.501L152.381 374.43H152.241H152.461H152.611H152.531L153.231 374.28L160.691 372.72L163.451 372.14C164.641 371.9 165.831 371.64 167.031 371.41H167.131L170.181 370.83H170.041L170.841 370.68H170.701L171.231 370.58H171.091H171.201H171.271C171.811 370.5 172.341 370.39 172.871 370.3L175.081 369.91L178.481 369.32C179.481 369.15 180.481 368.95 181.481 368.74L183.791 368.26C184.071 368.212 184.348 368.149 184.621 368.07C185.987 367.71 187.347 367.34 188.701 366.96C189.061 366.86 189.411 366.73 189.761 366.62L192.081 365.83C194.021 365.17 195.951 364.44 197.881 363.75C199.021 363.35 200.141 362.92 201.271 362.53C202.401 362.14 203.571 361.76 204.711 361.35C205.711 361.04 206.661 360.71 207.621 360.35L207.861 360.27L208.261 360.14C209.381 359.77 210.501 359.41 211.631 359.06C209.231 359.54 206.834 360.033 204.441 360.54C204.021 360.62 203.591 360.73 203.171 360.83L201.091 361.31C199.991 361.56 198.901 361.87 197.811 362.16C196.721 362.45 195.811 362.7 194.811 362.98C193.811 363.26 192.811 363.54 191.811 363.82L189.471 364.48C189.021 364.61 188.571 364.72 188.131 364.87C187.371 365.04 186.621 365.23 185.871 365.42L184.311 365.82C184.071 365.88 183.841 365.95 183.601 366L179.131 367C176.781 367.41 174.441 367.84 172.131 368.26C170.084 368.627 168.037 369.023 165.991 369.45C161.361 370.4 156.731 371.38 152.101 372.33C151.101 372.49 150.051 372.69 149.031 372.88L151.551 372.34L152.001 372.24L153.691 371.86L156.331 371.27C157.001 371.11 157.671 370.95 158.331 370.77L158.841 370.64C159.341 370.507 159.841 370.367 160.341 370.22C161.861 369.75 163.341 369.27 164.751 368.8L165.231 368.64L167.501 367.87H167.791L168.561 367.62L169.321 367.36L170.601 366.94L171.221 366.76C172.411 366.39 173.601 366.03 174.801 365.68L175.581 365.46C176.861 365.1 178.151 364.73 179.441 364.38L183.531 363.25L184.841 362.87L185.491 362.68L186.191 362.48C186.631 362.36 187.071 362.23 187.501 362.09H187.571L187.911 361.98L189.461 361.48L191.461 360.84C192.371 360.54 193.291 360.22 194.181 359.9L195.281 359.51L196.831 358.96C197.451 358.73 198.071 358.5 198.701 358.29L200.581 357.66L202.341 357.07L203.791 356.64L204.321 356.47L205.161 356.22L205.681 356.07H205.831L206.181 355.97L208.051 355.52C208.811 355.347 209.571 355.167 210.331 354.98L212.331 354.63L212.981 354.51L213.521 354.42C214.011 354.33 214.521 354.24 215.001 354.18L216.001 354.05C217.461 353.86 218.931 353.67 220.391 353.46L221.811 353.25L223.231 353.04C223.621 352.98 224.011 352.9 224.401 352.82L224.801 352.74L227.661 352.16C228.031 352.09 228.401 352 228.761 351.9L229.071 351.82L230.071 351.57L233.241 350.77L234.351 350.48C235.351 350.21 236.441 349.93 237.491 349.68L238.771 349.39C239.771 349.15 240.771 348.91 241.771 348.7L242.931 348.47L246.191 347.81L247.501 347.53L248.811 347.26C249.321 347.15 249.811 347.01 250.351 346.88L250.681 346.79L250.591 347.44Z" fill="#DBCBB4"/>
<path d="M212.05 161.47V161.39C212.047 161.417 212.047 161.443 212.05 161.47Z" fill="#DBCBB4"/>
<path d="M242.39 127.52C242.447 127.561 242.501 127.608 242.55 127.66L242.39 127.52Z" fill="#DBCBB4"/>
<path d="M254.5 148.61L254.56 148.78C254.54 148.75 254.52 148.68 254.5 148.61Z" fill="#DBCBB4"/>
</svg>
