<svg width="410" height="281" viewBox="0 0 410 281" fill="none" xmlns="http://www.w3.org/2000/svg">
<path d="M409.13 22.57L403.13 16.2901C403.092 16.2516 403.047 16.221 402.997 16.2004C402.948 16.1798 402.894 16.1695 402.84 16.1701C402.787 16.1676 402.734 16.1761 402.684 16.195C402.634 16.2139 402.588 16.2429 402.55 16.2801C401.42 17.3701 374.93 42.96 373.09 45.34C371.76 47.04 367.77 47.2 364.85 47.34C363.97 47.34 363.13 47.4 362.45 47.47C359.22 47.8 342.19 55.7001 339.45 57.3601C338.45 57.9601 335.93 59.3601 333 60.98C327 64.3 319.52 68.43 318.25 69.6L317.76 70.0501C315.61 72.0501 309.15 77.9201 306.01 81.3901L305.45 81.2701C305.072 81.1963 304.698 81.1028 304.33 80.9901L301.83 79.9301L300.45 79.34C299.54 78.96 298.62 78.53 297.69 78.1C295.548 77.0077 293.304 76.1269 290.99 75.47C290.921 75.4588 290.85 75.4588 290.78 75.47C289.514 75.7785 288.315 76.3139 287.24 77.0501C287.164 77.035 287.086 77.035 287.01 77.0501C286.486 77.1078 285.958 77.1345 285.43 77.1301C282.002 77.1529 278.627 76.2755 275.644 74.5856C272.661 72.8957 270.173 70.4525 268.43 67.5001C261.57 56.2301 257.06 50.6301 248.52 47.2401C247.169 46.7001 245.726 46.4251 244.27 46.4301C237.47 46.4301 231.74 52.0301 231.5 52.2701C231.46 52.3192 231.432 52.3775 231.42 52.44C231.42 52.44 231.42 52.4401 231.42 52.5001C231.392 52.5878 231.392 52.6823 231.42 52.7701H231.47C231.518 52.833 231.584 52.8787 231.66 52.9001H231.79C231.833 52.9051 231.877 52.9051 231.92 52.9001C232.961 52.5869 234.043 52.4286 235.13 52.4301C242.52 52.4301 248.87 59.88 255 67.09C258.62 71.35 262 75.3701 265.65 77.8901C268.652 80.0656 272.263 81.2411 275.97 81.2501C278.044 81.243 280.103 80.9054 282.07 80.2501C280.54 81.2501 278.86 82.3501 277.07 83.5501C274.432 85.4152 271.691 87.1311 268.86 88.69C267.45 89.16 257.86 89.45 249.86 89.45C245.32 89.45 241.93 89.36 240.7 89.2C239.79 88.29 232.7 81.2 229.7 78.44C228.224 77.1448 226.63 75.9899 224.94 74.9901C224.61 74.7901 224.25 74.5901 223.87 74.3801C222.58 73.6701 221.13 72.86 220.73 71.57L220.61 71.1501C220.514 70.7287 220.363 70.3218 220.16 69.94C225.52 61.41 223.83 31.7501 220.23 21.3001C220.14 21.0201 220.02 20.7601 219.91 20.5001L219.84 20.34C219.84 20.34 219.84 20.3401 219.84 20.2801C219.69 19.8401 216.18 9.2801 208.11 6.2801C205.11 5.1801 203 4.4801 201.29 3.9101C199.143 3.3272 197.079 2.4701 195.15 1.36005C194.24 0.800053 193.66 0.820117 193.38 1.30012C192.86 2.18012 194.16 4.77004 194.75 5.85004L194.81 5.93012C196.629 7.78611 198.728 9.34508 201.03 10.5501C200.287 11.9305 199.7 13.3895 199.28 14.9001C199.034 14.4861 198.757 14.0916 198.45 13.72C197.665 12.6627 196.696 11.755 195.59 11.0401C194.51 10.4515 193.289 10.168 192.06 10.22C191.45 10.22 190.83 10.2201 190.21 10.3101L189.21 10.3701C187.436 10.3981 185.665 10.1998 183.94 9.7801C183.506 9.68797 183.081 9.55744 182.67 9.39008C182.332 9.18578 181.933 9.10787 181.543 9.17011C181.153 9.23236 180.798 9.4307 180.54 9.73005C180.502 9.76592 180.472 9.8093 180.451 9.85749C180.43 9.90568 180.42 9.95765 180.42 10.0101C180.345 11.5219 179.924 12.9963 179.19 14.32C178.53 15.52 177.54 18.6301 180.69 23.6501C178.52 23.1522 176.254 23.2594 174.14 23.96C170.78 25.02 168.41 25.9601 166.5 26.6801C163.927 27.8102 161.218 28.6002 158.44 29.0301C155.83 29.4101 154.71 29.8301 154.44 30.5501C154.17 31.2701 154.77 31.8001 155.36 32.4301C155.54 32.6201 155.73 32.8201 155.91 33.0301C156.09 33.2401 156.61 33.78 157.16 34.32C159.22 36.32 163.06 40.15 162.9 43.59C162.77 46.71 166.23 52.99 179.64 57.59C178.33 57.67 177.05 57.7801 175.82 57.9101C172.16 57.0245 168.45 56.3566 164.71 55.9101C164.21 55.9101 163.71 55.84 163.21 55.84C158.706 55.9648 154.319 57.3017 150.51 59.71C149.96 60.08 149.51 60.34 149.02 60.58C148.15 61.04 147.47 61.4101 147.3 62.1201C147.13 62.8301 147.56 63.8201 148.88 65.6501L149.22 66.1201C150.182 67.5699 151.299 68.9111 152.55 70.1201C155.37 73.0601 161.19 74.4801 164.95 75.4101L166 75.6701C167.711 76.0941 169.468 76.3057 171.23 76.3001C174.547 76.2659 177.829 75.6183 180.91 74.3901C188.61 71.3901 194.81 69.97 200.42 69.97C205.103 69.8744 209.716 71.1237 213.71 73.57C213.71 73.57 213.71 73.6401 213.71 73.6601C214.041 74.14 214.473 74.5416 214.976 74.837C215.479 75.1324 216.04 75.3143 216.62 75.3701C216.853 75.409 217.092 75.3988 217.321 75.3403C217.55 75.2817 217.764 75.1761 217.95 75.0301L218.09 74.9201C218.879 75.3087 219.618 75.7922 220.29 76.3601L221.06 76.95L221.89 77.5501L224.17 79.22L224.96 79.7901C226.29 80.6586 227.494 81.705 228.54 82.9001C230.16 84.9601 234.66 89.7001 235.92 91.0101L226.92 97.7801L224.97 99.2601L224.58 99.6C224.298 99.9173 223.918 100.132 223.5 100.21C223.241 100.136 222.999 100.01 222.79 99.84C222.59 99.6903 222.375 99.5597 222.15 99.45C221.397 99.1821 220.57 99.2144 219.84 99.5401C218.186 98.2905 216.456 97.1449 214.66 96.1101L214.25 95.9201C210.937 94.1249 207.399 92.7797 203.73 91.9201C202.97 91.7701 202.22 91.6401 201.46 91.5101C198.534 91.146 195.677 90.3542 192.98 89.1601C190.988 88.1957 188.722 87.9518 186.57 88.47C185.682 88.6643 184.817 88.9526 183.99 89.33L183.84 89.3901C183.1 89.7001 181.84 90.2201 181.98 91.1101C182.05 91.6801 182.74 91.79 183.16 91.85H183.35C183.773 91.9635 184.188 92.1072 184.59 92.2801C185.296 92.5908 185.967 92.9763 186.59 93.4301C187.22 93.8465 187.794 94.3403 188.3 94.9001C188.989 95.7496 189.748 96.5391 190.57 97.2601C188.05 97.4801 185.57 97.7501 183.4 98.0001C181.488 98.3039 179.643 98.9401 177.95 99.8801C176.592 100.601 175.156 101.165 173.67 101.56C173.521 101.588 173.382 101.653 173.265 101.749C173.147 101.845 173.057 101.969 173 102.11C172.944 102.327 172.939 102.553 172.986 102.772C173.033 102.991 173.13 103.195 173.27 103.37C173.679 103.88 174.19 104.299 174.77 104.6L180.37 107.86L180.64 108.02C178.48 108.867 176.514 110.143 174.86 111.77C170.815 115.881 168.224 121.201 167.48 126.92C167.401 127.474 167.284 128.022 167.13 128.56C166.63 129.99 168.29 130.7 170.39 131.56C172.206 132.266 173.932 133.185 175.53 134.3C175.984 134.617 176.47 134.885 176.98 135.1C178.972 135.931 181.113 136.343 183.27 136.31C186.297 136.282 189.29 135.664 192.08 134.49C195.267 133.141 198.086 131.05 200.3 128.39C200.89 127.664 201.434 126.903 201.93 126.11C202.503 125.182 203.152 124.302 203.87 123.48C204.967 122.368 206.136 121.329 207.37 120.37L207.85 119.97C206.85 122.97 206.16 125.85 205.55 128.45L205.37 129.24C204.53 132.78 203.74 136.13 204.08 139.81C204.26 141.304 204.595 142.775 205.08 144.2C205.489 145.419 205.796 146.67 206 147.94C206.088 148.635 206.416 149.277 206.927 149.756C207.438 150.234 208.101 150.519 208.8 150.56C209.098 150.561 209.393 150.507 209.67 150.4C210.84 149.97 211.59 148.61 212.24 147.4C212.536 146.806 212.891 146.243 213.3 145.72C214.17 144.72 215.12 143.77 216.19 142.72C220.93 135.43 219.74 132.37 218.58 129.41C218.276 128.676 218.026 127.92 217.83 127.15C217.258 125.082 217.196 122.907 217.65 120.81C217.79 119.81 217.97 118.47 218.14 116.69C218.429 113.189 219.957 109.906 222.45 107.43C222.949 106.91 223.295 106.263 223.45 105.56C223.5 105.56 223.55 105.56 223.59 105.56C223.854 105.401 224.084 105.19 224.266 104.941C224.447 104.692 224.578 104.41 224.65 104.11C224.77 103.63 224.93 103.52 225.34 103.22L227.34 101.75L230.81 99.19L231.28 98.85C232.93 97.64 234.64 96.4 236.35 95.21L236.54 95.08L237.44 94.48C239.558 93.8394 241.742 93.4469 243.95 93.3101C244.322 93.3087 244.693 93.3387 245.06 93.4001C245.11 93.4001 250.19 93.47 255.52 93.47C261.95 93.47 266.01 93.3701 267.52 93.1801C271.36 92.6901 273.99 91.1201 277.52 88.7701C279.98 87.1401 282.52 85.6001 285.06 84.1101C286.12 83.4701 287.18 82.84 288.24 82.19C288.51 82.03 288.84 81.7801 289.24 81.5101C289.863 80.9576 290.586 80.5298 291.37 80.2501C292.96 79.9901 295.96 81.9601 298.11 83.3701C298.94 83.9201 299.66 84.37 300.23 84.7C301.064 85.1073 301.844 85.618 302.55 86.22L302.78 86.45L300.78 90.6C299.4 93.53 297.97 96.6001 297.38 97.7501C296.79 98.9001 292.25 103.14 287.84 107.22C283.43 111.3 278.73 115.67 276.22 118.53C272.64 122.6 259.13 134.31 251.05 141.31C246.79 145 244.55 146.95 244.19 147.31L243.96 147.57C241.424 150.511 238.445 153.038 235.13 155.06C230.41 157.95 214 160.98 212.04 161.33C211.87 161.18 211.57 160.89 211.16 160.5C209.09 158.5 204.77 154.44 202.63 153.07C200.49 151.7 193.75 151.46 191.01 151.46H189.94C189.841 151.46 189.745 151.496 189.671 151.563C189.597 151.629 189.55 151.721 189.54 151.82C189.527 151.916 189.549 152.014 189.602 152.095C189.656 152.175 189.737 152.234 189.83 152.26C189.93 152.26 199.38 154.92 201.76 155.82C203.54 156.5 205.22 159.56 205.83 160.82C202.83 161.21 188.51 163.03 185.24 163.13L169.18 163.61C165.42 163.36 156.29 162.43 148.94 161.68C144.13 161.19 140.33 160.81 139.69 160.78C135.31 160.59 130.69 160.19 125.9 159.58C123.31 159.34 120.798 158.567 118.52 157.31C116.3 156.03 114.62 153.8 112.99 151.65C112.51 151 111.99 150.36 111.54 149.76C111.23 149.39 110.95 149 110.66 148.61C110.37 148.22 109.98 147.69 109.6 147.25C108.911 145.346 107.987 143.536 106.85 141.86C109.454 142.392 111.972 143.284 114.33 144.51C116.311 145.571 118.427 146.358 120.62 146.85C121.759 147.056 122.913 147.163 124.07 147.17C126.299 147.176 128.5 146.681 130.51 145.72H130.63H130.77C144.53 140.65 144.65 130.33 144.71 124.79C144.653 123.717 144.741 122.64 144.97 121.59C145.14 121.15 145.37 120.66 145.62 120.13C147.22 116.67 149.91 110.89 145.39 100.41C142.45 93.5901 137.14 92.1601 133.21 92.1601C131.168 92.1467 129.138 92.485 127.21 93.1601C123.792 93.5643 120.406 94.2125 117.08 95.1C106.86 97.68 101.3 111.39 98.7302 120.16C98.3939 119.545 97.9732 118.979 97.4802 118.48C97.2502 118.25 96.9801 118.02 96.7001 117.79C96.7497 112.276 98.1214 106.854 100.7 101.98C105.01 93.5601 102.7 89.63 100.22 85.47C98.7936 83.2963 97.7768 80.8798 97.2202 78.34C95.6002 69.61 82.5902 66.56 73.0802 64.34L72.2202 64.1401C69.1004 63.331 66.0814 62.1737 63.2202 60.69C60.4502 59.36 58.0602 58.21 55.6202 58.21C54.5413 58.2104 53.4747 58.4388 52.4902 58.8801C47.6402 61.0401 50.1202 73.9401 51.5902 80.0001C50.6802 79.8901 49.7302 79.8201 48.8302 79.7701C47.1002 79.6801 45.1402 79.57 44.8902 78.94C44.3402 77.53 41.4802 76.6701 39.6702 76.6701C38.6702 76.6701 38.1002 76.9301 37.9402 77.4301C37.8224 78.3162 37.8224 79.2139 37.9402 80.1C38.0902 82.68 38.3202 86.57 37.1902 88.58C35.9402 90.79 36.2502 92.8101 36.5602 94.7601C36.7301 95.7012 36.827 96.654 36.8502 97.6101C36.8502 98.6101 36.9102 100.37 37.0402 102.61C34.8244 102.022 32.5426 101.72 30.2502 101.71C22.2502 101.71 15.1402 105.41 11.9702 108.85C9.38118 111.855 6.03559 114.113 2.28017 115.39C-0.0998319 116.3 0.0802048 117.49 0.630205 121.01C0.760205 121.81 0.910188 122.75 1.05019 123.84C1.85019 129.84 4.86017 137.76 8.72017 144.05C11.8902 149.21 20.6302 152.24 26.4202 154.25L28.1502 154.85C16.7002 161.2 15.6301 167.85 14.5101 174.93C14.3001 176.31 14.0701 177.74 13.7601 179.17C13.0698 182.337 12.8375 185.587 13.0702 188.82C13.1802 191 13.2502 192.44 12.2802 194.05C11.3102 195.66 11.0002 196.79 11.3902 197.57C11.7802 198.35 13.0902 198.76 15.0602 198.93C16.2602 199.04 18.9302 199.63 22.0602 200.31C26.9102 201.37 32.4002 202.58 35.0602 202.58H35.6602C39.4702 202.47 46.4802 202.23 53.5402 194C53.8613 195.136 54.35 196.218 54.9902 197.21C57.1265 200.473 59.0569 203.866 60.7702 207.37C61.3234 208.65 61.7879 209.966 62.1602 211.31C63.3102 215.04 64.1602 217.5 65.4002 217.73C65.4999 217.74 65.6004 217.74 65.7001 217.73C67.1002 217.73 68.7502 216.11 70.5002 214.39L71.6902 213.25C71.7502 214.25 71.8302 214.87 71.8402 214.99C71.9095 216.67 71.602 218.344 70.9402 219.89C69.0502 220.89 67.3102 221.75 65.6502 222.63C64.1602 223.41 64.0002 224.23 64.1302 224.79C64.3017 225.294 64.6595 225.712 65.1302 225.96C66.994 227.123 69.1536 227.724 71.3502 227.69C73.149 227.672 74.9303 227.334 76.6102 226.69C80.6102 225.18 83.7802 222.28 86.0902 219.93C91.2302 214.7 96.1902 209.44 100.32 203.14C101.879 205.331 103.887 207.165 106.21 208.52C108.609 209.829 110.694 211.644 112.32 213.84C113.69 215.495 115.145 217.077 116.68 218.58C120.08 221.88 121.17 222.78 122.36 222.78C122.938 222.733 123.501 222.577 124.02 222.32L124.66 222.06C127.77 220.88 127.73 215.16 127.34 210.3C127.236 208.044 127.611 205.791 128.44 203.69C129.974 198.94 131.013 194.044 131.54 189.08C132.89 178 126.38 173.94 121.15 170.68C119.537 169.755 118.017 168.677 116.61 167.46C114.439 165.342 112.611 162.9 111.19 160.22C111.446 160.306 111.718 160.332 111.985 160.295C112.252 160.259 112.507 160.161 112.73 160.01L112.95 159.81C113.025 159.712 113.131 159.641 113.25 159.61C113.494 159.664 113.721 159.777 113.91 159.94L114.05 160.04C114.459 160.302 114.922 160.466 115.405 160.518C115.887 160.57 116.375 160.509 116.83 160.34C117.462 160.116 118.141 160.054 118.803 160.161C119.465 160.267 120.09 160.539 120.62 160.95L120.97 161.11C123.63 162.29 129.47 163.18 132.97 163.18H133.16C135.97 163.18 148.51 164.51 152.33 164.92C151.071 165.852 149.887 166.882 148.79 168C146.98 169.77 147.04 175.14 147.05 175.36C147.05 175.46 147.086 175.556 147.153 175.63C147.219 175.704 147.311 175.75 147.41 175.76C147.508 175.778 147.609 175.756 147.692 175.7C147.774 175.644 147.831 175.558 147.85 175.46C148.2 174.05 149.44 170.26 151.06 169.53C153.06 168.65 157.74 166.43 158.55 166.04C164.388 166.913 170.289 167.295 176.19 167.18C178.05 167.18 179.92 167.18 181.79 167.11C178.252 167.832 174.915 169.324 172.019 171.481C169.122 173.638 166.736 176.407 165.03 179.59C162.23 184.67 160.48 191.34 158.62 198.41C155 212.16 151.25 226.41 139.4 228.88C139.4 228.88 139.34 228.88 139.31 228.94C139.28 229 139.24 228.94 139.21 228.94C139.155 228.995 139.117 229.064 139.1 229.14C139.104 229.237 139.135 229.33 139.19 229.41H139.25C139.25 229.41 139.34 229.5 139.4 229.51C142.011 230.197 144.701 230.533 147.4 230.51C151.72 230.51 157.76 229.51 161.97 224.79C170.05 215.7 172.19 206.57 173.97 189.54C175.68 172.74 190.31 167.18 190.46 167.13C190.547 167.093 190.62 167.03 190.67 166.95C190.689 166.881 190.689 166.809 190.67 166.74C194.78 166.56 198.67 166.34 201.93 166.16C205.37 165.97 208.1 165.81 209.7 165.79C216.57 165.67 242.38 160.34 245.61 154.79C246.78 152.79 251.2 148.61 255.27 144.91C252.48 153.76 249.27 162.78 248.21 163.91C247.82 164.53 247.05 165.91 246.07 167.71C244.13 171.23 240.54 177.71 239.7 178.25C239.642 178.23 239.579 178.23 239.52 178.25C238.11 178.25 217.52 175.52 215.52 174.79C213.85 174.39 209.94 171.67 208.1 170.29C208.021 170.228 207.92 170.2 207.82 170.21C207.738 170.215 207.659 170.246 207.594 170.298C207.53 170.35 207.483 170.42 207.46 170.5C207.435 170.578 207.435 170.662 207.458 170.74C207.481 170.818 207.527 170.888 207.59 170.94L207.93 171.27C211.93 175.19 214.42 177.35 215.6 177.85C217.43 178.85 234.6 180.98 237.97 181.23C236.4 184.62 224.41 204.95 222.41 205.66C222.17 205.82 221.41 206.07 218.74 206.07C215.082 206.017 211.429 205.756 207.8 205.29C207.732 205.27 207.659 205.27 207.59 205.29C207.507 205.3 207.428 205.336 207.367 205.394C207.306 205.451 207.265 205.527 207.25 205.61C207.215 205.697 207.215 205.793 207.25 205.88C207.299 205.963 207.373 206.029 207.46 206.07C207.79 206.21 216.72 209.07 220.06 209.23C219.99 211.23 219.24 219.96 218.57 220.87C218.34 221.19 218.09 221.57 217.84 221.98C217.03 223.24 216.12 224.67 214.91 224.98C214.782 225.016 214.652 225.043 214.52 225.06C214.402 225.07 214.285 225.09 214.17 225.12C213.462 225.302 212.827 225.696 212.35 226.25C212.11 226.509 211.886 226.783 211.68 227.07C211.542 227.238 211.455 227.443 211.43 227.66C210.77 227.83 210.03 228.06 209.2 228.35C208.93 227.88 208.08 227.35 203.75 227.35C201.67 227.35 199.75 227.49 199.57 227.52L199.11 227.59C195.369 227.99 191.699 228.895 188.2 230.28C187.5 230.58 186.8 230.9 186.11 231.22C183.49 232.585 180.683 233.555 177.78 234.1C175.59 234.432 173.585 235.518 172.11 237.17C171.493 237.835 170.947 238.562 170.48 239.34L170.38 239.49C169.96 240.16 169.24 241.28 169.82 241.94C169.885 242.016 169.967 242.076 170.059 242.116C170.15 242.156 170.25 242.174 170.35 242.17C170.66 242.139 170.96 242.044 171.23 241.89L171.39 241.81C171.805 241.669 172.23 241.555 172.66 241.47C173.06 241.392 173.464 241.335 173.87 241.3C172.942 241.855 172.062 242.487 171.24 243.19C169.837 244.528 168.68 246.102 167.82 247.84C167.114 249.202 166.252 250.478 165.25 251.64C165.142 251.748 165.063 251.882 165.021 252.029C164.979 252.176 164.976 252.331 165.01 252.48C165.085 252.691 165.209 252.881 165.373 253.034C165.537 253.188 165.734 253.299 165.95 253.36C166.366 253.496 166.803 253.561 167.24 253.55H167.88L171.78 253.25C170.778 254.915 170.259 256.827 170.28 258.77C170.389 260.623 170.691 262.46 171.18 264.25C171.66 266.25 172.05 267.84 171.56 269.18C171.429 269.423 171.36 269.694 171.36 269.97C171.36 270.246 171.429 270.517 171.56 270.76C171.716 270.943 171.914 271.085 172.137 271.174C172.36 271.263 172.601 271.296 172.84 271.27C173.922 271.181 174.99 270.963 176.02 270.62L177.02 270.34C177.945 270.087 178.845 269.752 179.71 269.34C180.17 272.348 181.087 275.269 182.43 278C182.678 278.502 182.892 279.02 183.07 279.55C183.26 280.25 183.83 280.55 184.77 280.55C185.683 280.495 186.59 280.361 187.48 280.15C189.373 279.694 191.313 279.469 193.26 279.48H193.43C196.29 279.48 201.15 277.25 204.93 272.99C207.157 270.484 208.773 267.496 209.65 264.26C210.024 266.842 210.178 269.452 210.11 272.06C210.11 274.3 210.11 275.66 211.22 275.69C212.39 275.69 213.16 273.69 214.33 270.37C214.851 268.655 215.559 267.001 216.44 265.44C216.82 264.89 217.1 264.44 217.36 263.98C218.058 265.351 218.903 266.642 219.88 267.83C220.883 268.943 221.999 269.948 223.21 270.83C224.24 271.598 225.203 272.451 226.09 273.38C226.388 273.696 226.748 273.948 227.147 274.12C227.546 274.292 227.976 274.381 228.41 274.38C228.821 274.388 229.228 274.295 229.594 274.108C229.96 273.921 230.275 273.647 230.51 273.31C231.23 272.31 231.07 270.75 230.92 269.38C230.827 268.718 230.8 268.048 230.84 267.38C231.01 266.09 231.24 264.75 231.54 263.3C231.31 254.61 228.54 252.76 225.96 250.98C225.291 250.549 224.653 250.071 224.05 249.55C222.411 248.168 221.128 246.412 220.31 244.43C219.84 243.49 219.24 242.32 218.38 240.76C216.811 237.993 216.157 234.801 216.51 231.64C216.588 231.224 216.641 230.803 216.67 230.38C216.737 230.355 216.796 230.312 216.84 230.255C216.884 230.199 216.912 230.131 216.92 230.06C216.947 229.914 216.994 229.773 217.06 229.64C217.152 229.449 217.219 229.248 217.26 229.04C217.285 228.734 217.285 228.426 217.26 228.12C217.26 227.97 217.26 227.82 217.26 227.67C217.225 227.351 217.254 227.027 217.347 226.72C217.44 226.412 217.594 226.127 217.8 225.88C218.278 225.388 218.793 224.934 219.34 224.52C220.15 223.931 220.877 223.234 221.5 222.45C223.15 220.36 224.73 210.51 224.6 208.31C225.34 207.42 227.73 203.72 237.26 188.44C238.87 186.22 241.26 182.2 243.82 177.95C246.46 173.54 249.18 168.95 251.21 166.11C252.12 167.87 254.73 173.3 255.16 176.9C255.172 176.987 255.211 177.068 255.272 177.131C255.334 177.194 255.414 177.236 255.5 177.25C255.585 177.266 255.673 177.254 255.75 177.216C255.827 177.179 255.891 177.117 255.93 177.04C255.944 176.961 255.944 176.88 255.93 176.8C256.05 175.15 255.56 166.75 254.8 164.28C254.37 162.74 254.09 161.78 253.98 161.4C257.023 154.053 259.693 146.557 261.98 138.94C261.985 138.907 261.985 138.873 261.98 138.84L262.18 138.66C268.45 133.1 274.37 127.85 276.18 125.41C277.269 124.001 278.448 122.665 279.71 121.41C279.38 122.21 278.97 123.33 278.5 124.73C274.15 135.73 262.58 165.1 261.22 186.63C260.74 201.63 266.13 218.12 277.22 235.75C277.86 236.82 278.51 237.89 279.22 238.96C279.245 238.992 279.275 239.019 279.31 239.04C279.31 239.04 279.31 239.04 279.37 239.04C279.429 239.079 279.499 239.1 279.57 239.1H279.67H279.75C279.795 239.057 279.833 239.006 279.86 238.95C279.863 238.917 279.863 238.883 279.86 238.85C279.839 238.664 279.767 238.487 279.65 238.34C276.5 231.8 275.26 217.82 278.65 205.72C281.27 196.1 280.33 187.84 278.78 174.16C278.38 170.64 277.92 166.65 277.49 162.16C275.49 143.16 279.81 124.66 280.71 121.1C280.85 120.68 280.9 120.48 280.82 120.3C284.31 116.82 289.94 111.59 299.05 103.71C301.58 101.52 303.68 97.04 305.53 93.09C306.82 90.35 308.03 87.77 309.03 86.85C309.81 86.13 311.23 84.7301 312.87 83.1101C314.22 81.7801 315.76 80.2601 317.3 78.7701C315.76 88.1501 314.66 93.77 314.21 94.69C313.21 96.69 309 107.32 308.81 107.8L308.05 110.24C306.7 119.31 304.27 134.07 303.45 135.04C302.63 136.01 294.9 138.39 290.2 139.68C290.103 139.706 290.019 139.768 289.965 139.853C289.911 139.939 289.892 140.041 289.91 140.14C289.915 140.192 289.93 140.242 289.956 140.288C289.981 140.334 290.015 140.374 290.056 140.406C290.097 140.438 290.145 140.461 290.195 140.473C290.246 140.486 290.299 140.488 290.35 140.48C290.75 140.48 299.9 139.62 302.85 138.71C303.37 139.77 303.85 140.84 304.36 141.91C304.59 142.41 304.81 142.91 305.03 143.43L305.72 144.98C306.016 145.699 306.182 146.464 306.21 147.24V147.47C306.21 147.77 306.27 148.08 306.27 148.38C306.258 148.879 306.148 149.371 305.946 149.828C305.743 150.284 305.452 150.696 305.09 151.04C302.49 151.611 300.078 152.833 298.079 154.591C296.08 156.348 294.559 158.585 293.66 161.09C291.679 166.442 290.664 172.103 290.66 177.81C290.649 179.45 290.525 181.087 290.29 182.71C289.44 187.5 289.85 197.71 290.58 201.84L290.66 202.36C291.33 206.53 292.39 211.3 294.66 211.3C294.869 211.3 295.077 211.259 295.27 211.18C295.567 211.067 295.837 210.891 296.061 210.665C296.286 210.439 296.459 210.168 296.57 209.87H296.68H296.8C296.939 209.862 297.074 209.828 297.2 209.77C298.001 209.461 298.717 208.968 299.29 208.33L299.66 207.97C300.633 207.143 301.47 206.168 302.14 205.08C302.94 203.66 304.68 201.3 306.51 198.81C307.88 196.95 309.26 195.06 310.29 193.51C310.29 193.71 310.37 193.91 310.4 194.11C310.97 197.22 311.4 199.11 312.4 199.11C313.4 199.11 313.4 198.82 313.75 197.71C314.478 195.134 315.39 192.615 316.48 190.17C320.05 181.84 323.57 166 317.86 158.99C315.44 155.99 313.47 153.82 312 152.27C311.873 152.087 311.718 151.925 311.54 151.79L311.46 151.71C311.622 151.626 311.76 151.502 311.86 151.35C312.246 150.753 312.457 150.06 312.47 149.35C312.488 149.059 312.426 148.768 312.29 148.51C312.053 148.159 311.698 147.904 311.29 147.79C311.126 147.733 310.971 147.652 310.83 147.55C310.735 147.478 310.657 147.386 310.602 147.281C310.547 147.175 310.515 147.059 310.51 146.94C310.51 146.84 310.51 146.74 310.51 146.63C310.564 146.35 310.543 146.06 310.45 145.79C310.283 145.438 310.082 145.103 309.85 144.79C309.666 144.537 309.502 144.269 309.36 143.99C308.97 143.17 308.7 142.52 308.47 141.9L307.96 140.48C307.49 139.17 306.96 137.82 306.44 136.48C306.69 135.06 309.09 121.48 310.44 117.14C310.78 116.06 311.21 114.58 311.7 112.88C313.26 107.47 315.39 100.15 317.39 96.23C318.62 97.55 322.39 101.72 323.84 104.57C323.876 104.637 323.93 104.692 323.995 104.731C324.06 104.77 324.134 104.79 324.21 104.79C324.45 104.79 324.63 104.61 324.63 104.38C324.629 104.294 324.602 104.21 324.55 104.14C324.21 103.14 321.88 96.4201 320.49 94.1401L319.11 91.8701L323.36 72.96L323.94 72.48C327.43 69.7001 337.26 65.48 339.81 64.48C339.859 67.9345 340.163 71.3806 340.72 74.7901C340.735 74.8917 340.787 74.984 340.867 75.0488C340.947 75.1136 341.048 75.1462 341.15 75.1401C341.251 75.1331 341.346 75.0897 341.418 75.018C341.49 74.9463 341.533 74.8512 341.54 74.7501C341.8 70.6301 342.54 64.5301 343.48 63.8901C344.899 62.9966 346.379 62.2047 347.91 61.5201C349.64 60.6801 351.37 59.7601 353.05 58.8801C357.75 56.3901 362.19 54.05 365.3 53.95C366.12 53.95 366.86 53.95 367.57 53.95C359.91 66.11 350.3 84.4501 348.21 102.65C345.51 124.8 355.85 138.59 362.21 144.84L362.54 145.17C362.575 145.211 362.618 145.245 362.666 145.269C362.714 145.293 362.767 145.307 362.82 145.31C362.872 145.325 362.928 145.325 362.98 145.31C362.98 145.31 363.04 145.23 363.07 145.2C363.1 145.17 363.13 145.14 363.14 145.1C363.155 145.038 363.155 144.973 363.14 144.91C363.14 144.91 363.14 144.84 363.14 144.81C361.79 141.57 360.67 138.41 359.72 135.33C359.8 132.03 360.89 128.49 362.22 124.22C364.36 117.36 367.02 108.82 366.58 96.73C365.81 79.9 368.87 63.5401 371.14 54.0201C372.826 53.8364 374.415 53.1381 375.69 52.0201C379.27 49.1301 408.25 23.3001 408.55 23.0201C408.591 22.9836 408.624 22.9388 408.646 22.8889C408.668 22.8389 408.68 22.7848 408.68 22.73C408.762 22.7589 408.852 22.7587 408.934 22.7296C409.015 22.7004 409.085 22.6441 409.13 22.57ZM262.13 186.82C263.13 170.72 269.95 150.16 275.13 136.28C272.8 144.39 270.2 154.42 268.31 163.54C265.03 181.07 262.54 201.01 270.79 222.47C264.68 209.83 261.79 197.89 262.13 186.82ZM276.87 162.34C277.31 166.78 277.76 170.78 278.16 174.34C279.7 187.93 280.63 196.13 278.06 205.59C275.17 215.9 275.6 227.59 277.72 235.03C262.4 208.88 265.18 184.58 269.08 163.74C272.14 149 276.31 134.74 278.82 126.97C277.32 134.71 275.41 148.38 276.87 162.34ZM244.28 47.1501C245.649 47.1391 247.008 47.3938 248.28 47.9001C256.6 51.2001 261.03 56.72 267.79 67.83C269.375 70.5319 271.566 72.829 274.189 74.54C276.813 76.251 279.799 77.3293 282.91 77.69C270.08 79.29 265.37 72.09 257.47 59.85L255.92 57.45C252.98 52.93 249.32 50.2 245.03 49.32C241.728 48.7171 238.323 49.0639 235.21 50.32C237.868 48.4172 241.016 47.3171 244.28 47.1501ZM275.96 80.3901C272.423 80.3806 268.978 79.2612 266.11 77.19C262.59 74.72 259.2 70.7401 255.61 66.5201C249.36 59.1701 242.89 51.5201 235.12 51.5201C234.82 51.5201 234.51 51.52 234.21 51.59C237.509 50.0009 241.219 49.4734 244.83 50.08C248.89 50.91 252.37 53.52 255.18 57.85L256.74 60.2401C263.86 71.2401 268.65 78.7 279.52 78.7C281.248 78.6826 282.97 78.5187 284.67 78.21C281.969 79.5851 278.991 80.3305 275.96 80.3901ZM195.42 5.39008C194.727 4.27167 194.249 3.03381 194.01 1.74006C194.262 1.78106 194.499 1.88423 194.7 2.04011C196.685 3.17827 198.805 4.0619 201.01 4.67011C202.72 5.23011 204.84 5.9301 207.81 7.0301C213.39 9.0301 216.81 15.1701 218.21 18.4101C217.7 17.8901 217.21 17.4101 216.61 16.9201L216.19 16.57L214.99 15.57L214.41 15.1601C214.04 14.9001 213.67 14.6401 213.29 14.4001L212.65 14.0101C212.28 13.7901 211.91 13.5801 211.54 13.3901L210.86 13.0301C210.49 12.8501 210.12 12.6801 209.74 12.5301L209.07 12.2401C208.67 12.0801 208.27 11.95 207.87 11.82C207.67 11.76 207.47 11.6801 207.27 11.6301C206.68 11.4601 206.08 11.31 205.49 11.2C204.872 11.0915 204.264 10.9344 203.67 10.73C203.021 10.5114 202.386 10.2508 201.77 9.95002C199.429 8.77851 197.286 7.24659 195.42 5.4101V5.39008ZM201.73 10.8801C202.31 11.1427 202.905 11.373 203.51 11.57L203.66 11.6201C204.211 11.7985 204.772 11.9422 205.34 12.0501C205.954 12.1602 206.562 12.3037 207.16 12.48C207.62 12.62 208.08 12.79 208.55 12.96L208.98 13.1201C209.51 13.3301 210.04 13.58 210.57 13.84L210.79 13.94C211.32 14.21 211.79 14.51 212.36 14.82L212.58 14.95C213.07 15.25 213.58 15.59 214.04 15.95L214.31 16.1401C214.75 16.4601 215.18 16.8201 215.61 17.1401L215.99 17.44C216.37 17.77 216.74 18.13 217.1 18.44L217.57 18.8801C217.91 19.2201 218.23 19.59 218.57 19.95L219.04 20.46L219.15 20.71C219.25 20.96 219.36 21.2 219.45 21.46C222.82 31.25 224.58 58.0701 220.3 67.8601V67.69C220.3 67.58 220.3 67.4701 220.35 67.3601C220.4 67.2501 220.43 66.9001 220.47 66.6601C220.51 66.4201 220.47 66.4001 220.47 66.2701C220.47 66.1401 220.54 65.7801 220.57 65.5201C220.6 65.2601 220.57 65.2501 220.57 65.1101L220.66 64.23V63.8701C220.66 63.4501 220.73 63.0101 220.76 62.5601V62.4901C220.76 62.0701 220.76 61.63 220.83 61.19V60.6701V59.7701C220.83 59.5601 220.83 59.3501 220.83 59.1401V58.2901C220.83 58.0601 220.83 57.83 220.83 57.6C220.83 57.37 220.83 57.0701 220.83 56.8001V54.48C220.83 54.19 220.83 53.89 220.83 53.6C220.83 53.1 220.83 52.6 220.83 52.09C220.83 51.88 220.83 51.66 220.83 51.44C220.83 51.22 220.83 50.8101 220.83 50.5001V49.8601C220.83 49.5401 220.83 49.2301 220.83 48.8601C220.83 48.4901 220.83 48.44 220.83 48.23C220.83 48.0201 220.83 47.6001 220.83 47.2801V46.69C220.83 46.36 220.83 46.04 220.76 45.69V45.2401C220.67 44.0501 220.56 42.8901 220.45 41.7601C220.45 41.6201 220.45 41.48 220.45 41.35C220.45 41.03 220.38 40.7201 220.35 40.4101L220.29 39.9201C220.29 39.6301 220.22 39.3401 220.18 39.0501C220.14 38.7601 220.18 38.7201 220.11 38.5501L219.99 37.73C219.99 37.57 219.99 37.4101 219.91 37.2501C219.83 37.0901 219.83 36.72 219.78 36.46C219.73 36.2 219.78 36.1801 219.71 36.0401C219.62 35.5401 219.52 35.04 219.43 34.6C219.43 34.49 219.43 34.3601 219.35 34.2501C219.27 34.1401 219.26 33.8701 219.21 33.6801C219.16 33.4901 219.14 33.36 219.1 33.21C219.06 33.06 219.01 32.87 218.96 32.71C218.91 32.55 218.88 32.4101 218.83 32.2701C218.78 32.1301 218.74 31.97 218.69 31.83C218.64 31.69 218.6 31.5601 218.55 31.4301C218.5 31.3001 218.45 31.1801 218.41 31.0601C218.37 30.9401 218.3 30.81 218.24 30.69L218.11 30.4101C218.03 30.2601 217.95 30.1301 217.87 30.0001L217.8 29.8901C217.24 29.0901 216.68 28.22 216.1 27.32C214.1 24.21 211.89 20.8301 208.92 18.6601L208.85 18.6L208.61 18.44C206.802 17.1534 204.658 16.4235 202.44 16.34H202.18C201.75 16.34 201.34 16.3401 200.96 16.2501C200.58 16.1601 200.43 16.2001 200.17 16.1601C200.1 16.0401 200.02 15.9101 199.96 15.7901C200.352 14.0952 200.947 12.4534 201.73 10.9001V10.8801ZM179.91 14.69C180.675 13.2971 181.129 11.7552 181.24 10.1701C181.359 10.031 181.528 9.94468 181.71 9.93012C181.94 9.95684 182.164 10.0245 182.37 10.1301C182.826 10.3199 183.298 10.4671 183.78 10.57C185.576 10.9915 187.416 11.1931 189.26 11.1701L190.26 11.1C190.87 11.1 191.47 11.0201 192.06 11.0201C193.148 10.9726 194.229 11.2178 195.19 11.73C196.756 12.8481 198.054 14.2997 198.99 15.98V16.09C198.367 15.9711 197.752 15.8108 197.15 15.6101H197.08C196.56 15.4221 196.055 15.1949 195.57 14.9301H195.48L194.98 14.6301L194.84 14.5501L194.36 14.23C193.518 13.6012 192.549 13.1643 191.52 12.95C190.901 12.8413 190.264 12.8756 189.66 13.0501C187.12 13.7501 185.36 16.6701 185.11 18.2601C184.604 20.1775 183.894 22.0349 182.99 23.8001L182.92 23.98C182.92 24.04 182.87 24.11 182.84 24.19V24.2801C182.84 24.2801 182.84 24.3501 182.84 24.4001C182.58 24.2801 182.32 24.17 182.05 24.07C178.36 18.89 179.29 15.84 179.91 14.71V14.69ZM163.79 43.6201C163.96 39.8201 160.11 36.0101 157.79 33.7401C157.28 33.2401 156.79 32.8001 156.6 32.5101C156.41 32.2201 156.21 32.0701 156.02 31.8701C155.68 31.5001 155.21 31.0001 155.28 30.8701C155.35 30.7401 155.76 30.3001 158.6 29.8701C161.439 29.4276 164.208 28.621 166.84 27.47C168.73 26.74 171.09 25.8201 174.43 24.7701C176.703 24.0172 179.158 24.0172 181.43 24.7701C181.69 25.1401 181.98 25.5201 182.28 25.9101C181.21 30.3798 181.679 35.0796 183.61 39.2501L183.7 39.45C183.93 39.95 184.18 40.45 184.45 40.96L184.65 41.32C184.98 41.91 185.33 42.5 185.73 43.1C188.358 46.9051 191.393 50.4125 194.78 53.5601L195.21 53.9901C195.37 54.1301 195.52 54.2601 195.67 54.4101C198.78 57.2801 201.67 59.6101 203.79 61.2601C204.79 62.0701 205.63 62.7001 206.15 63.1701C206.31 63.3101 206.48 63.4801 206.66 63.6601L206.84 63.85L207.19 64.23L207.48 64.58L207.76 64.9001L208.11 65.34L208.37 65.6801L208.74 66.1601L209.02 66.5401L209.37 67.0201C209.48 67.1701 209.59 67.32 209.69 67.48L209.9 67.7701C210.2 68.1901 210.49 68.6201 210.77 69.0301C210.77 69.1201 210.88 69.2001 210.94 69.2901L211.15 69.6101L211.37 69.9901L210.93 69.47L210.6 69.0601C210.31 68.7301 210.03 68.4201 209.74 68.1401C208.046 66.4891 206.217 64.9838 204.27 63.6401C201.447 61.7129 198.363 60.2008 195.11 59.1501C194.4 58.9301 193.69 58.7301 192.99 58.5601C192.29 58.3901 191.58 58.2401 190.88 58.1201C189.75 57.9301 188.58 57.79 187.35 57.69H187.1C186.1 57.62 185.1 57.58 183.96 57.57H183.39H182.04C167.27 53 163.62 46.4601 163.79 43.6201ZM151.23 66.5501C151.226 66.61 151.226 66.6701 151.23 66.73C151.19 66.8732 151.17 67.0214 151.17 67.1701C151.17 67.1701 151.17 67.2401 151.17 67.2801C150.78 66.7601 150.4 66.28 150.01 65.69L149.67 65.22C148.57 63.68 148.13 62.8 148.23 62.34C148.33 61.88 148.83 61.72 149.53 61.34C150.065 61.0669 150.586 60.7665 151.09 60.44C154.762 58.1117 158.994 56.8194 163.34 56.7C163.82 56.7 164.29 56.7001 164.76 56.7601C167.677 57.0802 170.575 57.5575 173.44 58.19C172.22 58.34 171.09 58.5001 170.11 58.6501C169.46 58.7801 154.06 61.72 151.55 65.96C151.4 66.1387 151.276 66.3373 151.18 66.5501H151.23ZM200.49 69.19C194.78 69.19 188.49 70.6201 180.68 73.6701C176.123 75.5591 171.093 75.9922 166.28 74.9101L165.22 74.6501C162.04 73.8701 156.8 72.58 153.9 70.21C153.868 70.1687 153.827 70.1347 153.78 70.1101C153.56 69.9201 153.37 69.7301 153.19 69.5501L153.09 69.4301C152.95 69.2768 152.82 69.1267 152.7 68.98C152.621 68.8705 152.548 68.7571 152.48 68.6401C152.414 68.5471 152.354 68.4503 152.3 68.35C152.182 68.132 152.081 67.9046 152 67.6701C151.936 67.4543 151.919 67.2269 151.952 67.004C151.985 66.7811 152.066 66.5681 152.19 66.3801C154.52 62.4501 170.05 59.49 170.19 59.46C172.19 59.16 174.12 58.91 175.92 58.72C177.83 58.53 179.92 58.37 181.92 58.32H181.97H183.43H183.93C184.93 58.32 185.98 58.3201 186.93 58.4301H187.23C188.43 58.5301 189.58 58.66 190.68 58.85C192.071 59.0909 193.444 59.425 194.79 59.85C197.967 60.8738 200.978 62.3525 203.73 64.2401C205.645 65.5558 207.444 67.0311 209.11 68.6501C209.718 69.2831 210.289 69.9509 210.82 70.6501C211.05 70.9401 211.28 71.2401 211.52 71.5201C208.04 69.9473 204.259 69.1521 200.44 69.19H200.49ZM215.65 66.2901C215.568 65.0428 215.274 63.8186 214.78 62.6701C214.189 61.4071 213.41 60.2405 212.47 59.21C210.59 57.05 208.47 54.8601 206.35 52.6401C204.258 50.5101 202.288 48.2632 200.45 45.9101C198.87 43.8514 197.528 41.6205 196.45 39.2601C195.677 37.5895 195.09 35.839 194.7 34.0401C194.551 33.3535 194.441 32.659 194.37 31.96C194.421 32.6607 194.508 33.3583 194.63 34.0501C194.955 35.8756 195.499 37.6551 196.25 39.35C197.326 41.7432 198.668 44.0075 200.25 46.1C202.061 48.4892 204.014 50.7668 206.1 52.9201C208.22 55.1301 210.38 57.2801 212.28 59.4201C213.213 60.413 213.989 61.5427 214.58 62.7701C215.079 63.8862 215.38 65.0807 215.47 66.3001C215.577 68.1393 215.473 69.9846 215.16 71.8001C215.07 72.3101 215 72.7101 214.95 73.0501H214.8C214.65 73.0544 214.5 73.0271 214.36 72.97C212.708 70.2112 210.912 67.5409 208.98 64.97L208.71 64.6301L208.39 64.23C208.24 64.0401 208.1 63.88 207.95 63.72C207.8 63.56 207.86 63.6101 207.82 63.5601C207.78 63.5101 207.49 63.1901 207.33 63.0301L207.27 62.97C207.09 62.78 206.92 62.62 206.75 62.47C206.21 62 205.4 61.3501 204.37 60.5401C203.71 60.0201 202.94 59.4101 202.14 58.7601C197.62 55.1101 191.14 49.4901 186.47 42.5601C186.09 41.9901 185.75 41.4201 185.47 40.8601L185.25 40.45C185.01 40 184.78 39.54 184.57 39.1C184.533 39.0008 184.49 38.904 184.44 38.8101C182.559 34.678 182.153 30.0255 183.29 25.6301C183.35 25.4101 183.41 25.2101 183.47 25.0401C183.66 24.4401 183.81 24.1 183.81 24.1C184.749 22.2627 185.484 20.3277 186 18.33C186.24 16.79 188.07 14.03 190.42 13.69C190.752 13.6392 191.089 13.6392 191.42 13.69C192.34 13.8829 193.204 14.2793 193.95 14.85L194.46 15.1801L194.67 15.3101L195.05 15.5301L195.34 15.69L195.73 15.8901L196.07 16.0501L196.59 16.2601L197.01 16.4101C197.26 16.5001 197.53 16.5801 197.82 16.6601L198.2 16.7501L198.98 16.9201L199.42 16.9901L199.82 17.0601H199.79L200.65 17.1701H201.02L202.29 17.2501C204.971 17.3856 207.513 18.4825 209.45 20.34C211.719 22.5845 213.688 25.112 215.31 27.8601C215.89 28.7601 216.45 29.64 217.02 30.44C220.26 35.1 221.44 63.7101 218.93 69.7601C218.282 70.6929 217.501 71.5251 216.61 72.23C216.101 72.6277 215.499 72.8892 214.86 72.9901C214.92 72.6701 215 72.2701 215.11 71.7601C215.498 69.9638 215.662 68.1267 215.6 66.2901H215.65ZM189.01 94.48C188.468 93.86 187.846 93.3151 187.16 92.8601C186.48 92.3723 185.749 91.9599 184.98 91.6301C184.542 91.4424 184.091 91.2853 183.63 91.1601L183.36 91.1C183.197 91.085 183.036 91.0515 182.88 91.0001C182.95 90.8901 183.21 90.64 184.23 90.21L184.4 90.1301C185.177 89.7799 185.988 89.5117 186.82 89.33C188.787 88.8538 190.857 89.0729 192.68 89.95C195.449 91.1793 198.384 91.9948 201.39 92.3701L203.64 92.7801C207.237 93.6229 210.708 94.9376 213.96 96.69L214.37 96.8901C216.408 98.0707 218.35 99.408 220.18 100.89C220.577 101.326 220.941 101.791 221.27 102.28C218.589 103.272 215.748 103.76 212.89 103.72C209.734 103.715 206.603 103.156 203.64 102.07C202.43 101.62 201.38 101.25 200.4 100.9L199.29 100.51L196.81 99.6201H196.72L195.8 99.2701H195.69C194.869 98.9821 194.064 98.6483 193.28 98.2701H193.21C193 98.1601 192.81 98.06 192.62 97.94C192.41 97.82 192.22 97.6901 192.02 97.5601C190.862 96.6808 189.832 95.6441 188.96 94.48H189.01ZM175.22 104C174.743 103.75 174.319 103.411 173.97 103C173.82 102.79 173.78 102.58 173.89 102.47C175.436 102.064 176.929 101.48 178.34 100.73C179.953 99.8251 181.714 99.2124 183.54 98.9201C185.95 98.6401 188.75 98.3301 191.54 98.1101L191.62 98.1601L192.08 98.46L192.25 98.5601L192.72 98.82L192.91 98.9201L193.51 99.2L193.62 99.2601C193.85 99.3701 194.11 99.47 194.37 99.58L194.66 99.7L195.25 99.9301L195.57 100.05L196.26 100.31L196.56 100.42L197.49 100.76H197.65L198.89 101.21L199.67 101.48L203.27 102.77C206.32 103.9 209.547 104.479 212.8 104.48C213.467 104.48 214.077 104.46 214.63 104.42L215.21 104.36L216.27 104.26L216.9 104.16C217.18 104.16 217.47 104.08 217.72 104.03L218.31 103.9L218.97 103.76L219.47 103.63L219.99 103.49L220.39 103.37L220.78 103.24L221.05 103.15L221.32 103.04H221.43H221.52C221.561 103.132 221.588 103.23 221.6 103.33L219.93 103.79L214.29 105.35L211.62 106.1L209.62 106.66C208.3 107.04 206.95 107.4 205.62 107.75L204.9 107.93L203.38 108.3L202.38 108.52L200.98 108.82L199.9 109.03L198.57 109.26L197.37 109.44L196.15 109.61C195.67 109.67 195.15 109.7 194.7 109.75L193.7 109.83C192.88 109.83 192.07 109.92 191.25 109.92C190.25 109.92 189.25 109.92 188.35 109.8C187.026 109.714 185.717 109.472 184.45 109.08C183.999 108.923 183.559 108.74 183.13 108.53L183.01 108.47C182.59 108.26 182.18 108.04 181.79 107.82L180.79 107.25L175.22 104ZM206.89 119.86C205.63 120.842 204.438 121.908 203.32 123.05C202.572 123.901 201.902 124.818 201.32 125.79C200.837 126.554 200.313 127.292 199.75 128C197.613 130.557 194.899 132.57 191.83 133.87C189.141 135.001 186.257 135.595 183.34 135.62C181.283 135.656 179.241 135.267 177.34 134.48C176.892 134.285 176.463 134.047 176.06 133.77C174.41 132.618 172.627 131.668 170.75 130.94C168.75 130.11 167.75 129.6 167.94 128.94C168.11 128.363 168.24 127.775 168.33 127.18C169.042 121.624 171.553 116.454 175.48 112.46C177.207 110.751 179.29 109.443 181.58 108.63C181.97 108.85 182.38 109.06 182.79 109.26H182.89C183.32 109.465 183.76 109.645 184.21 109.8C185.542 110.216 186.918 110.471 188.31 110.56C189.31 110.64 190.31 110.68 191.31 110.68C192.14 110.68 192.97 110.68 193.8 110.6L194.8 110.51C195.28 110.51 195.8 110.43 196.25 110.37C196.7 110.31 197.08 110.26 197.5 110.2L198.7 110.03L200.07 109.78L201.07 109.58L202.55 109.27L203.42 109.07L205.1 108.66L205.56 108.55C207 108.18 208.42 107.8 209.84 107.4C212.452 107.097 215 106.385 217.39 105.29L222.13 103.98H222.21L222.27 104.09H222.21L221.82 104.36L220.72 105.1L220.5 105.25C216.98 107.66 210.77 112.25 209.08 116.58C208.84 117.21 208.62 117.85 208.39 118.49V118.58L206.89 119.86ZM221.89 107.01C219.245 109.607 217.632 113.074 217.35 116.77C217.17 118.54 217 119.83 216.86 120.86C216.39 123.057 216.455 125.334 217.05 127.5C217.258 128.304 217.522 129.093 217.84 129.86C218.97 132.76 220.03 135.5 215.58 142.36C214.58 143.36 213.58 144.36 212.71 145.3C212.26 145.873 211.868 146.49 211.54 147.14C210.93 148.27 210.29 149.44 209.41 149.77C209.221 149.84 209.022 149.877 208.82 149.88C208.317 149.838 207.844 149.624 207.48 149.275C207.116 148.925 206.883 148.461 206.82 147.96C206.59 146.646 206.256 145.351 205.82 144.09C205.339 142.719 205.004 141.301 204.82 139.86C204.49 136.32 205.26 133.03 206.08 129.55L206.27 128.76C207.155 124.737 208.321 120.78 209.76 116.92C211.6 112.19 219.29 107.01 222.19 105.07L222.55 104.82C222.626 105.207 222.609 105.605 222.501 105.984C222.394 106.363 222.198 106.711 221.93 107L221.89 107.01ZM133.28 93.1301C136.96 93.1301 141.94 94.4701 144.71 100.88C149.08 111.02 146.49 116.6 144.94 119.88C144.69 120.44 144.45 120.94 144.28 121.4C144 122.538 143.892 123.711 143.96 124.88C143.9 130.29 143.8 139.16 132.57 144.23C134.57 142.23 137.95 138.34 139.2 134.23C139.309 133.875 139.399 133.515 139.47 133.15C139.47 133.07 139.47 132.99 139.47 132.91C139.52 132.61 139.56 132.3 139.59 132V131.71C139.61 131.327 139.61 130.943 139.59 130.56C139.342 128.353 138.793 126.189 137.96 124.13C136.57 120.28 135.48 117.23 139.68 113.95L140.17 113.44C141.45 112.04 144.72 108.07 143.71 104.87C143.58 104.45 143.41 103.92 143.2 103.35C143.2 103.22 143.11 103.1 143.06 102.97L142.94 102.69C142.87 102.5 142.79 102.32 142.7 102.12C142.668 102.038 142.631 101.958 142.59 101.88C142.5 101.69 142.41 101.49 142.3 101.29L142.12 100.96C142.03 100.79 141.94 100.62 141.83 100.45C141.72 100.28 141.63 100.13 141.52 99.97C141.45 99.8408 141.369 99.7171 141.28 99.6L140.78 98.9301L140.63 98.7401C140.39 98.4501 140.14 98.1701 139.87 97.8901C137.82 95.7901 134.71 93.98 129.87 93.48C131.006 93.252 132.162 93.1348 133.32 93.1301H133.28ZM117.28 96.1301C120.606 95.2418 123.991 94.5934 127.41 94.19H127.57C128.21 94.19 128.83 94.1901 129.41 94.2701L130.17 94.3601C130.55 94.4101 130.94 94.4501 131.3 94.5101C131.66 94.5701 131.78 94.6101 132.02 94.6601L133.02 94.8801L133.68 95.08L134.53 95.3601L135.17 95.6201C135.4 95.7101 135.62 95.8201 135.84 95.9201L136.5 96.2601L136.95 96.5301C137.2 96.6901 137.45 96.8401 137.67 97.0001L137.84 97.1301C140.263 99.0385 142.014 101.669 142.84 104.64L142.96 105.08C143.02 105.32 143.09 105.57 143.13 105.78C143.145 105.93 143.145 106.08 143.13 106.23C143.13 106.3 143.13 106.36 143.13 106.42C143.13 106.48 143.13 106.74 143.07 106.9V107.09C143.04 107.252 143 107.413 142.95 107.57C142.95 107.63 142.95 107.69 142.9 107.75C142.85 107.81 142.79 108.07 142.73 108.23C142.67 108.39 142.73 108.36 142.66 108.42L142.45 108.89L142.36 109.08L142.12 109.52C142.087 109.592 142.051 109.662 142.01 109.73L141.76 110.14C141.72 110.212 141.677 110.282 141.63 110.35L141.38 110.73L141.24 110.93L140.99 111.27L140.83 111.48L140.61 111.77C140.558 111.844 140.502 111.914 140.44 111.98C140.382 112.064 140.318 112.144 140.25 112.22L140.07 112.43L139.92 112.6L139.73 112.82L139.64 112.92C139.582 112.991 139.518 113.058 139.45 113.12L139.24 113.33C134.61 116.95 135.85 120.41 137.24 124.41C138.049 126.398 138.581 128.487 138.82 130.62C138.85 131.03 138.85 131.441 138.82 131.85C138.82 131.96 138.82 132.07 138.77 132.19C138.742 132.496 138.696 132.8 138.63 133.1L138.54 133.45C138.46 133.75 138.38 134.06 138.28 134.37C138.28 134.46 138.21 134.56 138.17 134.66C138.05 134.99 137.92 135.32 137.77 135.66L137.68 135.86C137.51 136.23 137.33 136.59 137.13 136.95V137.02C135.436 139.903 133.323 142.518 130.86 144.78L130.78 144.85C127.73 146.418 124.23 146.874 120.88 146.14C118.762 145.662 116.717 144.902 114.8 143.88C112.145 142.449 109.268 141.475 106.29 141C105.43 139.78 104.56 138.66 103.77 137.65C102.98 136.64 102.49 136.03 102.03 135.36C100.7 133.43 99.9402 130.36 99.5802 127.36C99.3719 125.645 99.2818 123.917 99.3102 122.19C99.3236 122.02 99.3236 121.85 99.3102 121.68C101.61 113.23 107.08 98.69 117.35 96.09L117.28 96.1301ZM96.8902 119.3C97.7726 120.062 98.3218 121.139 98.4202 122.3C98.3502 126.57 99.0602 132.67 101.29 135.91C101.76 136.6 102.36 137.36 103.06 138.25C103.76 139.14 104.77 140.44 105.65 141.69C106.926 143.458 107.974 145.38 108.77 147.41C108.76 147.456 108.76 147.504 108.77 147.55C109.236 149.259 109.57 151 109.77 152.76C109.801 154.193 109.7 155.626 109.47 157.04C109.389 157.338 109.292 157.632 109.18 157.92C109.15 158.018 109.15 158.122 109.18 158.22V158.34C108.839 159.936 108.357 161.499 107.74 163.01C107.714 162.938 107.676 162.871 107.63 162.81C107.58 162.45 107.51 161.99 107.42 161.4C107.18 160.02 106.85 158.04 106.27 155.7C105.69 153.36 104.93 150.7 103.94 147.81C102.936 144.817 101.594 141.949 99.9402 139.26C98.2109 136.599 95.9669 134.311 93.3402 132.53C91.0562 130.998 88.6117 129.721 86.0502 128.72C83.8202 127.81 81.9002 127.21 80.5702 126.72L78.4702 126.05L80.5502 126.78C81.8702 127.25 83.7502 127.95 85.9702 128.87C88.4981 129.896 90.9086 131.19 93.1602 132.73C95.7275 134.514 97.9134 136.792 99.5902 139.43C101.265 142.077 102.627 144.909 103.65 147.87C104.65 150.69 105.46 153.38 106.05 155.7C106.91 158.98 107.4 161.5 107.61 162.7L107.45 162.41C107.414 162.369 107.381 162.325 107.35 162.28C107.27 162.17 107.18 162.05 107.07 161.92C106.947 161.793 106.817 161.673 106.68 161.56C105.381 160.556 103.832 159.927 102.2 159.74C101.7 159.66 101.2 159.59 100.61 159.54H100.51C99.8102 159.48 99.0802 159.44 98.2902 159.44H97.0602C95.0602 159.51 93.6202 159.54 92.3602 159.54H91.7902H90.5602H90.4202C90.0202 159.54 89.6302 159.52 89.2502 159.48C83.5702 159.1 81.0802 157.48 78.9602 153.22L78.4302 152.22C77.8302 151.09 77.3202 150.22 76.8302 149.44V149.38C76.6002 149.03 76.3802 148.72 76.1502 148.43L76.1002 148.35C75.8802 148.07 75.6602 147.82 75.4402 147.58L75.3702 147.51C75.1502 147.28 74.9302 147.07 74.7001 146.86L74.6202 146.8C74.3902 146.6 74.1502 146.4 73.9002 146.21L73.8202 146.15L73.0101 145.58L72.8602 145.48L72.2001 145.03L71.9902 144.89C71.4502 144.53 70.8502 144.14 70.1802 143.67C69.8302 143.42 69.4002 143.16 68.9302 142.89L68.4802 142.63L68.3702 142.57C66.8302 141.73 64.9902 140.88 63.0702 140.01C58.8902 138.1 54.5702 136.13 53.6402 134.14C53.4917 133.872 53.4016 133.576 53.3757 133.271C53.3499 132.966 53.3889 132.659 53.4902 132.37C53.9602 131.21 55.7102 130.55 57.2402 129.97C57.8202 129.75 58.3602 129.54 58.8102 129.32C59.0886 129.182 59.359 129.028 59.6202 128.86L59.9202 128.65L60.4102 128.31L60.8102 128L61.1902 127.68L61.6202 127.29L61.9202 127C62.0802 126.84 62.2302 126.69 62.3702 126.53C62.5102 126.37 62.5302 126.36 62.6002 126.27C62.6702 126.18 62.8902 125.94 63.0302 125.77L63.1802 125.58C63.3302 125.38 63.4802 125.18 63.6202 124.97L63.7102 124.83V124.77C63.8202 124.59 63.9302 124.42 64.0202 124.25C64.1321 124.056 64.2323 123.856 64.3202 123.65L64.4602 123.35C64.5502 123.14 64.6602 122.89 64.7802 122.64C65.9002 120.31 68.5001 116.5 78.5101 115.07H78.6202C79.0402 115.01 79.4602 114.98 79.8902 114.94L80.8002 114.87H81.8802H82.6802C83.9214 114.87 85.161 114.957 86.3902 115.13H86.6402C87.1902 115.21 87.7202 115.3 88.2502 115.41L88.6302 115.5C89.1002 115.61 89.5602 115.73 90.0202 115.86L90.7402 116.1L91.6802 116.42C92.2202 116.64 92.7402 116.86 93.2202 117.1C93.6702 117.33 94.0902 117.57 94.4902 117.81L94.6702 117.91L94.9202 118.09C95.2671 118.314 95.601 118.558 95.9202 118.82C96.2766 118.942 96.6241 119.089 96.9602 119.26L96.8902 119.3ZM100.02 160.38C99.5802 164.25 97.0702 169.94 93.3902 175.48C93.2701 173.6 93.1202 171.65 92.9402 169.58C92.6802 166.58 92.4202 163.5 92.2902 160.43H92.3502C93.6202 160.43 95.0702 160.43 97.0702 160.33C98.0763 160.279 99.0844 160.282 100.09 160.34L100.02 160.38ZM56.1702 59.3001H56.4302C56.6802 59.3001 56.9302 59.3701 57.1702 59.4201H57.2902C59.2145 59.9447 61.0731 60.6861 62.8302 61.6301C65.7441 63.141 68.8206 64.3152 72.0002 65.1301L72.8702 65.34C82.1502 67.51 94.8702 70.49 96.3802 78.69C96.9647 81.3268 98.0327 83.8324 99.5302 86.08L100.42 87.6101V87.6701L100.8 88.3701C100.819 88.4219 100.843 88.4721 100.87 88.5201C100.97 88.7301 101.08 88.9301 101.17 89.1401C101.201 89.205 101.228 89.2717 101.25 89.34C101.34 89.53 101.43 89.7301 101.51 89.9301L101.59 90.1701C101.66 90.3601 101.73 90.5401 101.79 90.7401C101.85 90.9401 101.79 90.9301 101.87 91.0201L102.02 91.58C102.02 91.68 102.02 91.7901 102.02 91.8901C102.063 92.0749 102.097 92.2617 102.12 92.45C102.12 92.57 102.12 92.6901 102.12 92.8001C102.12 92.9101 102.12 93.1801 102.17 93.3701V93.7601C102.17 93.9601 102.17 94.14 102.17 94.34C102.17 94.54 102.17 94.6301 102.17 94.7801C102.17 94.9301 102.17 95.1701 102.11 95.3701C102.05 95.5701 102.06 95.69 102.03 95.85C102 96.01 101.97 96.25 101.92 96.47C101.87 96.69 101.83 96.8201 101.79 97.0001C101.75 97.1801 101.68 97.4201 101.62 97.6301C101.56 97.8401 101.49 98.02 101.42 98.22C101.35 98.42 101.28 98.6601 101.2 98.8801L100.94 99.5301C100.85 99.7501 100.76 99.98 100.65 100.22C100.54 100.46 100.43 100.69 100.32 100.93L100.05 101.49C99.8802 99.8301 99.7402 98.1401 99.6402 96.4901C99.2802 90.4901 94.0801 79.6601 89.7001 77.6101C85.5501 75.6701 80.0202 72.61 77.2502 68.82C75.3302 66.23 71.9202 65.8201 68.9202 65.5401C67.4239 65.4541 65.945 65.175 64.5202 64.71C63.2831 64.13 62.1377 63.3719 61.1202 62.46C59.5157 60.9881 57.5972 59.9008 55.5101 59.2801C55.8601 59.2301 56.0502 59.2501 56.2402 59.2601L56.1702 59.3001ZM52.7402 59.9001C56.2602 59.5701 58.5202 61.36 60.7402 63.09C61.8198 64.0492 63.0323 64.8475 64.3402 65.46C65.8345 65.9564 67.388 66.2523 68.9602 66.34C71.9602 66.66 74.9602 66.99 76.7202 69.34C79.6002 73.22 85.2502 76.4 89.4802 78.34C93.5602 80.25 98.6102 90.8101 98.9602 96.5301C99.0802 98.6901 99.2701 100.85 99.5101 102.93C97.3021 107.444 96.085 112.377 95.9402 117.4C95.8802 117.4 95.8102 117.32 95.7402 117.27C95.4502 117.07 95.1302 116.87 94.8002 116.67L94.4202 116.46C94.0602 116.26 93.6802 116.06 93.2702 115.87L93.1302 115.81C91.9345 115.27 90.6928 114.839 89.4202 114.52C89.657 114.159 89.8676 113.781 90.0502 113.39C90.6594 112.085 90.9995 110.67 91.0502 109.23C91.0945 107.195 90.797 105.167 90.1702 103.23C89.5302 101.1 88.6702 98.9 87.8502 96.69C86.3765 92.6074 84.3583 88.7425 81.8502 85.2C80.9828 84.0627 80.0084 83.0113 78.9402 82.0601C78.1702 81.3801 77.7001 81.0601 77.7001 81.0601C77.7001 81.0601 78.1502 81.4401 78.9002 82.1501C79.2602 82.5101 79.7102 82.9501 80.1702 83.5001C80.6302 84.0501 81.1702 84.6701 81.6702 85.3701C84.1195 88.9257 86.074 92.7979 87.4802 96.8801C88.3302 99.0701 89.2202 101.26 89.8802 103.36C90.5419 105.253 90.8799 107.245 90.8802 109.25C90.8713 110.669 90.5965 112.073 90.0702 113.39C89.9062 113.791 89.7123 114.179 89.4902 114.55C87.3351 114.012 85.1215 113.743 82.9002 113.75H82.6802C82.6802 113.41 82.6802 113.09 82.6802 112.75C82.6802 112.41 82.6802 112.15 82.6802 111.86V110.78C82.6802 110.48 82.6802 110.18 82.6802 109.9C82.6802 109.62 82.6802 109.27 82.6202 108.95C82.5602 108.63 82.6202 108.38 82.5602 108.11C82.5002 107.84 82.5602 107.56 82.4902 107.3C82.4202 107.04 82.4902 106.76 82.4102 106.51C82.3302 106.26 82.3502 106.03 82.3202 105.79C82.2902 105.55 82.2602 105.33 82.2402 105.11C82.2202 104.89 82.1702 104.66 82.1302 104.44C82.0902 104.22 82.0802 104.09 82.0602 103.93L81.9302 103.21C81.9262 103.133 81.9262 103.057 81.9302 102.98L81.7802 102.25C80.5002 96.2501 70.3702 88.9901 66.3102 88.2501C63.7602 87.8001 60.6002 85.39 58.0602 83.46C56.9959 82.6108 55.884 81.8229 54.7302 81.1C54.3922 80.9189 54.0371 80.7716 53.6702 80.6601L53.1102 80.5201C52.9602 80.5201 52.8502 80.4401 52.6902 80.4101C50.3102 71.4701 49.2702 61.5301 52.7902 59.8601L52.7402 59.9001ZM37.8502 89.23C39.1002 87.0201 38.8502 82.9801 38.7102 80.3001C38.6354 79.5119 38.6354 78.7184 38.7102 77.9301C38.7102 77.9301 38.9602 77.7401 39.6602 77.7401C41.3202 77.7401 43.7602 78.5601 44.1202 79.4901C44.5602 80.6001 46.4202 80.71 48.7802 80.84C50.0155 80.8821 51.2458 81.0192 52.4602 81.2501C52.6763 81.2872 52.89 81.3373 53.1002 81.4001C53.4482 81.4933 53.7839 81.6276 54.1002 81.8001C55.2212 82.5072 56.3028 83.275 57.3402 84.1C59.9602 86.1 63.2001 88.56 65.9501 89.1C69.8602 89.8 79.5801 96.91 80.7601 102.45C81.1499 104.338 81.4205 106.248 81.5702 108.17V108.26C81.5702 108.78 81.6502 109.32 81.6802 109.89C81.6802 110.23 81.6802 110.59 81.6802 110.95C81.6802 111.31 81.6802 111.48 81.6802 111.77C81.6802 112.36 81.6802 112.98 81.6802 113.61V113.8H81.4702L80.1902 113.87L79.6402 113.93C79.2001 113.93 78.7902 114.01 78.4002 114.07C72.7402 114.88 69.3502 116.44 67.2402 118.07C67.2402 117.94 67.2402 117.74 67.1602 117.47C67.0447 116.79 66.8707 116.121 66.6402 115.47C65.9143 113.534 64.9031 111.717 63.6402 110.08C62.4473 108.405 61.1087 106.839 59.6402 105.4C59.1234 104.947 58.531 104.588 57.8902 104.34C57.6503 104.248 57.4026 104.178 57.1502 104.13C58.0402 104.403 58.8457 104.898 59.4902 105.57C60.1624 106.24 60.7841 106.958 61.3502 107.72C62.0102 108.54 62.7002 109.42 63.3502 110.32C64.6113 111.925 65.6662 113.682 66.4902 115.55C66.7492 116.173 66.9696 116.81 67.1502 117.46C67.2102 117.74 67.2602 117.94 67.2902 118.06C65.7202 119.292 64.5083 120.922 63.7802 122.78L63.6502 123.08C63.5902 123 63.5201 122.93 63.4501 122.85C62.6401 121.9 61.8302 120.96 61.0002 120.06L60.7001 119.73C59.8701 118.82 59.0302 117.93 58.1902 117.07L57.9202 116.8C57.0702 115.94 56.2102 115.11 55.3602 114.31L55.1202 114.09C54.2602 113.29 53.4002 112.52 52.5502 111.79L52.3502 111.62C51.4902 110.89 50.6402 110.19 49.7902 109.54L49.6302 109.42C48.7802 108.76 47.9402 108.15 47.1102 107.58L47.0002 107.51C46.1602 106.94 45.3402 106.41 44.5402 105.95H44.4802C43.6602 105.48 42.8702 105.06 42.1002 104.7C41.3302 104.34 40.5102 104.01 39.6702 103.7C39.2502 103.54 38.8202 103.41 38.4002 103.28C38.2202 103.22 38.0502 103.15 37.8602 103.1C37.7202 100.68 37.6502 98.92 37.6602 97.85C37.6406 96.8436 37.5403 95.8404 37.3602 94.85C37.0902 92.94 36.7902 91.15 37.9202 89.19L37.8502 89.23ZM26.6402 153.77C20.9602 151.77 12.3802 148.83 9.3702 143.92C5.6202 137.82 2.5802 129.83 1.8102 124.03C1.6702 122.93 1.52015 122.03 1.39015 121.19C0.830154 117.59 0.820158 117.1 2.52016 116.46C6.39587 115.137 9.84809 112.803 12.5202 109.7C15.5702 106.39 22.4002 102.83 30.2002 102.83C32.8392 102.844 35.4614 103.252 37.9802 104.04C38.4302 104.18 38.8702 104.31 39.3002 104.47C40.1102 104.76 40.9202 105.08 41.7102 105.47C42.1002 105.65 42.5002 105.85 42.9002 106.06L43.2702 106.27L44.1302 106.75L44.6002 107.04L45.3902 107.52L45.9802 107.91C46.2102 108.06 46.4502 108.21 46.6902 108.38L47.2702 108.79L48.0101 109.32L48.6102 109.77L49.3502 110.33L50.0002 110.84L50.7202 111.42L51.3902 111.99L52.1002 112.58L52.7902 113.18L53.4902 113.81L54.2102 114.47C54.4402 114.68 54.6702 114.88 54.8902 115.1L55.6102 115.79L56.3102 116.46L57.0101 117.16L57.7102 117.87C57.9602 118.11 58.2002 118.37 58.4402 118.62L59.1202 119.33L59.8702 120.14C60.0802 120.38 60.3001 120.61 60.5101 120.84C60.7201 121.07 61.0202 121.41 61.2702 121.69L61.9002 122.41L62.6502 123.29L63.1902 123.92V123.99C62.9296 124.414 62.6423 124.822 62.3302 125.21C62.1702 125.41 61.9802 125.61 61.7902 125.81L61.3802 126.26C61.1302 126.51 60.8802 126.75 60.6102 126.98L60.4002 127.16C60.1202 127.4 59.8302 127.63 59.5402 127.84C59.1705 128.106 58.783 128.347 58.3802 128.56C57.9702 128.76 57.4402 128.96 56.8802 129.17L56.7202 129.23C56.4402 128.94 55.9002 128.42 55.1502 127.74C53.7657 126.519 52.3026 125.39 50.7702 124.36C49.2342 123.339 47.6305 122.423 45.9702 121.62C44.6002 120.97 43.6602 120.62 43.6602 120.62C43.6602 120.62 47.2302 122.48 50.5502 124.71C53.3202 126.54 55.8802 128.6 56.6802 129.26L56.2402 129.43C54.7302 130.02 53.2402 130.74 52.6602 132.03C52.6063 132.169 52.5661 132.313 52.5402 132.46C52.4145 133.139 52.5127 133.841 52.8202 134.46C54.3102 137.67 58.5402 139.31 62.2802 140.75L62.9702 141.01L56.1902 140.93H48.5302C45.6201 141.055 42.7072 140.762 39.8802 140.06C37.0302 139.27 34.6001 137.4 32.0101 136.29C29.4201 135.18 26.9502 134.29 24.8902 133.44C23.8902 133 22.8902 132.59 22.1302 132.16C21.4429 131.792 20.7753 131.388 20.1302 130.95C19.6102 130.56 19.1902 130.26 18.9402 130.02C18.6902 129.78 18.5302 129.67 18.5302 129.67L18.9202 130.04C19.1802 130.28 19.5802 130.6 20.0902 131.04C21.5654 132.099 23.1555 132.988 24.8302 133.69C26.8802 134.59 29.3702 135.44 31.9002 136.61C33.1702 137.19 34.4102 137.92 35.6902 138.61C36.9811 139.38 38.357 139.997 39.7902 140.45C42.6571 141.133 45.6074 141.399 48.5502 141.24L56.2102 141.17L63.0402 141.05C64.1302 141.47 65.1702 141.89 66.0902 142.34L66.2601 142.42C66.6101 142.6 66.9401 142.78 67.2601 142.97C65.6232 143.985 63.9078 144.868 62.1302 145.61C61.4602 145.78 60.7802 145.93 60.0602 146.05L58.2601 146.37C56.2601 146.73 54.1802 147.09 52.1302 147.47C51.0402 147.61 49.9402 147.77 48.8602 147.99C42.0089 149.264 35.3729 151.503 29.1502 154.64L26.6402 153.77ZM53.4302 187.63C53.4255 187.66 53.4255 187.69 53.4302 187.72C53.1593 188.957 53.045 190.224 53.0902 191.49V191.55C53.1073 192.141 53.1708 192.729 53.2802 193.31C46.2802 201.73 39.3502 201.94 35.6002 202.05H35.0202C32.4202 202.05 26.7302 200.79 22.1702 199.79C19.0502 199.1 16.3602 198.51 15.1002 198.4C13.5002 198.26 12.3802 198.05 12.1002 197.48C11.8202 196.91 12.1002 196.08 12.9602 194.75C14.0602 192.93 13.9602 191.31 13.8702 189.06C13.6306 185.898 13.8563 182.717 14.5402 179.62C14.8502 178.16 15.0802 176.73 15.3002 175.33C16.4402 168.14 17.4302 161.93 28.6902 155.75L29.3102 155.43C36.4802 151.64 44.3102 149.74 52.1802 148.27L54.1802 148.03C55.8202 147.84 57.5202 147.65 59.1802 147.33C60.2722 147.096 61.3401 146.761 62.3702 146.33C64.3971 145.818 66.2789 144.846 67.8702 143.49L68.1002 143.35L68.8502 143.81L69.0302 143.92C69.2202 144.04 69.4302 144.16 69.6002 144.28C70.2302 144.71 70.7802 145.09 71.2902 145.42C71.0602 145.66 70.7402 145.99 70.2902 146.42C69.0415 147.631 67.7045 148.747 66.2902 149.76C64.3227 151.207 62.2156 152.453 60.0002 153.48C57.4448 154.653 54.7594 155.519 52.0002 156.06C49.2228 156.489 46.4692 157.06 43.7502 157.77C41.3979 158.512 39.1797 159.626 37.1802 161.07C35.77 162.089 34.4875 163.275 33.3602 164.6C32.5502 165.6 32.1402 166.15 32.1402 166.15C32.1402 166.15 32.5702 165.57 33.4102 164.64C34.5812 163.374 35.8855 162.237 37.3002 161.25C39.2971 159.846 41.5047 158.77 43.8402 158.06C46.4002 157.28 49.2602 157.06 52.0902 156.46C54.854 155.879 57.5394 154.973 60.0902 153.76C62.3079 152.698 64.4149 151.418 66.3802 149.94C67.7671 148.892 69.0648 147.732 70.2601 146.47C70.6702 146.05 70.9801 145.71 71.2001 145.47L71.3102 145.55L72.3102 146.2L73.1202 146.77H73.1802C73.4202 146.95 73.6502 147.14 73.8702 147.33L73.9402 147.38C74.1602 147.58 74.3702 147.78 74.5802 148C75.713 149.28 76.659 150.715 77.3902 152.26L75.7302 154.39L75.5002 154.69C73.4002 157.37 71.1302 160.23 68.9102 163.01C64.5602 168.47 60.4501 173.63 58.5101 176.46C58.0101 177.19 57.5602 177.9 57.1202 178.61L56.8502 179.07C56.0386 180.418 55.317 181.817 54.6902 183.26L54.5902 183.5C54.1041 184.828 53.7393 186.197 53.5002 187.59L53.4302 187.63ZM71.5902 212.49C71.0302 212.98 70.4402 213.56 69.8702 214.12C68.3102 215.65 66.5302 217.41 65.4902 217.21C64.6302 217.06 63.5802 213.63 62.8802 211.36C62.4956 209.976 62.0178 208.62 61.4501 207.3C59.7455 203.751 57.8218 200.311 55.6902 197C54.9491 195.862 54.4331 194.592 54.1702 193.26C54.0584 192.706 53.9882 192.144 53.9602 191.58C53.9204 190.997 53.9204 190.413 53.9602 189.83V189.77C54.0215 189.152 54.1149 188.538 54.2402 187.93C54.2402 187.93 54.2402 187.84 54.2402 187.8C54.3802 187.18 54.5402 186.55 54.7502 185.9C54.9602 185.26 55.2102 184.6 55.4902 183.9C55.4902 183.81 55.5602 183.72 55.6002 183.63C55.8802 182.98 56.1902 182.31 56.5402 181.63C56.8802 180.96 57.2702 180.27 57.6802 179.63C57.7702 179.48 57.8602 179.33 57.9602 179.18C58.3802 178.49 58.8202 177.79 59.3102 177.07C61.2402 174.26 65.3102 169.07 69.6802 163.67L73.6002 158.75C73.7102 158.6 73.8302 158.46 73.9402 158.32L75.1002 156.84L76.1002 155.58L76.9501 154.49L77.9501 153.21C78.0302 153.37 78.1102 153.51 78.1902 153.68C78.3602 154.03 78.5402 154.36 78.7202 154.68C81.4402 159.4 85.0402 160.4 91.4702 160.48C91.6002 163.57 91.8702 166.69 92.1302 169.7C92.3402 172.15 92.5402 174.46 92.6602 176.64C89.5468 181.27 85.6918 185.354 81.2502 188.73C80.7402 189.1 80.2502 189.49 79.8002 189.89L79.5202 190.13C72.1902 196.73 71.5102 207.39 71.6602 212.45L71.5902 212.49ZM85.4302 219.67C83.1702 221.97 80.0902 224.79 76.2402 226.24C74.6442 226.854 72.95 227.172 71.2402 227.18C69.2 227.212 67.1936 226.657 65.4602 225.58C65.2102 225.41 64.9002 225.18 64.8402 224.91C64.7202 224.39 65.4802 223.91 65.9402 223.66C67.6002 222.79 69.3402 221.88 71.2302 220.92C71.273 220.929 71.3173 220.929 71.3602 220.92L73.0502 220.05L75.7502 218.67C77.4396 217.714 78.9766 216.511 80.3102 215.1C81.1629 214.258 82.0644 213.466 83.0101 212.73C85.3167 211.16 87.7718 209.82 90.3402 208.73C93.4512 207.442 96.385 205.762 99.0702 203.73C95.0479 209.438 90.5051 214.761 85.5002 219.63L85.4302 219.67ZM99.5902 201.94C99.5902 201.94 99.5902 202.03 99.5302 202.07C99.2402 202.33 98.9502 202.58 98.6502 202.81C97.4402 203.72 96.1102 204.66 94.5202 205.75L94.0202 206.01C93.5202 206.28 93.0202 206.54 92.5002 206.79L92.0402 207.01C91.3602 207.34 90.6802 207.65 90.0402 208.01C87.4224 209.122 84.9204 210.488 82.5702 212.09C81.598 212.846 80.6729 213.661 79.8002 214.53C78.518 215.88 77.0458 217.035 75.4302 217.96L71.9501 219.72C72.4907 218.295 72.7193 216.771 72.6202 215.25C72.5128 214.411 72.4493 213.566 72.4302 212.72C72.2802 208.17 72.7902 197.39 80.0502 190.78L80.3102 190.56C80.7602 190.16 81.2302 189.78 81.7302 189.41C86.2858 185.959 90.2333 181.771 93.4102 177.02C93.4102 177.02 93.4102 176.97 93.4102 176.95C97.5002 170.95 100.35 164.71 100.83 160.51C101.54 160.582 102.245 160.699 102.94 160.86C102.94 161.2 103.06 162.57 103.21 164.5C103.44 167.224 103.524 169.957 103.46 172.69C103.404 175.417 103.014 178.127 102.3 180.76C101.977 181.959 101.556 183.13 101.04 184.26C101.04 184.26 101.22 183.93 101.5 183.34C101.889 182.523 102.223 181.681 102.5 180.82C103.327 178.19 103.781 175.456 103.85 172.7C103.903 169.953 103.759 167.206 103.42 164.48C103.18 162.56 102.98 161.2 102.92 160.86C103.778 161.043 104.606 161.346 105.38 161.76C105.774 161.984 106.132 162.268 106.44 162.6C106.661 162.831 106.84 163.098 106.97 163.39C107.06 163.82 107.15 164.32 107.23 164.85C107.23 165.01 107.23 165.19 107.29 165.36C107.35 165.53 107.36 165.9 107.39 166.18C107.836 171.153 107.783 176.158 107.23 181.12C107.23 181.34 107.23 181.57 107.15 181.79C107.15 182.17 107.06 182.55 107.01 182.93C106.91 183.71 106.79 184.48 106.66 185.26C106.66 185.34 106.66 185.42 106.66 185.5C105.57 192.05 103.37 198.39 99.6602 201.9L99.5902 201.94ZM115.97 168.37C117.415 169.629 118.979 170.744 120.64 171.7C125.93 175 131.93 178.7 130.64 189.3C130.113 194.215 129.084 199.064 127.57 203.77C126.928 205.522 126.541 207.358 126.42 209.22C126.314 208.72 126.203 208.17 126.09 207.57C125.48 204.34 125.188 201.057 125.22 197.77C125.22 195.98 125.16 194.17 124.96 192.49C124.793 190.946 124.396 189.436 123.78 188.01C123.341 187.006 122.732 186.086 121.98 185.29C121.699 184.99 121.395 184.712 121.07 184.46C121.378 184.731 121.666 185.026 121.93 185.34C122.62 186.169 123.177 187.1 123.58 188.1C124.155 189.512 124.515 191.002 124.65 192.52C124.82 194.19 124.81 195.98 124.81 197.78C124.848 201.083 125.203 204.375 125.87 207.61C126.05 208.47 126.25 209.21 126.42 209.84C126.42 210.12 126.42 210.38 126.42 210.68C126.95 217.29 126.24 220.87 124.27 221.62L123.62 221.88C123.194 222.093 122.734 222.229 122.26 222.28C121.37 222.28 120.26 221.34 117.15 218.28C115.635 216.794 114.197 215.232 112.84 213.6C110.89 211.3 109.47 209.6 106.49 208.09C104.195 206.734 102.223 204.895 100.71 202.7C101.35 201.7 101.96 200.7 102.56 199.62C104.502 196.386 105.891 192.851 106.67 189.16L106.73 188.87C106.87 188.26 107.01 187.64 107.13 187.02C107.25 186.4 107.39 185.59 107.51 184.87C107.51 184.87 107.51 184.81 107.51 184.78C108.627 178.063 108.792 171.223 108 164.46V164.41V164.3C108.668 162.834 109.203 161.311 109.6 159.75C111.227 162.966 113.407 165.87 116.04 168.33L115.97 168.37ZM173.08 189.7C171.37 206.54 169.26 215.57 161.33 224.48C157.33 228.99 151.52 229.93 147.33 229.93C145.972 229.928 144.616 229.835 143.27 229.65C149.8 229.06 162.48 225.72 164.69 208.84C164.857 207.58 165.017 206.35 165.17 205.15C167.64 185.86 169.1 174.62 186.17 168.65C182.527 170.911 179.456 173.984 177.198 177.629C174.939 181.274 173.554 185.391 173.15 189.66L173.08 189.7ZM164.47 205C164.317 206.2 164.157 207.43 163.99 208.69C161.67 226.41 147.84 228.69 142.06 228.91C152.46 225 156.06 211.6 159.44 198.6C161.28 191.6 163.03 184.95 165.77 179.96C172.02 168.61 183.15 167.26 187.83 167.23C168.55 173.23 166.99 185.38 164.47 205ZM172.47 240.68C172.003 240.778 171.542 240.905 171.09 241.06L170.84 241.17C170.697 241.248 170.546 241.311 170.39 241.36C170.39 241.23 170.45 240.87 171.04 239.95L171.14 239.79C171.588 239.075 172.104 238.406 172.68 237.79C174.028 236.278 175.859 235.281 177.86 234.97C180.842 234.414 183.726 233.424 186.42 232.03C187.11 231.71 187.8 231.39 188.49 231.09C191.927 229.74 195.529 228.856 199.2 228.46L199.66 228.38C199.84 228.38 201.71 228.23 203.72 228.23C207.43 228.23 208.24 228.65 208.43 228.75L208.24 228.83C207.75 229.03 207.24 229.24 206.71 229.48L206.11 229.77C205.71 229.96 205.31 230.15 204.9 230.37C204.49 230.59 204.23 230.74 203.9 230.93L203.01 231.45C202.34 231.86 201.68 232.29 201.01 232.74C200.432 233.15 199.827 233.521 199.2 233.85C196.84 235.034 194.336 235.905 191.75 236.44C189.918 236.845 188.119 237.39 186.37 238.07H186.26C185.867 238.23 185.477 238.41 185.09 238.61L184.89 238.71C184.52 238.91 184.15 239.12 183.78 239.36L183.57 239.49C183.19 239.734 182.823 239.998 182.47 240.28L182.29 240.42C181.903 240.734 181.532 241.067 181.18 241.42C179.947 241.351 178.725 241.139 177.54 240.79H177.38C177.023 240.695 176.658 240.628 176.29 240.59C175.99 240.59 175.71 240.59 175.43 240.59H174.99H174.79C174.029 240.553 173.265 240.587 172.51 240.69L172.47 240.68ZM167.79 252.68C167.254 252.746 166.71 252.706 166.19 252.56C165.95 252.48 165.79 252.32 165.82 252.17C166.867 250.946 167.766 249.604 168.5 248.17C169.319 246.516 170.418 245.017 171.75 243.74C172.88 242.747 174.129 241.901 175.47 241.22H176.17C176.508 241.25 176.842 241.306 177.17 241.39L178.17 241.66L178.7 241.77L179.01 241.84C179.49 241.93 179.95 242.01 180.37 242.05C180.25 242.17 180.14 242.3 180.02 242.43L179.32 243.25C176.722 246.062 174.345 249.071 172.21 252.25L167.79 252.68ZM179.92 261.32C179.82 261.88 179.74 262.42 179.68 262.96C179.68 263.09 179.68 263.22 179.68 263.35C179.68 263.83 179.59 264.29 179.57 264.74C179.575 264.817 179.575 264.893 179.57 264.97C179.53 266.131 179.566 267.294 179.68 268.45C178.782 268.876 177.844 269.211 176.88 269.45C176.54 269.53 176.19 269.63 175.83 269.73C174.858 270.054 173.851 270.262 172.83 270.35C172.723 270.365 172.614 270.358 172.509 270.331C172.404 270.304 172.306 270.256 172.22 270.19C172.22 270.13 172.1 269.92 172.31 269.36C172.88 267.78 172.45 266.01 171.95 263.96C171.479 262.221 171.188 260.438 171.08 258.64C171.093 256.525 171.749 254.464 172.96 252.73C174.796 249.967 176.842 247.349 179.08 244.9L179.24 244.72L180.32 243.47L180.42 243.35L180.71 243.01C181.05 242.62 181.39 242.28 181.71 241.95C182.002 241.66 182.309 241.387 182.63 241.13L182.96 240.86C183.27 240.61 183.59 240.38 183.91 240.17L184.22 239.97C184.55 239.76 184.89 239.56 185.22 239.38L185.48 239.25C185.84 239.07 186.21 238.9 186.57 238.74H186.7C188.412 238.082 190.17 237.551 191.96 237.15C195.08 236.38 198.3 235.58 201.49 233.32C202.07 232.91 202.66 232.53 203.25 232.16L203.5 232.01C204.01 231.7 204.5 231.39 205.06 231.11L205.29 230.99C205.83 230.7 206.37 230.43 206.92 230.18L207.08 230.11C207.68 229.84 208.28 229.58 208.89 229.35C210.071 228.892 211.284 228.525 212.52 228.25C212.474 228.301 212.43 228.354 212.39 228.41L212.07 228.81L211.9 229.07L211.58 229.53L211.37 229.87C211.27 230.04 211.16 230.2 211.06 230.38C210.96 230.56 210.7 231 210.52 231.38C208.07 235.92 201.34 241.07 197.75 243.38C196.391 244.281 194.956 245.061 193.46 245.71C193.04 245.9 192.69 246.05 192.37 246.23C192.37 246.23 191.67 246.58 190.63 247.23C187.52 249.23 181.22 253.95 179.89 261.32H179.92ZM209.57 257.02C209.651 258.692 209.554 260.368 209.28 262.02C209.27 262.07 209.27 262.121 209.28 262.17C208.63 265.997 206.914 269.563 204.33 272.46C200.75 276.46 196.05 278.68 193.44 278.68H193.3C191.28 278.662 189.265 278.89 187.3 279.36C186.467 279.564 185.617 279.695 184.76 279.75C184.03 279.75 183.91 279.52 183.85 279.31C183.663 278.733 183.432 278.172 183.16 277.63C181.667 274.589 180.736 271.303 180.41 267.93C180.364 267.377 180.334 266.827 180.32 266.28C180.32 265.73 180.32 265.17 180.32 264.59C180.32 264.36 180.32 264.13 180.32 263.9C180.378 263.078 180.481 262.26 180.63 261.45C182.33 252.05 192.56 247.01 192.63 246.95C192.7 246.89 193.18 246.68 193.48 246.54L193.66 246.46C195.197 245.79 196.673 244.987 198.07 244.06C199.07 243.41 208.01 237.52 211.07 231.75C211.29 231.33 211.5 230.97 211.7 230.64L211.91 230.29L212.24 229.78L212.48 229.43L212.65 229.21C212.97 228.729 213.377 228.312 213.85 227.98H213.95C214.052 227.959 214.158 227.959 214.26 227.98L214.42 228.05C214.809 228.282 215.149 228.588 215.42 228.95C215.71 229.5 215.73 230.38 215.42 231.95C215.42 232.12 215.35 232.28 215.31 232.46C215.27 232.64 215.22 232.85 215.17 233.05L215.08 233.45C215.02 233.66 214.97 233.89 214.9 234.13C214.83 234.37 214.8 234.5 214.75 234.7C214.7 234.9 214.63 235.12 214.57 235.35C214.44 235.8 214.3 236.27 214.15 236.81C214 237.35 213.76 238.13 213.56 238.81L213.44 239.23C213.23 239.96 213.02 240.7 212.81 241.46C212.81 241.6 212.74 241.74 212.7 241.88L212.01 244.4C212.01 244.54 211.93 244.68 211.9 244.82C211.66 245.7 211.43 246.57 211.21 247.4C211.21 247.53 211.15 247.64 211.11 247.78C210.79 249 210.49 250.14 210.23 251.15C210.23 251.26 210.18 251.35 210.15 251.45C210.12 251.55 210.03 251.93 209.97 252.15L209.18 255.25C209.175 255.3 209.175 255.35 209.18 255.4C209.53 256 209.58 256.53 209.61 257.08L209.57 257.02ZM215.79 265.02C214.875 266.639 214.137 268.353 213.59 270.13C212.92 272.04 211.9 274.91 211.25 274.91C210.91 274.91 210.93 273.54 210.94 272.11C211.044 268.78 210.769 265.448 210.12 262.18C210.48 259.93 210.52 257.641 210.24 255.38C210.33 255.02 210.74 253.38 211.31 251.22C211.36 251.03 211.4 250.85 211.46 250.65L211.52 250.42C211.6 250.09 211.69 249.76 211.78 249.42C211.78 249.54 211.86 249.68 211.9 249.8C211.99 250.11 212.09 250.42 212.19 250.73C212.29 251.04 212.45 251.54 212.59 251.96C212.73 252.38 212.8 252.59 212.91 252.96C213.02 253.33 213.25 253.96 213.42 254.39C213.53 254.68 213.63 254.97 213.74 255.27C214.03 256.06 214.34 256.87 214.67 257.72L214.78 257.98C214.776 258.017 214.776 258.053 214.78 258.09L214.93 258.47C215.56 260.1 216.18 261.68 216.93 263.2C216.584 263.821 216.203 264.422 215.79 265V265.02ZM217.69 241.26C218.55 242.81 219.14 243.97 219.61 244.91C220.473 246.98 221.817 248.814 223.53 250.26C224.157 250.811 224.825 251.313 225.53 251.76C228.1 253.51 230.53 255.16 230.76 263.34C230.46 264.71 230.23 266.07 230.06 267.34C230.01 268.071 230.036 268.805 230.14 269.53C230.27 270.81 230.41 272.13 229.87 272.9C229.71 273.129 229.495 273.314 229.246 273.44C228.996 273.566 228.719 273.628 228.44 273.62C228.119 273.617 227.802 273.549 227.509 273.42C227.215 273.291 226.95 273.104 226.73 272.87C225.802 271.909 224.798 271.023 223.73 270.22C222.56 269.363 221.484 268.384 220.52 267.3C219.442 265.981 218.525 264.537 217.79 263C216.95 261.29 216.26 259.54 215.54 257.68L215.44 257.42C215.08 256.5 214.74 255.62 214.44 254.77C214.34 254.51 214.26 254.27 214.17 254.01C213.96 253.44 213.75 252.86 213.57 252.32C213.48 252.07 213.41 251.85 213.33 251.61C213.15 251.07 212.97 250.54 212.81 250.03C212.75 249.8 212.69 249.59 212.62 249.37C212.47 248.88 212.33 248.37 212.19 247.91L212.31 247.48C212.54 246.61 212.76 245.77 212.98 244.96C212.98 244.83 213.05 244.69 213.09 244.55L213.79 242L213.88 241.65L214.51 239.41C214.51 239.29 214.58 239.17 214.61 239.04L215.2 237.04C215.33 236.61 215.44 236.21 215.55 235.83C215.55 235.83 215.55 235.74 215.55 235.7C215.55 235.66 215.65 235.34 215.7 235.18C215.97 237.327 216.659 239.4 217.73 241.28L217.69 241.26ZM296.27 206.73C295.908 207.559 295.838 208.486 296.07 209.36C296.022 209.601 295.915 209.826 295.758 210.015C295.6 210.203 295.398 210.349 295.17 210.44C295.068 210.479 294.96 210.499 294.85 210.5C294.01 210.5 292.78 209.07 291.68 202.25L291.59 201.72C290.88 197.65 290.47 187.59 291.31 182.87C291.547 181.214 291.674 179.543 291.69 177.87C291.675 172.258 292.657 166.688 294.59 161.42C295.479 158.961 296.994 156.777 298.987 155.084C300.979 153.391 303.38 152.249 305.95 151.77H306.25C306.443 151.78 306.637 151.78 306.83 151.77L306.72 151.93L306.24 152.64C306.07 152.93 305.9 153.21 305.74 153.52C305.58 153.83 305.46 154.05 305.34 154.32C305.22 154.59 305.05 154.97 304.92 155.32C304.79 155.67 304.69 155.9 304.59 156.2L304.32 157.01L303.53 157.26C302.306 157.734 301.17 158.41 300.17 159.26C298.762 160.453 297.571 161.881 296.65 163.48C295.612 165.325 294.841 167.308 294.36 169.37C293.649 173.237 293.218 177.151 293.07 181.08L292.77 186.43C292.77 186.43 292.98 184.3 293.29 181.1C293.503 177.19 293.995 173.3 294.76 169.46C295.194 167.426 295.922 165.465 296.92 163.64C297.798 162.048 298.949 160.623 300.32 159.43C301.281 158.577 302.371 157.881 303.55 157.37C303.86 157.24 304.1 157.15 304.32 157.08C304.292 157.159 304.269 157.239 304.25 157.32C304.16 157.63 304.07 157.94 303.99 158.26C303.91 158.58 303.81 159.02 303.73 159.4C303.65 159.78 303.6 160.05 303.54 160.4C303.48 160.75 303.41 161.2 303.36 161.6C303.31 162 303.26 162.26 303.22 162.6C302.227 165.211 300.67 167.57 298.66 169.51C295.15 172.95 297.35 183.24 298.81 190.05L299.01 190.97C299.88 195.04 299.01 197.82 297.89 201.04C297.297 202.719 296.819 204.436 296.46 206.18C296.43 206.34 296.37 206.53 296.31 206.75L296.27 206.73ZM306.04 198.36C304.19 200.88 302.45 203.25 301.62 204.71C300.991 205.724 300.208 206.635 299.3 207.41L298.91 207.78C298.554 208.151 298.162 208.486 297.74 208.78C297.659 208.754 297.572 208.755 297.493 208.784C297.413 208.813 297.345 208.868 297.3 208.94C297.261 208.99 297.209 209.028 297.15 209.05C297.087 209.056 297.023 209.056 296.96 209.05H296.87C296.49 208.87 296.87 207.47 297.06 206.94C297.13 206.69 297.19 206.48 297.22 206.32C297.578 204.624 298.049 202.953 298.63 201.32C299.63 198.12 300.63 195.11 299.77 190.82L299.57 189.9C298.24 183.67 296 173.24 299.19 170.11C300.719 168.614 302.008 166.89 303.01 165C303.01 165.34 303.01 165.68 303.01 166V167C303.01 167.42 303.01 167.83 303.01 168.25C303.01 168.67 303.01 168.87 303.01 169.18C303.01 169.49 303.01 170 303.07 170.41L303.13 171.29L303.25 172.46L303.34 173.28C303.34 173.65 303.45 174.01 303.51 174.37L303.63 175.11C303.7 175.46 303.78 175.79 303.85 176.11C303.92 176.43 303.94 176.54 303.99 176.74C304.04 176.94 304.17 177.34 304.26 177.63C304.35 177.92 304.36 177.99 304.41 178.15C304.46 178.31 304.63 178.68 304.74 178.93C304.784 179.049 304.834 179.166 304.89 179.28C305.028 179.575 305.199 179.854 305.4 180.11C307.031 182.357 308.179 184.917 308.77 187.63C308.98 188.549 309.285 189.444 309.68 190.3C309.774 190.496 309.851 190.7 309.91 190.91L309.97 191.09C310.04 191.32 310.11 191.58 310.17 191.87C310.175 191.923 310.175 191.977 310.17 192.03C310.17 192.15 310.17 192.28 310.25 192.41C309.27 194.05 307.65 196.25 306.08 198.38L306.04 198.36ZM317.47 159.56C322.65 165.93 319.72 181.14 315.97 189.9C314.859 192.375 313.933 194.928 313.2 197.54C313.09 197.91 313 198.26 312.96 198.32H312.9C311.9 196.16 312.09 191.24 314.77 185.11C317.77 178.31 316.83 171.38 315.21 162.32C314.804 159.759 314.196 157.235 313.39 154.77C314.6 156.1 315.95 157.67 317.51 159.58L317.47 159.56ZM314.41 162.47C316.25 172.79 316.66 178.76 314.02 184.79C312.556 187.932 311.717 191.328 311.55 194.79C311.49 194.51 311.44 194.23 311.4 194C311.3 193.45 311.2 192.92 311.1 192.42L310.97 191.83C310.97 191.76 310.97 191.68 310.97 191.6C310.89 191.27 310.82 190.99 310.74 190.74V190.59C310.664 190.361 310.574 190.138 310.47 189.92C310.109 189.116 309.828 188.279 309.63 187.42C309.009 184.6 307.807 181.94 306.1 179.61C304.42 177.52 303.27 170.01 304.04 162.94C304.039 162.917 304.039 162.893 304.04 162.87C304.04 162.87 304.04 162.81 304.04 162.77C304.55 158.26 305.85 153.94 308.32 151.38C308.449 151.246 308.605 151.142 308.777 151.073C308.95 151.004 309.135 150.972 309.32 150.98C309.39 150.975 309.46 150.975 309.53 150.98C309.624 151.001 309.715 151.035 309.8 151.08C309.885 151.148 309.965 151.222 310.04 151.3C310.133 151.398 310.233 151.488 310.34 151.57C310.46 151.663 310.595 151.734 310.74 151.78L311.8 152.87C312.21 153.68 313.28 155.93 314.45 162.49L314.41 162.47ZM365.61 53.1701C362.3 53.2801 357.78 55.6701 352.99 58.1701C351.32 59.0601 349.59 59.9701 347.89 60.8001C346.313 61.5021 344.789 62.3175 343.33 63.2401C342.33 63.9601 341.7 67.9001 341.33 71.0301C340.989 68.6764 340.865 66.2964 340.96 63.9201C340.971 63.8496 340.962 63.7775 340.933 63.7121C340.905 63.6467 340.859 63.5906 340.8 63.5501C340.744 63.5064 340.678 63.4779 340.608 63.4674C340.538 63.4568 340.466 63.4646 340.4 63.4901C339.89 63.7001 327.82 68.6301 323.72 71.8901L323.02 72.47C322.952 72.5275 322.904 72.6042 322.88 72.69L318.57 91.9001C318.555 91.9523 318.552 92.007 318.561 92.0606C318.569 92.1142 318.59 92.1652 318.62 92.21L320.08 94.6101C321.176 96.7215 322.115 98.9108 322.89 101.16C321.336 99.1132 319.667 97.1566 317.89 95.3001C317.843 95.2575 317.788 95.2248 317.727 95.2042C317.667 95.1835 317.604 95.1754 317.54 95.1801C317.477 95.1895 317.417 95.2133 317.365 95.2497C317.313 95.2861 317.27 95.3342 317.24 95.3901C315.11 99.2401 312.86 107.02 311.24 112.7C310.75 114.39 310.32 115.87 309.98 116.94C308.54 121.51 305.98 135.94 305.98 136.51C305.955 136.585 305.955 136.665 305.98 136.74C306.55 138.06 307.05 139.44 307.53 140.74C307.7 141.21 307.86 141.74 308.04 142.16C308.28 142.81 308.56 143.47 308.95 144.32C309.115 144.638 309.306 144.943 309.52 145.23C309.716 145.497 309.887 145.781 310.03 146.08C310.056 146.229 310.056 146.381 310.03 146.53C310.02 146.67 310.02 146.81 310.03 146.95C310.041 147.189 310.104 147.423 310.215 147.636C310.325 147.848 310.481 148.034 310.67 148.18C310.862 148.324 311.075 148.438 311.3 148.52C311.56 148.64 311.78 148.73 311.87 148.89C311.928 149.022 311.952 149.167 311.94 149.31C311.931 149.871 311.765 150.419 311.46 150.89C311.432 150.941 311.39 150.984 311.338 151.012C311.287 151.04 311.229 151.054 311.17 151.05H311.08L310.79 150.76C310.508 150.502 310.163 150.323 309.79 150.24C309.549 150.165 309.301 150.115 309.05 150.09H308.86H308.47C308.097 150.171 307.751 150.351 307.47 150.61L307.38 150.67L306.59 150.78C307.05 150.062 307.306 149.232 307.33 148.38C307.326 148.046 307.303 147.712 307.26 147.38V147.16C307.219 146.294 307.03 145.442 306.7 144.64C306.46 144.13 306.24 143.64 306.01 143.1C305.78 142.56 305.57 142.1 305.33 141.57C304.79 140.38 304.23 139.2 303.66 138.03C303.615 137.939 303.538 137.868 303.444 137.83C303.351 137.791 303.246 137.788 303.15 137.82C300.504 138.503 297.804 138.962 295.08 139.19C298.78 138.07 303.52 136.49 304.31 135.56C305.52 134.13 308.5 114.32 309.07 110.42L309.81 108.07C309.81 107.96 314.2 97 315.18 95.07C315.7 94.07 316.83 88.18 318.53 77.69C318.546 77.6053 318.534 77.5177 318.497 77.4403C318.459 77.3628 318.397 77.2995 318.32 77.2601C318.244 77.2215 318.158 77.2075 318.074 77.22C317.99 77.2326 317.912 77.271 317.85 77.33C316.01 79.09 314.14 80.9401 312.52 82.5401C310.9 84.1401 309.52 85.5401 308.7 86.2601C307.59 87.2601 306.4 89.8201 305.02 92.7501C303.21 96.6301 301.14 101.02 298.74 103.1C286.06 114.1 278.31 121.44 275.69 124.98C273.94 127.34 268.05 132.56 261.82 138.1L261.36 138.5C261.307 138.547 261.267 138.606 261.243 138.673C261.218 138.739 261.211 138.81 261.22 138.88C261.215 138.927 261.215 138.974 261.22 139.02C258.929 146.566 256.259 153.993 253.22 161.27C253.201 161.316 253.191 161.365 253.191 161.415C253.191 161.465 253.201 161.514 253.22 161.56C253.22 161.56 253.31 161.87 254.08 164.56C254.667 167.395 255.001 170.276 255.08 173.17C253.86 169.43 251.86 165 251.3 165C251.236 165.002 251.173 165.018 251.116 165.048C251.059 165.077 251.009 165.119 250.97 165.17C248.88 168.03 245.97 172.89 243.16 177.6C240.62 181.83 238.23 185.84 236.62 188.05C231.16 196.82 224.62 207.22 224.01 207.94C223.957 207.982 223.915 208.037 223.89 208.1C223.87 208.172 223.87 208.248 223.89 208.32C223.89 209.2 222.71 219.76 220.89 222.02C220.311 222.749 219.639 223.397 218.89 223.95C218.312 224.389 217.767 224.87 217.26 225.39C216.985 225.712 216.776 226.086 216.646 226.489C216.515 226.893 216.466 227.318 216.5 227.74C216.5 227.91 216.5 228.07 216.5 228.23C216.5 228.39 216.5 228.52 216.5 228.66C216.457 228.579 216.407 228.502 216.35 228.43C215.97 227.887 215.443 227.463 214.83 227.21C214.703 227.135 214.558 227.097 214.41 227.1C214.218 227.109 214.03 227.16 213.86 227.25C213.422 227.343 212.977 227.407 212.53 227.44C212.68 227.25 212.83 227.07 212.98 226.91C213.347 226.479 213.835 226.169 214.38 226.02H214.67L215.17 225.92C216.67 225.47 217.67 223.92 218.56 222.52C218.8 222.13 219.04 221.76 219.27 221.45C220.2 220.17 221.08 209.17 220.86 208.74C220.821 208.671 220.765 208.613 220.696 208.572C220.628 208.532 220.55 208.511 220.47 208.51H220.33C218.65 208.51 214.82 207.51 211.83 206.64C213.99 206.82 216.59 206.99 218.73 206.99C221.66 206.99 222.48 206.68 222.73 206.5C225.01 205.69 238.87 182.42 238.91 180.98C238.915 180.915 238.904 180.849 238.879 180.789C238.854 180.728 238.815 180.675 238.766 180.632C238.716 180.589 238.657 180.559 238.594 180.543C238.53 180.527 238.464 180.526 238.4 180.54C236.61 180.54 217.7 178.17 215.91 177.21C214.399 176.322 213.016 175.232 211.8 173.97C212.862 174.697 214.02 175.272 215.24 175.68C217.24 176.42 238.24 179.15 239.54 179.18H239.67C240.51 179.18 242.04 176.82 246.79 168.18C247.72 166.49 248.52 165.03 248.85 164.5C250.25 163.08 254.32 150.84 256.51 143.84C256.534 143.754 256.531 143.662 256.501 143.578C256.47 143.494 256.414 143.421 256.34 143.37C256.268 143.316 256.18 143.288 256.09 143.288C256 143.288 255.913 143.316 255.84 143.37C249.23 149.37 245.96 152.64 244.9 154.45C242.01 159.45 217.23 164.88 209.69 165.01C208.07 165.01 205.34 165.19 201.88 165.38C194.88 165.78 185.3 166.32 176.2 166.32C170.305 166.432 164.411 166.051 158.58 165.18C158.499 165.15 158.411 165.15 158.33 165.18C158.33 165.18 152.86 167.76 150.73 168.71C149.59 169.23 148.73 170.77 148.07 172.22C148.14 170.885 148.591 169.597 149.37 168.51C150.698 167.293 152.123 166.186 153.63 165.2C153.701 165.154 153.755 165.087 153.786 165.008C153.817 164.93 153.823 164.844 153.803 164.762C153.784 164.68 153.739 164.606 153.676 164.55C153.613 164.494 153.534 164.459 153.45 164.45C152.76 164.38 136.45 162.58 133.02 162.58H132.89C129.53 162.58 123.89 161.73 121.27 160.58L120.93 160.43C119.958 159.886 118.873 159.578 117.76 159.53C117.361 159.576 116.966 159.656 116.58 159.77C116.242 159.918 115.873 159.978 115.506 159.944C115.139 159.911 114.786 159.786 114.48 159.58L114.35 159.49C114.147 159.301 113.9 159.165 113.631 159.095C113.362 159.025 113.08 159.023 112.81 159.09C112.628 159.178 112.465 159.3 112.33 159.45L112.19 159.59C111.98 159.702 111.74 159.743 111.504 159.709C111.269 159.675 111.05 159.567 110.88 159.4C110.538 159.054 110.282 158.633 110.13 158.17C110.2 157.82 110.27 157.46 110.33 157.09C110.693 155.674 110.802 154.204 110.65 152.75C110.65 152.26 110.65 151.75 110.57 151.26C110.514 150.638 110.417 150.02 110.28 149.41C110.51 149.73 110.74 150.05 110.99 150.41C111.47 151 111.99 151.63 112.43 152.27C114.11 154.49 115.84 156.79 118.21 158.15C120.577 159.466 123.193 160.273 125.89 160.52C130.68 161.14 135.34 161.52 139.74 161.73C140.36 161.73 144.34 162.16 148.95 162.63C156.3 163.37 165.44 164.3 169.26 164.56C169.26 164.56 181.65 164.18 185.35 164.08C189.05 163.98 205.88 161.78 206.59 161.69C206.652 161.682 206.712 161.661 206.764 161.626C206.816 161.591 206.859 161.545 206.89 161.49C206.922 161.433 206.938 161.37 206.938 161.305C206.938 161.24 206.922 161.177 206.89 161.12C206.8 160.92 204.67 156.21 202.12 155.24C200.54 154.64 196.06 153.34 193.04 152.48C195.97 152.56 200.6 152.85 202.26 153.92C204.34 155.26 208.78 159.47 210.67 161.27C211.49 162.05 211.67 162.27 211.76 162.27C211.804 162.3 211.853 162.32 211.904 162.331C211.956 162.341 212.009 162.341 212.06 162.33C212.81 162.2 230.49 159.06 235.63 155.92C239.009 153.856 242.045 151.278 244.63 148.28L244.86 148.02C245.2 147.64 248.05 145.17 251.65 142.02C259.74 135.02 273.28 123.27 276.89 119.16C279.38 116.33 284.2 111.86 288.46 107.91C293.33 103.4 297.53 99.5 298.17 98.2C298.81 96.9 300.17 93.9801 301.58 91.0401C302.31 89.4901 303.03 87.9401 303.65 86.6501C303.684 86.5766 303.696 86.4946 303.683 86.4145C303.671 86.3344 303.635 86.2597 303.58 86.2C303.43 86.03 303.28 85.87 303.12 85.72C302.363 85.0625 301.522 84.5077 300.62 84.07C300.09 83.78 299.38 83.3101 298.56 82.7801C296.16 81.2001 293.11 79.2401 291.25 79.5301C290.333 79.8352 289.493 80.3369 288.79 81.0001C288.45 81.2501 288.14 81.4801 287.89 81.6301L284.71 83.5501C282.21 85.0401 279.63 86.55 277.15 88.22C273.68 90.51 271.15 92.0401 267.47 92.5001C265.96 92.6901 261.83 92.7901 255.47 92.7901C250.15 92.7901 245.1 92.7001 245.09 92.73C244.698 92.6572 244.299 92.6237 243.9 92.6301C241.581 92.7634 239.288 93.1798 237.07 93.8701C236.71 94.0801 236.36 94.3101 236.02 94.5501L235.83 94.6801C234.12 95.8701 232.4 97.12 230.75 98.33L230.28 98.6701L226.8 101.23L224.8 102.7C224.544 102.84 224.322 103.034 224.15 103.269C223.977 103.504 223.858 103.774 223.8 104.06C223.738 104.297 223.621 104.516 223.46 104.7L223.33 104.44C223.283 104.284 223.219 104.133 223.14 103.99C223.074 103.853 223.001 103.719 222.92 103.59C222.885 103.47 222.815 103.362 222.72 103.28L222.56 102.96L222.32 102.54L222.01 102.07C221.748 101.404 221.309 100.823 220.74 100.39L220.58 100.19C220.964 100.066 221.377 100.066 221.76 100.19C221.936 100.278 222.103 100.382 222.26 100.5C222.57 100.748 222.933 100.923 223.32 101.01C223.653 101.009 223.982 100.936 224.284 100.796C224.586 100.657 224.854 100.453 225.07 100.2C225.179 100.095 225.296 99.9978 225.42 99.9101L227.37 98.4301C230.49 96.0701 233.617 93.7368 236.75 91.4301C236.798 91.3954 236.837 91.3504 236.865 91.2984C236.892 91.2465 236.908 91.1889 236.91 91.1301C236.915 91.0736 236.907 91.0166 236.889 90.9632C236.87 90.9098 236.839 90.8609 236.8 90.82C236.74 90.76 230.98 84.7501 229.15 82.4301C228.06 81.176 226.801 80.0789 225.41 79.1701L224.63 78.6L222.34 76.9301L221.52 76.33L220.76 75.7601C220.041 75.1423 219.244 74.6211 218.39 74.21C218.247 74.13 218.081 74.1018 217.92 74.1301C217.707 74.1728 217.516 74.2896 217.38 74.46C217.167 74.5962 216.909 74.6463 216.66 74.6C216.142 74.5466 215.644 74.3681 215.21 74.08C215.4 74.0327 215.579 73.9514 215.74 73.84C216.01 73.6887 216.27 73.5217 216.52 73.34C216.63 73.26 216.73 73.15 216.85 73.07C217.624 72.5382 218.335 71.921 218.97 71.23C219.154 71.0564 219.327 70.8729 219.49 70.6801C219.572 70.8961 219.642 71.1164 219.7 71.34C219.7 71.49 219.78 71.6401 219.83 71.7801C220.33 73.3901 221.93 74.28 223.35 75.07C223.72 75.27 224.07 75.4601 224.35 75.6601C225.998 76.6292 227.552 77.7507 228.99 79.0101C232.16 82.0101 239.99 89.76 240.05 89.84C240.115 89.8992 240.194 89.9405 240.28 89.96C243.41 90.211 246.551 90.3045 249.69 90.2401C256.69 90.2401 267.3 89.9901 268.97 89.4301C269.97 89.1101 272.78 87.24 277.37 84.2C282.44 80.85 289.37 76.2 290.66 76.2C292.923 76.853 295.119 77.7169 297.22 78.7801C298.16 79.2201 299.08 79.6501 300 80.0401L301.38 80.6201L303.88 81.6801C304.295 81.8201 304.72 81.9303 305.15 82.0101L305.93 82.1801C306.001 82.1989 306.077 82.1976 306.147 82.1765C306.218 82.1553 306.281 82.115 306.33 82.0601C309.33 78.6501 316 72.59 318.18 70.6L318.68 70.1401C319.87 69.0401 327.61 64.7601 333.27 61.6401C336.2 60.0101 338.74 58.6401 339.75 57.9901C342.8 56.1301 359.49 48.5201 362.36 48.23C363.02 48.16 363.84 48.13 364.71 48.1C367.54 47.98 370.97 47.8401 372.84 46.4901C372.773 46.5247 372.721 46.5812 372.69 46.6501L372.2 47.3701C371.02 49.0801 369.7 51.06 368.32 53.22C367.58 53.21 366.68 53.17 365.65 53.19L365.61 53.1701ZM369.75 52.6501L369.46 53.3001H369.34L369.75 52.6501ZM360.75 141.8C354.6 134.8 347 122.01 349.34 102.8C351.44 84.5601 361.17 66.1301 368.82 54.0501H369.09C365.524 62.1329 362.471 70.4327 359.95 78.9001C355.95 93.3901 352.48 112.48 359.42 135.46C359.369 137.658 359.838 139.838 360.79 141.82L360.75 141.8ZM366.28 96.8001C366.7 108.74 364.07 117.2 361.95 124C360.922 126.981 360.14 130.041 359.61 133.15C353.55 111.6 356.61 93.9001 360.74 79.1501C363.262 70.6211 366.349 62.2693 369.98 54.1501H370.54H370.8C368.57 63.7701 365.56 80.0801 366.33 96.8701L366.28 96.8001ZM370.99 53.2701C370.78 53.2701 370.56 53.2701 370.33 53.2701C370.86 52.1001 371.33 51.08 371.76 50.21C371.57 51.2 371.32 52.22 371.04 53.34L370.99 53.2701ZM375.68 51.4301C374.605 52.3764 373.278 52.988 371.86 53.19C372.48 50.62 373.04 48.5701 373.42 47.2701C373.42 47.1401 373.49 47.03 373.51 46.95C373.51 46.95 373.51 46.9001 373.51 46.8701C373.51 46.8401 373.51 46.8001 373.51 46.7601C373.489 46.7256 373.462 46.6951 373.43 46.6701C373.386 46.6339 373.335 46.6067 373.28 46.59H373.2H373.12C373.12 46.59 373.06 46.59 373.03 46.59C373.291 46.4007 373.523 46.1752 373.72 45.9201C375.43 43.7201 399.84 20.1101 402.81 17.23L408.28 22.9201C405.06 25.6701 379.1 48.7901 375.73 51.5001L375.68 51.4301Z" fill="url(#paint0_linear_3_2)"/>
<path d="M303.05 195.37C302.748 196.174 302.376 196.95 301.94 197.69C301.14 199.28 300.32 200.81 299.68 201.98L298.68 203.98L299.88 202.13C300.23 201.56 300.65 200.92 301.07 200.19L302.3 197.9C302.731 197.141 303.092 196.344 303.38 195.52C303.626 194.801 303.837 194.07 304.01 193.33C304.31 192.04 304.47 191.17 304.47 191.17L303.79 193.27C303.6 193.87 303.34 194.6 303.05 195.37Z" fill="url(#paint1_linear_3_2)"/>
<path d="M310.14 156.8C311.166 160.341 311.938 163.95 312.45 167.6C312.845 170.096 313.003 172.624 312.92 175.15C312.877 176.3 312.72 177.442 312.45 178.56C312.814 177.461 313.049 176.323 313.15 175.17C313.343 172.624 313.242 170.063 312.85 167.54C312.5 165.018 311.965 162.524 311.25 160.08C310.65 158.09 310.14 156.8 310.14 156.8Z" fill="url(#paint2_linear_3_2)"/>
<path d="M307.79 177.5C307.012 176.082 306.43 174.565 306.06 172.99C305.883 172.272 305.749 171.544 305.66 170.81C305.656 171.557 305.712 172.303 305.83 173.04C306.102 174.668 306.643 176.239 307.43 177.69C307.86 178.459 308.351 179.192 308.9 179.88C309.385 180.458 309.832 181.066 310.24 181.7C310.642 182.33 310.977 183.001 311.24 183.7C311.062 182.974 310.797 182.272 310.45 181.61C309.79 180.36 308.53 179.07 307.79 177.5Z" fill="url(#paint3_linear_3_2)"/>
<defs>
<linearGradient id="paint0_linear_3_2" x1="6.5002" y1="-100.5" x2="517.27" y2="427.73" gradientUnits="userSpaceOnUse">
<stop stop-color="#C49C7B"/>
<stop offset="0.07" stop-color="#CFAC8B"/>
<stop offset="0.18" stop-color="#DCBF9F"/>
<stop offset="0.3" stop-color="#E4CBAB"/>
<stop offset="0.41" stop-color="#E7CFAF"/>
<stop offset="0.51" stop-color="#E2C8A8"/>
<stop offset="0.64" stop-color="#D6B695"/>
<stop offset="0.78" stop-color="#C49C7B"/>
<stop offset="1" stop-color="#A57D66"/>
</linearGradient>
<linearGradient id="paint1_linear_3_2" x1="10.0577" y1="-103.939" x2="520.815" y2="424.295" gradientUnits="userSpaceOnUse">
<stop stop-color="#C49C7B"/>
<stop offset="0.07" stop-color="#CFAC8B"/>
<stop offset="0.18" stop-color="#DCBF9F"/>
<stop offset="0.3" stop-color="#E4CBAB"/>
<stop offset="0.41" stop-color="#E7CFAF"/>
<stop offset="0.51" stop-color="#E2C8A8"/>
<stop offset="0.64" stop-color="#D6B695"/>
<stop offset="0.78" stop-color="#C49C7B"/>
<stop offset="1" stop-color="#A57D66"/>
</linearGradient>
<linearGradient id="paint2_linear_3_2" x1="29.9971" y1="-123.23" x2="540.767" y2="405.005" gradientUnits="userSpaceOnUse">
<stop stop-color="#C49C7B"/>
<stop offset="0.07" stop-color="#CFAC8B"/>
<stop offset="0.18" stop-color="#DCBF9F"/>
<stop offset="0.3" stop-color="#E4CBAB"/>
<stop offset="0.41" stop-color="#E7CFAF"/>
<stop offset="0.51" stop-color="#E2C8A8"/>
<stop offset="0.64" stop-color="#D6B695"/>
<stop offset="0.78" stop-color="#C49C7B"/>
<stop offset="1" stop-color="#A57D66"/>
</linearGradient>
<linearGradient id="paint3_linear_3_2" x1="23.7327" y1="-117.148" x2="534.488" y2="411.068" gradientUnits="userSpaceOnUse">
<stop stop-color="#C49C7B"/>
<stop offset="0.07" stop-color="#CFAC8B"/>
<stop offset="0.18" stop-color="#DCBF9F"/>
<stop offset="0.3" stop-color="#E4CBAB"/>
<stop offset="0.41" stop-color="#E7CFAF"/>
<stop offset="0.51" stop-color="#E2C8A8"/>
<stop offset="0.64" stop-color="#D6B695"/>
<stop offset="0.78" stop-color="#C49C7B"/>
<stop offset="1" stop-color="#A57D66"/>
</linearGradient>
</defs>
</svg>
