<svg width="168" height="129" viewBox="0 0 168 129" fill="none" xmlns="http://www.w3.org/2000/svg">
<path d="M151.617 85.8347C160.323 61.9915 148.053 35.6049 124.209 26.8984C100.366 18.192 73.9797 30.4626 65.2732 54.3058C56.5668 78.1489 68.8374 104.536 92.6805 113.242C116.524 121.948 142.91 109.678 151.617 85.8347Z" stroke="#AD8955" stroke-width="2.82" stroke-miterlimit="10"/>
<path d="M140.93 55.3305C143.711 61.71 144.539 68.7708 143.307 75.6205C142.076 82.4702 138.841 88.8016 134.012 93.8129C129.182 98.8242 122.976 102.291 116.176 103.775C109.377 105.259 102.29 104.693 95.8119 102.15C89.3338 99.6064 83.7553 95.1994 79.7818 89.4858C75.8083 83.7721 73.6183 77.0085 73.4885 70.0502C73.3588 63.0919 75.2953 56.2508 79.0531 50.393C82.8108 44.5352 88.2211 39.9232 94.6 37.1401C103.156 33.4099 112.843 33.2309 121.531 36.642C130.22 40.0531 137.197 46.7755 140.93 55.3305Z" stroke="#AD8955" stroke-width="2.82" stroke-miterlimit="10"/>
<path d="M84.7901 108.679C79.4266 115.785 72.1162 121.182 63.7458 124.215C55.3753 127.249 46.3046 127.788 37.6339 125.767C28.9632 123.747 21.0652 119.253 14.898 112.832C8.73086 106.411 4.55956 98.3385 2.89015 89.5934C1.22075 80.8483 2.12498 71.8064 5.49316 63.5651C8.86135 55.3238 14.5487 48.2373 21.8654 43.1647C29.182 38.0921 37.8134 35.2515 46.7125 34.9879C55.6117 34.7244 64.3961 37.0486 72 41.6793" stroke="#AD8955" stroke-width="2.82" stroke-miterlimit="10"/>
<path d="M80.5 48.2998C87.0204 54.764 91.4571 63.0321 93.2393 72.0391C95.0214 81.046 94.0674 90.3797 90.5 98.8398" stroke="#AD8955" stroke-width="2.82" stroke-miterlimit="10"/>
<path d="M76.3203 102.06C72.229 107.517 66.6398 111.669 60.2326 114.008C53.8254 116.347 46.8765 116.774 40.2312 115.236C33.5859 113.699 27.5306 110.264 22.8021 105.348C18.0736 100.432 14.8756 94.248 13.5972 87.548C12.3188 80.848 13.0152 73.921 15.6015 67.6095C18.1878 61.298 22.5527 55.8735 28.165 51.9972C33.7773 48.1209 40.3952 45.9597 47.2136 45.7755C54.032 45.5914 60.7569 47.3923 66.5703 50.9601" stroke="#AD8955" stroke-width="2.82" stroke-miterlimit="10"/>
<path d="M75.2305 58.46C78.9812 62.9815 81.5438 68.3682 82.6858 74.1309C83.8279 79.8935 83.5133 85.8497 81.7705 91.46" stroke="#AD8955" stroke-width="2.82" stroke-miterlimit="10"/>
<path d="M78.0797 6.79004L74.6396 17.5303L85.0797 29.54" stroke="#AD8955" stroke-width="2.82" stroke-linecap="round" stroke-linejoin="round"/>
<path d="M84.2297 13.3496L102.74 5.28027L89.7297 1.70996L80.8398 5.58008L71.9498 9.45996L65.7197 21.4199L84.2297 13.3496Z" stroke="#AD8955" stroke-width="2.82" stroke-linecap="round" stroke-linejoin="round"/>
<path d="M99.4398 23.9805L102.74 5.28027L84.2297 13.3496L65.7197 21.4199L81.6597 31.7305" stroke="#AD8955" stroke-width="2.82" stroke-linecap="round" stroke-linejoin="round"/>
<path d="M83.6104 4.37988L93.8204 9.16992L95.5104 25" stroke="#AD8955" stroke-width="2.82" stroke-linecap="round" stroke-linejoin="round"/>
</svg>
