<svg width="969" height="397" viewBox="0 0 969 397" fill="none" xmlns="http://www.w3.org/2000/svg">
<path d="M691.79 246C690.67 237.173 688.307 230.643 684.7 226.41C680.854 222.063 675.63 220.26 669.03 221C664.177 221.633 658.767 223.967 652.8 228C646.553 232.271 640.715 237.112 635.36 242.46C628.7 249.172 622.407 256.239 616.51 263.63C609.61 272.15 603.517 279.987 598.23 287.14C592.944 294.293 587.004 302.657 580.41 312.23C581.78 309.62 583.02 307.13 584.15 304.77C591.576 288.847 599.858 273.338 608.96 258.31L610.08 257.2C622.64 245.627 631.64 237.073 637.08 231.54C642.52 226.007 645.94 221.747 647.34 218.76V218.39C647.678 217.559 647.868 216.676 647.9 215.78C647.846 215.363 647.7 214.964 647.473 214.609C647.247 214.255 646.946 213.955 646.59 213.73C645.104 212.61 642.617 212.483 639.13 213.35C635.196 214.244 631.484 215.928 628.22 218.3C624.519 220.876 621.109 223.846 618.05 227.16C614.424 231.186 611.117 235.489 608.16 240.03C604.68 245.263 601.54 250.333 598.74 255.24C595.94 260.147 592.737 266.023 589.13 272.87C581.464 279.955 573.332 286.519 564.79 292.52C557.77 297.307 551.104 300.137 544.79 301.01H543.3C543.127 301.108 542.937 301.173 542.74 301.2H541.99C537.908 301.385 533.835 300.682 530.05 299.14C525.482 297.292 521.419 294.382 518.2 290.65C514.55 286.656 512.293 281.586 511.77 276.2C510.65 267.24 512.204 259.683 516.43 253.53C520.657 247.377 525.99 243.863 532.43 242.99C540.764 241.99 547.914 244.167 553.88 249.52C555.446 250.85 556.795 252.416 557.88 254.16C558.332 254.907 558.707 255.698 559 256.52C559.22 257.14 559.22 258.07 559.92 258.39C560.46 258.64 561.68 258.71 561.92 258.04C562.3 257.18 561.4 255.29 561.07 254.5C559.843 251.79 558.013 249.396 555.72 247.5C549.12 241.66 541.22 239.297 532.02 240.41C523.56 241.53 516.254 245.48 510.1 252.26C507.139 255.366 504.921 259.104 503.613 263.192C502.305 267.28 501.942 271.612 502.55 275.86C503.003 280.122 504.381 284.234 506.588 287.908C508.796 291.582 511.779 294.73 515.33 297.13C522.717 302.35 531.64 304.59 542.1 303.85H543.22C543.833 303.708 544.462 303.644 545.09 303.66C555.41 302.293 568.84 294.27 585.38 279.59C584.014 282.33 582.957 284.383 582.21 285.75C581.151 288.11 579.969 290.413 578.67 292.65C573.07 303.23 568.56 311.627 565.14 317.84C561.72 324.053 556.84 331.92 550.5 341.44C544.917 349.968 538.675 358.046 531.83 365.6C531.833 365.625 531.831 365.65 531.823 365.674C531.815 365.698 531.802 365.719 531.785 365.737C531.768 365.755 531.747 365.769 531.724 365.779C531.7 365.788 531.675 365.792 531.65 365.79C530.157 368.15 530.407 370.45 532.4 372.69C532.784 373.103 533.248 373.432 533.764 373.657C534.28 373.883 534.837 373.999 535.4 374C536.182 373.991 536.95 373.796 537.64 373.43C539.134 372.57 541.994 369.587 546.22 364.48C550.067 360.127 558.587 348.437 571.78 329.41C577.254 321.323 581.587 315.04 584.78 310.56C587.974 306.08 592.544 299.707 598.49 291.44C604.49 283.167 609.527 276.5 613.6 271.44C617.674 266.38 622.557 260.597 628.25 254.09C632.871 248.626 637.855 243.481 643.17 238.69C647.404 234.998 651.928 231.653 656.7 228.69C661.43 225.77 665.7 224.06 669.39 223.56H669.79C671.486 223.404 673.192 223.703 674.733 224.425C676.274 225.147 677.596 226.267 678.56 227.67C680.667 230.53 682.034 234.757 682.66 240.35C683.9 249.93 681.507 262.99 675.48 279.53C668.774 297.391 660.161 314.477 649.79 330.49C638.217 348.65 626.4 363.357 614.34 374.61C602.28 385.863 591.647 392.05 582.44 393.17C577.21 393.79 573.3 393.48 570.68 392.24C567.82 390.873 566.204 388.26 565.83 384.4C565.33 380.3 565.92 375.48 567.6 369.94C569.383 364.188 571.925 358.699 575.16 353.62C578.383 348.329 582.521 343.653 587.38 339.81C591.92 336.33 596.427 334.28 600.9 333.66C602.555 333.537 604.217 333.79 605.76 334.4C606.88 334.9 607.88 336.207 608.76 338.32C609.76 340.44 610.94 341.24 612.31 340.74C613.68 340.24 614.05 339.44 613.8 337.95C613.292 336.64 612.455 335.483 611.37 334.59C610.068 333.433 608.548 332.546 606.9 331.98L606.71 331.79H606.33C604.496 331.064 602.509 330.807 600.55 331.04C595.697 331.673 590.847 333.82 586 337.48C580.771 341.577 576.343 346.604 572.94 352.31C569.538 357.616 566.87 363.358 565.01 369.38C563.21 375.287 562.62 380.42 563.24 384.78C563.734 389.5 565.847 392.733 569.58 394.48C572.073 395.677 574.817 396.253 577.58 396.16C579.254 396.151 580.925 396.025 582.58 395.78C595.14 394.287 608.17 388.163 621.67 377.41C635.17 366.657 647.95 352.26 660.01 334.22C670.344 319.245 678.713 303.006 684.91 285.9C690.71 269.6 693.004 256.3 691.79 246ZM644.79 217.09H644.97V217.64C644.945 217.638 644.921 217.642 644.897 217.651C644.874 217.661 644.853 217.675 644.836 217.693C644.819 217.711 644.806 217.733 644.798 217.756C644.79 217.78 644.787 217.805 644.79 217.83C642.917 222.063 632.717 232.76 614.19 249.92C627.584 228.76 637.784 217.807 644.79 217.06V217.09Z" fill="#AD8955"/>
<path d="M783.35 323.77L784.35 324.61C784.513 324.712 784.651 324.849 784.756 325.01C784.86 325.172 784.928 325.354 784.955 325.545C784.982 325.735 784.966 325.93 784.91 326.114C784.854 326.298 784.758 326.467 784.63 326.61C777.338 335.779 768.648 343.743 758.88 350.21C749.18 356.61 740.473 360.87 732.76 362.99H732.58C732.048 363.217 731.478 363.343 730.9 363.36C729.068 363.823 727.189 364.074 725.3 364.11C720.566 364.11 718.203 360.877 718.21 354.41C718.205 351.325 718.581 348.252 719.33 345.26C708.256 355.96 699.3 362.117 692.46 363.73H692.28C692.283 363.756 692.28 363.782 692.272 363.806C692.263 363.831 692.25 363.853 692.231 363.872C692.213 363.89 692.191 363.904 692.166 363.912C692.142 363.921 692.115 363.923 692.09 363.92C691.349 364.038 690.6 364.101 689.85 364.11C688.698 364.145 687.556 363.888 686.529 363.364C685.503 362.839 684.626 362.064 683.98 361.11C682.453 358.793 681.7 356.052 681.83 353.28C681.83 348.547 683.943 343.26 688.17 337.42C692.417 331.547 697.713 326.51 703.79 322.56C709.95 318.52 715.516 316.497 720.49 316.49C726.49 316.49 730.283 318.977 731.87 323.95C735.35 320.85 738.146 319.297 740.26 319.29C741.163 319.226 742.07 319.341 742.928 319.629C743.786 319.918 744.579 320.373 745.26 320.97C745.989 321.798 746.388 322.866 746.38 323.97C746.26 324.97 744.76 326.65 741.9 328.97C739.79 330.84 738.04 332.42 736.68 333.73C734.894 335.519 733.224 337.419 731.68 339.42C729.671 341.945 728.155 344.825 727.21 347.91C726.183 351.263 725.677 354.754 725.71 358.26C725.699 358.643 725.778 359.023 725.939 359.37C726.1 359.717 726.34 360.021 726.64 360.26C727.64 361.01 729.38 361.08 731.87 360.45L732.05 360.26C739.523 358.4 747.983 354.33 757.43 348.05C766.985 341.666 775.485 333.828 782.62 324.82L783.35 323.77ZM721.22 339.77C723.135 334.797 725.987 330.238 729.62 326.34V326.15C729.328 325.327 728.994 324.519 728.62 323.73C728.128 322.908 727.441 322.221 726.62 321.73C725.571 321.04 724.334 320.691 723.08 320.73C720.22 320.73 716.116 322.813 710.77 326.98C705.124 331.466 700.159 336.748 696.03 342.66C691.55 348.94 689.31 354.567 689.31 359.54C689.248 360.067 689.384 360.597 689.69 361.03C690.399 361.321 691.181 361.387 691.93 361.22C695.263 360.353 699.553 357.99 704.8 354.13C710.62 349.769 716.108 344.983 721.22 339.81V339.77Z" fill="#AD8955"/>
<path d="M913.95 262.2C920.404 262.16 926.853 262.568 933.25 263.42C938.06 264.012 942.806 265.04 947.43 266.49C950.786 267.594 954.009 269.067 957.04 270.88C959.319 272.188 961.394 273.822 963.2 275.73C964.503 277.191 965.6 278.823 966.46 280.58C967.12 281.848 967.624 283.191 967.96 284.58C968.133 285.504 968.224 286.44 968.23 287.38C968.246 287.561 968.224 287.743 968.166 287.915C968.108 288.087 968.014 288.245 967.891 288.379C967.769 288.513 967.619 288.62 967.453 288.693C967.287 288.767 967.107 288.804 966.925 288.804C966.744 288.804 966.564 288.767 966.398 288.693C966.232 288.62 966.082 288.513 965.96 288.379C965.837 288.245 965.743 288.087 965.685 287.915C965.627 287.743 965.605 287.561 965.62 287.38C965.611 286.055 965.426 284.737 965.07 283.46C964.69 282.09 963.51 280.23 961.52 277.86C959.269 275.294 956.555 273.173 953.52 271.61C950.17 269.81 945.06 268.23 938.23 266.86C930.231 265.407 922.11 264.737 913.98 264.86C904.31 264.923 894.652 265.575 885.06 266.81C874.48 268.143 865.93 269.42 859.41 270.64C852.89 271.86 844.017 273.587 832.79 275.82C828.19 276.82 825.64 277.38 825.14 277.5C821.04 282.347 817.124 287.447 813.39 292.8C802.969 306.993 794.029 322.215 786.71 338.23C779.99 353.217 776.63 365.25 776.63 374.33C776.63 376.19 777.13 377.44 778.12 378.06C779.11 378.68 780.86 378.68 782.98 377.69C783.124 377.676 783.256 377.609 783.35 377.5C790.07 374.26 800.237 365.99 813.85 352.69C827.464 339.39 835.894 330.187 839.14 325.08C839.218 324.914 839.332 324.767 839.474 324.65C839.616 324.534 839.781 324.45 839.959 324.405C840.137 324.36 840.323 324.355 840.503 324.39C840.683 324.426 840.853 324.501 841 324.61C841.166 324.677 841.312 324.784 841.427 324.921C841.541 325.059 841.62 325.222 841.656 325.396C841.693 325.571 841.686 325.753 841.636 325.924C841.586 326.096 841.495 326.252 841.37 326.38C838.137 331.6 829.68 340.933 816 354.38C802.32 367.827 791.75 376.343 784.29 379.93L784.1 380.12C783.72 380.24 783.29 380.37 782.79 380.49C781.691 381.051 780.484 381.371 779.25 381.43C772.664 381.43 769.367 376.703 769.36 367.25C769.36 357.917 772.314 346.287 778.22 332.36C784.62 317.547 792.596 303.465 802.01 290.36C804.37 287.127 806.857 283.833 809.47 280.48C799.27 282.34 791.06 283.27 784.84 283.27C775.64 283.27 768.584 281.063 763.67 276.65C758.757 272.237 756.237 266.983 756.11 260.89C756.095 260.709 756.117 260.527 756.175 260.355C756.233 260.183 756.327 260.025 756.45 259.891C756.572 259.757 756.722 259.65 756.888 259.577C757.054 259.503 757.234 259.466 757.415 259.466C757.597 259.466 757.777 259.503 757.943 259.577C758.109 259.65 758.259 259.757 758.381 259.891C758.504 260.025 758.598 260.183 758.656 260.355C758.714 260.527 758.736 260.709 758.72 260.89C758.726 263.269 759.234 265.62 760.21 267.79C761.293 270.143 762.778 272.289 764.6 274.13C766.89 276.335 769.669 277.966 772.71 278.89C776.631 280.134 780.728 280.732 784.84 280.66C791.427 280.66 800.444 279.603 811.89 277.49C824.557 261.57 837.184 249.193 849.77 240.36C851.889 238.652 854.434 237.556 857.13 237.19C859.56 236.95 861.08 237.44 861.71 238.68C862.95 240.3 862.204 242.107 859.47 244.1C849.144 251.813 838.634 261.813 827.94 274.1C828.379 274.091 828.816 274.03 829.24 273.92C829.74 273.79 830.24 273.67 830.83 273.54C831.29 273.433 831.759 273.372 832.23 273.36C843.564 271 852.487 269.197 859 267.95C865.514 266.703 874.097 265.427 884.75 264.12C894.436 262.892 904.187 262.251 913.95 262.2Z" fill="#AD8955"/>
<path d="M914.04 325C914.174 325.118 914.277 325.268 914.338 325.436C914.398 325.605 914.416 325.786 914.388 325.962C914.36 326.139 914.287 326.306 914.178 326.447C914.068 326.588 913.924 326.699 913.76 326.77C881.907 351.65 858.907 364.09 844.76 364.09H844.2C840.036 363.994 836.08 362.249 833.2 359.24C830.1 356.133 828.547 351.467 828.54 345.24C828.54 338.153 831.647 331.593 837.86 325.56C844.073 319.527 850.853 316.51 858.2 316.51C860.639 316.395 863.053 317.049 865.1 318.38C865.912 318.9 866.578 319.618 867.037 320.467C867.495 321.315 867.73 322.266 867.72 323.23C867.716 323.858 867.652 324.484 867.53 325.1C866.9 327.71 865.17 330.44 862.31 333.3C855.939 339.656 847.566 343.613 838.61 344.5C838.119 346.703 837.867 348.953 837.86 351.21C837.86 358.063 840.163 361.487 844.77 361.48C858.317 361.48 880.827 349.227 912.3 324.72C912.427 324.61 912.577 324.529 912.738 324.483C912.9 324.438 913.069 324.427 913.235 324.454C913.401 324.481 913.559 324.544 913.698 324.638C913.837 324.732 913.954 324.856 914.04 325ZM859.65 320.8C856.317 320.8 852.493 322.76 848.18 326.68C843.83 330.734 840.71 335.933 839.18 341.68C847.241 340.814 854.755 337.19 860.45 331.42C862.943 328.927 864.437 326.627 864.93 324.52C865.061 324.145 865.095 323.743 865.029 323.351C864.962 322.959 864.798 322.591 864.55 322.28C863.63 321.28 862.02 320.78 859.65 320.78V320.8Z" fill="#AD8955"/>
<path d="M497.38 185.92C499.199 185.907 501.017 186.02 502.82 186.26C504.177 186.422 505.516 186.71 506.82 187.12C507.763 187.433 508.668 187.849 509.52 188.36C510.163 188.73 510.749 189.192 511.26 189.73C511.624 190.142 511.933 190.599 512.18 191.09C512.363 191.45 512.503 191.829 512.6 192.22C512.649 192.481 512.676 192.745 512.68 193.01C512.687 193.06 512.681 193.111 512.665 193.159C512.649 193.207 512.622 193.25 512.586 193.286C512.55 193.322 512.507 193.349 512.459 193.365C512.411 193.382 512.36 193.386 512.31 193.38C512.259 193.389 512.208 193.385 512.159 193.37C512.11 193.354 512.065 193.327 512.029 193.291C511.993 193.255 511.966 193.21 511.95 193.161C511.935 193.112 511.931 193.061 511.94 193.01C511.938 192.638 511.884 192.267 511.78 191.91C511.559 191.32 511.218 190.782 510.78 190.33C510.144 189.607 509.377 189.01 508.52 188.57C507.154 187.922 505.703 187.471 504.21 187.23C501.958 186.812 499.67 186.618 497.38 186.65C494.655 186.671 491.933 186.855 489.23 187.2C486.25 187.573 483.84 187.933 482 188.28C480.16 188.627 477.663 189.117 474.51 189.75L472.35 190.23C471.2 191.59 470.09 193.03 469.04 194.54C466.102 198.538 463.582 202.827 461.52 207.34C459.627 211.56 458.68 214.95 458.68 217.51C458.66 217.699 458.689 217.889 458.762 218.064C458.836 218.238 458.952 218.392 459.1 218.51C459.42 218.73 459.87 218.69 460.47 218.41C460.508 218.406 460.544 218.388 460.57 218.36C462.47 217.453 465.337 215.12 469.17 211.36C473.003 207.6 475.38 205.003 476.3 203.57C476.322 203.524 476.355 203.484 476.394 203.451C476.434 203.419 476.48 203.396 476.53 203.384C476.579 203.371 476.631 203.37 476.681 203.38C476.731 203.39 476.779 203.41 476.82 203.44C476.867 203.459 476.908 203.489 476.941 203.527C476.973 203.566 476.996 203.612 477.007 203.661C477.018 203.71 477.016 203.761 477.003 203.81C476.99 203.859 476.965 203.903 476.93 203.94C476.01 205.407 473.627 208.037 469.78 211.83C465.933 215.623 462.953 218.023 460.84 219.03H460.78L460.42 219.14C460.107 219.293 459.767 219.381 459.42 219.4C457.56 219.4 456.63 218.067 456.63 215.4C456.821 211.989 457.67 208.648 459.13 205.56C460.936 201.389 463.182 197.423 465.83 193.73C466.5 192.82 467.2 191.89 467.94 190.95C465.653 191.409 463.331 191.674 461 191.74C458.836 191.891 456.695 191.224 455 189.87C454.347 189.326 453.819 188.648 453.451 187.882C453.084 187.116 452.886 186.28 452.87 185.43C452.861 185.379 452.865 185.327 452.88 185.279C452.896 185.23 452.923 185.185 452.959 185.149C452.995 185.113 453.04 185.086 453.089 185.07C453.137 185.055 453.189 185.051 453.24 185.06C453.29 185.054 453.341 185.058 453.389 185.075C453.437 185.091 453.48 185.118 453.516 185.154C453.552 185.19 453.579 185.233 453.595 185.281C453.611 185.329 453.617 185.38 453.61 185.43C453.611 186.099 453.755 186.76 454.03 187.37C454.332 188.034 454.748 188.64 455.26 189.16C455.906 189.783 456.691 190.242 457.55 190.5C458.655 190.851 459.81 191.019 460.97 191C463.531 190.92 466.08 190.622 468.59 190.11C471.634 186.134 475.226 182.608 479.26 179.64C479.86 179.161 480.579 178.854 481.34 178.75C482.007 178.683 482.437 178.823 482.63 179.17C482.98 179.63 482.77 180.17 482 180.7C478.745 183.197 475.765 186.033 473.11 189.16C473.235 189.156 473.359 189.14 473.48 189.11L473.93 189C474.06 188.988 474.19 188.988 474.32 189C477.51 188.33 480.02 187.83 481.86 187.47C483.7 187.11 486.12 186.77 489.12 186.4C491.861 186.071 494.619 185.911 497.38 185.92Z" fill="#AD8955"/>
<path d="M503.29 203.5C503.334 203.529 503.372 203.567 503.4 203.611C503.429 203.655 503.447 203.705 503.455 203.757C503.462 203.809 503.459 203.862 503.444 203.913C503.43 203.963 503.404 204.01 503.37 204.05C500.737 207.557 498.477 210.353 496.59 212.44C495.135 214.106 493.529 215.632 491.79 217C489.577 218.653 487.754 219.477 486.32 219.47C486.037 219.471 485.755 219.438 485.48 219.37C485.065 219.247 484.684 219.03 484.365 218.737C484.046 218.444 483.798 218.083 483.64 217.68C483.46 217.176 483.372 216.645 483.38 216.11C483.38 215.516 483.44 214.922 483.56 214.34C483.722 213.659 483.933 212.991 484.19 212.34C484.49 211.58 484.77 210.93 485.04 210.34C485.31 209.75 485.66 209.1 486.11 208.34L487.11 206.58C487.34 206.2 487.66 205.67 488.11 205C488.74 204 489.11 203.37 489.22 203.16C488.87 202.88 488.16 202.9 487.11 203.22C484.444 204.48 480.377 208.147 474.91 214.22C474.835 214.411 474.706 214.577 474.539 214.697C474.373 214.817 474.175 214.888 473.97 214.9C473.901 214.914 473.83 214.914 473.76 214.9C473.552 214.849 473.363 214.741 473.214 214.587C473.065 214.433 472.963 214.24 472.92 214.03C472.739 213.42 472.739 212.77 472.92 212.16C473.842 208.724 475.185 205.416 476.92 202.31C478.93 198.491 481.272 194.857 483.92 191.45C485.04 190.05 486.187 188.717 487.36 187.45C488.54 186.17 489.91 184.83 491.49 183.45C492.991 182.106 494.674 180.982 496.49 180.11C498.044 179.331 499.753 178.91 501.49 178.88C503.73 178.88 504.85 179.897 504.85 181.93C504.85 183.717 503.85 185.687 501.85 187.84C499.486 190.28 496.732 192.307 493.7 193.84C490.255 195.717 486.547 197.065 482.7 197.84C479.614 202.407 477.171 207.377 475.44 212.61C480.42 207.137 484.19 203.803 486.75 202.61C487.4 202.267 488.116 202.069 488.85 202.03C489.325 202.02 489.797 202.102 490.24 202.27C490.609 202.403 490.937 202.631 491.19 202.93C491.413 203.192 491.534 203.526 491.53 203.87C491.231 204.729 490.788 205.53 490.22 206.24C489.38 207.5 488.71 208.54 488.22 209.34C487.605 210.395 487.07 211.495 486.62 212.63C486.109 213.726 485.813 214.912 485.75 216.12C485.75 217.39 486.41 218.02 487.75 218.02C489.003 217.896 490.19 217.401 491.16 216.6L491.27 216.49C494.07 214.417 497.89 210.123 502.73 203.61C502.92 203.37 503.1 203.34 503.29 203.5ZM501.58 180.5C499.234 180.5 496.377 182.07 493.01 185.21C489.333 188.721 486.071 192.643 483.29 196.9C486.887 196.133 490.352 194.84 493.57 193.06C496.409 191.582 498.992 189.658 501.22 187.36C503.07 185.36 504 183.53 504 181.92C503.99 181.717 503.93 181.519 503.825 181.345C503.721 181.171 503.575 181.025 503.4 180.92C502.852 180.593 502.216 180.446 501.58 180.5Z" fill="#AD8955"/>
<path d="M523.9 203.61C523.938 203.644 523.967 203.686 523.984 203.733C524.001 203.781 524.005 203.832 523.997 203.882C523.99 203.932 523.969 203.979 523.938 204.019C523.907 204.059 523.867 204.09 523.82 204.11C514.847 211.117 508.364 214.62 504.37 214.62H504.21C503.629 214.607 503.055 214.48 502.523 214.245C501.991 214.009 501.511 213.671 501.11 213.25C500.639 212.715 500.28 212.09 500.055 211.413C499.83 210.736 499.743 210.021 499.8 209.31C499.829 208.254 500.077 207.215 500.528 206.26C500.979 205.305 501.623 204.454 502.42 203.76C503.16 202.978 504.047 202.35 505.03 201.913C506.014 201.475 507.074 201.236 508.15 201.21C508.84 201.178 509.522 201.363 510.1 201.74C510.329 201.888 510.516 202.091 510.646 202.33C510.775 202.57 510.842 202.838 510.84 203.11C510.84 203.285 510.82 203.459 510.78 203.63C510.516 204.525 510.007 205.329 509.31 205.95C507.516 207.736 505.16 208.849 502.64 209.1C502.498 209.72 502.424 210.354 502.42 210.99C502.42 212.92 503.07 213.89 504.42 213.89C508.24 213.89 514.574 210.437 523.42 203.53C523.456 203.5 523.497 203.478 523.542 203.466C523.586 203.454 523.633 203.452 523.679 203.459C523.724 203.467 523.768 203.484 523.806 203.51C523.844 203.536 523.876 203.57 523.9 203.61ZM508.58 202.42C507.335 202.564 506.184 203.154 505.34 204.08C504.108 205.221 503.224 206.688 502.79 208.31C505.064 208.068 507.183 207.046 508.79 205.42C509.377 204.898 509.813 204.228 510.05 203.48C510.087 203.373 510.096 203.258 510.076 203.146C510.057 203.034 510.01 202.929 509.94 202.84C509.756 202.679 509.539 202.558 509.305 202.486C509.071 202.413 508.824 202.391 508.58 202.42Z" fill="#AD8955"/>
<path d="M488.07 118C487.483 117.28 486.863 117.18 486.21 117.7C453.17 143.44 429.53 156.307 415.29 156.3C410.456 156.3 408.04 152.707 408.04 145.52C408.049 143.165 408.314 140.818 408.83 138.52C418.232 137.596 427.023 133.444 433.71 126.77C436.71 123.757 438.54 120.883 439.2 118.15C439.324 117.491 439.388 116.821 439.39 116.15C439.4 115.138 439.155 114.139 438.676 113.248C438.196 112.356 437.5 111.6 436.65 111.05C434.502 109.641 431.966 108.941 429.4 109.05C422.24 109.05 415.6 111.82 409.46 117.28H399.23C385.376 117.413 376.043 117.283 371.23 116.89C371.406 115.9 371.375 114.884 371.14 113.906C370.904 112.929 370.468 112.011 369.86 111.21C369.267 110.496 368.517 109.93 367.669 109.555C366.82 109.181 365.896 109.008 364.97 109.05C364.198 109.048 363.435 109.203 362.726 109.508C362.018 109.812 361.379 110.259 360.85 110.82C360.377 111.24 359.994 111.752 359.724 112.324C359.455 112.897 359.303 113.518 359.28 114.15C359.294 114.631 359.407 115.104 359.609 115.541C359.812 115.977 360.102 116.368 360.46 116.69C361.626 117.87 364.11 118.72 367.91 119.24C365.833 125.847 362.934 132.167 359.28 138.05C354.134 147.392 347.742 155.991 340.28 163.61C333.1 170.863 326.636 174.49 320.89 174.49C319.323 174.49 318.54 172.923 318.54 169.79C318.54 159.343 324.54 145.17 336.54 127.27C338.113 125.05 338.896 123.68 338.89 123.16C338.913 122.382 338.778 121.608 338.492 120.885C338.207 120.161 337.777 119.503 337.23 118.95C336.664 118.404 335.995 117.976 335.262 117.691C334.528 117.406 333.746 117.27 332.96 117.29L332.23 116.69L331.55 117.69C330.016 118.711 328.664 119.982 327.55 121.45C326.237 123.028 325.012 124.678 323.88 126.39C318.186 132.335 311.862 137.643 305.02 142.22C295.1 148.82 286.22 153.097 278.38 155.05L278.18 155.25C275.57 155.9 273.74 155.84 272.7 155.05C272.373 154.798 272.112 154.471 271.938 154.097C271.764 153.723 271.682 153.312 271.7 152.9C271.665 149.219 272.191 145.553 273.26 142.03C274.259 138.788 275.856 135.763 277.97 133.11C279.6 130.999 281.363 128.995 283.25 127.11C284.69 125.737 286.52 124.07 288.74 122.11C291.74 119.63 293.306 117.867 293.44 116.82C293.446 115.666 293.03 114.549 292.27 113.68C291.549 113.051 290.71 112.571 289.801 112.269C288.893 111.967 287.934 111.848 286.98 111.92C284.76 111.92 281.82 113.553 278.16 116.82C276.46 111.6 272.476 108.987 266.21 108.98C260.99 108.98 255.146 111.103 248.68 115.35C242.312 119.518 236.766 124.823 232.32 131C227.88 137.14 225.66 142.69 225.66 147.65C225.523 150.562 226.311 153.443 227.91 155.88C228.592 156.879 229.515 157.689 230.594 158.236C231.672 158.783 232.871 159.049 234.08 159.01C234.867 159.003 235.653 158.936 236.43 158.81C236.57 158.81 236.63 158.75 236.63 158.62H236.83C244.01 156.92 253.413 150.453 265.04 139.22C264.252 142.359 263.855 145.583 263.86 148.82C263.86 155.62 266.343 159.017 271.31 159.01C273.29 158.973 275.259 158.711 277.18 158.23C277.79 158.212 278.391 158.076 278.95 157.83H279.14C287.24 155.617 296.383 151.147 306.57 144.42C310.879 141.541 314.992 138.377 318.88 134.95C316.925 139.003 315.329 143.219 314.11 147.55C312.404 153.242 311.511 159.148 311.46 165.09C311.308 168.243 312.243 171.354 314.11 173.9C314.892 174.951 315.912 175.802 317.088 176.381C318.263 176.96 319.56 177.251 320.87 177.23C327.403 177.23 334.356 173.507 341.73 166.06C349.47 158.142 356.152 149.255 361.61 139.62C366.05 131.78 369.05 125.113 370.61 119.62C375.443 120.153 384.976 120.35 399.21 120.21C402.01 120.14 404.45 120.09 406.57 120.06C401.04 125.98 398.23 132.36 398.23 139.21C398.23 145.743 399.863 150.643 403.13 153.91C406.157 157.07 410.315 158.9 414.69 159H415.27C430.156 159 454.32 145.94 487.76 119.82C487.926 119.745 488.072 119.631 488.184 119.487C488.296 119.343 488.371 119.173 488.401 118.993C488.432 118.813 488.418 118.628 488.36 118.455C488.302 118.282 488.202 118.125 488.07 118ZM267 133.57C261.641 139.003 255.889 144.033 249.79 148.62C244.296 152.673 239.79 155.153 236.27 156.06C235.485 156.234 234.666 156.168 233.92 155.87C233.599 155.413 233.456 154.855 233.52 154.3C233.52 149.08 235.873 143.17 240.58 136.57C244.916 130.366 250.126 124.822 256.05 120.11C261.67 115.743 265.983 113.557 268.99 113.55C270.311 113.518 271.611 113.896 272.71 114.63C273.543 115.123 274.246 115.809 274.76 116.63C275.163 117.461 275.523 118.312 275.84 119.18V119.38C272.007 123.482 269.005 128.287 267 133.53V133.57ZM362.4 114.77C362.14 114.51 362.01 114.31 362.01 114.18C362.085 113.64 362.364 113.15 362.79 112.81C363.063 112.505 363.395 112.259 363.766 112.087C364.138 111.915 364.541 111.821 364.95 111.81C365.468 111.755 365.992 111.834 366.472 112.039C366.951 112.244 367.371 112.568 367.69 112.98C368.402 114.009 368.682 115.277 368.47 116.51C365.21 116.1 363.18 115.51 362.4 114.73V114.77ZM430.97 113.59C433.44 113.59 435.14 114.12 436.06 115.16C436.318 115.487 436.489 115.874 436.557 116.285C436.625 116.696 436.588 117.117 436.45 117.51C435.93 119.73 434.36 122.14 431.75 124.76C425.772 130.819 417.883 134.624 409.42 135.53C411.026 129.479 414.321 124.009 418.92 119.76C423.42 115.62 427.436 113.55 430.97 113.55V113.59Z" fill="#AD8955"/>
<path d="M262.79 5.11003C261.867 3.65995 260.488 2.55859 258.87 1.98003C257.568 1.48919 256.231 1.09814 254.87 0.810105C253.508 0.585644 252.129 0.485184 250.75 0.510056L249.97 0.319993C244.476 0.193326 237.553 1.72676 229.2 4.92009C220.874 8.09739 213.278 12.9277 206.87 19.12C195.376 30.0867 189.63 43.67 189.63 59.87C189.63 64.4434 189.76 69.0801 190.02 73.7801C167.02 85.4801 142.67 93.78 116.67 93.58C97.4098 93.39 77.9298 90.41 59.8998 83.5C51.8741 80.4434 44.2217 76.4846 37.0898 71.7C29.9663 66.9228 23.4807 61.2572 17.7898 54.84C11.6077 47.627 6.52608 39.5395 2.7098 30.84C1.7998 28.84 0.929805 26.84 0.0498047 24.84V31.72C0.589805 32.93 1.11981 34.15 1.68981 35.35C5.67878 43.7696 10.8994 51.5484 17.1798 58.4301C22.3528 64.0725 28.1538 69.1052 34.4698 73.4301C40.4833 77.5258 46.872 81.0416 53.5498 83.9301C59.8984 86.6723 66.4433 88.9351 73.1298 90.7C79.3239 92.3341 85.6079 93.6064 91.9498 94.5101C97.4998 95.3201 103.1 95.8501 108.71 96.1501C111.98 96.3201 115.26 96.4001 118.53 96.4001C144.01 96.4001 167.63 88.2101 190.2 76.9301C190.593 82.5368 191.376 90.7634 192.55 101.61C194.51 120.55 195.49 136.217 195.49 148.61C195.518 155.807 193.696 162.89 190.2 169.18C186.921 175.301 182.421 180.686 176.98 185C171.914 188.979 166.346 192.274 160.42 194.8C155.46 197.01 150.162 198.363 144.75 198.8H143.75C136.606 198.78 129.565 197.103 123.18 193.9C116.541 190.662 110.817 185.815 106.53 179.8C102.144 173.844 99.8077 166.626 99.8698 159.23C99.7298 151.13 101.556 144.11 105.35 138.17C108.731 132.598 113.573 128.058 119.35 125.04C124.912 122.232 131.04 120.724 137.27 120.63C144.19 120.37 150.07 121.677 154.91 124.55C159.699 127.372 163.313 131.823 165.09 137.09C165.13 137.263 165.209 137.425 165.32 137.563C165.432 137.701 165.574 137.812 165.735 137.887C165.896 137.962 166.072 138 166.249 137.997C166.427 137.994 166.601 137.951 166.76 137.87C166.946 137.832 167.12 137.753 167.271 137.637C167.421 137.522 167.543 137.374 167.628 137.204C167.713 137.035 167.758 136.848 167.76 136.658C167.762 136.469 167.721 136.281 167.64 136.11C165.699 130.287 161.736 125.352 156.47 122.2C151.136 118.94 144.736 117.437 137.27 117.69C132.237 117.944 127.277 119.004 122.58 120.83C117.884 122.659 113.517 125.239 109.65 128.47C105.558 131.972 102.368 136.407 100.35 141.4C98.0047 147.048 96.8375 153.115 96.9198 159.23C96.9973 167.138 99.5308 174.826 104.17 181.23C108.679 187.663 114.74 192.854 121.79 196.32C128.603 199.725 136.113 201.501 143.73 201.51C151.212 201.517 158.644 200.293 165.73 197.89C172.768 195.514 179.357 191.971 185.22 187.41C191.333 182.532 196.174 176.246 199.33 169.09C202.969 160.913 204.774 152.039 204.62 143.09C204.587 127.651 203.642 112.228 201.79 96.9001C200.61 86.5801 199.826 78.22 199.44 71.82C217.44 61.9 232.773 51.2333 245.44 39.82C258.106 28.4067 264.44 19.1667 264.44 12.1V10.9301C264.407 8.87934 263.838 6.87277 262.79 5.11003ZM261.71 12.11C261.71 17.4434 257.14 24.6601 248 33.7601C238.86 42.8601 226.91 52.0334 212.15 61.2801C207.97 63.9001 203.726 66.3834 199.42 68.73C199.28 65.59 199.22 62.46 199.22 59.32C199.22 51.2333 201.553 43.1701 206.22 35.1301C211.007 26.9068 217.75 19.9923 225.85 15C233.971 9.76838 243.429 6.99066 253.09 7.00005C257.78 7.00005 260.66 8.44011 261.7 11.3101L261.71 12.11Z" fill="#AD8955"/>
</svg>
